<svg xmlns="http://www.w3.org/2000/svg" xmlns:xlink="http://www.w3.org/1999/xlink" width="400" zoomAndPan="magnify" viewBox="0 0 300 74.999997" height="100" preserveAspectRatio="xMidYMid meet" version="1.0"><defs><g/></defs><g fill="#000000" fill-opacity="1"><g transform="translate(71.959355, 56.706315)"><g><path d="M 28.578125 -1.46875 C 26.523438 -0.570312 24.441406 0.0664062 22.328125 0.453125 C 20.222656 0.847656 18.226562 1.046875 16.34375 1.046875 C 14.46875 1.046875 12.773438 0.941406 11.265625 0.734375 C 9.765625 0.535156 8.273438 0.191406 6.796875 -0.296875 C 5.316406 -0.796875 4.039062 -1.429688 2.96875 -2.203125 C 0.570312 -3.910156 -0.625 -6.316406 -0.625 -9.421875 C -0.625 -11.273438 -0.195312 -13.003906 0.65625 -14.609375 C 1.519531 -16.210938 2.644531 -17.539062 4.03125 -18.59375 C 6.976562 -20.863281 10.195312 -22 13.6875 -22 C 17.863281 -22 20.972656 -20.769531 23.015625 -18.3125 C 24.023438 -17.070312 24.53125 -15.566406 24.53125 -13.796875 C 24.53125 -12.035156 23.691406 -10.507812 22.015625 -9.21875 C 20.347656 -7.925781 18.585938 -7.28125 16.734375 -7.28125 C 16.296875 -7.28125 16.078125 -7.503906 16.078125 -7.953125 C 16.078125 -8.410156 16.285156 -8.738281 16.703125 -8.9375 C 17.128906 -9.132812 17.632812 -9.320312 18.21875 -9.5 C 18.8125 -9.675781 19.398438 -9.894531 19.984375 -10.15625 C 21.429688 -10.800781 22.15625 -11.851562 22.15625 -13.3125 C 22.15625 -14.78125 21.488281 -15.882812 20.15625 -16.625 C 18.820312 -17.375 16.503906 -17.75 13.203125 -17.75 C 9.910156 -17.75 7.359375 -16.910156 5.546875 -15.234375 C 3.742188 -13.566406 2.84375 -11.578125 2.84375 -9.265625 C 2.84375 -6.222656 4.195312 -4.0625 6.90625 -2.78125 C 9.320312 -1.625 12.210938 -1.046875 15.578125 -1.046875 C 21.359375 -1.046875 26.035156 -2.691406 29.609375 -5.984375 C 32.128906 -8.296875 33.390625 -11.207031 33.390625 -14.71875 C 33.390625 -16.820312 32.640625 -18.863281 31.140625 -20.84375 C 30.492188 -21.71875 29.769531 -22.585938 28.96875 -23.453125 C 28.164062 -24.316406 27.363281 -25.175781 26.5625 -26.03125 C 25.769531 -26.894531 25.050781 -27.757812 24.40625 -28.625 C 22.90625 -30.519531 22.15625 -32.285156 22.15625 -33.921875 C 22.15625 -35.554688 22.421875 -36.96875 22.953125 -38.15625 C 23.492188 -39.34375 24.210938 -40.375 25.109375 -41.25 C 26.003906 -42.125 27.03125 -42.875 28.1875 -43.5 C 30.519531 -44.800781 32.988281 -45.453125 35.59375 -45.453125 C 37.863281 -45.453125 39.972656 -44.90625 41.921875 -43.8125 C 44.066406 -42.632812 45.140625 -40.835938 45.140625 -38.421875 C 45.140625 -37.484375 44.800781 -36.65625 44.125 -35.9375 C 43.457031 -35.21875 42.703125 -34.859375 41.859375 -34.859375 C 41.023438 -34.859375 40.335938 -35.097656 39.796875 -35.578125 C 39.265625 -36.066406 39 -36.609375 39 -37.203125 C 39 -37.804688 39.253906 -38.445312 39.765625 -39.125 C 40.285156 -39.8125 40.546875 -40.378906 40.546875 -40.828125 C 40.546875 -41.285156 40.351562 -41.703125 39.96875 -42.078125 C 39.59375 -42.460938 39.109375 -42.75 38.515625 -42.9375 C 37.335938 -43.289062 36.269531 -43.46875 35.3125 -43.46875 C 33.082031 -43.46875 31.164062 -42.804688 29.5625 -41.484375 C 27.96875 -40.160156 27.171875 -38.320312 27.171875 -35.96875 C 27.171875 -34.6875 27.96875 -33.1875 29.5625 -31.46875 C 30.28125 -30.707031 31.066406 -29.898438 31.921875 -29.046875 C 32.773438 -28.191406 33.628906 -27.28125 34.484375 -26.3125 C 35.347656 -25.351562 36.140625 -24.359375 36.859375 -23.328125 C 38.453125 -21.054688 39.25 -18.703125 39.25 -16.265625 C 39.25 -13.828125 38.765625 -11.617188 37.796875 -9.640625 C 36.828125 -7.671875 35.5625 -6.039062 34 -4.75 C 32.4375 -3.457031 30.628906 -2.363281 28.578125 -1.46875 Z M 28.578125 -1.46875 "/></g></g></g><g fill="#000000" fill-opacity="1"><g transform="translate(112.467254, 56.706315)"><g><path d="M 5.625 0.5 C 4.726562 0.5 4.03125 0.226562 3.53125 -0.3125 C 3.03125 -0.863281 2.78125 -1.613281 2.78125 -2.5625 C 2.78125 -3.519531 3.023438 -4.820312 3.515625 -6.46875 C 4.003906 -8.125 4.492188 -9.625 4.984375 -10.96875 C 5.484375 -12.3125 5.734375 -13.207031 5.734375 -13.65625 C 5.734375 -14.113281 5.585938 -14.34375 5.296875 -14.34375 C 4.554688 -14.34375 3.367188 -12.894531 1.734375 -10 L -0.375 -11.21875 C 2.707031 -16.4375 5.546875 -19.046875 8.140625 -19.046875 C 9.898438 -19.046875 10.78125 -17.929688 10.78125 -15.703125 C 10.78125 -15.046875 10.570312 -14.003906 10.15625 -12.578125 L 7.875 -6.078125 C 7.644531 -5.472656 7.53125 -4.921875 7.53125 -4.421875 C 7.53125 -3.929688 7.722656 -3.6875 8.109375 -3.6875 C 8.816406 -3.6875 10.128906 -5.007812 12.046875 -7.65625 L 13.359375 -6.4375 C 12.234375 -4.332031 10.882812 -2.648438 9.3125 -1.390625 C 7.75 -0.128906 6.519531 0.5 5.625 0.5 Z M 14.59375 -28.359375 C 14.59375 -27.503906 14.304688 -26.726562 13.734375 -26.03125 C 13.171875 -25.34375 12.40625 -25 11.4375 -25 C 10.476562 -25 9.753906 -25.285156 9.265625 -25.859375 C 8.785156 -26.441406 8.546875 -27.171875 8.546875 -28.046875 C 8.546875 -28.929688 8.84375 -29.71875 9.4375 -30.40625 C 10.039062 -31.09375 10.8125 -31.4375 11.75 -31.4375 C 12.695312 -31.4375 13.40625 -31.132812 13.875 -30.53125 C 14.351562 -29.9375 14.59375 -29.210938 14.59375 -28.359375 Z M 14.59375 -28.359375 "/></g></g></g><g fill="#000000" fill-opacity="1"><g transform="translate(126.432999, 56.706315)"><g><path d="M 8.578125 -8.859375 C 12.960938 -15.648438 16.898438 -19.046875 20.390625 -19.046875 C 21.566406 -19.046875 22.445312 -18.6875 23.03125 -17.96875 C 23.625 -17.25 23.921875 -16.34375 23.921875 -15.25 C 23.921875 -14.164062 23.429688 -12.273438 22.453125 -9.578125 C 21.484375 -6.890625 21 -5.222656 21 -4.578125 C 21 -3.941406 21.15625 -3.625 21.46875 -3.625 C 21.882812 -3.625 22.503906 -4.054688 23.328125 -4.921875 C 24.148438 -5.796875 24.875 -6.71875 25.5 -7.6875 L 26.828125 -6.4375 C 25.566406 -4.144531 24.179688 -2.414062 22.671875 -1.25 C 21.171875 -0.0820312 19.953125 0.5 19.015625 0.5 C 18.085938 0.5 17.359375 0.191406 16.828125 -0.421875 C 16.304688 -1.046875 16.046875 -1.894531 16.046875 -2.96875 C 16.046875 -4.039062 16.46875 -5.789062 17.3125 -8.21875 C 18.164062 -10.644531 18.59375 -12.363281 18.59375 -13.375 C 18.59375 -14.394531 18.25 -14.90625 17.5625 -14.90625 C 16.757812 -14.90625 15.8125 -14.394531 14.71875 -13.375 C 13.625 -12.363281 12.5625 -11.117188 11.53125 -9.640625 C 9.894531 -7.285156 8.226562 -4.578125 6.53125 -1.515625 L 5.671875 0 L 1.234375 0 L 2.203125 -2.96875 C 4.035156 -8.425781 4.953125 -11.664062 4.953125 -12.6875 C 4.953125 -13.707031 4.78125 -14.21875 4.4375 -14.21875 C 3.832031 -14.21875 3.109375 -13.492188 2.265625 -12.046875 C 2.078125 -11.703125 1.921875 -11.429688 1.796875 -11.234375 C 1.671875 -11.035156 1.53125 -10.796875 1.375 -10.515625 C 1.21875 -10.234375 1.117188 -10.0625 1.078125 -10 L -1.046875 -11.21875 C 0.597656 -13.882812 2.101562 -15.851562 3.46875 -17.125 C 4.832031 -18.40625 6.226562 -19.046875 7.65625 -19.046875 C 8.3125 -19.046875 8.875 -18.769531 9.34375 -18.21875 C 9.820312 -17.675781 10.0625 -17.015625 10.0625 -16.234375 C 10.0625 -15.453125 9.992188 -14.6875 9.859375 -13.9375 C 9.734375 -13.195312 9.601562 -12.578125 9.46875 -12.078125 C 9.332031 -11.585938 9.15625 -10.953125 8.9375 -10.171875 C 8.71875 -9.398438 8.597656 -8.960938 8.578125 -8.859375 Z M 8.578125 -8.859375 "/></g></g></g><g fill="#000000" fill-opacity="1"><g transform="translate(153.638298, 56.706315)"><g><path d="M 0.125 4.640625 C -0.757812 3.898438 -1.203125 3.210938 -1.203125 2.578125 C -1.203125 1.953125 -0.945312 1.484375 -0.4375 1.171875 L 3.375 -2.578125 C 1.144531 -4.453125 0.03125 -6.695312 0.03125 -9.3125 C 0.03125 -11.925781 1.179688 -14.234375 3.484375 -16.234375 C 5.785156 -18.234375 8.375 -19.234375 11.25 -19.234375 C 11.90625 -19.234375 12.398438 -19.210938 12.734375 -19.171875 C 12.898438 -20.765625 13.679688 -22.269531 15.078125 -23.6875 C 16.484375 -25.101562 18.238281 -25.8125 20.34375 -25.8125 C 22.457031 -25.8125 23.515625 -24.867188 23.515625 -22.984375 C 23.515625 -22.160156 23.273438 -21.507812 22.796875 -21.03125 C 22.328125 -20.5625 21.765625 -20.328125 21.109375 -20.328125 C 20.460938 -20.328125 19.882812 -20.523438 19.375 -20.921875 C 18.875 -21.328125 18.53125 -21.890625 18.34375 -22.609375 C 17.082031 -22.265625 16.066406 -21.71875 15.296875 -20.96875 C 14.535156 -20.226562 14.15625 -19.566406 14.15625 -18.984375 C 15.832031 -18.367188 17.21875 -17.320312 18.3125 -15.84375 C 19.40625 -14.363281 19.953125 -12.820312 19.953125 -11.21875 C 19.953125 -8.46875 18.847656 -6.101562 16.640625 -4.125 C 14.429688 -2.15625 11.941406 -1.171875 9.171875 -1.171875 C 7.347656 -1.171875 5.847656 -1.398438 4.671875 -1.859375 C 3.429688 -0.828125 2.8125 -0.125 2.8125 0.25 C 2.8125 0.84375 3.320312 1.171875 4.34375 1.234375 L 10.59375 1.484375 C 12.71875 1.566406 14.378906 1.914062 15.578125 2.53125 C 16.773438 3.15625 17.375 4.035156 17.375 5.171875 C 17.375 6.304688 17.046875 7.300781 16.390625 8.15625 C 15.742188 9.019531 14.851562 9.695312 13.71875 10.1875 C 11.550781 11.101562 8.816406 11.5625 5.515625 11.5625 C 3.878906 11.5625 2.367188 11.382812 0.984375 11.03125 C -1.734375 10.34375 -3.09375 9.269531 -3.09375 7.8125 C -3.09375 6.65625 -2.238281 5.691406 -0.53125 4.921875 C -0.28125 4.796875 -0.0625 4.703125 0.125 4.640625 Z M 8.03125 -15.75 C 7.132812 -14.832031 6.488281 -13.78125 6.09375 -12.59375 C 5.707031 -11.40625 5.515625 -10.34375 5.515625 -9.40625 C 5.515625 -8.46875 5.566406 -7.675781 5.671875 -7.03125 C 5.773438 -6.394531 5.953125 -5.753906 6.203125 -5.109375 C 6.753906 -3.722656 7.722656 -3.03125 9.109375 -3.03125 C 10.492188 -3.03125 11.617188 -3.507812 12.484375 -4.46875 C 13.992188 -6.132812 14.75 -8.519531 14.75 -11.625 C 14.75 -12.820312 14.429688 -14.035156 13.796875 -15.265625 C 13.171875 -16.503906 12.28125 -17.125 11.125 -17.125 C 9.96875 -17.125 8.9375 -16.664062 8.03125 -15.75 Z M 6.015625 9.734375 C 10.703125 9.734375 13.046875 8.914062 13.046875 7.28125 C 13.046875 5.875 9.429688 5.171875 2.203125 5.171875 C 1.679688 5.171875 1.226562 5.460938 0.84375 6.046875 C 0.46875 6.640625 0.28125 7.1875 0.28125 7.6875 C 0.28125 8.488281 0.773438 9.03125 1.765625 9.3125 C 2.753906 9.59375 4.171875 9.734375 6.015625 9.734375 Z M 6.015625 9.734375 "/></g></g></g><g fill="#000000" fill-opacity="1"><g transform="translate(174.854275, 56.706315)"><g><path d="M 11.734375 -41.921875 L 16.828125 -41.921875 C 15.929688 -40.367188 14.546875 -36.914062 12.671875 -31.5625 C 10.804688 -26.21875 9.097656 -20.835938 7.546875 -15.421875 C 6.003906 -10.015625 5.234375 -6.707031 5.234375 -5.5 C 5.234375 -4.289062 5.378906 -3.6875 5.671875 -3.6875 C 6.554688 -3.6875 7.929688 -5.019531 9.796875 -7.6875 L 11.125 -6.4375 C 10.195312 -4.832031 9.203125 -3.484375 8.140625 -2.390625 C 6.242188 -0.460938 4.707031 0.5 3.53125 0.5 C 1.382812 0.5 0.3125 -0.789062 0.3125 -3.375 C 0.3125 -7.21875 1.585938 -13.28125 4.140625 -21.5625 C 6.691406 -29.84375 9.222656 -36.628906 11.734375 -41.921875 Z M 11.734375 -41.921875 "/></g></g></g><g fill="#000000" fill-opacity="1"><g transform="translate(186.361251, 56.706315)"><g><path d="M 5.796875 -6.203125 C 5.921875 -3.785156 7.550781 -2.578125 10.6875 -2.578125 C 11.84375 -2.578125 13.046875 -2.910156 14.296875 -3.578125 C 15.546875 -4.242188 16.5625 -5.023438 17.34375 -5.921875 L 18.6875 -5.046875 C 16.945312 -2.117188 14.164062 -0.332031 10.34375 0.3125 C 9.5 0.4375 8.6875 0.5 7.90625 0.5 C 5.644531 0.5 3.753906 -0.25 2.234375 -1.75 C 0.722656 -3.25 -0.03125 -5.082031 -0.03125 -7.25 C -0.03125 -9.414062 0.628906 -11.414062 1.953125 -13.25 C 3.273438 -15.09375 4.929688 -16.519531 6.921875 -17.53125 C 8.910156 -18.539062 10.867188 -19.046875 12.796875 -19.046875 C 14.734375 -19.046875 16.410156 -18.601562 17.828125 -17.71875 C 19.242188 -16.832031 19.96875 -15.644531 20 -14.15625 C 20.03125 -12.664062 19.59375 -11.378906 18.6875 -10.296875 C 17.789062 -9.210938 16.648438 -8.382812 15.265625 -7.8125 C 12.503906 -6.695312 9.800781 -6.140625 7.15625 -6.140625 Z M 5.609375 -7.9375 C 7.941406 -8.03125 9.816406 -8.40625 11.234375 -9.0625 C 12.648438 -9.726562 13.632812 -10.484375 14.1875 -11.328125 C 14.75 -12.179688 15.03125 -13.078125 15.03125 -14.015625 C 15.03125 -14.953125 14.789062 -15.644531 14.3125 -16.09375 C 13.832031 -16.539062 13.316406 -16.765625 12.765625 -16.765625 C 11.421875 -16.765625 10.1875 -16.296875 9.0625 -15.359375 C 7.9375 -14.429688 7.078125 -13.300781 6.484375 -11.96875 C 5.898438 -10.632812 5.609375 -9.289062 5.609375 -7.9375 Z M 5.609375 -7.9375 "/></g></g></g><g fill="#000000" fill-opacity="1"><g transform="translate(207.325051, 56.706315)"><g><path d="M 2.9375 -0.21875 C 1.5625 -0.707031 0.582031 -1.28125 0 -1.9375 C -0.582031 -2.601562 -0.875 -3.332031 -0.875 -4.125 C -0.875 -4.925781 -0.65625 -5.585938 -0.21875 -6.109375 C 0.21875 -6.640625 0.796875 -6.90625 1.515625 -6.90625 C 2.242188 -6.90625 2.882812 -6.6875 3.4375 -6.25 C 4 -5.820312 4.28125 -5.210938 4.28125 -4.421875 C 4.28125 -3.640625 3.800781 -2.984375 2.84375 -2.453125 C 3.632812 -1.765625 4.851562 -1.421875 6.5 -1.421875 C 10.050781 -1.421875 11.828125 -2.425781 11.828125 -4.4375 C 11.828125 -5.707031 10.703125 -6.71875 8.453125 -7.46875 C 7.523438 -7.78125 6.59375 -8.113281 5.65625 -8.46875 C 4.71875 -8.832031 3.898438 -9.359375 3.203125 -10.046875 C 2.515625 -10.742188 2.140625 -11.585938 2.078125 -12.578125 C 2.078125 -14.003906 2.550781 -15.210938 3.5 -16.203125 C 5.28125 -18.097656 7.945312 -19.046875 11.5 -19.046875 C 13.25 -19.046875 14.796875 -18.710938 16.140625 -18.046875 C 17.484375 -17.390625 18.15625 -16.535156 18.15625 -15.484375 C 18.15625 -14.429688 17.882812 -13.671875 17.34375 -13.203125 C 16.8125 -12.742188 16.1875 -12.515625 15.46875 -12.515625 C 14.757812 -12.515625 14.15625 -12.707031 13.65625 -13.09375 C 13.164062 -13.488281 12.921875 -14.03125 12.921875 -14.71875 C 12.921875 -15.414062 13.332031 -16.015625 14.15625 -16.515625 C 13.644531 -16.878906 12.769531 -17.0625 11.53125 -17.0625 C 10.289062 -17.0625 9.175781 -16.875 8.1875 -16.5 C 7.207031 -16.132812 6.71875 -15.632812 6.71875 -15 C 6.71875 -14.375 7.078125 -13.847656 7.796875 -13.421875 C 8.523438 -13.003906 9.40625 -12.617188 10.4375 -12.265625 C 11.46875 -11.910156 12.492188 -11.5 13.515625 -11.03125 C 14.546875 -10.570312 15.425781 -9.910156 16.15625 -9.046875 C 16.882812 -8.179688 17.25 -7.117188 17.25 -5.859375 C 17.25 -4.597656 16.734375 -3.453125 15.703125 -2.421875 C 13.742188 -0.472656 11.070312 0.5 7.6875 0.5 C 5.90625 0.5 4.320312 0.257812 2.9375 -0.21875 Z M 2.9375 -0.21875 "/></g></g></g></svg>