<svg xmlns="http://www.w3.org/2000/svg" xmlns:xlink="http://www.w3.org/1999/xlink" width="400" zoomAndPan="magnify" viewBox="0 0 300 74.999997" height="100" preserveAspectRatio="xMidYMid meet" version="1.0"><defs><g/></defs><g fill="#000000" fill-opacity="1"><g transform="translate(46.517947, 57.749994)"><g><path d="M 1.203125 -3.40625 C 0.0234375 -4.851562 -0.5625 -6.425781 -0.5625 -8.125 C -0.5625 -9.832031 -0.273438 -11.304688 0.296875 -12.546875 C 0.878906 -13.785156 1.648438 -14.820312 2.609375 -15.65625 C 3.578125 -16.5 4.691406 -17.21875 5.953125 -17.8125 C 8.285156 -18.90625 10.925781 -19.472656 13.875 -19.515625 C 14.0625 -22.984375 14.851562 -26.285156 16.25 -29.421875 C 17.644531 -32.566406 19.476562 -35.320312 21.75 -37.6875 C 24.019531 -40.050781 26.785156 -41.9375 30.046875 -43.34375 C 33.316406 -44.75 36.804688 -45.453125 40.515625 -45.453125 C 43.972656 -45.453125 47.15625 -44.601562 50.0625 -42.90625 C 51.507812 -42.0625 52.679688 -40.921875 53.578125 -39.484375 C 54.472656 -38.046875 54.921875 -36.253906 54.921875 -34.109375 C 54.921875 -31.960938 54.390625 -29.769531 53.328125 -27.53125 C 52.265625 -25.289062 50.859375 -23.382812 49.109375 -21.8125 C 45.410156 -18.507812 41.207031 -16.597656 36.5 -16.078125 C 34.65625 -10.671875 31.566406 -6.472656 27.234375 -3.484375 C 22.910156 -0.503906 17.753906 0.984375 11.765625 0.984375 C 7.097656 0.984375 3.578125 -0.476562 1.203125 -3.40625 Z M 6.078125 -14.25 C 4.773438 -13.632812 3.703125 -12.773438 2.859375 -11.671875 C 2.023438 -10.578125 1.609375 -9.382812 1.609375 -8.09375 C 1.609375 -6.8125 1.957031 -5.703125 2.65625 -4.765625 C 3.363281 -3.835938 4.265625 -3.109375 5.359375 -2.578125 C 7.585938 -1.515625 9.890625 -0.984375 12.265625 -0.984375 C 16.066406 -0.984375 19.535156 -2.1875 22.671875 -4.59375 C 25.816406 -7 28.191406 -10.050781 29.796875 -13.75 C 30.421875 -15.21875 31.085938 -17.476562 31.796875 -20.53125 C 32.515625 -23.59375 33.078125 -25.703125 33.484375 -26.859375 C 35.859375 -33.960938 39.164062 -38.867188 43.40625 -41.578125 C 43.132812 -41.847656 42.472656 -42.085938 41.421875 -42.296875 C 40.367188 -42.515625 39.203125 -42.625 37.921875 -42.625 C 35.148438 -42.625 32.410156 -41.953125 29.703125 -40.609375 C 27.003906 -39.265625 24.644531 -37.519531 22.625 -35.375 C 20.613281 -33.226562 18.988281 -30.738281 17.75 -27.90625 C 16.507812 -25.082031 15.890625 -22.265625 15.890625 -19.453125 C 18.992188 -18.960938 22.03125 -17.734375 25 -15.765625 L 23.640625 -13.6875 C 20.804688 -15.300781 18.316406 -16.109375 16.171875 -16.109375 C 16.171875 -15.648438 16.335938 -14.703125 16.671875 -13.265625 C 17.015625 -11.835938 17.40625 -10.523438 17.84375 -9.328125 L 15.984375 -8.765625 C 15.472656 -9.566406 15.035156 -10.769531 14.671875 -12.375 C 14.304688 -13.976562 14.070312 -15.222656 13.96875 -16.109375 C 11.363281 -16.109375 8.734375 -15.488281 6.078125 -14.25 Z M 45.75 -40.421875 C 43.457031 -38.066406 41.566406 -34.914062 40.078125 -30.96875 C 38.597656 -27.03125 37.554688 -22.6875 36.953125 -17.9375 C 38.585938 -17.9375 40.210938 -18.414062 41.828125 -19.375 C 43.453125 -20.332031 44.84375 -21.539062 46 -23 C 47.15625 -24.457031 48.085938 -26.066406 48.796875 -27.828125 C 49.515625 -29.597656 49.875 -31.035156 49.875 -32.140625 C 49.875 -33.242188 49.820312 -34.109375 49.71875 -34.734375 C 49.613281 -35.367188 49.429688 -36.066406 49.171875 -36.828125 C 48.585938 -38.546875 47.445312 -39.742188 45.75 -40.421875 Z M 45.75 -40.421875 "/></g></g></g><g fill="#000000" fill-opacity="1"><g transform="translate(92.542333, 57.749994)"><g><path d="M 5.796875 -6.203125 C 5.921875 -3.785156 7.550781 -2.578125 10.6875 -2.578125 C 11.84375 -2.578125 13.046875 -2.910156 14.296875 -3.578125 C 15.546875 -4.242188 16.5625 -5.023438 17.34375 -5.921875 L 18.6875 -5.046875 C 16.945312 -2.117188 14.164062 -0.332031 10.34375 0.3125 C 9.5 0.4375 8.6875 0.5 7.90625 0.5 C 5.644531 0.5 3.753906 -0.25 2.234375 -1.75 C 0.722656 -3.25 -0.03125 -5.082031 -0.03125 -7.25 C -0.03125 -9.414062 0.628906 -11.414062 1.953125 -13.25 C 3.273438 -15.09375 4.929688 -16.519531 6.921875 -17.53125 C 8.910156 -18.539062 10.867188 -19.046875 12.796875 -19.046875 C 14.734375 -19.046875 16.410156 -18.601562 17.828125 -17.71875 C 19.242188 -16.832031 19.96875 -15.644531 20 -14.15625 C 20.03125 -12.664062 19.59375 -11.378906 18.6875 -10.296875 C 17.789062 -9.210938 16.648438 -8.382812 15.265625 -7.8125 C 12.503906 -6.695312 9.800781 -6.140625 7.15625 -6.140625 Z M 5.609375 -7.9375 C 7.941406 -8.03125 9.816406 -8.40625 11.234375 -9.0625 C 12.648438 -9.726562 13.632812 -10.484375 14.1875 -11.328125 C 14.75 -12.179688 15.03125 -13.078125 15.03125 -14.015625 C 15.03125 -14.953125 14.789062 -15.644531 14.3125 -16.09375 C 13.832031 -16.539062 13.316406 -16.765625 12.765625 -16.765625 C 11.421875 -16.765625 10.1875 -16.296875 9.0625 -15.359375 C 7.9375 -14.429688 7.078125 -13.300781 6.484375 -11.96875 C 5.898438 -10.632812 5.609375 -9.289062 5.609375 -7.9375 Z M 5.609375 -7.9375 "/></g></g></g><g fill="#000000" fill-opacity="1"><g transform="translate(113.506128, 57.749994)"><g><path d="M 8.578125 -8.859375 C 12.960938 -15.648438 16.898438 -19.046875 20.390625 -19.046875 C 21.566406 -19.046875 22.445312 -18.6875 23.03125 -17.96875 C 23.625 -17.25 23.921875 -16.34375 23.921875 -15.25 C 23.921875 -14.164062 23.429688 -12.273438 22.453125 -9.578125 C 21.484375 -6.890625 21 -5.222656 21 -4.578125 C 21 -3.941406 21.15625 -3.625 21.46875 -3.625 C 21.882812 -3.625 22.503906 -4.054688 23.328125 -4.921875 C 24.148438 -5.796875 24.875 -6.71875 25.5 -7.6875 L 26.828125 -6.4375 C 25.566406 -4.144531 24.179688 -2.414062 22.671875 -1.25 C 21.171875 -0.0820312 19.953125 0.5 19.015625 0.5 C 18.085938 0.5 17.359375 0.191406 16.828125 -0.421875 C 16.304688 -1.046875 16.046875 -1.894531 16.046875 -2.96875 C 16.046875 -4.039062 16.46875 -5.789062 17.3125 -8.21875 C 18.164062 -10.644531 18.59375 -12.363281 18.59375 -13.375 C 18.59375 -14.394531 18.25 -14.90625 17.5625 -14.90625 C 16.757812 -14.90625 15.8125 -14.394531 14.71875 -13.375 C 13.625 -12.363281 12.5625 -11.117188 11.53125 -9.640625 C 9.894531 -7.285156 8.226562 -4.578125 6.53125 -1.515625 L 5.671875 0 L 1.234375 0 L 2.203125 -2.96875 C 4.035156 -8.425781 4.953125 -11.664062 4.953125 -12.6875 C 4.953125 -13.707031 4.78125 -14.21875 4.4375 -14.21875 C 3.832031 -14.21875 3.109375 -13.492188 2.265625 -12.046875 C 2.078125 -11.703125 1.921875 -11.429688 1.796875 -11.234375 C 1.671875 -11.035156 1.53125 -10.796875 1.375 -10.515625 C 1.21875 -10.234375 1.117188 -10.0625 1.078125 -10 L -1.046875 -11.21875 C 0.597656 -13.882812 2.101562 -15.851562 3.46875 -17.125 C 4.832031 -18.40625 6.226562 -19.046875 7.65625 -19.046875 C 8.3125 -19.046875 8.875 -18.769531 9.34375 -18.21875 C 9.820312 -17.675781 10.0625 -17.015625 10.0625 -16.234375 C 10.0625 -15.453125 9.992188 -14.6875 9.859375 -13.9375 C 9.734375 -13.195312 9.601562 -12.578125 9.46875 -12.078125 C 9.332031 -11.585938 9.15625 -10.953125 8.9375 -10.171875 C 8.71875 -9.398438 8.597656 -8.960938 8.578125 -8.859375 Z M 8.578125 -8.859375 "/></g></g></g><g fill="#000000" fill-opacity="1"><g transform="translate(140.711427, 57.749994)"><g><path d="M 15.296875 -3.875 C 13.085938 -0.957031 10.445312 0.5 7.375 0.5 C 5.3125 0.5 3.566406 -0.25 2.140625 -1.75 C 0.710938 -3.25 0 -5.164062 0 -7.5 C 0 -10.632812 1.175781 -13.34375 3.53125 -15.625 C 5.882812 -17.90625 8.519531 -19.046875 11.4375 -19.046875 C 12.957031 -19.046875 14.253906 -18.742188 15.328125 -18.140625 C 16.410156 -17.546875 17.113281 -16.734375 17.4375 -15.703125 C 18.40625 -19.671875 19.796875 -24.273438 21.609375 -29.515625 C 23.429688 -34.765625 25.109375 -38.890625 26.640625 -41.890625 L 31.6875 -41.890625 C 29.726562 -38.023438 27.316406 -31.472656 24.453125 -22.234375 C 21.597656 -13.003906 20.171875 -7.234375 20.171875 -4.921875 C 20.171875 -4.097656 20.34375 -3.6875 20.6875 -3.6875 C 21.519531 -3.6875 22.863281 -5.019531 24.71875 -7.6875 L 26.078125 -6.4375 C 24.742188 -4.082031 23.320312 -2.335938 21.8125 -1.203125 C 20.300781 -0.0664062 19.085938 0.5 18.171875 0.5 C 17.253906 0.5 16.539062 0.171875 16.03125 -0.484375 C 15.519531 -1.148438 15.265625 -2.113281 15.265625 -3.375 C 15.265625 -3.414062 15.269531 -3.492188 15.28125 -3.609375 C 15.289062 -3.722656 15.296875 -3.8125 15.296875 -3.875 Z M 5.703125 -7.6875 C 5.703125 -4.300781 7.003906 -2.609375 9.609375 -2.609375 C 12.046875 -2.609375 14.054688 -4.238281 15.640625 -7.5 C 16.367188 -9.03125 16.734375 -10.269531 16.734375 -11.21875 C 16.734375 -14.625 15.441406 -16.328125 12.859375 -16.328125 C 11.140625 -16.328125 9.515625 -15.53125 7.984375 -13.9375 C 6.460938 -12.351562 5.703125 -10.269531 5.703125 -7.6875 Z M 5.703125 -7.6875 "/></g></g></g><g fill="#000000" fill-opacity="1"><g transform="translate(167.16018, 57.749994)"><g><path d="M 17.4375 -18.34375 L 22.34375 -18.34375 L 19.859375 -8.921875 C 19.460938 -7.597656 19.265625 -6.394531 19.265625 -5.3125 C 19.265625 -4.226562 19.453125 -3.6875 19.828125 -3.6875 C 20.203125 -3.6875 20.71875 -4.015625 21.375 -4.671875 C 22.039062 -5.335938 22.609375 -6.007812 23.078125 -6.6875 L 23.796875 -7.6875 L 25.15625 -6.4375 C 24.457031 -5.082031 23.578125 -3.851562 22.515625 -2.75 C 20.429688 -0.582031 18.625 0.5 17.09375 0.5 C 15.28125 0.5 14.375 -0.894531 14.375 -3.6875 C 14.375 -4.144531 14.394531 -4.492188 14.4375 -4.734375 C 14.125 -3.660156 13.523438 -2.710938 12.640625 -1.890625 C 10.960938 -0.296875 9.066406 0.5 6.953125 0.5 C 4.835938 0.5 3.144531 -0.21875 1.875 -1.65625 C 0.601562 -3.09375 -0.03125 -4.894531 -0.03125 -7.0625 C -0.03125 -10.425781 1.0625 -13.265625 3.25 -15.578125 C 5.4375 -17.890625 8 -19.046875 10.9375 -19.046875 C 12.40625 -19.046875 13.625 -18.640625 14.59375 -17.828125 C 15.5625 -17.015625 16.191406 -15.957031 16.484375 -14.65625 Z M 12.171875 -16.328125 C 10.953125 -16.328125 9.8125 -15.816406 8.75 -14.796875 C 7.6875 -13.773438 6.867188 -12.546875 6.296875 -11.109375 C 5.734375 -9.671875 5.453125 -8.269531 5.453125 -6.90625 C 5.453125 -5.539062 5.75 -4.4375 6.34375 -3.59375 C 6.945312 -2.75 7.875 -2.328125 9.125 -2.328125 C 10.375 -2.328125 11.503906 -2.894531 12.515625 -4.03125 C 14.429688 -6.21875 15.390625 -8.8125 15.390625 -11.8125 C 15.390625 -14.820312 14.316406 -16.328125 12.171875 -16.328125 Z M 12.171875 -16.328125 "/></g></g></g><g fill="#000000" fill-opacity="1"><g transform="translate(192.694785, 57.749994)"><g><path d="M 8.578125 -8.859375 C 12.960938 -15.648438 16.898438 -19.046875 20.390625 -19.046875 C 21.566406 -19.046875 22.445312 -18.6875 23.03125 -17.96875 C 23.625 -17.25 23.921875 -16.34375 23.921875 -15.25 C 23.921875 -14.164062 23.429688 -12.273438 22.453125 -9.578125 C 21.484375 -6.890625 21 -5.222656 21 -4.578125 C 21 -3.941406 21.15625 -3.625 21.46875 -3.625 C 21.882812 -3.625 22.503906 -4.054688 23.328125 -4.921875 C 24.148438 -5.796875 24.875 -6.71875 25.5 -7.6875 L 26.828125 -6.4375 C 25.566406 -4.144531 24.179688 -2.414062 22.671875 -1.25 C 21.171875 -0.0820312 19.953125 0.5 19.015625 0.5 C 18.085938 0.5 17.359375 0.191406 16.828125 -0.421875 C 16.304688 -1.046875 16.046875 -1.894531 16.046875 -2.96875 C 16.046875 -4.039062 16.46875 -5.789062 17.3125 -8.21875 C 18.164062 -10.644531 18.59375 -12.363281 18.59375 -13.375 C 18.59375 -14.394531 18.25 -14.90625 17.5625 -14.90625 C 16.757812 -14.90625 15.8125 -14.394531 14.71875 -13.375 C 13.625 -12.363281 12.5625 -11.117188 11.53125 -9.640625 C 9.894531 -7.285156 8.226562 -4.578125 6.53125 -1.515625 L 5.671875 0 L 1.234375 0 L 2.203125 -2.96875 C 4.035156 -8.425781 4.953125 -11.664062 4.953125 -12.6875 C 4.953125 -13.707031 4.78125 -14.21875 4.4375 -14.21875 C 3.832031 -14.21875 3.109375 -13.492188 2.265625 -12.046875 C 2.078125 -11.703125 1.921875 -11.429688 1.796875 -11.234375 C 1.671875 -11.035156 1.53125 -10.796875 1.375 -10.515625 C 1.21875 -10.234375 1.117188 -10.0625 1.078125 -10 L -1.046875 -11.21875 C 0.597656 -13.882812 2.101562 -15.851562 3.46875 -17.125 C 4.832031 -18.40625 6.226562 -19.046875 7.65625 -19.046875 C 8.3125 -19.046875 8.875 -18.769531 9.34375 -18.21875 C 9.820312 -17.675781 10.0625 -17.015625 10.0625 -16.234375 C 10.0625 -15.453125 9.992188 -14.6875 9.859375 -13.9375 C 9.734375 -13.195312 9.601562 -12.578125 9.46875 -12.078125 C 9.332031 -11.585938 9.15625 -10.953125 8.9375 -10.171875 C 8.71875 -9.398438 8.597656 -8.960938 8.578125 -8.859375 Z M 8.578125 -8.859375 "/></g></g></g><g fill="#000000" fill-opacity="1"><g transform="translate(219.90009, 57.749994)"><g><path d="M 4.28125 -18.34375 C 6.445312 -25.070312 8.65625 -30.707031 10.90625 -35.25 L 14.8125 -34.921875 C 14.582031 -34.253906 14.015625 -32.640625 13.109375 -30.078125 C 11.160156 -24.421875 9.898438 -20.507812 9.328125 -18.34375 L 14.28125 -18.34375 L 13.78125 -16.265625 L 8.671875 -16.265625 C 6.734375 -10.296875 5.765625 -6.664062 5.765625 -5.375 C 5.765625 -4.082031 5.894531 -3.4375 6.15625 -3.4375 C 6.425781 -3.4375 6.664062 -3.488281 6.875 -3.59375 C 7.4375 -3.90625 8.65625 -5.441406 10.53125 -8.203125 L 11.828125 -7.03125 C 10.410156 -4.46875 8.957031 -2.570312 7.46875 -1.34375 C 5.976562 -0.113281 4.75 0.5 3.78125 0.5 C 2.8125 0.5 2.078125 0.164062 1.578125 -0.5 C 1.085938 -1.175781 0.84375 -2.039062 0.84375 -3.09375 C 0.84375 -5.757812 1.78125 -10.148438 3.65625 -16.265625 L 0.34375 -16.265625 L 0.84375 -18.34375 Z M 4.28125 -18.34375 "/></g></g></g><g fill="#000000" fill-opacity="1"><g transform="translate(232.76255, 57.749994)"><g><path d="M 2.9375 -0.21875 C 1.5625 -0.707031 0.582031 -1.28125 0 -1.9375 C -0.582031 -2.601562 -0.875 -3.332031 -0.875 -4.125 C -0.875 -4.925781 -0.65625 -5.585938 -0.21875 -6.109375 C 0.21875 -6.640625 0.796875 -6.90625 1.515625 -6.90625 C 2.242188 -6.90625 2.882812 -6.6875 3.4375 -6.25 C 4 -5.820312 4.28125 -5.210938 4.28125 -4.421875 C 4.28125 -3.640625 3.800781 -2.984375 2.84375 -2.453125 C 3.632812 -1.765625 4.851562 -1.421875 6.5 -1.421875 C 10.050781 -1.421875 11.828125 -2.425781 11.828125 -4.4375 C 11.828125 -5.707031 10.703125 -6.71875 8.453125 -7.46875 C 7.523438 -7.78125 6.59375 -8.113281 5.65625 -8.46875 C 4.71875 -8.832031 3.898438 -9.359375 3.203125 -10.046875 C 2.515625 -10.742188 2.140625 -11.585938 2.078125 -12.578125 C 2.078125 -14.003906 2.550781 -15.210938 3.5 -16.203125 C 5.28125 -18.097656 7.945312 -19.046875 11.5 -19.046875 C 13.25 -19.046875 14.796875 -18.710938 16.140625 -18.046875 C 17.484375 -17.390625 18.15625 -16.535156 18.15625 -15.484375 C 18.15625 -14.429688 17.882812 -13.671875 17.34375 -13.203125 C 16.8125 -12.742188 16.1875 -12.515625 15.46875 -12.515625 C 14.757812 -12.515625 14.15625 -12.707031 13.65625 -13.09375 C 13.164062 -13.488281 12.921875 -14.03125 12.921875 -14.71875 C 12.921875 -15.414062 13.332031 -16.015625 14.15625 -16.515625 C 13.644531 -16.878906 12.769531 -17.0625 11.53125 -17.0625 C 10.289062 -17.0625 9.175781 -16.875 8.1875 -16.5 C 7.207031 -16.132812 6.71875 -15.632812 6.71875 -15 C 6.71875 -14.375 7.078125 -13.847656 7.796875 -13.421875 C 8.523438 -13.003906 9.40625 -12.617188 10.4375 -12.265625 C 11.46875 -11.910156 12.492188 -11.5 13.515625 -11.03125 C 14.546875 -10.570312 15.425781 -9.910156 16.15625 -9.046875 C 16.882812 -8.179688 17.25 -7.117188 17.25 -5.859375 C 17.25 -4.597656 16.734375 -3.453125 15.703125 -2.421875 C 13.742188 -0.472656 11.070312 0.5 7.6875 0.5 C 5.90625 0.5 4.320312 0.257812 2.9375 -0.21875 Z M 2.9375 -0.21875 "/></g></g></g></svg>