<svg xmlns="http://www.w3.org/2000/svg" xmlns:xlink="http://www.w3.org/1999/xlink" width="400" zoomAndPan="magnify" viewBox="0 0 300 74.999997" height="100" preserveAspectRatio="xMidYMid meet" version="1.0"><defs><g/></defs><g fill="#000000" fill-opacity="1"><g transform="translate(42.580448, 57.749994)"><g><path d="M 17.125 -9.96875 L 15.15625 -9.390625 C 14.800781 -10.316406 14.453125 -11.554688 14.109375 -13.109375 C 13.765625 -14.671875 13.59375 -15.640625 13.59375 -16.015625 C 12.007812 -16.015625 10.414062 -15.78125 8.8125 -15.3125 C 7.207031 -14.851562 5.925781 -14.359375 4.96875 -13.828125 C 4.007812 -13.304688 3.1875 -12.554688 2.5 -11.578125 C 1.820312 -10.609375 1.484375 -9.472656 1.484375 -8.171875 C 1.484375 -6.878906 1.8125 -5.738281 2.46875 -4.75 C 3.132812 -3.769531 4.015625 -3.023438 5.109375 -2.515625 C 7.210938 -1.535156 9.410156 -1.046875 11.703125 -1.046875 C 14.003906 -1.046875 15.984375 -1.285156 17.640625 -1.765625 C 19.304688 -2.242188 20.710938 -2.882812 21.859375 -3.6875 C 23.003906 -4.488281 24.050781 -5.5 25 -6.71875 C 25.945312 -7.9375 26.710938 -9.179688 27.296875 -10.453125 C 27.890625 -11.722656 28.46875 -13.175781 29.03125 -14.8125 C 29.601562 -16.457031 30.078125 -17.992188 30.453125 -19.421875 C 31.484375 -23.222656 32.519531 -26.40625 33.5625 -28.96875 C 34.601562 -31.53125 36.140625 -34.054688 38.171875 -36.546875 C 40.210938 -39.035156 42.523438 -41.082031 45.109375 -42.6875 C 43.847656 -42.976562 42.238281 -43.125 40.28125 -43.125 C 38.332031 -43.125 36.113281 -42.695312 33.625 -41.84375 C 31.132812 -41 28.816406 -39.8125 26.671875 -38.28125 C 24.523438 -36.757812 22.601562 -35.019531 20.90625 -33.0625 C 19.21875 -31.113281 17.890625 -28.957031 16.921875 -26.59375 C 15.960938 -24.226562 15.484375 -21.859375 15.484375 -19.484375 C 20.097656 -18.535156 23.4375 -16.820312 25.5 -14.34375 L 24.171875 -12.953125 C 22.015625 -14.359375 20.398438 -15.1875 19.328125 -15.4375 C 18.253906 -15.695312 17.613281 -15.847656 17.40625 -15.890625 C 16.4375 -16.015625 15.773438 -16.078125 15.421875 -16.078125 C 15.671875 -14.523438 16.117188 -12.800781 16.765625 -10.90625 Z M 57.71875 -47.25 L 58.359375 -45.78125 C 56.421875 -45.414062 54.625 -44.890625 52.96875 -44.203125 L 52.109375 -43.84375 C 53.617188 -43.09375 54.820312 -42.066406 55.71875 -40.765625 C 56.613281 -39.460938 57.0625 -38.269531 57.0625 -37.1875 C 57.0625 -36.101562 56.96875 -35.191406 56.78125 -34.453125 C 56.59375 -33.722656 56.359375 -33.0625 56.078125 -32.46875 C 55.804688 -31.882812 55.441406 -31.269531 54.984375 -30.625 C 54.535156 -29.988281 54.125 -29.453125 53.75 -29.015625 C 53.375 -28.585938 52.90625 -28.101562 52.34375 -27.5625 C 51.789062 -27.03125 51.351562 -26.628906 51.03125 -26.359375 C 50.46875 -25.890625 49.765625 -25.320312 48.921875 -24.65625 C 51.929688 -23.414062 54.222656 -21.945312 55.796875 -20.25 C 57.367188 -18.5625 58.15625 -16.453125 58.15625 -13.921875 C 58.15625 -11.390625 57.394531 -8.9375 55.875 -6.5625 C 54.351562 -4.1875 52.335938 -2.289062 49.828125 -0.875 C 47.316406 0.53125 44.648438 1.234375 41.828125 1.234375 C 38.722656 1.234375 36.335938 0.359375 34.671875 -1.390625 C 33.773438 -2.335938 33.328125 -3.441406 33.328125 -4.703125 C 33.328125 -5.960938 33.707031 -6.976562 34.46875 -7.75 C 35.238281 -8.53125 36.171875 -8.921875 37.265625 -8.921875 C 38.359375 -8.921875 39.21875 -8.644531 39.84375 -8.09375 C 40.476562 -7.550781 40.796875 -6.914062 40.796875 -6.1875 C 40.796875 -5.46875 40.664062 -4.898438 40.40625 -4.484375 C 40.15625 -4.078125 39.859375 -3.757812 39.515625 -3.53125 C 39.171875 -3.300781 38.804688 -3.113281 38.421875 -2.96875 C 37.773438 -2.707031 37.335938 -2.578125 37.109375 -2.578125 C 37.109375 -1.660156 38.253906 -1.082031 40.546875 -0.84375 C 40.941406 -0.800781 41.304688 -0.78125 41.640625 -0.78125 C 44.566406 -0.78125 47.015625 -1.882812 48.984375 -4.09375 C 50.960938 -6.300781 51.953125 -8.878906 51.953125 -11.828125 C 51.953125 -13.296875 51.625 -14.65625 50.96875 -15.90625 C 50.320312 -17.15625 49.523438 -18.15625 48.578125 -18.90625 C 47.628906 -19.664062 46.6875 -20.3125 45.75 -20.84375 C 44.820312 -21.382812 44.03125 -21.800781 43.375 -22.09375 C 42.726562 -22.394531 42.40625 -22.59375 42.40625 -22.6875 C 42.40625 -22.78125 42.71875 -23.035156 43.34375 -23.453125 C 43.976562 -23.867188 44.75 -24.421875 45.65625 -25.109375 C 46.570312 -25.796875 47.484375 -26.578125 48.390625 -27.453125 C 49.296875 -28.335938 50.0625 -29.414062 50.6875 -30.6875 C 51.320312 -31.957031 51.640625 -33.234375 51.640625 -34.515625 C 51.640625 -35.796875 51.28125 -37.164062 50.5625 -38.625 C 49.851562 -40.09375 48.8125 -41.117188 47.4375 -41.703125 C 43.488281 -39.265625 40.644531 -35.492188 38.90625 -30.390625 C 38.144531 -28.203125 37.578125 -26.238281 37.203125 -24.5 C 36.273438 -20.101562 35.597656 -17.054688 35.171875 -15.359375 C 34.753906 -13.671875 33.921875 -11.796875 32.671875 -9.734375 C 31.421875 -7.679688 29.867188 -5.832031 28.015625 -4.1875 C 26.171875 -2.550781 23.925781 -1.257812 21.28125 -0.3125 C 18.632812 0.632812 15.753906 1.109375 12.640625 1.109375 C 8.367188 1.109375 4.898438 0.128906 2.234375 -1.828125 C 0.128906 -3.378906 -0.921875 -5.546875 -0.921875 -8.328125 C -0.921875 -10.191406 -0.46875 -11.867188 0.4375 -13.359375 C 1.34375 -14.859375 2.519531 -16.035156 3.96875 -16.890625 C 6.914062 -18.660156 10.125 -19.546875 13.59375 -19.546875 C 13.59375 -22.953125 14.390625 -26.253906 15.984375 -29.453125 C 17.578125 -32.660156 19.691406 -35.425781 22.328125 -37.75 C 24.972656 -40.070312 28.066406 -41.9375 31.609375 -43.34375 C 35.148438 -44.75 38.789062 -45.453125 42.53125 -45.453125 C 43.832031 -45.453125 45.941406 -45.273438 48.859375 -44.921875 C 52.835938 -46.347656 55.789062 -47.125 57.71875 -47.25 Z M 57.71875 -47.25 "/></g></g></g><g fill="#000000" fill-opacity="1"><g transform="translate(102.222661, 57.749994)"><g><path d="M 17.3125 -14.90625 C 16.507812 -14.90625 15.5625 -14.394531 14.46875 -13.375 C 13.375 -12.363281 12.3125 -11.117188 11.28125 -9.640625 C 9.644531 -7.285156 7.972656 -4.578125 6.265625 -1.515625 L 5.421875 0 L 0.984375 0 C 0.984375 0 1.304688 -0.988281 1.953125 -2.96875 C 3.785156 -8.425781 4.703125 -11.664062 4.703125 -12.6875 C 4.703125 -13.707031 4.53125 -14.21875 4.1875 -14.21875 C 3.582031 -14.21875 2.859375 -13.492188 2.015625 -12.046875 C 1.828125 -11.703125 1.671875 -11.429688 1.546875 -11.234375 C 1.421875 -11.035156 1.273438 -10.796875 1.109375 -10.515625 C 0.953125 -10.234375 0.851562 -10.0625 0.8125 -10 L -1.296875 -11.21875 C 0.347656 -13.882812 1.851562 -15.851562 3.21875 -17.125 C 4.582031 -18.40625 5.976562 -19.046875 7.40625 -19.046875 C 8.0625 -19.046875 8.625 -18.769531 9.09375 -18.21875 C 9.5625 -17.675781 9.796875 -17.03125 9.796875 -16.28125 C 9.796875 -15.53125 9.753906 -14.863281 9.671875 -14.28125 C 9.585938 -13.707031 9.492188 -13.179688 9.390625 -12.703125 C 9.285156 -12.222656 9.140625 -11.644531 8.953125 -10.96875 C 8.765625 -10.300781 8.613281 -9.785156 8.5 -9.421875 C 8.382812 -9.066406 8.226562 -8.582031 8.03125 -7.96875 C 7.84375 -7.363281 7.726562 -7.007812 7.6875 -6.90625 C 8.070312 -7.65625 8.710938 -8.765625 9.609375 -10.234375 C 10.515625 -11.710938 11.101562 -12.640625 11.375 -13.015625 C 11.65625 -13.398438 12.035156 -13.90625 12.515625 -14.53125 C 12.992188 -15.164062 13.414062 -15.65625 13.78125 -16 C 14.15625 -16.34375 14.597656 -16.738281 15.109375 -17.1875 C 15.628906 -17.644531 16.117188 -17.988281 16.578125 -18.21875 C 17.753906 -18.769531 18.890625 -19.046875 19.984375 -19.046875 C 21.078125 -19.046875 21.953125 -18.722656 22.609375 -18.078125 C 23.273438 -17.441406 23.609375 -16.695312 23.609375 -15.84375 C 23.609375 -14.988281 23.335938 -14.238281 22.796875 -13.59375 C 22.265625 -12.957031 21.644531 -12.640625 20.9375 -12.640625 C 20.238281 -12.640625 19.6875 -12.757812 19.28125 -13 C 18.882812 -13.238281 18.613281 -13.5 18.46875 -13.78125 C 18.03125 -14.53125 17.644531 -14.90625 17.3125 -14.90625 Z M 17.3125 -14.90625 "/></g></g></g><g fill="#000000" fill-opacity="1"><g transform="translate(125.014775, 57.749994)"><g><path d="M 17.4375 -18.34375 L 22.34375 -18.34375 L 19.859375 -8.921875 C 19.460938 -7.597656 19.265625 -6.394531 19.265625 -5.3125 C 19.265625 -4.226562 19.453125 -3.6875 19.828125 -3.6875 C 20.203125 -3.6875 20.71875 -4.015625 21.375 -4.671875 C 22.039062 -5.335938 22.609375 -6.007812 23.078125 -6.6875 L 23.796875 -7.6875 L 25.15625 -6.4375 C 24.457031 -5.082031 23.578125 -3.851562 22.515625 -2.75 C 20.429688 -0.582031 18.625 0.5 17.09375 0.5 C 15.28125 0.5 14.375 -0.894531 14.375 -3.6875 C 14.375 -4.144531 14.394531 -4.492188 14.4375 -4.734375 C 14.125 -3.660156 13.523438 -2.710938 12.640625 -1.890625 C 10.960938 -0.296875 9.066406 0.5 6.953125 0.5 C 4.835938 0.5 3.144531 -0.21875 1.875 -1.65625 C 0.601562 -3.09375 -0.03125 -4.894531 -0.03125 -7.0625 C -0.03125 -10.425781 1.0625 -13.265625 3.25 -15.578125 C 5.4375 -17.890625 8 -19.046875 10.9375 -19.046875 C 12.40625 -19.046875 13.625 -18.640625 14.59375 -17.828125 C 15.5625 -17.015625 16.191406 -15.957031 16.484375 -14.65625 Z M 12.171875 -16.328125 C 10.953125 -16.328125 9.8125 -15.816406 8.75 -14.796875 C 7.6875 -13.773438 6.867188 -12.546875 6.296875 -11.109375 C 5.734375 -9.671875 5.453125 -8.269531 5.453125 -6.90625 C 5.453125 -5.539062 5.75 -4.4375 6.34375 -3.59375 C 6.945312 -2.75 7.875 -2.328125 9.125 -2.328125 C 10.375 -2.328125 11.503906 -2.894531 12.515625 -4.03125 C 14.429688 -6.21875 15.390625 -8.8125 15.390625 -11.8125 C 15.390625 -14.820312 14.316406 -16.328125 12.171875 -16.328125 Z M 12.171875 -16.328125 "/></g></g></g><g fill="#000000" fill-opacity="1"><g transform="translate(150.54938, 57.749994)"><g><path d="M 16.390625 -6.53125 L 17.6875 -5.609375 C 16.757812 -3.742188 15.332031 -2.257812 13.40625 -1.15625 C 11.488281 -0.0507812 9.476562 0.5 7.375 0.5 C 5.269531 0.5 3.5 -0.140625 2.0625 -1.421875 C 0.625 -2.703125 -0.09375 -4.515625 -0.09375 -6.859375 C -0.09375 -9.203125 0.625 -11.316406 2.0625 -13.203125 C 3.5 -15.097656 5.269531 -16.546875 7.375 -17.546875 C 9.476562 -18.546875 11.601562 -19.046875 13.75 -19.046875 C 16.375 -19.046875 18.140625 -18.414062 19.046875 -17.15625 C 19.421875 -16.644531 19.609375 -16.003906 19.609375 -15.234375 C 19.609375 -14.472656 19.34375 -13.828125 18.8125 -13.296875 C 18.289062 -12.773438 17.660156 -12.515625 16.921875 -12.515625 C 16.191406 -12.515625 15.570312 -12.75 15.0625 -13.21875 C 14.5625 -13.695312 14.3125 -14.300781 14.3125 -15.03125 C 14.3125 -15.769531 14.765625 -16.445312 15.671875 -17.0625 C 14.867188 -17.3125 14.132812 -17.4375 13.46875 -17.4375 C 12.007812 -17.4375 10.671875 -16.898438 9.453125 -15.828125 C 8.234375 -14.753906 7.304688 -13.453125 6.671875 -11.921875 C 6.046875 -10.398438 5.734375 -8.90625 5.734375 -7.4375 C 5.734375 -5.96875 6.082031 -4.785156 6.78125 -3.890625 C 7.488281 -2.992188 8.503906 -2.546875 9.828125 -2.546875 C 11.160156 -2.546875 12.4375 -2.921875 13.65625 -3.671875 C 14.875 -4.421875 15.785156 -5.375 16.390625 -6.53125 Z M 16.390625 -6.53125 "/></g></g></g><g fill="#000000" fill-opacity="1"><g transform="translate(170.40989, 57.749994)"><g><path d="M 5.796875 -6.203125 C 5.921875 -3.785156 7.550781 -2.578125 10.6875 -2.578125 C 11.84375 -2.578125 13.046875 -2.910156 14.296875 -3.578125 C 15.546875 -4.242188 16.5625 -5.023438 17.34375 -5.921875 L 18.6875 -5.046875 C 16.945312 -2.117188 14.164062 -0.332031 10.34375 0.3125 C 9.5 0.4375 8.6875 0.5 7.90625 0.5 C 5.644531 0.5 3.753906 -0.25 2.234375 -1.75 C 0.722656 -3.25 -0.03125 -5.082031 -0.03125 -7.25 C -0.03125 -9.414062 0.628906 -11.414062 1.953125 -13.25 C 3.273438 -15.09375 4.929688 -16.519531 6.921875 -17.53125 C 8.910156 -18.539062 10.867188 -19.046875 12.796875 -19.046875 C 14.734375 -19.046875 16.410156 -18.601562 17.828125 -17.71875 C 19.242188 -16.832031 19.96875 -15.644531 20 -14.15625 C 20.03125 -12.664062 19.59375 -11.378906 18.6875 -10.296875 C 17.789062 -9.210938 16.648438 -8.382812 15.265625 -7.8125 C 12.503906 -6.695312 9.800781 -6.140625 7.15625 -6.140625 Z M 5.609375 -7.9375 C 7.941406 -8.03125 9.816406 -8.40625 11.234375 -9.0625 C 12.648438 -9.726562 13.632812 -10.484375 14.1875 -11.328125 C 14.75 -12.179688 15.03125 -13.078125 15.03125 -14.015625 C 15.03125 -14.953125 14.789062 -15.644531 14.3125 -16.09375 C 13.832031 -16.539062 13.316406 -16.765625 12.765625 -16.765625 C 11.421875 -16.765625 10.1875 -16.296875 9.0625 -15.359375 C 7.9375 -14.429688 7.078125 -13.300781 6.484375 -11.96875 C 5.898438 -10.632812 5.609375 -9.289062 5.609375 -7.9375 Z M 5.609375 -7.9375 "/></g></g></g><g fill="#000000" fill-opacity="1"><g transform="translate(191.37369, 57.749994)"><g><path d="M 11.734375 -41.921875 L 16.828125 -41.921875 C 15.929688 -40.367188 14.546875 -36.914062 12.671875 -31.5625 C 10.804688 -26.21875 9.097656 -20.835938 7.546875 -15.421875 C 6.003906 -10.015625 5.234375 -6.707031 5.234375 -5.5 C 5.234375 -4.289062 5.378906 -3.6875 5.671875 -3.6875 C 6.554688 -3.6875 7.929688 -5.019531 9.796875 -7.6875 L 11.125 -6.4375 C 10.195312 -4.832031 9.203125 -3.484375 8.140625 -2.390625 C 6.242188 -0.460938 4.707031 0.5 3.53125 0.5 C 1.382812 0.5 0.3125 -0.789062 0.3125 -3.375 C 0.3125 -7.21875 1.585938 -13.28125 4.140625 -21.5625 C 6.691406 -29.84375 9.222656 -36.628906 11.734375 -41.921875 Z M 11.734375 -41.921875 "/></g></g></g><g fill="#000000" fill-opacity="1"><g transform="translate(202.880666, 57.749994)"><g><path d="M 5.796875 -6.203125 C 5.921875 -3.785156 7.550781 -2.578125 10.6875 -2.578125 C 11.84375 -2.578125 13.046875 -2.910156 14.296875 -3.578125 C 15.546875 -4.242188 16.5625 -5.023438 17.34375 -5.921875 L 18.6875 -5.046875 C 16.945312 -2.117188 14.164062 -0.332031 10.34375 0.3125 C 9.5 0.4375 8.6875 0.5 7.90625 0.5 C 5.644531 0.5 3.753906 -0.25 2.234375 -1.75 C 0.722656 -3.25 -0.03125 -5.082031 -0.03125 -7.25 C -0.03125 -9.414062 0.628906 -11.414062 1.953125 -13.25 C 3.273438 -15.09375 4.929688 -16.519531 6.921875 -17.53125 C 8.910156 -18.539062 10.867188 -19.046875 12.796875 -19.046875 C 14.734375 -19.046875 16.410156 -18.601562 17.828125 -17.71875 C 19.242188 -16.832031 19.96875 -15.644531 20 -14.15625 C 20.03125 -12.664062 19.59375 -11.378906 18.6875 -10.296875 C 17.789062 -9.210938 16.648438 -8.382812 15.265625 -7.8125 C 12.503906 -6.695312 9.800781 -6.140625 7.15625 -6.140625 Z M 5.609375 -7.9375 C 7.941406 -8.03125 9.816406 -8.40625 11.234375 -9.0625 C 12.648438 -9.726562 13.632812 -10.484375 14.1875 -11.328125 C 14.75 -12.179688 15.03125 -13.078125 15.03125 -14.015625 C 15.03125 -14.953125 14.789062 -15.644531 14.3125 -16.09375 C 13.832031 -16.539062 13.316406 -16.765625 12.765625 -16.765625 C 11.421875 -16.765625 10.1875 -16.296875 9.0625 -15.359375 C 7.9375 -14.429688 7.078125 -13.300781 6.484375 -11.96875 C 5.898438 -10.632812 5.609375 -9.289062 5.609375 -7.9375 Z M 5.609375 -7.9375 "/></g></g></g><g fill="#000000" fill-opacity="1"><g transform="translate(223.844466, 57.749994)"><g><path d="M 4.28125 -18.34375 C 6.445312 -25.070312 8.65625 -30.707031 10.90625 -35.25 L 14.8125 -34.921875 C 14.582031 -34.253906 14.015625 -32.640625 13.109375 -30.078125 C 11.160156 -24.421875 9.898438 -20.507812 9.328125 -18.34375 L 14.28125 -18.34375 L 13.78125 -16.265625 L 8.671875 -16.265625 C 6.734375 -10.296875 5.765625 -6.664062 5.765625 -5.375 C 5.765625 -4.082031 5.894531 -3.4375 6.15625 -3.4375 C 6.425781 -3.4375 6.664062 -3.488281 6.875 -3.59375 C 7.4375 -3.90625 8.65625 -5.441406 10.53125 -8.203125 L 11.828125 -7.03125 C 10.410156 -4.46875 8.957031 -2.570312 7.46875 -1.34375 C 5.976562 -0.113281 4.75 0.5 3.78125 0.5 C 2.8125 0.5 2.078125 0.164062 1.578125 -0.5 C 1.085938 -1.175781 0.84375 -2.039062 0.84375 -3.09375 C 0.84375 -5.757812 1.78125 -10.148438 3.65625 -16.265625 L 0.34375 -16.265625 L 0.84375 -18.34375 Z M 4.28125 -18.34375 "/></g></g></g><g fill="#000000" fill-opacity="1"><g transform="translate(236.706926, 57.749994)"><g><path d="M 2.9375 -0.21875 C 1.5625 -0.707031 0.582031 -1.28125 0 -1.9375 C -0.582031 -2.601562 -0.875 -3.332031 -0.875 -4.125 C -0.875 -4.925781 -0.65625 -5.585938 -0.21875 -6.109375 C 0.21875 -6.640625 0.796875 -6.90625 1.515625 -6.90625 C 2.242188 -6.90625 2.882812 -6.6875 3.4375 -6.25 C 4 -5.820312 4.28125 -5.210938 4.28125 -4.421875 C 4.28125 -3.640625 3.800781 -2.984375 2.84375 -2.453125 C 3.632812 -1.765625 4.851562 -1.421875 6.5 -1.421875 C 10.050781 -1.421875 11.828125 -2.425781 11.828125 -4.4375 C 11.828125 -5.707031 10.703125 -6.71875 8.453125 -7.46875 C 7.523438 -7.78125 6.59375 -8.113281 5.65625 -8.46875 C 4.71875 -8.832031 3.898438 -9.359375 3.203125 -10.046875 C 2.515625 -10.742188 2.140625 -11.585938 2.078125 -12.578125 C 2.078125 -14.003906 2.550781 -15.210938 3.5 -16.203125 C 5.28125 -18.097656 7.945312 -19.046875 11.5 -19.046875 C 13.25 -19.046875 14.796875 -18.710938 16.140625 -18.046875 C 17.484375 -17.390625 18.15625 -16.535156 18.15625 -15.484375 C 18.15625 -14.429688 17.882812 -13.671875 17.34375 -13.203125 C 16.8125 -12.742188 16.1875 -12.515625 15.46875 -12.515625 C 14.757812 -12.515625 14.15625 -12.707031 13.65625 -13.09375 C 13.164062 -13.488281 12.921875 -14.03125 12.921875 -14.71875 C 12.921875 -15.414062 13.332031 -16.015625 14.15625 -16.515625 C 13.644531 -16.878906 12.769531 -17.0625 11.53125 -17.0625 C 10.289062 -17.0625 9.175781 -16.875 8.1875 -16.5 C 7.207031 -16.132812 6.71875 -15.632812 6.71875 -15 C 6.71875 -14.375 7.078125 -13.847656 7.796875 -13.421875 C 8.523438 -13.003906 9.40625 -12.617188 10.4375 -12.265625 C 11.46875 -11.910156 12.492188 -11.5 13.515625 -11.03125 C 14.546875 -10.570312 15.425781 -9.910156 16.15625 -9.046875 C 16.882812 -8.179688 17.25 -7.117188 17.25 -5.859375 C 17.25 -4.597656 16.734375 -3.453125 15.703125 -2.421875 C 13.742188 -0.472656 11.070312 0.5 7.6875 0.5 C 5.90625 0.5 4.320312 0.257812 2.9375 -0.21875 Z M 2.9375 -0.21875 "/></g></g></g></svg>