<svg xmlns="http://www.w3.org/2000/svg" xmlns:xlink="http://www.w3.org/1999/xlink" width="600" zoomAndPan="magnify" viewBox="0 0 450 149.999998" height="200" preserveAspectRatio="xMidYMid meet" version="1.0"><defs><g/></defs><g fill="#000000" fill-opacity="1"><g transform="translate(34.929615, 61.312136)"><g><path d="M 45.125 -0.8125 L 46.3125 -2.84375 C 47.394531 -2.21875 48.492188 -1.90625 49.609375 -1.90625 C 51.742188 -1.90625 53.691406 -3.054688 55.453125 -5.359375 C 57.210938 -7.671875 58.691406 -10.738281 59.890625 -14.5625 L 33.21875 -14.5625 L 29.890625 -9.59375 C 27.421875 -5.9375 24.597656 -3.265625 21.421875 -1.578125 C 18.253906 0.0976562 14.71875 0.9375 10.8125 0.9375 C 6.90625 0.9375 4.050781 0.191406 2.25 -1.296875 C 0.445312 -2.785156 -0.453125 -4.363281 -0.453125 -6.03125 C -0.453125 -7.695312 0.0390625 -9.039062 1.03125 -10.0625 C 2.019531 -11.082031 3.253906 -11.59375 4.734375 -11.59375 C 6.210938 -11.59375 7.300781 -11.125 8 -10.1875 C 8.707031 -9.25 9.0625 -8 9.0625 -6.4375 C 9.0625 -4.882812 8.332031 -3.710938 6.875 -2.921875 C 6.957031 -2.648438 7.257812 -2.382812 7.78125 -2.125 C 8.3125 -1.875 9.046875 -1.75 9.984375 -1.75 C 10.921875 -1.75 11.820312 -1.863281 12.6875 -2.09375 C 13.550781 -2.320312 14.550781 -2.828125 15.6875 -3.609375 C 16.832031 -4.398438 18.023438 -5.582031 19.265625 -7.15625 C 21.953125 -10.539062 25.300781 -15.707031 29.3125 -22.65625 C 33.320312 -29.613281 37.226562 -35.398438 41.03125 -40.015625 C 44.84375 -44.640625 49.394531 -48.785156 54.6875 -52.453125 C 53.113281 -53.484375 51.1875 -54.304688 48.90625 -54.921875 C 46.632812 -55.546875 44.082031 -55.859375 41.25 -55.859375 C 38.414062 -55.859375 35.457031 -55.347656 32.375 -54.328125 C 29.300781 -53.316406 26.703125 -51.941406 24.578125 -50.203125 C 22.453125 -48.472656 20.65625 -46.429688 19.1875 -44.078125 C 16.34375 -39.546875 14.921875 -34.257812 14.921875 -28.21875 C 14.921875 -24.070312 15.625 -19.992188 17.03125 -15.984375 L 14.390625 -14.71875 C 11.359375 -19.625 9.84375 -24.828125 9.84375 -30.328125 C 9.84375 -34.046875 10.570312 -37.597656 12.03125 -40.984375 C 13.5 -44.367188 15.550781 -47.375 18.1875 -50 C 20.832031 -52.632812 24.1875 -54.726562 28.25 -56.28125 C 32.320312 -57.84375 36.785156 -58.625 41.640625 -58.625 C 45.160156 -58.625 47.675781 -58.378906 49.1875 -57.890625 L 52.125 -57 C 53.101562 -56.695312 54.253906 -56.144531 55.578125 -55.34375 C 56.910156 -54.550781 57.585938 -54.140625 57.609375 -54.109375 C 60.210938 -55.328125 62.445312 -56.117188 64.3125 -56.484375 C 66.1875 -56.859375 68.359375 -57.046875 70.828125 -57.046875 L 71.84375 -55.125 C 67.53125 -55.125 63.640625 -54.097656 60.171875 -52.046875 C 63.398438 -49.222656 65.800781 -45.613281 67.375 -41.21875 C 68.945312 -36.832031 69.734375 -32.015625 69.734375 -26.765625 C 69.734375 -21.523438 68.984375 -16.539062 67.484375 -11.8125 C 65.992188 -7.082031 64.007812 -3.332031 61.53125 -0.5625 C 59.050781 2.195312 56.359375 3.578125 53.453125 3.578125 C 50.554688 3.578125 47.78125 2.113281 45.125 -0.8125 Z M 57.609375 -50.171875 C 53.054688 -46.785156 49.332031 -42.84375 46.4375 -38.34375 C 43.914062 -34.46875 41.578125 -30.414062 39.421875 -26.1875 C 37.265625 -21.957031 35.6875 -18.945312 34.6875 -17.15625 L 60.625 -17.15625 C 61.894531 -22.25 62.53125 -27.316406 62.53125 -32.359375 C 62.53125 -40.710938 60.890625 -46.648438 57.609375 -50.171875 Z M 57.609375 -50.171875 "/></g></g></g><g fill="#000000" fill-opacity="1"><g transform="translate(105.038799, 61.312136)"><g><path d="M 22.328125 -19.234375 C 21.296875 -19.234375 20.070312 -18.570312 18.65625 -17.25 C 17.25 -15.9375 15.882812 -14.332031 14.5625 -12.4375 C 12.445312 -9.40625 10.289062 -5.910156 8.09375 -1.953125 L 7 0 L 1.265625 0 C 1.265625 0 1.679688 -1.273438 2.515625 -3.828125 C 4.878906 -10.867188 6.0625 -15.046875 6.0625 -16.359375 C 6.0625 -17.679688 5.84375 -18.34375 5.40625 -18.34375 C 4.625 -18.34375 3.691406 -17.40625 2.609375 -15.53125 C 2.359375 -15.09375 2.148438 -14.742188 1.984375 -14.484375 C 1.828125 -14.234375 1.644531 -13.925781 1.4375 -13.5625 C 1.238281 -13.195312 1.113281 -12.972656 1.0625 -12.890625 L -1.671875 -14.46875 C 0.441406 -17.914062 2.378906 -20.457031 4.140625 -22.09375 C 5.910156 -23.738281 7.710938 -24.5625 9.546875 -24.5625 C 10.390625 -24.5625 11.113281 -24.207031 11.71875 -23.5 C 12.332031 -22.789062 12.640625 -21.957031 12.640625 -21 C 12.640625 -20.039062 12.582031 -19.1875 12.46875 -18.4375 C 12.363281 -17.6875 12.242188 -17 12.109375 -16.375 C 11.972656 -15.757812 11.785156 -15.015625 11.546875 -14.140625 C 11.304688 -13.273438 11.109375 -12.613281 10.953125 -12.15625 C 10.804688 -11.695312 10.609375 -11.070312 10.359375 -10.28125 C 10.117188 -9.5 9.972656 -9.039062 9.921875 -8.90625 C 10.410156 -9.882812 11.238281 -11.320312 12.40625 -13.21875 C 13.570312 -15.113281 14.328125 -16.300781 14.671875 -16.78125 C 15.023438 -17.269531 15.515625 -17.921875 16.140625 -18.734375 C 16.765625 -19.554688 17.3125 -20.1875 17.78125 -20.625 C 18.257812 -21.070312 18.828125 -21.585938 19.484375 -22.171875 C 20.148438 -22.753906 20.785156 -23.195312 21.390625 -23.5 C 22.898438 -24.207031 24.359375 -24.5625 25.765625 -24.5625 C 27.179688 -24.5625 28.316406 -24.144531 29.171875 -23.3125 C 30.023438 -22.488281 30.453125 -21.523438 30.453125 -20.421875 C 30.453125 -19.328125 30.101562 -18.363281 29.40625 -17.53125 C 28.71875 -16.707031 27.921875 -16.296875 27.015625 -16.296875 C 26.109375 -16.296875 25.394531 -16.453125 24.875 -16.765625 C 24.363281 -17.078125 24.015625 -17.410156 23.828125 -17.765625 C 23.253906 -18.742188 22.753906 -19.234375 22.328125 -19.234375 Z M 22.328125 -19.234375 "/></g></g></g><g fill="#000000" fill-opacity="1"><g transform="translate(133.600233, 61.312136)"><g><path d="M 5.53125 -23.65625 C 8.320312 -32.332031 11.164062 -39.597656 14.0625 -45.453125 L 19.109375 -45.046875 C 18.804688 -44.179688 18.070312 -42.09375 16.90625 -38.78125 C 14.382812 -31.488281 12.757812 -26.445312 12.03125 -23.65625 L 18.421875 -23.65625 L 17.765625 -20.984375 L 11.1875 -20.984375 C 8.6875 -13.285156 7.4375 -8.601562 7.4375 -6.9375 C 7.4375 -5.269531 7.601562 -4.4375 7.9375 -4.4375 C 8.28125 -4.4375 8.585938 -4.503906 8.859375 -4.640625 C 9.597656 -5.046875 11.171875 -7.023438 13.578125 -10.578125 L 15.25 -9.0625 C 13.425781 -5.757812 11.550781 -3.3125 9.625 -1.71875 C 7.707031 -0.132812 6.125 0.65625 4.875 0.65625 C 3.632812 0.65625 2.691406 0.222656 2.046875 -0.640625 C 1.410156 -1.515625 1.09375 -2.628906 1.09375 -3.984375 C 1.09375 -7.421875 2.300781 -13.085938 4.71875 -20.984375 L 0.453125 -20.984375 L 1.09375 -23.65625 Z M 5.53125 -23.65625 "/></g></g></g><g fill="#000000" fill-opacity="1"><g transform="translate(149.35586, 61.312136)"><g><path d="M 7.25 0.65625 C 6.101562 0.65625 5.203125 0.300781 4.546875 -0.40625 C 3.898438 -1.113281 3.578125 -2.082031 3.578125 -3.3125 C 3.578125 -4.539062 3.894531 -6.21875 4.53125 -8.34375 C 5.164062 -10.476562 5.800781 -12.410156 6.4375 -14.140625 C 7.082031 -15.878906 7.40625 -17.039062 7.40625 -17.625 C 7.40625 -18.207031 7.210938 -18.5 6.828125 -18.5 C 5.878906 -18.5 4.347656 -16.628906 2.234375 -12.890625 L -0.484375 -14.46875 C 3.492188 -21.195312 7.148438 -24.5625 10.484375 -24.5625 C 12.765625 -24.5625 13.90625 -23.125 13.90625 -20.25 C 13.90625 -19.40625 13.632812 -18.0625 13.09375 -16.21875 L 10.171875 -7.84375 C 9.867188 -7.0625 9.71875 -6.347656 9.71875 -5.703125 C 9.71875 -5.066406 9.960938 -4.75 10.453125 -4.75 C 11.367188 -4.75 13.0625 -6.457031 15.53125 -9.875 L 17.234375 -8.296875 C 15.773438 -5.585938 14.035156 -3.414062 12.015625 -1.78125 C 9.992188 -0.15625 8.40625 0.65625 7.25 0.65625 Z M 18.828125 -36.5625 C 18.828125 -35.46875 18.457031 -34.472656 17.71875 -33.578125 C 16.988281 -32.679688 16 -32.234375 14.75 -32.234375 C 13.507812 -32.234375 12.578125 -32.609375 11.953125 -33.359375 C 11.328125 -34.109375 11.015625 -35.050781 11.015625 -36.1875 C 11.015625 -37.320312 11.398438 -38.328125 12.171875 -39.203125 C 12.941406 -40.085938 13.9375 -40.53125 15.15625 -40.53125 C 16.382812 -40.53125 17.300781 -40.144531 17.90625 -39.375 C 18.519531 -38.601562 18.828125 -37.664062 18.828125 -36.5625 Z M 18.828125 -36.5625 "/></g></g></g><g fill="#000000" fill-opacity="1"><g transform="translate(166.534355, 61.312136)"><g><path d="M 3.796875 -0.28125 C 2.023438 -0.90625 0.757812 -1.644531 0 -2.5 C -0.757812 -3.351562 -1.140625 -4.296875 -1.140625 -5.328125 C -1.140625 -6.359375 -0.851562 -7.210938 -0.28125 -7.890625 C 0.28125 -8.566406 1.03125 -8.90625 1.96875 -8.90625 C 2.90625 -8.90625 3.734375 -8.625 4.453125 -8.0625 C 5.171875 -7.507812 5.53125 -6.722656 5.53125 -5.703125 C 5.53125 -4.691406 4.90625 -3.847656 3.65625 -3.171875 C 4.6875 -2.273438 6.257812 -1.828125 8.375 -1.828125 C 12.957031 -1.828125 15.25 -3.128906 15.25 -5.734375 C 15.25 -7.359375 13.796875 -8.660156 10.890625 -9.640625 C 9.703125 -10.046875 8.503906 -10.476562 7.296875 -10.9375 C 6.085938 -11.394531 5.035156 -12.070312 4.140625 -12.96875 C 3.253906 -13.863281 2.769531 -14.945312 2.6875 -16.21875 C 2.6875 -18.0625 3.296875 -19.617188 4.515625 -20.890625 C 6.816406 -23.335938 10.257812 -24.5625 14.84375 -24.5625 C 17.09375 -24.5625 19.082031 -24.132812 20.8125 -23.28125 C 22.550781 -22.425781 23.421875 -21.320312 23.421875 -19.96875 C 23.421875 -18.613281 23.070312 -17.632812 22.375 -17.03125 C 21.6875 -16.4375 20.878906 -16.140625 19.953125 -16.140625 C 19.035156 -16.140625 18.257812 -16.390625 17.625 -16.890625 C 16.988281 -17.390625 16.671875 -18.085938 16.671875 -18.984375 C 16.671875 -19.878906 17.195312 -20.648438 18.25 -21.296875 C 17.601562 -21.765625 16.476562 -22 14.875 -22 C 13.28125 -22 11.84375 -21.757812 10.5625 -21.28125 C 9.289062 -20.8125 8.65625 -20.171875 8.65625 -19.359375 C 8.65625 -18.546875 9.125 -17.863281 10.0625 -17.3125 C 11 -16.769531 12.128906 -16.269531 13.453125 -15.8125 C 14.785156 -15.351562 16.113281 -14.820312 17.4375 -14.21875 C 18.769531 -13.625 19.898438 -12.769531 20.828125 -11.65625 C 21.765625 -10.550781 22.234375 -9.1875 22.234375 -7.5625 C 22.234375 -5.9375 21.570312 -4.457031 20.25 -3.125 C 17.726562 -0.601562 14.285156 0.65625 9.921875 0.65625 C 7.617188 0.65625 5.578125 0.34375 3.796875 -0.28125 Z M 3.796875 -0.28125 "/></g></g></g><g fill="#000000" fill-opacity="1"><g transform="translate(190.745884, 61.312136)"><g><path d="M 22.484375 -23.65625 L 28.828125 -23.65625 L 25.609375 -11.5 C 25.097656 -9.789062 24.84375 -8.238281 24.84375 -6.84375 C 24.84375 -5.445312 25.085938 -4.75 25.578125 -4.75 C 26.066406 -4.75 26.734375 -5.175781 27.578125 -6.03125 C 28.429688 -6.882812 29.160156 -7.75 29.765625 -8.625 L 30.703125 -9.921875 L 32.4375 -8.296875 C 31.550781 -6.554688 30.414062 -4.96875 29.03125 -3.53125 C 26.34375 -0.738281 24.007812 0.65625 22.03125 0.65625 C 19.707031 0.65625 18.546875 -1.144531 18.546875 -4.75 C 18.546875 -5.351562 18.570312 -5.800781 18.625 -6.09375 C 18.21875 -4.71875 17.441406 -3.5 16.296875 -2.4375 C 14.128906 -0.375 11.679688 0.65625 8.953125 0.65625 C 6.234375 0.65625 4.050781 -0.269531 2.40625 -2.125 C 0.769531 -3.988281 -0.046875 -6.316406 -0.046875 -9.109375 C -0.046875 -13.441406 1.363281 -17.097656 4.1875 -20.078125 C 7.007812 -23.066406 10.316406 -24.5625 14.109375 -24.5625 C 16.003906 -24.5625 17.570312 -24.035156 18.8125 -22.984375 C 20.0625 -21.941406 20.878906 -20.582031 21.265625 -18.90625 Z M 15.6875 -21.0625 C 14.113281 -21.0625 12.644531 -20.398438 11.28125 -19.078125 C 9.914062 -17.765625 8.863281 -16.179688 8.125 -14.328125 C 7.394531 -12.472656 7.03125 -10.664062 7.03125 -8.90625 C 7.03125 -7.144531 7.414062 -5.722656 8.1875 -4.640625 C 8.957031 -3.554688 10.148438 -3.015625 11.765625 -3.015625 C 13.378906 -3.015625 14.835938 -3.742188 16.140625 -5.203125 C 18.609375 -8.023438 19.84375 -11.375 19.84375 -15.25 C 19.84375 -19.125 18.457031 -21.0625 15.6875 -21.0625 Z M 15.6875 -21.0625 "/></g></g></g><g fill="#000000" fill-opacity="1"><g transform="translate(222.844168, 61.312136)"><g><path d="M 11.0625 -11.421875 C 16.726562 -20.179688 21.8125 -24.5625 26.3125 -24.5625 C 27.820312 -24.5625 28.957031 -24.097656 29.71875 -23.171875 C 30.476562 -22.253906 30.859375 -21.085938 30.859375 -19.671875 C 30.859375 -18.265625 30.226562 -15.828125 28.96875 -12.359375 C 27.707031 -8.890625 27.078125 -6.738281 27.078125 -5.90625 C 27.078125 -5.082031 27.28125 -4.671875 27.6875 -4.671875 C 28.226562 -4.671875 29.023438 -5.234375 30.078125 -6.359375 C 31.140625 -7.484375 32.078125 -8.671875 32.890625 -9.921875 L 34.59375 -8.296875 C 32.96875 -5.335938 31.1875 -3.101562 29.25 -1.59375 C 27.3125 -0.09375 25.738281 0.65625 24.53125 0.65625 C 23.332031 0.65625 22.390625 0.253906 21.703125 -0.546875 C 21.023438 -1.347656 20.6875 -2.4375 20.6875 -3.8125 C 20.6875 -5.195312 21.234375 -7.453125 22.328125 -10.578125 C 23.429688 -13.710938 23.984375 -15.9375 23.984375 -17.25 C 23.984375 -18.570312 23.535156 -19.234375 22.640625 -19.234375 C 21.609375 -19.234375 20.390625 -18.570312 18.984375 -17.25 C 17.578125 -15.9375 16.207031 -14.332031 14.875 -12.4375 C 12.757812 -9.40625 10.609375 -5.910156 8.421875 -1.953125 L 7.3125 0 L 1.578125 0 L 2.84375 -3.828125 C 5.207031 -10.867188 6.390625 -15.046875 6.390625 -16.359375 C 6.390625 -17.679688 6.171875 -18.34375 5.734375 -18.34375 C 4.941406 -18.34375 4.003906 -17.40625 2.921875 -15.53125 C 2.679688 -15.09375 2.476562 -14.742188 2.3125 -14.484375 C 2.15625 -14.234375 1.972656 -13.925781 1.765625 -13.5625 C 1.566406 -13.195312 1.4375 -12.972656 1.375 -12.890625 L -1.34375 -14.46875 C 0.769531 -17.914062 2.707031 -20.457031 4.46875 -22.09375 C 6.226562 -23.738281 8.03125 -24.5625 9.875 -24.5625 C 10.71875 -24.5625 11.441406 -24.207031 12.046875 -23.5 C 12.660156 -22.789062 12.96875 -21.9375 12.96875 -20.9375 C 12.96875 -19.9375 12.882812 -18.953125 12.71875 -17.984375 C 12.5625 -17.023438 12.394531 -16.226562 12.21875 -15.59375 C 12.039062 -14.957031 11.804688 -14.132812 11.515625 -13.125 C 11.234375 -12.125 11.082031 -11.554688 11.0625 -11.421875 Z M 11.0625 -11.421875 "/></g></g></g><g fill="#000000" fill-opacity="1"><g transform="translate(257.097081, 61.312136)"><g/></g></g><g fill="#000000" fill-opacity="1"><g transform="translate(268.828011, 61.312136)"><g><path d="M 50.9375 -49.8125 C 47.3125 -53.351562 43.289062 -55.125 38.875 -55.125 C 30.414062 -55.125 23.503906 -51.0625 18.140625 -42.9375 C 15.015625 -38.21875 13.453125 -33.203125 13.453125 -27.890625 C 13.453125 -23.660156 14.507812 -20.191406 16.625 -17.484375 C 18.90625 -14.523438 22.347656 -13.046875 26.953125 -13.046875 C 30.585938 -13.046875 34.113281 -14.191406 37.53125 -16.484375 C 40.945312 -18.773438 43.453125 -21.804688 45.046875 -25.578125 L 50.9375 -25.65625 C 48.207031 -13.15625 43.390625 -3.410156 36.484375 3.578125 C 29.585938 10.566406 21.367188 14.0625 11.828125 14.0625 C 6.867188 14.0625 3.046875 13.046875 0.359375 11.015625 C -2.316406 8.984375 -3.65625 6.550781 -3.65625 3.71875 C -3.65625 0.882812 -2.316406 -1.578125 0.359375 -3.671875 C 3.046875 -5.773438 6.722656 -6.828125 11.390625 -6.828125 C 16.023438 -6.828125 19.695312 -5.769531 22.40625 -3.65625 L 20.65625 -0.078125 C 18.15625 -1.140625 15.210938 -1.671875 11.828125 -1.671875 C 8.441406 -1.671875 5.625 -1.109375 3.375 0.015625 C 1.125 1.140625 0 2.53125 0 4.1875 C 0 5.84375 1.085938 7.253906 3.265625 8.421875 C 5.453125 9.585938 8.523438 10.171875 12.484375 10.171875 C 18.796875 10.171875 24.546875 7.695312 29.734375 2.75 C 34.929688 -2.195312 39.359375 -9.457031 43.015625 -19.03125 C 40.765625 -15.851562 38.023438 -13.425781 34.796875 -11.75 C 31.578125 -10.070312 28.46875 -9.234375 25.46875 -9.234375 C 22.476562 -9.234375 19.835938 -9.617188 17.546875 -10.390625 C 15.253906 -11.160156 13.207031 -12.269531 11.40625 -13.71875 C 9.601562 -15.164062 8.164062 -17.0625 7.09375 -19.40625 C 6.019531 -21.757812 5.484375 -24.398438 5.484375 -27.328125 C 5.484375 -30.253906 5.960938 -33.195312 6.921875 -36.15625 C 7.890625 -39.125 9.335938 -41.953125 11.265625 -44.640625 C 13.191406 -47.328125 15.460938 -49.710938 18.078125 -51.796875 C 20.691406 -53.878906 23.785156 -55.535156 27.359375 -56.765625 C 30.941406 -58.003906 34.722656 -58.625 38.703125 -58.625 C 42.609375 -58.625 46.3125 -57.703125 49.8125 -55.859375 C 51.539062 -54.960938 52.953125 -53.710938 54.046875 -52.109375 C 55.148438 -50.515625 55.703125 -48.6875 55.703125 -46.625 C 55.703125 -44.570312 55.09375 -42.984375 53.875 -41.859375 C 52.65625 -40.734375 51.28125 -40.171875 49.75 -40.171875 C 48.21875 -40.171875 46.945312 -40.578125 45.9375 -41.390625 C 44.9375 -42.203125 44.4375 -43.3125 44.4375 -44.71875 C 44.4375 -48.113281 46.601562 -49.8125 50.9375 -49.8125 Z M 50.9375 -49.8125 "/></g></g></g><g fill="#000000" fill-opacity="1"><g transform="translate(318.041354, 61.312136)"><g><path d="M 15.125 -54.078125 L 21.703125 -54.078125 C 20.546875 -52.066406 18.757812 -47.613281 16.34375 -40.71875 C 13.925781 -33.820312 11.722656 -26.882812 9.734375 -19.90625 C 7.742188 -12.925781 6.75 -8.65625 6.75 -7.09375 C 6.75 -5.53125 6.9375 -4.75 7.3125 -4.75 C 8.457031 -4.75 10.234375 -6.472656 12.640625 -9.921875 L 14.359375 -8.296875 C 13.160156 -6.234375 11.867188 -4.5 10.484375 -3.09375 C 8.046875 -0.59375 6.066406 0.65625 4.546875 0.65625 C 1.785156 0.65625 0.40625 -1.007812 0.40625 -4.34375 C 0.40625 -9.3125 2.050781 -17.132812 5.34375 -27.8125 C 8.632812 -38.488281 11.894531 -47.242188 15.125 -54.078125 Z M 15.125 -54.078125 "/></g></g></g><g fill="#000000" fill-opacity="1"><g transform="translate(332.048874, 61.312136)"><g><path d="M 22.484375 -23.65625 L 28.828125 -23.65625 L 25.609375 -11.5 C 25.097656 -9.789062 24.84375 -8.238281 24.84375 -6.84375 C 24.84375 -5.445312 25.085938 -4.75 25.578125 -4.75 C 26.066406 -4.75 26.734375 -5.175781 27.578125 -6.03125 C 28.429688 -6.882812 29.160156 -7.75 29.765625 -8.625 L 30.703125 -9.921875 L 32.4375 -8.296875 C 31.550781 -6.554688 30.414062 -4.96875 29.03125 -3.53125 C 26.34375 -0.738281 24.007812 0.65625 22.03125 0.65625 C 19.707031 0.65625 18.546875 -1.144531 18.546875 -4.75 C 18.546875 -5.351562 18.570312 -5.800781 18.625 -6.09375 C 18.21875 -4.71875 17.441406 -3.5 16.296875 -2.4375 C 14.128906 -0.375 11.679688 0.65625 8.953125 0.65625 C 6.234375 0.65625 4.050781 -0.269531 2.40625 -2.125 C 0.769531 -3.988281 -0.046875 -6.316406 -0.046875 -9.109375 C -0.046875 -13.441406 1.363281 -17.097656 4.1875 -20.078125 C 7.007812 -23.066406 10.316406 -24.5625 14.109375 -24.5625 C 16.003906 -24.5625 17.570312 -24.035156 18.8125 -22.984375 C 20.0625 -21.941406 20.878906 -20.582031 21.265625 -18.90625 Z M 15.6875 -21.0625 C 14.113281 -21.0625 12.644531 -20.398438 11.28125 -19.078125 C 9.914062 -17.765625 8.863281 -16.179688 8.125 -14.328125 C 7.394531 -12.472656 7.03125 -10.664062 7.03125 -8.90625 C 7.03125 -7.144531 7.414062 -5.722656 8.1875 -4.640625 C 8.957031 -3.554688 10.148438 -3.015625 11.765625 -3.015625 C 13.378906 -3.015625 14.835938 -3.742188 16.140625 -5.203125 C 18.609375 -8.023438 19.84375 -11.375 19.84375 -15.25 C 19.84375 -19.125 18.457031 -21.0625 15.6875 -21.0625 Z M 15.6875 -21.0625 "/></g></g></g><g fill="#000000" fill-opacity="1"><g transform="translate(364.147146, 61.312136)"><g><path d="M 3.796875 -0.28125 C 2.023438 -0.90625 0.757812 -1.644531 0 -2.5 C -0.757812 -3.351562 -1.140625 -4.296875 -1.140625 -5.328125 C -1.140625 -6.359375 -0.851562 -7.210938 -0.28125 -7.890625 C 0.28125 -8.566406 1.03125 -8.90625 1.96875 -8.90625 C 2.90625 -8.90625 3.734375 -8.625 4.453125 -8.0625 C 5.171875 -7.507812 5.53125 -6.722656 5.53125 -5.703125 C 5.53125 -4.691406 4.90625 -3.847656 3.65625 -3.171875 C 4.6875 -2.273438 6.257812 -1.828125 8.375 -1.828125 C 12.957031 -1.828125 15.25 -3.128906 15.25 -5.734375 C 15.25 -7.359375 13.796875 -8.660156 10.890625 -9.640625 C 9.703125 -10.046875 8.503906 -10.476562 7.296875 -10.9375 C 6.085938 -11.394531 5.035156 -12.070312 4.140625 -12.96875 C 3.253906 -13.863281 2.769531 -14.945312 2.6875 -16.21875 C 2.6875 -18.0625 3.296875 -19.617188 4.515625 -20.890625 C 6.816406 -23.335938 10.257812 -24.5625 14.84375 -24.5625 C 17.09375 -24.5625 19.082031 -24.132812 20.8125 -23.28125 C 22.550781 -22.425781 23.421875 -21.320312 23.421875 -19.96875 C 23.421875 -18.613281 23.070312 -17.632812 22.375 -17.03125 C 21.6875 -16.4375 20.878906 -16.140625 19.953125 -16.140625 C 19.035156 -16.140625 18.257812 -16.390625 17.625 -16.890625 C 16.988281 -17.390625 16.671875 -18.085938 16.671875 -18.984375 C 16.671875 -19.878906 17.195312 -20.648438 18.25 -21.296875 C 17.601562 -21.765625 16.476562 -22 14.875 -22 C 13.28125 -22 11.84375 -21.757812 10.5625 -21.28125 C 9.289062 -20.8125 8.65625 -20.171875 8.65625 -19.359375 C 8.65625 -18.546875 9.125 -17.863281 10.0625 -17.3125 C 11 -16.769531 12.128906 -16.269531 13.453125 -15.8125 C 14.785156 -15.351562 16.113281 -14.820312 17.4375 -14.21875 C 18.769531 -13.625 19.898438 -12.769531 20.828125 -11.65625 C 21.765625 -10.550781 22.234375 -9.1875 22.234375 -7.5625 C 22.234375 -5.9375 21.570312 -4.457031 20.25 -3.125 C 17.726562 -0.601562 14.285156 0.65625 9.921875 0.65625 C 7.617188 0.65625 5.578125 0.34375 3.796875 -0.28125 Z M 3.796875 -0.28125 "/></g></g></g><g fill="#000000" fill-opacity="1"><g transform="translate(388.358662, 61.312136)"><g><path d="M 3.796875 -0.28125 C 2.023438 -0.90625 0.757812 -1.644531 0 -2.5 C -0.757812 -3.351562 -1.140625 -4.296875 -1.140625 -5.328125 C -1.140625 -6.359375 -0.851562 -7.210938 -0.28125 -7.890625 C 0.28125 -8.566406 1.03125 -8.90625 1.96875 -8.90625 C 2.90625 -8.90625 3.734375 -8.625 4.453125 -8.0625 C 5.171875 -7.507812 5.53125 -6.722656 5.53125 -5.703125 C 5.53125 -4.691406 4.90625 -3.847656 3.65625 -3.171875 C 4.6875 -2.273438 6.257812 -1.828125 8.375 -1.828125 C 12.957031 -1.828125 15.25 -3.128906 15.25 -5.734375 C 15.25 -7.359375 13.796875 -8.660156 10.890625 -9.640625 C 9.703125 -10.046875 8.503906 -10.476562 7.296875 -10.9375 C 6.085938 -11.394531 5.035156 -12.070312 4.140625 -12.96875 C 3.253906 -13.863281 2.769531 -14.945312 2.6875 -16.21875 C 2.6875 -18.0625 3.296875 -19.617188 4.515625 -20.890625 C 6.816406 -23.335938 10.257812 -24.5625 14.84375 -24.5625 C 17.09375 -24.5625 19.082031 -24.132812 20.8125 -23.28125 C 22.550781 -22.425781 23.421875 -21.320312 23.421875 -19.96875 C 23.421875 -18.613281 23.070312 -17.632812 22.375 -17.03125 C 21.6875 -16.4375 20.878906 -16.140625 19.953125 -16.140625 C 19.035156 -16.140625 18.257812 -16.390625 17.625 -16.890625 C 16.988281 -17.390625 16.671875 -18.085938 16.671875 -18.984375 C 16.671875 -19.878906 17.195312 -20.648438 18.25 -21.296875 C 17.601562 -21.765625 16.476562 -22 14.875 -22 C 13.28125 -22 11.84375 -21.757812 10.5625 -21.28125 C 9.289062 -20.8125 8.65625 -20.171875 8.65625 -19.359375 C 8.65625 -18.546875 9.125 -17.863281 10.0625 -17.3125 C 11 -16.769531 12.128906 -16.269531 13.453125 -15.8125 C 14.785156 -15.351562 16.113281 -14.820312 17.4375 -14.21875 C 18.769531 -13.625 19.898438 -12.769531 20.828125 -11.65625 C 21.765625 -10.550781 22.234375 -9.1875 22.234375 -7.5625 C 22.234375 -5.9375 21.570312 -4.457031 20.25 -3.125 C 17.726562 -0.601562 14.285156 0.65625 9.921875 0.65625 C 7.617188 0.65625 5.578125 0.34375 3.796875 -0.28125 Z M 3.796875 -0.28125 "/></g></g></g><g fill="#000000" fill-opacity="1"><g transform="translate(115.262241, 130.627503)"><g><path d="M 61.796875 -55.9375 C 53.910156 -47.78125 49.882812 -38.878906 49.71875 -29.234375 L 57.453125 -29.234375 L 57.453125 -26.140625 L 49.5625 -26.140625 C 49.289062 -20.960938 48.425781 -16.242188 46.96875 -11.984375 C 45.519531 -7.734375 43.6875 -4.15625 41.46875 -1.25 C 39.25 1.644531 36.675781 4.082031 33.75 6.0625 C 28.082031 9.851562 21.65625 11.75 14.46875 11.75 C 6.125 11.75 0.785156 8.863281 -1.546875 3.09375 C -2.222656 1.46875 -2.5625 -0.359375 -2.5625 -2.390625 C -2.5625 -4.429688 -2.109375 -6.523438 -1.203125 -8.671875 C -0.296875 -10.828125 0.945312 -12.785156 2.53125 -14.546875 C 4.125 -16.316406 6.132812 -17.75 8.5625 -18.84375 C 10.988281 -19.9375 13.609375 -20.484375 16.421875 -20.484375 C 16.878906 -20.484375 17.679688 -20.429688 18.828125 -20.328125 C 15.867188 -24.742188 14.390625 -29.296875 14.390625 -33.984375 C 14.390625 -38.671875 15.585938 -42.890625 17.984375 -46.640625 C 20.390625 -50.398438 23.710938 -53.335938 27.953125 -55.453125 C 32.191406 -57.566406 36.941406 -58.625 42.203125 -58.625 C 44.421875 -58.625 47.691406 -58.175781 52.015625 -57.28125 C 56.335938 -56.382812 59.597656 -55.9375 61.796875 -55.9375 Z M 42.5625 -29.234375 C 43.375 -36.816406 46.671875 -44 52.453125 -50.78125 C 48.304688 -52.507812 43.925781 -53.375 39.3125 -53.375 C 32.644531 -53.375 27.3125 -51.585938 23.3125 -48.015625 C 19.3125 -44.441406 17.3125 -39.796875 17.3125 -34.078125 C 17.3125 -29.546875 18.953125 -24.851562 22.234375 -20 L 31.875 -17.234375 L 31.0625 -14.71875 C 28.4375 -15.613281 26 -16.289062 23.75 -16.75 C 24.34375 -15.582031 25.503906 -13.710938 27.234375 -11.140625 L 24.46875 -10.25 L 20.25 -17.234375 C 19.1875 -17.453125 17.78125 -17.5625 16.03125 -17.5625 C 14.289062 -17.5625 12.457031 -17.113281 10.53125 -16.21875 C 8.601562 -15.320312 7.015625 -14.144531 5.765625 -12.6875 C 3.140625 -9.59375 1.828125 -6.289062 1.828125 -2.78125 C 1.828125 0.726562 2.925781 3.578125 5.125 5.765625 C 7.320312 7.960938 10.4375 9.0625 14.46875 9.0625 C 18.507812 9.0625 22.019531 8.414062 25 7.125 C 27.976562 5.84375 30.675781 3.820312 33.09375 1.0625 C 37.96875 -4.519531 41.03125 -13.613281 42.28125 -26.21875 L 33.546875 -26.21875 L 33.546875 -29.234375 Z M 42.5625 -29.234375 "/></g></g></g><g fill="#000000" fill-opacity="1"><g transform="translate(166.792833, 130.627503)"><g><path d="M 7.484375 -8.015625 C 7.640625 -4.890625 9.738281 -3.328125 13.78125 -3.328125 C 15.269531 -3.328125 16.820312 -3.753906 18.4375 -4.609375 C 20.050781 -5.460938 21.359375 -6.472656 22.359375 -7.640625 L 24.109375 -6.5 C 21.859375 -2.738281 18.265625 -0.4375 13.328125 0.40625 C 12.242188 0.570312 11.203125 0.65625 10.203125 0.65625 C 7.273438 0.65625 4.832031 -0.3125 2.875 -2.25 C 0.925781 -4.1875 -0.046875 -6.550781 -0.046875 -9.34375 C -0.046875 -12.132812 0.804688 -14.71875 2.515625 -17.09375 C 4.222656 -19.46875 6.359375 -21.304688 8.921875 -22.609375 C 11.484375 -23.910156 14.007812 -24.5625 16.5 -24.5625 C 19 -24.5625 21.160156 -23.988281 22.984375 -22.84375 C 24.816406 -21.707031 25.753906 -20.175781 25.796875 -18.25 C 25.835938 -16.332031 25.273438 -14.675781 24.109375 -13.28125 C 22.941406 -11.882812 21.460938 -10.816406 19.671875 -10.078125 C 16.128906 -8.640625 12.648438 -7.921875 9.234375 -7.921875 Z M 7.234375 -10.25 C 10.242188 -10.351562 12.660156 -10.832031 14.484375 -11.6875 C 16.316406 -12.539062 17.59375 -13.515625 18.3125 -14.609375 C 19.03125 -15.710938 19.390625 -16.863281 19.390625 -18.0625 C 19.390625 -19.269531 19.078125 -20.164062 18.453125 -20.75 C 17.828125 -21.332031 17.164062 -21.625 16.46875 -21.625 C 14.726562 -21.625 13.132812 -21.019531 11.6875 -19.8125 C 10.238281 -18.613281 9.132812 -17.148438 8.375 -15.421875 C 7.613281 -13.703125 7.234375 -11.976562 7.234375 -10.25 Z M 7.234375 -10.25 "/></g></g></g><g fill="#000000" fill-opacity="1"><g transform="translate(192.996371, 130.627503)"><g><path d="M 25.484375 -17.71875 L 25.25 -10.25 C 25.25 -5.3125 25.832031 -2.84375 27 -2.84375 C 28.164062 -2.84375 29.472656 -3.675781 30.921875 -5.34375 C 32.367188 -7.007812 33.597656 -9.035156 34.609375 -11.421875 C 35.628906 -13.804688 36.140625 -15.960938 36.140625 -17.890625 C 35.867188 -17.671875 35.238281 -17.5625 34.25 -17.5625 C 33.257812 -17.5625 32.4375 -17.875 31.78125 -18.5 C 31.132812 -19.125 30.8125 -19.910156 30.8125 -20.859375 C 30.8125 -21.804688 31.171875 -22.660156 31.890625 -23.421875 C 32.609375 -24.179688 33.6875 -24.5625 35.125 -24.5625 C 36.5625 -24.5625 37.726562 -24.097656 38.625 -23.171875 C 39.519531 -22.253906 39.96875 -20.988281 39.96875 -19.375 C 39.96875 -17.757812 39.617188 -15.828125 38.921875 -13.578125 C 38.234375 -11.328125 37.289062 -9.128906 36.09375 -6.984375 C 34.90625 -4.847656 33.351562 -3.039062 31.4375 -1.5625 C 29.53125 -0.0820312 27.492188 0.65625 25.328125 0.65625 C 23.398438 0.65625 22.03125 -0.457031 21.21875 -2.6875 C 20.539062 -4.53125 20.160156 -6.148438 20.078125 -7.546875 C 20.003906 -8.941406 19.9375 -10.03125 19.875 -10.8125 C 16.164062 -5.125 13 -1.601562 10.375 -0.25 C 9.207031 0.351562 8.023438 0.65625 6.828125 0.65625 C 4.171875 0.65625 2.84375 -0.90625 2.84375 -4.03125 C 2.84375 -5.789062 3.347656 -8.179688 4.359375 -11.203125 C 5.378906 -14.222656 5.890625 -16.148438 5.890625 -16.984375 C 5.890625 -17.828125 5.644531 -18.25 5.15625 -18.25 C 4.425781 -18.25 2.976562 -16.488281 0.8125 -12.96875 L -1.828125 -14.46875 C 2.148438 -21.195312 5.804688 -24.5625 9.140625 -24.5625 C 10.035156 -24.5625 10.816406 -24.226562 11.484375 -23.5625 C 12.148438 -22.894531 12.484375 -21.804688 12.484375 -20.296875 C 12.484375 -18.796875 11.941406 -16.023438 10.859375 -11.984375 C 9.773438 -7.953125 9.234375 -5.8125 9.234375 -5.5625 C 9.234375 -4.457031 9.582031 -3.90625 10.28125 -3.90625 C 10.988281 -3.90625 12.039062 -4.796875 13.4375 -6.578125 C 14.832031 -8.367188 16.179688 -10.347656 17.484375 -12.515625 C 20.867188 -18.265625 23.144531 -21.140625 24.3125 -21.140625 C 25.09375 -21.140625 25.484375 -20 25.484375 -17.71875 Z M 25.484375 -17.71875 "/></g></g></g><g fill="#000000" fill-opacity="1"><g transform="translate(233.46925, 130.627503)"><g><path d="M 7.484375 -8.015625 C 7.640625 -4.890625 9.738281 -3.328125 13.78125 -3.328125 C 15.269531 -3.328125 16.820312 -3.753906 18.4375 -4.609375 C 20.050781 -5.460938 21.359375 -6.472656 22.359375 -7.640625 L 24.109375 -6.5 C 21.859375 -2.738281 18.265625 -0.4375 13.328125 0.40625 C 12.242188 0.570312 11.203125 0.65625 10.203125 0.65625 C 7.273438 0.65625 4.832031 -0.3125 2.875 -2.25 C 0.925781 -4.1875 -0.046875 -6.550781 -0.046875 -9.34375 C -0.046875 -12.132812 0.804688 -14.71875 2.515625 -17.09375 C 4.222656 -19.46875 6.359375 -21.304688 8.921875 -22.609375 C 11.484375 -23.910156 14.007812 -24.5625 16.5 -24.5625 C 19 -24.5625 21.160156 -23.988281 22.984375 -22.84375 C 24.816406 -21.707031 25.753906 -20.175781 25.796875 -18.25 C 25.835938 -16.332031 25.273438 -14.675781 24.109375 -13.28125 C 22.941406 -11.882812 21.460938 -10.816406 19.671875 -10.078125 C 16.128906 -8.640625 12.648438 -7.921875 9.234375 -7.921875 Z M 7.234375 -10.25 C 10.242188 -10.351562 12.660156 -10.832031 14.484375 -11.6875 C 16.316406 -12.539062 17.59375 -13.515625 18.3125 -14.609375 C 19.03125 -15.710938 19.390625 -16.863281 19.390625 -18.0625 C 19.390625 -19.269531 19.078125 -20.164062 18.453125 -20.75 C 17.828125 -21.332031 17.164062 -21.625 16.46875 -21.625 C 14.726562 -21.625 13.132812 -21.019531 11.6875 -19.8125 C 10.238281 -18.613281 9.132812 -17.148438 8.375 -15.421875 C 7.613281 -13.703125 7.234375 -11.976562 7.234375 -10.25 Z M 7.234375 -10.25 "/></g></g></g><g fill="#000000" fill-opacity="1"><g transform="translate(259.672794, 130.627503)"><g><path d="M 15.125 -54.078125 L 21.703125 -54.078125 C 20.546875 -52.066406 18.757812 -47.613281 16.34375 -40.71875 C 13.925781 -33.820312 11.722656 -26.882812 9.734375 -19.90625 C 7.742188 -12.925781 6.75 -8.65625 6.75 -7.09375 C 6.75 -5.53125 6.9375 -4.75 7.3125 -4.75 C 8.457031 -4.75 10.234375 -6.472656 12.640625 -9.921875 L 14.359375 -8.296875 C 13.160156 -6.234375 11.867188 -4.5 10.484375 -3.09375 C 8.046875 -0.59375 6.066406 0.65625 4.546875 0.65625 C 1.785156 0.65625 0.40625 -1.007812 0.40625 -4.34375 C 0.40625 -9.3125 2.050781 -17.132812 5.34375 -27.8125 C 8.632812 -38.488281 11.894531 -47.242188 15.125 -54.078125 Z M 15.125 -54.078125 "/></g></g></g><g fill="#000000" fill-opacity="1"><g transform="translate(273.680326, 130.627503)"><g><path d="M 22.328125 -19.234375 C 21.296875 -19.234375 20.070312 -18.570312 18.65625 -17.25 C 17.25 -15.9375 15.882812 -14.332031 14.5625 -12.4375 C 12.445312 -9.40625 10.289062 -5.910156 8.09375 -1.953125 L 7 0 L 1.265625 0 C 1.265625 0 1.679688 -1.273438 2.515625 -3.828125 C 4.878906 -10.867188 6.0625 -15.046875 6.0625 -16.359375 C 6.0625 -17.679688 5.84375 -18.34375 5.40625 -18.34375 C 4.625 -18.34375 3.691406 -17.40625 2.609375 -15.53125 C 2.359375 -15.09375 2.148438 -14.742188 1.984375 -14.484375 C 1.828125 -14.234375 1.644531 -13.925781 1.4375 -13.5625 C 1.238281 -13.195312 1.113281 -12.972656 1.0625 -12.890625 L -1.671875 -14.46875 C 0.441406 -17.914062 2.378906 -20.457031 4.140625 -22.09375 C 5.910156 -23.738281 7.710938 -24.5625 9.546875 -24.5625 C 10.390625 -24.5625 11.113281 -24.207031 11.71875 -23.5 C 12.332031 -22.789062 12.640625 -21.957031 12.640625 -21 C 12.640625 -20.039062 12.582031 -19.1875 12.46875 -18.4375 C 12.363281 -17.6875 12.242188 -17 12.109375 -16.375 C 11.972656 -15.757812 11.785156 -15.015625 11.546875 -14.140625 C 11.304688 -13.273438 11.109375 -12.613281 10.953125 -12.15625 C 10.804688 -11.695312 10.609375 -11.070312 10.359375 -10.28125 C 10.117188 -9.5 9.972656 -9.039062 9.921875 -8.90625 C 10.410156 -9.882812 11.238281 -11.320312 12.40625 -13.21875 C 13.570312 -15.113281 14.328125 -16.300781 14.671875 -16.78125 C 15.023438 -17.269531 15.515625 -17.921875 16.140625 -18.734375 C 16.765625 -19.554688 17.3125 -20.1875 17.78125 -20.625 C 18.257812 -21.070312 18.828125 -21.585938 19.484375 -22.171875 C 20.148438 -22.753906 20.785156 -23.195312 21.390625 -23.5 C 22.898438 -24.207031 24.359375 -24.5625 25.765625 -24.5625 C 27.179688 -24.5625 28.316406 -24.144531 29.171875 -23.3125 C 30.023438 -22.488281 30.453125 -21.523438 30.453125 -20.421875 C 30.453125 -19.328125 30.101562 -18.363281 29.40625 -17.53125 C 28.71875 -16.707031 27.921875 -16.296875 27.015625 -16.296875 C 26.109375 -16.296875 25.394531 -16.453125 24.875 -16.765625 C 24.363281 -17.078125 24.015625 -17.410156 23.828125 -17.765625 C 23.253906 -18.742188 22.753906 -19.234375 22.328125 -19.234375 Z M 22.328125 -19.234375 "/></g></g></g><g fill="#000000" fill-opacity="1"><g transform="translate(302.241766, 130.627503)"><g><path d="M 1.90625 -14.0625 L -0.734375 -15.65625 C 0.617188 -18.007812 2.304688 -20.082031 4.328125 -21.875 C 6.347656 -23.664062 8.15625 -24.5625 9.75 -24.5625 C 12.351562 -24.5625 13.65625 -23.394531 13.65625 -21.0625 C 13.65625 -20.082031 12.984375 -17.707031 11.640625 -13.9375 C 10.304688 -10.175781 9.640625 -7.789062 9.640625 -6.78125 C 9.640625 -5.78125 9.707031 -5.140625 9.84375 -4.859375 C 9.976562 -4.578125 10.273438 -4.4375 10.734375 -4.4375 C 13.203125 -4.4375 15.742188 -5.363281 18.359375 -7.21875 C 20.972656 -9.070312 22.671875 -11.125 23.453125 -13.375 L 26.3125 -21.671875 C 26.601562 -22.515625 27.0625 -23.175781 27.6875 -23.65625 C 28.3125 -24.144531 28.914062 -24.390625 29.5 -24.390625 C 30.082031 -24.390625 30.554688 -24.195312 30.921875 -23.8125 C 31.285156 -23.4375 31.46875 -22.9375 31.46875 -22.3125 C 31.46875 -21.695312 31.347656 -21.050781 31.109375 -20.375 L 28.015625 -11.34375 C 26.304688 -6.03125 23.660156 -0.800781 20.078125 4.34375 C 23.203125 4.675781 25.984375 5.234375 28.421875 6.015625 L 28.09375 8.296875 C 24.351562 7.535156 21.046875 7.085938 18.171875 6.953125 C 15.546875 10.335938 12.859375 13.039062 10.109375 15.0625 C 7.359375 17.082031 4.957031 18.09375 2.90625 18.09375 C 0.863281 18.09375 -0.664062 17.675781 -1.6875 16.84375 C -2.707031 16.019531 -3.21875 14.890625 -3.21875 13.453125 C -3.21875 12.015625 -2.671875 10.707031 -1.578125 9.53125 C -0.492188 8.351562 0.953125 7.398438 2.765625 6.671875 C 6.453125 5.148438 10.679688 4.28125 15.453125 4.0625 C 15.828125 3.632812 16.734375 2.113281 18.171875 -0.5 C 19.609375 -3.125 20.378906 -4.773438 20.484375 -5.453125 C 15.691406 -1.378906 11.46875 0.65625 7.8125 0.65625 C 6.3125 0.65625 5.222656 0.144531 4.546875 -0.875 C 3.867188 -1.894531 3.53125 -3.148438 3.53125 -4.640625 C 3.53125 -6.128906 4.09375 -8.679688 5.21875 -12.296875 C 6.34375 -15.910156 6.90625 -17.96875 6.90625 -18.46875 C 6.90625 -18.976562 6.789062 -19.234375 6.5625 -19.234375 C 6.332031 -19.234375 6.082031 -19.171875 5.8125 -19.046875 C 5.539062 -18.921875 5.273438 -18.726562 5.015625 -18.46875 C 4.765625 -18.21875 4.53125 -17.976562 4.3125 -17.75 C 4.09375 -17.519531 3.851562 -17.203125 3.59375 -16.796875 C 3.34375 -16.390625 3.148438 -16.078125 3.015625 -15.859375 C 2.441406 -14.960938 2.070312 -14.363281 1.90625 -14.0625 Z M 13.65625 6.953125 C 11.46875 7.085938 9.234375 7.476562 6.953125 8.125 C 2.554688 9.375 0.359375 10.835938 0.359375 12.515625 C 0.359375 13.523438 0.984375 14.03125 2.234375 14.03125 C 3.484375 14.03125 5.515625 13.128906 8.328125 11.328125 C 11.148438 9.523438 12.925781 8.066406 13.65625 6.953125 Z M 13.65625 6.953125 "/></g></g></g></svg>