<svg xmlns="http://www.w3.org/2000/svg" xmlns:xlink="http://www.w3.org/1999/xlink" width="600" zoomAndPan="magnify" viewBox="0 0 450 449.999984" height="600" preserveAspectRatio="xMidYMid meet" version="1.0"><defs><g/></defs><g fill="#000000" fill-opacity="1"><g transform="translate(1.449414, 144.707517)"><g><path d="M 85.34375 -1.53125 L 87.578125 -5.375 C 89.628906 -4.195312 91.703125 -3.609375 93.796875 -3.609375 C 97.847656 -3.609375 101.539062 -5.785156 104.875 -10.140625 C 108.207031 -14.503906 111 -20.300781 113.25 -27.53125 L 62.8125 -27.53125 L 56.515625 -18.140625 C 51.847656 -11.222656 46.515625 -6.175781 40.515625 -3 C 34.523438 0.175781 27.835938 1.765625 20.453125 1.765625 C 13.066406 1.765625 7.671875 0.359375 4.265625 -2.453125 C 0.859375 -5.273438 -0.84375 -8.257812 -0.84375 -11.40625 C -0.84375 -14.5625 0.0859375 -17.097656 1.953125 -19.015625 C 3.828125 -20.941406 6.160156 -21.90625 8.953125 -21.90625 C 11.742188 -21.90625 13.804688 -21.019531 15.140625 -19.25 C 16.472656 -17.488281 17.140625 -15.132812 17.140625 -12.1875 C 17.140625 -9.238281 15.757812 -7.019531 13 -5.53125 C 13.144531 -5.019531 13.71875 -4.519531 14.71875 -4.03125 C 15.71875 -3.550781 17.101562 -3.3125 18.875 -3.3125 C 20.644531 -3.3125 22.347656 -3.523438 23.984375 -3.953125 C 25.628906 -4.390625 27.523438 -5.351562 29.671875 -6.84375 C 31.828125 -8.332031 34.085938 -10.5625 36.453125 -13.53125 C 41.523438 -19.9375 47.851562 -29.710938 55.4375 -42.859375 C 63.019531 -56.015625 70.410156 -66.960938 77.609375 -75.703125 C 84.816406 -84.441406 93.421875 -92.269531 103.421875 -99.1875 C 100.441406 -101.132812 96.796875 -102.695312 92.484375 -103.875 C 88.179688 -105.050781 83.351562 -105.640625 78 -105.640625 C 72.644531 -105.640625 67.054688 -104.675781 61.234375 -102.75 C 55.421875 -100.832031 50.5 -98.234375 46.46875 -94.953125 C 42.445312 -91.671875 39.054688 -87.800781 36.296875 -83.34375 C 30.910156 -74.78125 28.21875 -64.785156 28.21875 -53.359375 C 28.21875 -45.515625 29.550781 -37.800781 32.21875 -30.21875 L 27.21875 -27.828125 C 21.476562 -37.109375 18.609375 -46.953125 18.609375 -57.359375 C 18.609375 -64.378906 19.988281 -71.09375 22.75 -77.5 C 25.519531 -83.90625 29.40625 -89.59375 34.40625 -94.5625 C 39.40625 -99.539062 45.75 -103.503906 53.4375 -106.453125 C 61.125 -109.398438 69.554688 -110.875 78.734375 -110.875 C 85.398438 -110.875 90.164062 -110.410156 93.03125 -109.484375 L 98.578125 -107.796875 C 100.421875 -107.234375 102.597656 -106.195312 105.109375 -104.6875 C 107.617188 -103.175781 108.898438 -102.394531 108.953125 -102.34375 C 113.867188 -104.644531 118.09375 -106.140625 121.625 -106.828125 C 125.164062 -107.523438 129.269531 -107.875 133.9375 -107.875 L 135.859375 -104.265625 C 127.710938 -104.265625 120.359375 -102.316406 113.796875 -98.421875 C 119.898438 -93.085938 124.4375 -86.269531 127.40625 -77.96875 C 130.375 -69.664062 131.859375 -60.550781 131.859375 -50.625 C 131.859375 -40.707031 130.445312 -31.273438 127.625 -22.328125 C 124.8125 -13.390625 121.0625 -6.304688 116.375 -1.078125 C 111.6875 4.148438 106.597656 6.765625 101.109375 6.765625 C 95.617188 6.765625 90.363281 4 85.34375 -1.53125 Z M 108.953125 -94.875 C 100.335938 -88.46875 93.289062 -81.007812 87.8125 -72.5 C 83.039062 -65.175781 78.617188 -57.515625 74.546875 -49.515625 C 70.472656 -41.515625 67.488281 -35.828125 65.59375 -32.453125 L 114.640625 -32.453125 C 117.046875 -42.085938 118.25 -51.671875 118.25 -61.203125 C 118.25 -76.992188 115.148438 -88.21875 108.953125 -94.875 Z M 108.953125 -94.875 "/></g></g></g><g fill="#000000" fill-opacity="1"><g transform="translate(134.045586, 144.707517)"><g><path d="M 42.21875 -36.375 C 40.269531 -36.375 37.960938 -35.128906 35.296875 -32.640625 C 32.628906 -30.148438 30.039062 -27.113281 27.53125 -23.53125 C 23.53125 -17.789062 19.453125 -11.175781 15.296875 -3.6875 L 13.21875 0 L 2.390625 0 C 2.390625 0 3.179688 -2.410156 4.765625 -7.234375 C 9.222656 -20.554688 11.453125 -28.457031 11.453125 -30.9375 C 11.453125 -33.425781 11.039062 -34.671875 10.21875 -34.671875 C 8.738281 -34.671875 6.972656 -32.90625 4.921875 -29.375 C 4.460938 -28.550781 4.078125 -27.894531 3.765625 -27.40625 C 3.460938 -26.925781 3.117188 -26.335938 2.734375 -25.640625 C 2.347656 -24.953125 2.101562 -24.53125 2 -24.375 L -3.15625 -27.375 C 0.84375 -33.882812 4.507812 -38.6875 7.84375 -41.78125 C 11.175781 -44.882812 14.582031 -46.4375 18.0625 -46.4375 C 19.65625 -46.4375 21.023438 -45.769531 22.171875 -44.4375 C 23.328125 -43.101562 23.90625 -41.523438 23.90625 -39.703125 C 23.90625 -37.890625 23.800781 -36.273438 23.59375 -34.859375 C 23.394531 -33.453125 23.164062 -32.160156 22.90625 -30.984375 C 22.65625 -29.804688 22.296875 -28.394531 21.828125 -26.75 C 21.367188 -25.113281 21 -23.859375 20.71875 -22.984375 C 20.4375 -22.117188 20.066406 -20.941406 19.609375 -19.453125 C 19.148438 -17.960938 18.867188 -17.09375 18.765625 -16.84375 C 19.679688 -18.6875 21.238281 -21.398438 23.4375 -24.984375 C 25.644531 -28.578125 27.082031 -30.832031 27.75 -31.75 C 28.414062 -32.675781 29.335938 -33.90625 30.515625 -35.4375 C 31.703125 -36.976562 32.742188 -38.171875 33.640625 -39.015625 C 34.535156 -39.867188 35.609375 -40.84375 36.859375 -41.9375 C 38.117188 -43.039062 39.3125 -43.875 40.4375 -44.4375 C 43.3125 -45.769531 46.082031 -46.4375 48.75 -46.4375 C 51.414062 -46.4375 53.554688 -45.65625 55.171875 -44.09375 C 56.785156 -42.53125 57.59375 -40.707031 57.59375 -38.625 C 57.59375 -36.550781 56.9375 -34.734375 55.625 -33.171875 C 54.320312 -31.609375 52.8125 -30.828125 51.09375 -30.828125 C 49.375 -30.828125 48.023438 -31.117188 47.046875 -31.703125 C 46.078125 -32.296875 45.414062 -32.925781 45.0625 -33.59375 C 43.976562 -35.445312 43.03125 -36.375 42.21875 -36.375 Z M 42.21875 -36.375 "/></g></g></g><g fill="#000000" fill-opacity="1"><g transform="translate(188.063114, 144.707517)"><g><path d="M 10.453125 -44.75 C 15.734375 -61.15625 21.117188 -74.894531 26.609375 -85.96875 L 36.140625 -85.1875 C 35.578125 -83.550781 34.191406 -79.609375 31.984375 -73.359375 C 27.210938 -59.566406 24.140625 -50.03125 22.765625 -44.75 L 34.828125 -44.75 L 33.59375 -39.671875 L 21.140625 -39.671875 C 16.429688 -25.117188 14.078125 -16.265625 14.078125 -13.109375 C 14.078125 -9.953125 14.394531 -8.375 15.03125 -8.375 C 15.675781 -8.375 16.253906 -8.503906 16.765625 -8.765625 C 18.148438 -9.535156 21.125 -13.273438 25.6875 -19.984375 L 28.828125 -17.140625 C 25.398438 -10.890625 21.863281 -6.265625 18.21875 -3.265625 C 14.582031 -0.265625 11.582031 1.234375 9.21875 1.234375 C 6.863281 1.234375 5.082031 0.414062 3.875 -1.21875 C 2.675781 -2.863281 2.078125 -4.96875 2.078125 -7.53125 C 2.078125 -14.039062 4.359375 -24.753906 8.921875 -39.671875 L 0.84375 -39.671875 L 2.078125 -44.75 Z M 10.453125 -44.75 "/></g></g></g><g fill="#000000" fill-opacity="1"><g transform="translate(217.861203, 144.707517)"><g><path d="M 13.71875 1.234375 C 11.539062 1.234375 9.835938 0.566406 8.609375 -0.765625 C 7.378906 -2.097656 6.765625 -3.929688 6.765625 -6.265625 C 6.765625 -8.597656 7.363281 -11.773438 8.5625 -15.796875 C 9.769531 -19.828125 10.976562 -23.476562 12.1875 -26.75 C 13.394531 -30.03125 14 -32.222656 14 -33.328125 C 14 -34.429688 13.640625 -34.984375 12.921875 -34.984375 C 11.117188 -34.984375 8.222656 -31.445312 4.234375 -24.375 L -0.921875 -27.375 C 6.609375 -40.082031 13.53125 -46.4375 19.84375 -46.4375 C 24.144531 -46.4375 26.296875 -43.722656 26.296875 -38.296875 C 26.296875 -36.703125 25.785156 -34.160156 24.765625 -30.671875 L 19.21875 -14.84375 C 18.65625 -13.351562 18.375 -12.003906 18.375 -10.796875 C 18.375 -9.597656 18.835938 -9 19.765625 -9 C 21.503906 -9 24.707031 -12.226562 29.375 -18.6875 L 32.59375 -15.6875 C 29.832031 -10.5625 26.539062 -6.457031 22.71875 -3.375 C 18.90625 -0.300781 15.90625 1.234375 13.71875 1.234375 Z M 35.59375 -69.15625 C 35.59375 -67.082031 34.898438 -65.195312 33.515625 -63.5 C 32.140625 -61.8125 30.269531 -60.96875 27.90625 -60.96875 C 25.550781 -60.96875 23.785156 -61.671875 22.609375 -63.078125 C 21.429688 -64.492188 20.84375 -66.273438 20.84375 -68.421875 C 20.84375 -70.578125 21.570312 -72.488281 23.03125 -74.15625 C 24.488281 -75.820312 26.367188 -76.65625 28.671875 -76.65625 C 30.984375 -76.65625 32.710938 -75.925781 33.859375 -74.46875 C 35.015625 -73.007812 35.59375 -71.238281 35.59375 -69.15625 Z M 35.59375 -69.15625 "/></g></g></g><g fill="#000000" fill-opacity="1"><g transform="translate(250.350337, 144.707517)"><g><path d="M 7.1875 -0.53125 C 3.832031 -1.71875 1.4375 -3.117188 0 -4.734375 C -1.4375 -6.347656 -2.15625 -8.128906 -2.15625 -10.078125 C -2.15625 -12.023438 -1.613281 -13.640625 -0.53125 -14.921875 C 0.539062 -16.203125 1.957031 -16.84375 3.71875 -16.84375 C 5.488281 -16.84375 7.050781 -16.316406 8.40625 -15.265625 C 9.769531 -14.210938 10.453125 -12.722656 10.453125 -10.796875 C 10.453125 -8.878906 9.273438 -7.28125 6.921875 -6 C 8.867188 -4.300781 11.84375 -3.453125 15.84375 -3.453125 C 24.5 -3.453125 28.828125 -5.914062 28.828125 -10.84375 C 28.828125 -13.914062 26.085938 -16.375 20.609375 -18.21875 C 18.347656 -18.988281 16.078125 -19.804688 13.796875 -20.671875 C 11.515625 -21.546875 9.53125 -22.828125 7.84375 -24.515625 C 6.15625 -26.210938 5.234375 -28.265625 5.078125 -30.671875 C 5.078125 -34.160156 6.226562 -37.109375 8.53125 -39.515625 C 12.882812 -44.128906 19.394531 -46.4375 28.0625 -46.4375 C 32.320312 -46.4375 36.085938 -45.628906 39.359375 -44.015625 C 42.640625 -42.398438 44.28125 -40.3125 44.28125 -37.75 C 44.28125 -35.1875 43.625 -33.34375 42.3125 -32.21875 C 41.007812 -31.09375 39.488281 -30.53125 37.75 -30.53125 C 36.007812 -30.53125 34.535156 -31.003906 33.328125 -31.953125 C 32.128906 -32.898438 31.53125 -34.21875 31.53125 -35.90625 C 31.53125 -37.59375 32.523438 -39.054688 34.515625 -40.296875 C 33.285156 -41.160156 31.160156 -41.59375 28.140625 -41.59375 C 25.117188 -41.59375 22.398438 -41.144531 19.984375 -40.25 C 17.578125 -39.351562 16.375 -38.132812 16.375 -36.59375 C 16.375 -35.0625 17.257812 -33.78125 19.03125 -32.75 C 20.800781 -31.726562 22.941406 -30.78125 25.453125 -29.90625 C 27.960938 -29.039062 30.472656 -28.039062 32.984375 -26.90625 C 35.492188 -25.78125 37.632812 -24.164062 39.40625 -22.0625 C 41.175781 -19.96875 42.0625 -17.378906 42.0625 -14.296875 C 42.0625 -11.222656 40.804688 -8.429688 38.296875 -5.921875 C 33.523438 -1.148438 27.015625 1.234375 18.765625 1.234375 C 14.398438 1.234375 10.539062 0.644531 7.1875 -0.53125 Z M 7.1875 -0.53125 "/></g></g></g><g fill="#000000" fill-opacity="1"><g transform="translate(296.140937, 144.707517)"><g><path d="M 42.515625 -44.75 L 54.515625 -44.75 L 48.4375 -21.765625 C 47.46875 -18.535156 46.984375 -15.597656 46.984375 -12.953125 C 46.984375 -10.316406 47.441406 -9 48.359375 -9 C 49.285156 -9 50.554688 -9.804688 52.171875 -11.421875 C 53.785156 -13.035156 55.15625 -14.660156 56.28125 -16.296875 L 58.046875 -18.765625 L 61.359375 -15.6875 C 59.660156 -12.40625 57.507812 -9.40625 54.90625 -6.6875 C 49.820312 -1.40625 45.410156 1.234375 41.671875 1.234375 C 37.265625 1.234375 35.0625 -2.175781 35.0625 -9 C 35.0625 -10.125 35.113281 -10.96875 35.21875 -11.53125 C 34.445312 -8.914062 32.984375 -6.609375 30.828125 -4.609375 C 26.734375 -0.710938 22.109375 1.234375 16.953125 1.234375 C 11.804688 1.234375 7.679688 -0.519531 4.578125 -4.03125 C 1.472656 -7.539062 -0.078125 -11.9375 -0.078125 -17.21875 C -0.078125 -25.425781 2.585938 -32.347656 7.921875 -37.984375 C 13.253906 -43.617188 19.507812 -46.4375 26.6875 -46.4375 C 30.269531 -46.4375 33.238281 -45.445312 35.59375 -43.46875 C 37.957031 -41.5 39.5 -38.925781 40.21875 -35.75 Z M 29.671875 -39.828125 C 26.703125 -39.828125 23.921875 -38.582031 21.328125 -36.09375 C 18.742188 -33.613281 16.757812 -30.617188 15.375 -27.109375 C 13.988281 -23.597656 13.296875 -20.175781 13.296875 -16.84375 C 13.296875 -13.507812 14.023438 -10.816406 15.484375 -8.765625 C 16.953125 -6.710938 19.207031 -5.6875 22.25 -5.6875 C 25.300781 -5.6875 28.0625 -7.070312 30.53125 -9.84375 C 35.1875 -15.175781 37.515625 -21.503906 37.515625 -28.828125 C 37.515625 -36.160156 34.898438 -39.828125 29.671875 -39.828125 Z M 29.671875 -39.828125 "/></g></g></g><g fill="#000000" fill-opacity="1"><g transform="translate(356.84765, 144.707517)"><g><path d="M 20.90625 -21.609375 C 31.625 -38.160156 41.238281 -46.4375 49.75 -46.4375 C 52.613281 -46.4375 54.765625 -45.566406 56.203125 -43.828125 C 57.640625 -42.085938 58.359375 -39.882812 58.359375 -37.21875 C 58.359375 -34.550781 57.164062 -29.9375 54.78125 -23.375 C 52.394531 -16.8125 51.203125 -12.75 51.203125 -11.1875 C 51.203125 -9.625 51.585938 -8.84375 52.359375 -8.84375 C 53.390625 -8.84375 54.898438 -9.90625 56.890625 -12.03125 C 58.890625 -14.15625 60.660156 -16.398438 62.203125 -18.765625 L 65.4375 -15.6875 C 62.351562 -10.09375 58.976562 -5.875 55.3125 -3.03125 C 51.65625 -0.1875 48.6875 1.234375 46.40625 1.234375 C 44.125 1.234375 42.34375 0.476562 41.0625 -1.03125 C 39.78125 -2.550781 39.140625 -4.617188 39.140625 -7.234375 C 39.140625 -9.847656 40.175781 -14.113281 42.25 -20.03125 C 44.320312 -25.945312 45.359375 -30.148438 45.359375 -32.640625 C 45.359375 -35.128906 44.515625 -36.375 42.828125 -36.375 C 40.878906 -36.375 38.570312 -35.128906 35.90625 -32.640625 C 33.238281 -30.148438 30.648438 -27.113281 28.140625 -23.53125 C 24.140625 -17.789062 20.066406 -11.175781 15.921875 -3.6875 L 13.84375 0 L 3 0 L 5.375 -7.234375 C 9.84375 -20.554688 12.078125 -28.457031 12.078125 -30.9375 C 12.078125 -33.425781 11.664062 -34.671875 10.84375 -34.671875 C 9.351562 -34.671875 7.582031 -32.90625 5.53125 -29.375 C 5.070312 -28.550781 4.6875 -27.894531 4.375 -27.40625 C 4.070312 -26.925781 3.726562 -26.335938 3.34375 -25.640625 C 2.957031 -24.953125 2.710938 -24.53125 2.609375 -24.375 L -2.53125 -27.375 C 1.457031 -33.882812 5.117188 -38.6875 8.453125 -41.78125 C 11.785156 -44.882812 15.195312 -46.4375 18.6875 -46.4375 C 20.269531 -46.4375 21.640625 -45.769531 22.796875 -44.4375 C 23.953125 -43.101562 24.53125 -41.488281 24.53125 -39.59375 C 24.53125 -37.695312 24.375 -35.835938 24.0625 -34.015625 C 23.757812 -32.203125 23.441406 -30.691406 23.109375 -29.484375 C 22.773438 -28.285156 22.335938 -26.734375 21.796875 -24.828125 C 21.253906 -22.929688 20.957031 -21.859375 20.90625 -21.609375 Z M 20.90625 -21.609375 "/></g></g></g><g fill="#000000" fill-opacity="1"><g transform="translate(421.625162, 144.707517)"><g/></g></g><g fill="#000000" fill-opacity="1"><g transform="translate(86.703314, 272.207507)"><g><path d="M 96.34375 -94.1875 C 89.46875 -100.90625 81.851562 -104.265625 73.5 -104.265625 C 57.507812 -104.265625 44.441406 -96.570312 34.296875 -81.1875 C 28.398438 -72.269531 25.453125 -62.789062 25.453125 -52.75 C 25.453125 -44.75 27.453125 -38.1875 31.453125 -33.0625 C 35.753906 -27.476562 42.265625 -24.6875 50.984375 -24.6875 C 57.847656 -24.6875 64.507812 -26.847656 70.96875 -31.171875 C 77.425781 -35.503906 82.164062 -41.234375 85.1875 -48.359375 L 96.34375 -48.515625 C 91.164062 -24.890625 82.050781 -6.460938 69 6.765625 C 55.957031 19.992188 40.414062 26.609375 22.375 26.609375 C 12.988281 26.609375 5.757812 24.679688 0.6875 20.828125 C -4.382812 16.984375 -6.921875 12.382812 -6.921875 7.03125 C -6.921875 1.675781 -4.382812 -2.984375 0.6875 -6.953125 C 5.757812 -10.929688 12.707031 -12.921875 21.53125 -12.921875 C 30.289062 -12.921875 37.234375 -10.921875 42.359375 -6.921875 L 39.0625 -0.15625 C 34.34375 -2.15625 28.78125 -3.15625 22.375 -3.15625 C 15.96875 -3.15625 10.632812 -2.09375 6.375 0.03125 C 2.125 2.164062 0 4.796875 0 7.921875 C 0 11.046875 2.0625 13.707031 6.1875 15.90625 C 10.3125 18.113281 16.117188 19.21875 23.609375 19.21875 C 35.546875 19.21875 46.421875 14.539062 56.234375 5.1875 C 66.054688 -4.164062 74.425781 -17.890625 81.34375 -35.984375 C 77.09375 -29.984375 71.914062 -25.394531 65.8125 -22.21875 C 59.71875 -19.039062 53.835938 -17.453125 48.171875 -17.453125 C 42.503906 -17.453125 37.503906 -18.179688 33.171875 -19.640625 C 28.847656 -21.109375 24.976562 -23.210938 21.5625 -25.953125 C 18.15625 -28.691406 15.4375 -32.273438 13.40625 -36.703125 C 11.382812 -41.140625 10.375 -46.125 10.375 -51.65625 C 10.375 -57.195312 11.285156 -62.773438 13.109375 -68.390625 C 14.929688 -74.003906 17.660156 -79.347656 21.296875 -84.421875 C 24.929688 -89.492188 29.222656 -94.003906 34.171875 -97.953125 C 39.117188 -101.898438 44.972656 -105.039062 51.734375 -107.375 C 58.503906 -109.707031 65.660156 -110.875 73.203125 -110.875 C 80.578125 -110.875 87.570312 -109.128906 94.1875 -105.640625 C 97.46875 -103.953125 100.144531 -101.59375 102.21875 -98.5625 C 104.300781 -95.539062 105.34375 -92.082031 105.34375 -88.1875 C 105.34375 -84.289062 104.1875 -81.28125 101.875 -79.15625 C 99.570312 -77.03125 96.972656 -75.96875 94.078125 -75.96875 C 91.179688 -75.96875 88.785156 -76.734375 86.890625 -78.265625 C 84.992188 -79.804688 84.046875 -81.910156 84.046875 -84.578125 C 84.046875 -90.984375 88.144531 -94.1875 96.34375 -94.1875 Z M 96.34375 -94.1875 "/></g></g></g><g fill="#000000" fill-opacity="1"><g transform="translate(179.779501, 272.207507)"><g><path d="M 28.609375 -102.265625 L 41.0625 -102.265625 C 38.851562 -98.472656 35.46875 -90.050781 30.90625 -77 C 26.34375 -63.957031 22.175781 -50.835938 18.40625 -37.640625 C 14.644531 -24.441406 12.765625 -16.367188 12.765625 -13.421875 C 12.765625 -10.472656 13.125 -9 13.84375 -9 C 15.988281 -9 19.34375 -12.253906 23.90625 -18.765625 L 27.140625 -15.6875 C 24.890625 -11.789062 22.457031 -8.507812 19.84375 -5.84375 C 15.226562 -1.125 11.484375 1.234375 8.609375 1.234375 C 3.378906 1.234375 0.765625 -1.921875 0.765625 -8.234375 C 0.765625 -17.609375 3.878906 -32.394531 10.109375 -52.59375 C 16.335938 -72.789062 22.503906 -89.347656 28.609375 -102.265625 Z M 28.609375 -102.265625 "/></g></g></g><g fill="#000000" fill-opacity="1"><g transform="translate(206.271438, 272.207507)"><g><path d="M 42.515625 -44.75 L 54.515625 -44.75 L 48.4375 -21.765625 C 47.46875 -18.535156 46.984375 -15.597656 46.984375 -12.953125 C 46.984375 -10.316406 47.441406 -9 48.359375 -9 C 49.285156 -9 50.554688 -9.804688 52.171875 -11.421875 C 53.785156 -13.035156 55.15625 -14.660156 56.28125 -16.296875 L 58.046875 -18.765625 L 61.359375 -15.6875 C 59.660156 -12.40625 57.507812 -9.40625 54.90625 -6.6875 C 49.820312 -1.40625 45.410156 1.234375 41.671875 1.234375 C 37.265625 1.234375 35.0625 -2.175781 35.0625 -9 C 35.0625 -10.125 35.113281 -10.96875 35.21875 -11.53125 C 34.445312 -8.914062 32.984375 -6.609375 30.828125 -4.609375 C 26.734375 -0.710938 22.109375 1.234375 16.953125 1.234375 C 11.804688 1.234375 7.679688 -0.519531 4.578125 -4.03125 C 1.472656 -7.539062 -0.078125 -11.9375 -0.078125 -17.21875 C -0.078125 -25.425781 2.585938 -32.347656 7.921875 -37.984375 C 13.253906 -43.617188 19.507812 -46.4375 26.6875 -46.4375 C 30.269531 -46.4375 33.238281 -45.445312 35.59375 -43.46875 C 37.957031 -41.5 39.5 -38.925781 40.21875 -35.75 Z M 29.671875 -39.828125 C 26.703125 -39.828125 23.921875 -38.582031 21.328125 -36.09375 C 18.742188 -33.613281 16.757812 -30.617188 15.375 -27.109375 C 13.988281 -23.597656 13.296875 -20.175781 13.296875 -16.84375 C 13.296875 -13.507812 14.023438 -10.816406 15.484375 -8.765625 C 16.953125 -6.710938 19.207031 -5.6875 22.25 -5.6875 C 25.300781 -5.6875 28.0625 -7.070312 30.53125 -9.84375 C 35.1875 -15.175781 37.515625 -21.503906 37.515625 -28.828125 C 37.515625 -36.160156 34.898438 -39.828125 29.671875 -39.828125 Z M 29.671875 -39.828125 "/></g></g></g><g fill="#000000" fill-opacity="1"><g transform="translate(266.978152, 272.207507)"><g><path d="M 7.1875 -0.53125 C 3.832031 -1.71875 1.4375 -3.117188 0 -4.734375 C -1.4375 -6.347656 -2.15625 -8.128906 -2.15625 -10.078125 C -2.15625 -12.023438 -1.613281 -13.640625 -0.53125 -14.921875 C 0.539062 -16.203125 1.957031 -16.84375 3.71875 -16.84375 C 5.488281 -16.84375 7.050781 -16.316406 8.40625 -15.265625 C 9.769531 -14.210938 10.453125 -12.722656 10.453125 -10.796875 C 10.453125 -8.878906 9.273438 -7.28125 6.921875 -6 C 8.867188 -4.300781 11.84375 -3.453125 15.84375 -3.453125 C 24.5 -3.453125 28.828125 -5.914062 28.828125 -10.84375 C 28.828125 -13.914062 26.085938 -16.375 20.609375 -18.21875 C 18.347656 -18.988281 16.078125 -19.804688 13.796875 -20.671875 C 11.515625 -21.546875 9.53125 -22.828125 7.84375 -24.515625 C 6.15625 -26.210938 5.234375 -28.265625 5.078125 -30.671875 C 5.078125 -34.160156 6.226562 -37.109375 8.53125 -39.515625 C 12.882812 -44.128906 19.394531 -46.4375 28.0625 -46.4375 C 32.320312 -46.4375 36.085938 -45.628906 39.359375 -44.015625 C 42.640625 -42.398438 44.28125 -40.3125 44.28125 -37.75 C 44.28125 -35.1875 43.625 -33.34375 42.3125 -32.21875 C 41.007812 -31.09375 39.488281 -30.53125 37.75 -30.53125 C 36.007812 -30.53125 34.535156 -31.003906 33.328125 -31.953125 C 32.128906 -32.898438 31.53125 -34.21875 31.53125 -35.90625 C 31.53125 -37.59375 32.523438 -39.054688 34.515625 -40.296875 C 33.285156 -41.160156 31.160156 -41.59375 28.140625 -41.59375 C 25.117188 -41.59375 22.398438 -41.144531 19.984375 -40.25 C 17.578125 -39.351562 16.375 -38.132812 16.375 -36.59375 C 16.375 -35.0625 17.257812 -33.78125 19.03125 -32.75 C 20.800781 -31.726562 22.941406 -30.78125 25.453125 -29.90625 C 27.960938 -29.039062 30.472656 -28.039062 32.984375 -26.90625 C 35.492188 -25.78125 37.632812 -24.164062 39.40625 -22.0625 C 41.175781 -19.96875 42.0625 -17.378906 42.0625 -14.296875 C 42.0625 -11.222656 40.804688 -8.429688 38.296875 -5.921875 C 33.523438 -1.148438 27.015625 1.234375 18.765625 1.234375 C 14.398438 1.234375 10.539062 0.644531 7.1875 -0.53125 Z M 7.1875 -0.53125 "/></g></g></g><g fill="#000000" fill-opacity="1"><g transform="translate(312.768763, 272.207507)"><g><path d="M 7.1875 -0.53125 C 3.832031 -1.71875 1.4375 -3.117188 0 -4.734375 C -1.4375 -6.347656 -2.15625 -8.128906 -2.15625 -10.078125 C -2.15625 -12.023438 -1.613281 -13.640625 -0.53125 -14.921875 C 0.539062 -16.203125 1.957031 -16.84375 3.71875 -16.84375 C 5.488281 -16.84375 7.050781 -16.316406 8.40625 -15.265625 C 9.769531 -14.210938 10.453125 -12.722656 10.453125 -10.796875 C 10.453125 -8.878906 9.273438 -7.28125 6.921875 -6 C 8.867188 -4.300781 11.84375 -3.453125 15.84375 -3.453125 C 24.5 -3.453125 28.828125 -5.914062 28.828125 -10.84375 C 28.828125 -13.914062 26.085938 -16.375 20.609375 -18.21875 C 18.347656 -18.988281 16.078125 -19.804688 13.796875 -20.671875 C 11.515625 -21.546875 9.53125 -22.828125 7.84375 -24.515625 C 6.15625 -26.210938 5.234375 -28.265625 5.078125 -30.671875 C 5.078125 -34.160156 6.226562 -37.109375 8.53125 -39.515625 C 12.882812 -44.128906 19.394531 -46.4375 28.0625 -46.4375 C 32.320312 -46.4375 36.085938 -45.628906 39.359375 -44.015625 C 42.640625 -42.398438 44.28125 -40.3125 44.28125 -37.75 C 44.28125 -35.1875 43.625 -33.34375 42.3125 -32.21875 C 41.007812 -31.09375 39.488281 -30.53125 37.75 -30.53125 C 36.007812 -30.53125 34.535156 -31.003906 33.328125 -31.953125 C 32.128906 -32.898438 31.53125 -34.21875 31.53125 -35.90625 C 31.53125 -37.59375 32.523438 -39.054688 34.515625 -40.296875 C 33.285156 -41.160156 31.160156 -41.59375 28.140625 -41.59375 C 25.117188 -41.59375 22.398438 -41.144531 19.984375 -40.25 C 17.578125 -39.351562 16.375 -38.132812 16.375 -36.59375 C 16.375 -35.0625 17.257812 -33.78125 19.03125 -32.75 C 20.800781 -31.726562 22.941406 -30.78125 25.453125 -29.90625 C 27.960938 -29.039062 30.472656 -28.039062 32.984375 -26.90625 C 35.492188 -25.78125 37.632812 -24.164062 39.40625 -22.0625 C 41.175781 -19.96875 42.0625 -17.378906 42.0625 -14.296875 C 42.0625 -11.222656 40.804688 -8.429688 38.296875 -5.921875 C 33.523438 -1.148438 27.015625 1.234375 18.765625 1.234375 C 14.398438 1.234375 10.539062 0.644531 7.1875 -0.53125 Z M 7.1875 -0.53125 "/></g></g></g><g fill="#000000" fill-opacity="1"><g transform="translate(17.468944, 399.707498)"><g><path d="M 116.875 -105.796875 C 101.957031 -90.367188 94.34375 -73.53125 94.03125 -55.28125 L 108.640625 -55.28125 L 108.640625 -49.4375 L 93.734375 -49.4375 C 93.210938 -39.644531 91.582031 -30.722656 88.84375 -22.671875 C 86.101562 -14.628906 82.628906 -7.863281 78.421875 -2.375 C 74.222656 3.101562 69.351562 7.710938 63.8125 11.453125 C 53.101562 18.628906 40.957031 22.21875 27.375 22.21875 C 11.582031 22.21875 1.484375 16.757812 -2.921875 5.84375 C -4.203125 2.769531 -4.84375 -0.6875 -4.84375 -4.53125 C -4.84375 -8.375 -3.984375 -12.332031 -2.265625 -16.40625 C -0.546875 -20.488281 1.804688 -24.195312 4.796875 -27.53125 C 7.796875 -30.863281 11.585938 -33.566406 16.171875 -35.640625 C 20.765625 -37.710938 25.726562 -38.75 31.0625 -38.75 C 31.9375 -38.75 33.445312 -38.644531 35.59375 -38.4375 C 30.007812 -46.800781 27.21875 -55.414062 27.21875 -64.28125 C 27.21875 -73.144531 29.484375 -81.125 34.015625 -88.21875 C 38.554688 -95.320312 44.835938 -100.875 52.859375 -104.875 C 60.878906 -108.875 69.863281 -110.875 79.8125 -110.875 C 84.007812 -110.875 90.195312 -110.023438 98.375 -108.328125 C 106.550781 -106.640625 112.71875 -105.796875 116.875 -105.796875 Z M 80.5 -55.28125 C 82.039062 -69.632812 88.269531 -83.21875 99.1875 -96.03125 C 91.34375 -99.3125 83.066406 -100.953125 74.359375 -100.953125 C 61.742188 -100.953125 51.65625 -97.566406 44.09375 -90.796875 C 36.53125 -84.035156 32.75 -75.25 32.75 -64.4375 C 32.75 -55.875 35.851562 -47.003906 42.0625 -37.828125 L 60.28125 -32.59375 L 58.75 -27.828125 C 53.769531 -29.523438 49.15625 -30.804688 44.90625 -31.671875 C 46.03125 -29.472656 48.234375 -25.9375 51.515625 -21.0625 L 46.28125 -19.375 L 38.296875 -32.59375 C 36.296875 -33.007812 33.640625 -33.21875 30.328125 -33.21875 C 27.023438 -33.21875 23.550781 -32.367188 19.90625 -30.671875 C 16.269531 -28.984375 13.273438 -26.753906 10.921875 -23.984375 C 5.941406 -18.140625 3.453125 -11.898438 3.453125 -5.265625 C 3.453125 1.367188 5.53125 6.757812 9.6875 10.90625 C 13.84375 15.0625 19.738281 17.140625 27.375 17.140625 C 35.007812 17.140625 41.644531 15.921875 47.28125 13.484375 C 52.925781 11.054688 58.03125 7.226562 62.59375 2 C 71.8125 -8.5625 77.601562 -25.757812 79.96875 -49.59375 L 63.4375 -49.59375 L 63.4375 -55.28125 Z M 80.5 -55.28125 "/></g></g></g><g fill="#000000" fill-opacity="1"><g transform="translate(114.927704, 399.707498)"><g><path d="M 14.140625 -15.140625 C 14.453125 -9.253906 18.425781 -6.3125 26.0625 -6.3125 C 28.882812 -6.3125 31.816406 -7.117188 34.859375 -8.734375 C 37.910156 -10.347656 40.382812 -12.253906 42.28125 -14.453125 L 45.59375 -12.296875 C 41.34375 -5.171875 34.550781 -0.816406 25.21875 0.765625 C 23.164062 1.078125 21.191406 1.234375 19.296875 1.234375 C 13.765625 1.234375 9.148438 -0.597656 5.453125 -4.265625 C 1.765625 -7.929688 -0.078125 -12.40625 -0.078125 -17.6875 C -0.078125 -22.96875 1.535156 -27.847656 4.765625 -32.328125 C 7.992188 -36.816406 12.03125 -40.289062 16.875 -42.75 C 21.71875 -45.207031 26.5 -46.4375 31.21875 -46.4375 C 35.9375 -46.4375 40.023438 -45.359375 43.484375 -43.203125 C 46.941406 -41.054688 48.707031 -38.160156 48.78125 -34.515625 C 48.863281 -30.878906 47.800781 -27.738281 45.59375 -25.09375 C 43.382812 -22.457031 40.59375 -20.445312 37.21875 -19.0625 C 30.5 -16.351562 23.910156 -15 17.453125 -15 Z M 13.6875 -19.375 C 19.375 -19.582031 23.945312 -20.492188 27.40625 -22.109375 C 30.863281 -23.722656 33.269531 -25.566406 34.625 -27.640625 C 35.988281 -29.710938 36.671875 -31.890625 36.671875 -34.171875 C 36.671875 -36.453125 36.082031 -38.144531 34.90625 -39.25 C 33.726562 -40.351562 32.472656 -40.90625 31.140625 -40.90625 C 27.859375 -40.90625 24.84375 -39.765625 22.09375 -37.484375 C 19.351562 -35.203125 17.265625 -32.429688 15.828125 -29.171875 C 14.398438 -25.921875 13.6875 -22.65625 13.6875 -19.375 Z M 13.6875 -19.375 "/></g></g></g><g fill="#000000" fill-opacity="1"><g transform="translate(164.485778, 399.707498)"><g><path d="M 48.203125 -33.53125 L 47.75 -19.375 C 47.75 -10.039062 48.847656 -5.375 51.046875 -5.375 C 53.253906 -5.375 55.726562 -6.953125 58.46875 -10.109375 C 61.21875 -13.265625 63.550781 -17.097656 65.46875 -21.609375 C 67.394531 -26.117188 68.359375 -30.191406 68.359375 -33.828125 C 67.835938 -33.421875 66.640625 -33.21875 64.765625 -33.21875 C 62.898438 -33.21875 61.351562 -33.804688 60.125 -34.984375 C 58.894531 -36.160156 58.28125 -37.644531 58.28125 -39.4375 C 58.28125 -41.238281 58.957031 -42.851562 60.3125 -44.28125 C 61.675781 -45.71875 63.710938 -46.4375 66.421875 -46.4375 C 69.140625 -46.4375 71.34375 -45.566406 73.03125 -43.828125 C 74.726562 -42.085938 75.578125 -39.691406 75.578125 -36.640625 C 75.578125 -33.585938 74.921875 -29.929688 73.609375 -25.671875 C 72.304688 -21.421875 70.523438 -17.269531 68.265625 -13.21875 C 66.015625 -9.175781 63.082031 -5.753906 59.46875 -2.953125 C 55.851562 -0.160156 52 1.234375 47.90625 1.234375 C 44.257812 1.234375 41.671875 -0.867188 40.140625 -5.078125 C 38.859375 -8.554688 38.140625 -11.613281 37.984375 -14.25 C 37.828125 -16.894531 37.695312 -18.960938 37.59375 -20.453125 C 30.570312 -9.691406 24.578125 -3.03125 19.609375 -0.46875 C 17.398438 0.664062 15.171875 1.234375 12.921875 1.234375 C 7.890625 1.234375 5.375 -1.710938 5.375 -7.609375 C 5.375 -10.941406 6.335938 -15.460938 8.265625 -21.171875 C 10.191406 -26.890625 11.15625 -30.539062 11.15625 -32.125 C 11.15625 -33.71875 10.691406 -34.515625 9.765625 -34.515625 C 8.378906 -34.515625 5.632812 -31.1875 1.53125 -24.53125 L -3.453125 -27.375 C 4.078125 -40.082031 10.992188 -46.4375 17.296875 -46.4375 C 18.992188 -46.4375 20.46875 -45.804688 21.71875 -44.546875 C 22.976562 -43.296875 23.609375 -41.25 23.609375 -38.40625 C 23.609375 -35.5625 22.582031 -30.316406 20.53125 -22.671875 C 18.476562 -15.035156 17.453125 -10.988281 17.453125 -10.53125 C 17.453125 -8.425781 18.117188 -7.375 19.453125 -7.375 C 20.785156 -7.375 22.769531 -9.066406 25.40625 -12.453125 C 28.050781 -15.835938 30.601562 -19.582031 33.0625 -23.6875 C 39.46875 -34.550781 43.773438 -39.984375 45.984375 -39.984375 C 47.460938 -39.984375 48.203125 -37.832031 48.203125 -33.53125 Z M 48.203125 -33.53125 "/></g></g></g><g fill="#000000" fill-opacity="1"><g transform="translate(241.031228, 399.707498)"><g><path d="M 14.140625 -15.140625 C 14.453125 -9.253906 18.425781 -6.3125 26.0625 -6.3125 C 28.882812 -6.3125 31.816406 -7.117188 34.859375 -8.734375 C 37.910156 -10.347656 40.382812 -12.253906 42.28125 -14.453125 L 45.59375 -12.296875 C 41.34375 -5.171875 34.550781 -0.816406 25.21875 0.765625 C 23.164062 1.078125 21.191406 1.234375 19.296875 1.234375 C 13.765625 1.234375 9.148438 -0.597656 5.453125 -4.265625 C 1.765625 -7.929688 -0.078125 -12.40625 -0.078125 -17.6875 C -0.078125 -22.96875 1.535156 -27.847656 4.765625 -32.328125 C 7.992188 -36.816406 12.03125 -40.289062 16.875 -42.75 C 21.71875 -45.207031 26.5 -46.4375 31.21875 -46.4375 C 35.9375 -46.4375 40.023438 -45.359375 43.484375 -43.203125 C 46.941406 -41.054688 48.707031 -38.160156 48.78125 -34.515625 C 48.863281 -30.878906 47.800781 -27.738281 45.59375 -25.09375 C 43.382812 -22.457031 40.59375 -20.445312 37.21875 -19.0625 C 30.5 -16.351562 23.910156 -15 17.453125 -15 Z M 13.6875 -19.375 C 19.375 -19.582031 23.945312 -20.492188 27.40625 -22.109375 C 30.863281 -23.722656 33.269531 -25.566406 34.625 -27.640625 C 35.988281 -29.710938 36.671875 -31.890625 36.671875 -34.171875 C 36.671875 -36.453125 36.082031 -38.144531 34.90625 -39.25 C 33.726562 -40.351562 32.472656 -40.90625 31.140625 -40.90625 C 27.859375 -40.90625 24.84375 -39.765625 22.09375 -37.484375 C 19.351562 -35.203125 17.265625 -32.429688 15.828125 -29.171875 C 14.398438 -25.921875 13.6875 -22.65625 13.6875 -19.375 Z M 13.6875 -19.375 "/></g></g></g><g fill="#000000" fill-opacity="1"><g transform="translate(290.589315, 399.707498)"><g><path d="M 28.609375 -102.265625 L 41.0625 -102.265625 C 38.851562 -98.472656 35.46875 -90.050781 30.90625 -77 C 26.34375 -63.957031 22.175781 -50.835938 18.40625 -37.640625 C 14.644531 -24.441406 12.765625 -16.367188 12.765625 -13.421875 C 12.765625 -10.472656 13.125 -9 13.84375 -9 C 15.988281 -9 19.34375 -12.253906 23.90625 -18.765625 L 27.140625 -15.6875 C 24.890625 -11.789062 22.457031 -8.507812 19.84375 -5.84375 C 15.226562 -1.125 11.484375 1.234375 8.609375 1.234375 C 3.378906 1.234375 0.765625 -1.921875 0.765625 -8.234375 C 0.765625 -17.609375 3.878906 -32.394531 10.109375 -52.59375 C 16.335938 -72.789062 22.503906 -89.347656 28.609375 -102.265625 Z M 28.609375 -102.265625 "/></g></g></g><g fill="#000000" fill-opacity="1"><g transform="translate(317.081241, 399.707498)"><g><path d="M 42.21875 -36.375 C 40.269531 -36.375 37.960938 -35.128906 35.296875 -32.640625 C 32.628906 -30.148438 30.039062 -27.113281 27.53125 -23.53125 C 23.53125 -17.789062 19.453125 -11.175781 15.296875 -3.6875 L 13.21875 0 L 2.390625 0 C 2.390625 0 3.179688 -2.410156 4.765625 -7.234375 C 9.222656 -20.554688 11.453125 -28.457031 11.453125 -30.9375 C 11.453125 -33.425781 11.039062 -34.671875 10.21875 -34.671875 C 8.738281 -34.671875 6.972656 -32.90625 4.921875 -29.375 C 4.460938 -28.550781 4.078125 -27.894531 3.765625 -27.40625 C 3.460938 -26.925781 3.117188 -26.335938 2.734375 -25.640625 C 2.347656 -24.953125 2.101562 -24.53125 2 -24.375 L -3.15625 -27.375 C 0.84375 -33.882812 4.507812 -38.6875 7.84375 -41.78125 C 11.175781 -44.882812 14.582031 -46.4375 18.0625 -46.4375 C 19.65625 -46.4375 21.023438 -45.769531 22.171875 -44.4375 C 23.328125 -43.101562 23.90625 -41.523438 23.90625 -39.703125 C 23.90625 -37.890625 23.800781 -36.273438 23.59375 -34.859375 C 23.394531 -33.453125 23.164062 -32.160156 22.90625 -30.984375 C 22.65625 -29.804688 22.296875 -28.394531 21.828125 -26.75 C 21.367188 -25.113281 21 -23.859375 20.71875 -22.984375 C 20.4375 -22.117188 20.066406 -20.941406 19.609375 -19.453125 C 19.148438 -17.960938 18.867188 -17.09375 18.765625 -16.84375 C 19.679688 -18.6875 21.238281 -21.398438 23.4375 -24.984375 C 25.644531 -28.578125 27.082031 -30.832031 27.75 -31.75 C 28.414062 -32.675781 29.335938 -33.90625 30.515625 -35.4375 C 31.703125 -36.976562 32.742188 -38.171875 33.640625 -39.015625 C 34.535156 -39.867188 35.609375 -40.84375 36.859375 -41.9375 C 38.117188 -43.039062 39.3125 -43.875 40.4375 -44.4375 C 43.3125 -45.769531 46.082031 -46.4375 48.75 -46.4375 C 51.414062 -46.4375 53.554688 -45.65625 55.171875 -44.09375 C 56.785156 -42.53125 57.59375 -40.707031 57.59375 -38.625 C 57.59375 -36.550781 56.9375 -34.734375 55.625 -33.171875 C 54.320312 -31.609375 52.8125 -30.828125 51.09375 -30.828125 C 49.375 -30.828125 48.023438 -31.117188 47.046875 -31.703125 C 46.078125 -32.296875 45.414062 -32.925781 45.0625 -33.59375 C 43.976562 -35.445312 43.03125 -36.375 42.21875 -36.375 Z M 42.21875 -36.375 "/></g></g></g><g fill="#000000" fill-opacity="1"><g transform="translate(371.098769, 399.707498)"><g><path d="M 3.609375 -26.609375 L -1.390625 -29.609375 C 1.171875 -34.066406 4.363281 -37.984375 8.1875 -41.359375 C 12.007812 -44.742188 15.429688 -46.4375 18.453125 -46.4375 C 23.367188 -46.4375 25.828125 -44.234375 25.828125 -39.828125 C 25.828125 -37.984375 24.554688 -33.5 22.015625 -26.375 C 19.484375 -19.25 18.21875 -14.738281 18.21875 -12.84375 C 18.21875 -10.945312 18.34375 -9.726562 18.59375 -9.1875 C 18.851562 -8.644531 19.421875 -8.375 20.296875 -8.375 C 24.960938 -8.375 29.769531 -10.128906 34.71875 -13.640625 C 39.664062 -17.160156 42.878906 -21.046875 44.359375 -25.296875 L 49.75 -40.984375 C 50.3125 -42.566406 51.179688 -43.820312 52.359375 -44.75 C 53.535156 -45.675781 54.675781 -46.140625 55.78125 -46.140625 C 56.882812 -46.140625 57.78125 -45.78125 58.46875 -45.0625 C 59.164062 -44.34375 59.515625 -43.390625 59.515625 -42.203125 C 59.515625 -41.023438 59.28125 -39.796875 58.8125 -38.515625 L 52.96875 -21.453125 C 49.738281 -11.398438 44.742188 -1.503906 37.984375 8.234375 C 43.878906 8.847656 49.132812 9.894531 53.75 11.375 L 53.125 15.6875 C 46.050781 14.25 39.800781 13.398438 34.375 13.140625 C 29.394531 19.554688 24.300781 24.671875 19.09375 28.484375 C 13.894531 32.304688 9.359375 34.21875 5.484375 34.21875 C 1.617188 34.21875 -1.269531 33.4375 -3.1875 31.875 C -5.113281 30.3125 -6.078125 28.171875 -6.078125 25.453125 C -6.078125 22.734375 -5.050781 20.257812 -3 18.03125 C -0.945312 15.800781 1.796875 13.992188 5.234375 12.609375 C 12.203125 9.734375 20.195312 8.09375 29.21875 7.6875 C 29.9375 6.863281 31.648438 3.984375 34.359375 -0.953125 C 37.078125 -5.898438 38.539062 -9.015625 38.75 -10.296875 C 29.675781 -2.609375 21.679688 1.234375 14.765625 1.234375 C 11.941406 1.234375 9.890625 0.273438 8.609375 -1.640625 C 7.328125 -3.566406 6.6875 -5.941406 6.6875 -8.765625 C 6.6875 -11.585938 7.75 -16.421875 9.875 -23.265625 C 12.007812 -30.109375 13.078125 -34.003906 13.078125 -34.953125 C 13.078125 -35.898438 12.859375 -36.375 12.421875 -36.375 C 11.984375 -36.375 11.503906 -36.253906 10.984375 -36.015625 C 10.472656 -35.785156 9.972656 -35.425781 9.484375 -34.9375 C 9.003906 -34.457031 8.554688 -34 8.140625 -33.5625 C 7.734375 -33.125 7.285156 -32.519531 6.796875 -31.75 C 6.316406 -30.988281 5.945312 -30.398438 5.6875 -29.984375 C 4.613281 -28.296875 3.921875 -27.171875 3.609375 -26.609375 Z M 25.828125 13.140625 C 21.679688 13.398438 17.453125 14.144531 13.140625 15.375 C 4.835938 17.738281 0.6875 20.507812 0.6875 23.6875 C 0.6875 25.582031 1.863281 26.53125 4.21875 26.53125 C 6.582031 26.53125 10.429688 24.820312 15.765625 21.40625 C 21.097656 18 24.453125 15.242188 25.828125 13.140625 Z M 25.828125 13.140625 "/></g></g></g></svg>