<svg xmlns="http://www.w3.org/2000/svg" xmlns:xlink="http://www.w3.org/1999/xlink" width="400" zoomAndPan="magnify" viewBox="0 0 300 74.999997" height="100" preserveAspectRatio="xMidYMid meet" version="1.0"><defs><g/></defs><g fill="#000000" fill-opacity="1"><g transform="translate(15.462795, 59.957756)"><g><path d="M 15.515625 -47.90625 C 23.421875 -47.90625 27.375 -43.253906 27.375 -33.953125 C 27.375 -26.890625 25.039062 -17.429688 20.375 -5.578125 C 26.8125 -9.035156 31.878906 -13.046875 35.578125 -17.609375 C 39.015625 -21.859375 41.785156 -26.898438 43.890625 -32.734375 C 41.878906 -33.722656 40.195312 -35.007812 38.84375 -36.59375 C 37.488281 -38.175781 36.8125 -39.875 36.8125 -41.6875 C 36.8125 -43.507812 37.363281 -45 38.46875 -46.15625 C 39.582031 -47.320312 40.976562 -47.90625 42.65625 -47.90625 C 44.34375 -47.90625 45.660156 -47.300781 46.609375 -46.09375 C 47.566406 -44.894531 48.046875 -43.21875 48.046875 -41.0625 C 48.046875 -38.914062 47.632812 -36.414062 46.8125 -33.5625 C 48.40625 -32.738281 50.085938 -32.140625 51.859375 -31.765625 L 51.265625 -30.203125 C 48.722656 -30.847656 47.0625 -31.320312 46.28125 -31.625 C 44.09375 -25.007812 40.351562 -19.003906 35.0625 -13.609375 C 29.78125 -8.210938 23.019531 -3.675781 14.78125 0 L 12.0625 0 C 13.476562 -2.769531 14.984375 -6.789062 16.578125 -12.0625 C 19.679688 -22.207031 21.234375 -30.113281 21.234375 -35.78125 C 21.234375 -42.539062 19.195312 -45.921875 15.125 -45.921875 C 13.300781 -45.921875 11.65625 -45.457031 10.1875 -44.53125 C 8.726562 -43.613281 7.546875 -42.445312 6.640625 -41.03125 C 5.734375 -39.613281 4.984375 -37.988281 4.390625 -36.15625 C 3.273438 -32.875 2.71875 -29.460938 2.71875 -25.921875 C 2.71875 -22.898438 3.050781 -20.285156 3.71875 -18.078125 C 4.914062 -14.085938 6.703125 -11.304688 9.078125 -9.734375 L 7.515625 -8.4375 C 5.160156 -10.40625 3.4375 -13.003906 2.34375 -16.234375 C 1.25 -19.472656 0.703125 -22.441406 0.703125 -25.140625 C 0.703125 -27.847656 0.863281 -30.164062 1.1875 -32.09375 C 1.519531 -34.019531 2.066406 -35.941406 2.828125 -37.859375 C 3.597656 -39.773438 4.535156 -41.46875 5.640625 -42.9375 C 6.753906 -44.414062 8.160156 -45.613281 9.859375 -46.53125 C 11.566406 -47.445312 13.453125 -47.90625 15.515625 -47.90625 Z M 43.421875 -44.71875 C 42.628906 -44.71875 41.941406 -44.410156 41.359375 -43.796875 C 40.785156 -43.191406 40.5 -42.363281 40.5 -41.3125 C 40.5 -40.257812 40.878906 -39.140625 41.640625 -37.953125 C 42.410156 -36.773438 43.394531 -35.742188 44.59375 -34.859375 C 45.320312 -37.492188 45.6875 -39.5 45.6875 -40.875 C 45.6875 -43.4375 44.929688 -44.71875 43.421875 -44.71875 Z M 43.421875 -44.71875 "/></g></g></g><g fill="#000000" fill-opacity="1"><g transform="translate(56.163198, 57.749994)"><g><path d="M 5.625 0.5 C 4.726562 0.5 4.03125 0.226562 3.53125 -0.3125 C 3.03125 -0.863281 2.78125 -1.613281 2.78125 -2.5625 C 2.78125 -3.519531 3.023438 -4.820312 3.515625 -6.46875 C 4.003906 -8.125 4.492188 -9.625 4.984375 -10.96875 C 5.484375 -12.3125 5.734375 -13.207031 5.734375 -13.65625 C 5.734375 -14.113281 5.585938 -14.34375 5.296875 -14.34375 C 4.554688 -14.34375 3.367188 -12.894531 1.734375 -10 L -0.375 -11.21875 C 2.707031 -16.4375 5.546875 -19.046875 8.140625 -19.046875 C 9.898438 -19.046875 10.78125 -17.929688 10.78125 -15.703125 C 10.78125 -15.046875 10.570312 -14.003906 10.15625 -12.578125 L 7.875 -6.078125 C 7.644531 -5.472656 7.53125 -4.921875 7.53125 -4.421875 C 7.53125 -3.929688 7.722656 -3.6875 8.109375 -3.6875 C 8.816406 -3.6875 10.128906 -5.007812 12.046875 -7.65625 L 13.359375 -6.4375 C 12.234375 -4.332031 10.882812 -2.648438 9.3125 -1.390625 C 7.75 -0.128906 6.519531 0.5 5.625 0.5 Z M 14.59375 -28.359375 C 14.59375 -27.503906 14.304688 -26.726562 13.734375 -26.03125 C 13.171875 -25.34375 12.40625 -25 11.4375 -25 C 10.476562 -25 9.753906 -25.285156 9.265625 -25.859375 C 8.785156 -26.441406 8.546875 -27.171875 8.546875 -28.046875 C 8.546875 -28.929688 8.84375 -29.71875 9.4375 -30.40625 C 10.039062 -31.09375 10.8125 -31.4375 11.75 -31.4375 C 12.695312 -31.4375 13.40625 -31.132812 13.875 -30.53125 C 14.351562 -29.9375 14.59375 -29.210938 14.59375 -28.359375 Z M 14.59375 -28.359375 "/></g></g></g><g fill="#000000" fill-opacity="1"><g transform="translate(70.128944, 57.749994)"><g><path d="M 4.28125 -18.34375 C 6.445312 -25.070312 8.65625 -30.707031 10.90625 -35.25 L 14.8125 -34.921875 C 14.582031 -34.253906 14.015625 -32.640625 13.109375 -30.078125 C 11.160156 -24.421875 9.898438 -20.507812 9.328125 -18.34375 L 14.28125 -18.34375 L 13.78125 -16.265625 L 8.671875 -16.265625 C 6.734375 -10.296875 5.765625 -6.664062 5.765625 -5.375 C 5.765625 -4.082031 5.894531 -3.4375 6.15625 -3.4375 C 6.425781 -3.4375 6.664062 -3.488281 6.875 -3.59375 C 7.4375 -3.90625 8.65625 -5.441406 10.53125 -8.203125 L 11.828125 -7.03125 C 10.410156 -4.46875 8.957031 -2.570312 7.46875 -1.34375 C 5.976562 -0.113281 4.75 0.5 3.78125 0.5 C 2.8125 0.5 2.078125 0.164062 1.578125 -0.5 C 1.085938 -1.175781 0.84375 -2.039062 0.84375 -3.09375 C 0.84375 -5.757812 1.78125 -10.148438 3.65625 -16.265625 L 0.34375 -16.265625 L 0.84375 -18.34375 Z M 4.28125 -18.34375 "/></g></g></g><g fill="#000000" fill-opacity="1"><g transform="translate(82.9914, 57.749994)"><g><path d="M 17.3125 -14.90625 C 16.507812 -14.90625 15.5625 -14.394531 14.46875 -13.375 C 13.375 -12.363281 12.3125 -11.117188 11.28125 -9.640625 C 9.644531 -7.285156 7.972656 -4.578125 6.265625 -1.515625 L 5.421875 0 L 0.984375 0 C 0.984375 0 1.304688 -0.988281 1.953125 -2.96875 C 3.785156 -8.425781 4.703125 -11.664062 4.703125 -12.6875 C 4.703125 -13.707031 4.53125 -14.21875 4.1875 -14.21875 C 3.582031 -14.21875 2.859375 -13.492188 2.015625 -12.046875 C 1.828125 -11.703125 1.671875 -11.429688 1.546875 -11.234375 C 1.421875 -11.035156 1.273438 -10.796875 1.109375 -10.515625 C 0.953125 -10.234375 0.851562 -10.0625 0.8125 -10 L -1.296875 -11.21875 C 0.347656 -13.882812 1.851562 -15.851562 3.21875 -17.125 C 4.582031 -18.40625 5.976562 -19.046875 7.40625 -19.046875 C 8.0625 -19.046875 8.625 -18.769531 9.09375 -18.21875 C 9.5625 -17.675781 9.796875 -17.03125 9.796875 -16.28125 C 9.796875 -15.53125 9.753906 -14.863281 9.671875 -14.28125 C 9.585938 -13.707031 9.492188 -13.179688 9.390625 -12.703125 C 9.285156 -12.222656 9.140625 -11.644531 8.953125 -10.96875 C 8.765625 -10.300781 8.613281 -9.785156 8.5 -9.421875 C 8.382812 -9.066406 8.226562 -8.582031 8.03125 -7.96875 C 7.84375 -7.363281 7.726562 -7.007812 7.6875 -6.90625 C 8.070312 -7.65625 8.710938 -8.765625 9.609375 -10.234375 C 10.515625 -11.710938 11.101562 -12.640625 11.375 -13.015625 C 11.65625 -13.398438 12.035156 -13.90625 12.515625 -14.53125 C 12.992188 -15.164062 13.414062 -15.65625 13.78125 -16 C 14.15625 -16.34375 14.597656 -16.738281 15.109375 -17.1875 C 15.628906 -17.644531 16.117188 -17.988281 16.578125 -18.21875 C 17.753906 -18.769531 18.890625 -19.046875 19.984375 -19.046875 C 21.078125 -19.046875 21.953125 -18.722656 22.609375 -18.078125 C 23.273438 -17.441406 23.609375 -16.695312 23.609375 -15.84375 C 23.609375 -14.988281 23.335938 -14.238281 22.796875 -13.59375 C 22.265625 -12.957031 21.644531 -12.640625 20.9375 -12.640625 C 20.238281 -12.640625 19.6875 -12.757812 19.28125 -13 C 18.882812 -13.238281 18.613281 -13.5 18.46875 -13.78125 C 18.03125 -14.53125 17.644531 -14.90625 17.3125 -14.90625 Z M 17.3125 -14.90625 "/></g></g></g><g fill="#000000" fill-opacity="1"><g transform="translate(105.783517, 57.749994)"><g><path d="M -0.03125 -7.5 C -0.03125 -9.082031 0.347656 -10.601562 1.109375 -12.0625 C 1.878906 -13.519531 2.875 -14.753906 4.09375 -15.765625 C 6.789062 -17.953125 9.535156 -19.046875 12.328125 -19.046875 C 15.117188 -19.046875 17.40625 -18.296875 19.1875 -16.796875 C 20.976562 -15.304688 21.875 -13.441406 21.875 -11.203125 C 21.875 -8.960938 21.257812 -6.945312 20.03125 -5.15625 C 18.800781 -3.375 17.175781 -1.984375 15.15625 -0.984375 C 13.144531 0.00390625 10.945312 0.5 8.5625 0.5 C 6.175781 0.5 4.144531 -0.25 2.46875 -1.75 C 0.800781 -3.25 -0.03125 -5.164062 -0.03125 -7.5 Z M 10.28125 -1.453125 C 11.25 -1.453125 12.15625 -1.765625 13 -2.390625 C 13.851562 -3.023438 14.5 -3.847656 14.9375 -4.859375 C 15.800781 -6.785156 16.234375 -8.78125 16.234375 -10.84375 C 16.234375 -12.90625 15.851562 -14.46875 15.09375 -15.53125 C 14.34375 -16.59375 13.269531 -17.125 11.875 -17.125 C 10.488281 -17.125 9.117188 -16.21875 7.765625 -14.40625 C 6.410156 -12.601562 5.734375 -10.300781 5.734375 -7.5 C 5.734375 -3.46875 7.25 -1.453125 10.28125 -1.453125 Z M 10.28125 -1.453125 "/></g></g></g><g fill="#000000" fill-opacity="1"><g transform="translate(128.922387, 57.749994)"><g><path d="M 2.9375 -0.21875 C 1.5625 -0.707031 0.582031 -1.28125 0 -1.9375 C -0.582031 -2.601562 -0.875 -3.332031 -0.875 -4.125 C -0.875 -4.925781 -0.65625 -5.585938 -0.21875 -6.109375 C 0.21875 -6.640625 0.796875 -6.90625 1.515625 -6.90625 C 2.242188 -6.90625 2.882812 -6.6875 3.4375 -6.25 C 4 -5.820312 4.28125 -5.210938 4.28125 -4.421875 C 4.28125 -3.640625 3.800781 -2.984375 2.84375 -2.453125 C 3.632812 -1.765625 4.851562 -1.421875 6.5 -1.421875 C 10.050781 -1.421875 11.828125 -2.425781 11.828125 -4.4375 C 11.828125 -5.707031 10.703125 -6.71875 8.453125 -7.46875 C 7.523438 -7.78125 6.59375 -8.113281 5.65625 -8.46875 C 4.71875 -8.832031 3.898438 -9.359375 3.203125 -10.046875 C 2.515625 -10.742188 2.140625 -11.585938 2.078125 -12.578125 C 2.078125 -14.003906 2.550781 -15.210938 3.5 -16.203125 C 5.28125 -18.097656 7.945312 -19.046875 11.5 -19.046875 C 13.25 -19.046875 14.796875 -18.710938 16.140625 -18.046875 C 17.484375 -17.390625 18.15625 -16.535156 18.15625 -15.484375 C 18.15625 -14.429688 17.882812 -13.671875 17.34375 -13.203125 C 16.8125 -12.742188 16.1875 -12.515625 15.46875 -12.515625 C 14.757812 -12.515625 14.15625 -12.707031 13.65625 -13.09375 C 13.164062 -13.488281 12.921875 -14.03125 12.921875 -14.71875 C 12.921875 -15.414062 13.332031 -16.015625 14.15625 -16.515625 C 13.644531 -16.878906 12.769531 -17.0625 11.53125 -17.0625 C 10.289062 -17.0625 9.175781 -16.875 8.1875 -16.5 C 7.207031 -16.132812 6.71875 -15.632812 6.71875 -15 C 6.71875 -14.375 7.078125 -13.847656 7.796875 -13.421875 C 8.523438 -13.003906 9.40625 -12.617188 10.4375 -12.265625 C 11.46875 -11.910156 12.492188 -11.5 13.515625 -11.03125 C 14.546875 -10.570312 15.425781 -9.910156 16.15625 -9.046875 C 16.882812 -8.179688 17.25 -7.117188 17.25 -5.859375 C 17.25 -4.597656 16.734375 -3.453125 15.703125 -2.421875 C 13.742188 -0.472656 11.070312 0.5 7.6875 0.5 C 5.90625 0.5 4.320312 0.257812 2.9375 -0.21875 Z M 2.9375 -0.21875 "/></g></g></g><g fill="#000000" fill-opacity="1"><g transform="translate(148.341573, 57.749994)"><g><path d="M 21.734375 -6.046875 C 20.773438 -4.160156 19.425781 -2.597656 17.6875 -1.359375 C 15.957031 -0.117188 13.96875 0.5 11.71875 0.5 C 9.476562 0.5 7.6875 -0.359375 6.34375 -2.078125 C 5.351562 1.804688 4.507812 4.578125 3.8125 6.234375 C 1.625 11.390625 -1.367188 13.976562 -5.171875 14 C -6.097656 14 -6.875 13.679688 -7.5 13.046875 C -8.132812 12.421875 -8.453125 11.691406 -8.453125 10.859375 C -8.453125 10.023438 -8.238281 9.375 -7.8125 8.90625 C -7.394531 8.4375 -6.835938 8.203125 -6.140625 8.203125 C -5.453125 8.203125 -4.875 8.363281 -4.40625 8.6875 C -3.945312 9.007812 -3.71875 9.507812 -3.71875 10.1875 C -3.71875 10.875 -4.085938 11.609375 -4.828125 12.390625 L -4.640625 12.640625 C -3.328125 12.640625 -2.140625 10.738281 -1.078125 6.9375 C -0.648438 5.40625 -0.34375 4.207031 -0.15625 3.34375 C 0.03125 2.476562 0.144531 1.960938 0.1875 1.796875 L 3.5 -11.21875 C 2.46875 -10.550781 1.15625 -9.25 -0.4375 -7.3125 L -1.671875 -8.734375 C -0.742188 -10.015625 0.347656 -11.265625 1.609375 -12.484375 C 2.867188 -13.703125 3.664062 -14.476562 4 -14.8125 C 5.644531 -19.664062 7.234375 -23.300781 8.765625 -25.71875 C 10.359375 -28.15625 12.125 -30.082031 14.0625 -31.5 L 14.90625 -30.734375 C 13.582031 -29.160156 12.457031 -27.15625 11.53125 -24.71875 C 10.613281 -22.28125 10.015625 -19.9375 9.734375 -17.6875 C 11.984375 -18.59375 14.125 -19.046875 16.15625 -19.046875 C 18.1875 -19.046875 19.863281 -18.398438 21.1875 -17.109375 C 22.507812 -15.828125 23.171875 -14.132812 23.171875 -12.03125 C 23.171875 -9.9375 22.691406 -7.941406 21.734375 -6.046875 Z M 9.421875 -14.84375 L 7.03125 -4.25 C 7.40625 -3.4375 8.035156 -2.816406 8.921875 -2.390625 C 9.804688 -1.972656 10.828125 -1.765625 11.984375 -1.765625 C 13.140625 -1.765625 14.195312 -2.257812 15.15625 -3.25 C 16.96875 -5.09375 17.875 -7.5 17.875 -10.46875 C 17.875 -13.113281 17.160156 -14.898438 15.734375 -15.828125 C 15.160156 -16.203125 14.40625 -16.390625 13.46875 -16.390625 C 12.539062 -16.390625 11.191406 -15.875 9.421875 -14.84375 Z M 9.421875 -14.84375 "/></g></g></g><g fill="#000000" fill-opacity="1"><g transform="translate(172.741359, 57.749994)"><g><path d="M 5.796875 -6.203125 C 5.921875 -3.785156 7.550781 -2.578125 10.6875 -2.578125 C 11.84375 -2.578125 13.046875 -2.910156 14.296875 -3.578125 C 15.546875 -4.242188 16.5625 -5.023438 17.34375 -5.921875 L 18.6875 -5.046875 C 16.945312 -2.117188 14.164062 -0.332031 10.34375 0.3125 C 9.5 0.4375 8.6875 0.5 7.90625 0.5 C 5.644531 0.5 3.753906 -0.25 2.234375 -1.75 C 0.722656 -3.25 -0.03125 -5.082031 -0.03125 -7.25 C -0.03125 -9.414062 0.628906 -11.414062 1.953125 -13.25 C 3.273438 -15.09375 4.929688 -16.519531 6.921875 -17.53125 C 8.910156 -18.539062 10.867188 -19.046875 12.796875 -19.046875 C 14.734375 -19.046875 16.410156 -18.601562 17.828125 -17.71875 C 19.242188 -16.832031 19.96875 -15.644531 20 -14.15625 C 20.03125 -12.664062 19.59375 -11.378906 18.6875 -10.296875 C 17.789062 -9.210938 16.648438 -8.382812 15.265625 -7.8125 C 12.503906 -6.695312 9.800781 -6.140625 7.15625 -6.140625 Z M 5.609375 -7.9375 C 7.941406 -8.03125 9.816406 -8.40625 11.234375 -9.0625 C 12.648438 -9.726562 13.632812 -10.484375 14.1875 -11.328125 C 14.75 -12.179688 15.03125 -13.078125 15.03125 -14.015625 C 15.03125 -14.953125 14.789062 -15.644531 14.3125 -16.09375 C 13.832031 -16.539062 13.316406 -16.765625 12.765625 -16.765625 C 11.421875 -16.765625 10.1875 -16.296875 9.0625 -15.359375 C 7.9375 -14.429688 7.078125 -13.300781 6.484375 -11.96875 C 5.898438 -10.632812 5.609375 -9.289062 5.609375 -7.9375 Z M 5.609375 -7.9375 "/></g></g></g><g fill="#000000" fill-opacity="1"><g transform="translate(193.70516, 57.749994)"><g><path d="M 16.390625 -6.53125 L 17.6875 -5.609375 C 16.757812 -3.742188 15.332031 -2.257812 13.40625 -1.15625 C 11.488281 -0.0507812 9.476562 0.5 7.375 0.5 C 5.269531 0.5 3.5 -0.140625 2.0625 -1.421875 C 0.625 -2.703125 -0.09375 -4.515625 -0.09375 -6.859375 C -0.09375 -9.203125 0.625 -11.316406 2.0625 -13.203125 C 3.5 -15.097656 5.269531 -16.546875 7.375 -17.546875 C 9.476562 -18.546875 11.601562 -19.046875 13.75 -19.046875 C 16.375 -19.046875 18.140625 -18.414062 19.046875 -17.15625 C 19.421875 -16.644531 19.609375 -16.003906 19.609375 -15.234375 C 19.609375 -14.472656 19.34375 -13.828125 18.8125 -13.296875 C 18.289062 -12.773438 17.660156 -12.515625 16.921875 -12.515625 C 16.191406 -12.515625 15.570312 -12.75 15.0625 -13.21875 C 14.5625 -13.695312 14.3125 -14.300781 14.3125 -15.03125 C 14.3125 -15.769531 14.765625 -16.445312 15.671875 -17.0625 C 14.867188 -17.3125 14.132812 -17.4375 13.46875 -17.4375 C 12.007812 -17.4375 10.671875 -16.898438 9.453125 -15.828125 C 8.234375 -14.753906 7.304688 -13.453125 6.671875 -11.921875 C 6.046875 -10.398438 5.734375 -8.90625 5.734375 -7.4375 C 5.734375 -5.96875 6.082031 -4.785156 6.78125 -3.890625 C 7.488281 -2.992188 8.503906 -2.546875 9.828125 -2.546875 C 11.160156 -2.546875 12.4375 -2.921875 13.65625 -3.671875 C 14.875 -4.421875 15.785156 -5.375 16.390625 -6.53125 Z M 16.390625 -6.53125 "/></g></g></g><g fill="#000000" fill-opacity="1"><g transform="translate(213.56567, 57.749994)"><g><path d="M 4.28125 -18.34375 C 6.445312 -25.070312 8.65625 -30.707031 10.90625 -35.25 L 14.8125 -34.921875 C 14.582031 -34.253906 14.015625 -32.640625 13.109375 -30.078125 C 11.160156 -24.421875 9.898438 -20.507812 9.328125 -18.34375 L 14.28125 -18.34375 L 13.78125 -16.265625 L 8.671875 -16.265625 C 6.734375 -10.296875 5.765625 -6.664062 5.765625 -5.375 C 5.765625 -4.082031 5.894531 -3.4375 6.15625 -3.4375 C 6.425781 -3.4375 6.664062 -3.488281 6.875 -3.59375 C 7.4375 -3.90625 8.65625 -5.441406 10.53125 -8.203125 L 11.828125 -7.03125 C 10.410156 -4.46875 8.957031 -2.570312 7.46875 -1.34375 C 5.976562 -0.113281 4.75 0.5 3.78125 0.5 C 2.8125 0.5 2.078125 0.164062 1.578125 -0.5 C 1.085938 -1.175781 0.84375 -2.039062 0.84375 -3.09375 C 0.84375 -5.757812 1.78125 -10.148438 3.65625 -16.265625 L 0.34375 -16.265625 L 0.84375 -18.34375 Z M 4.28125 -18.34375 "/></g></g></g><g fill="#000000" fill-opacity="1"><g transform="translate(226.42813, 57.749994)"><g><path d="M 5.625 0.5 C 4.726562 0.5 4.03125 0.226562 3.53125 -0.3125 C 3.03125 -0.863281 2.78125 -1.613281 2.78125 -2.5625 C 2.78125 -3.519531 3.023438 -4.820312 3.515625 -6.46875 C 4.003906 -8.125 4.492188 -9.625 4.984375 -10.96875 C 5.484375 -12.3125 5.734375 -13.207031 5.734375 -13.65625 C 5.734375 -14.113281 5.585938 -14.34375 5.296875 -14.34375 C 4.554688 -14.34375 3.367188 -12.894531 1.734375 -10 L -0.375 -11.21875 C 2.707031 -16.4375 5.546875 -19.046875 8.140625 -19.046875 C 9.898438 -19.046875 10.78125 -17.929688 10.78125 -15.703125 C 10.78125 -15.046875 10.570312 -14.003906 10.15625 -12.578125 L 7.875 -6.078125 C 7.644531 -5.472656 7.53125 -4.921875 7.53125 -4.421875 C 7.53125 -3.929688 7.722656 -3.6875 8.109375 -3.6875 C 8.816406 -3.6875 10.128906 -5.007812 12.046875 -7.65625 L 13.359375 -6.4375 C 12.234375 -4.332031 10.882812 -2.648438 9.3125 -1.390625 C 7.75 -0.128906 6.519531 0.5 5.625 0.5 Z M 14.59375 -28.359375 C 14.59375 -27.503906 14.304688 -26.726562 13.734375 -26.03125 C 13.171875 -25.34375 12.40625 -25 11.4375 -25 C 10.476562 -25 9.753906 -25.285156 9.265625 -25.859375 C 8.785156 -26.441406 8.546875 -27.171875 8.546875 -28.046875 C 8.546875 -28.929688 8.84375 -29.71875 9.4375 -30.40625 C 10.039062 -31.09375 10.8125 -31.4375 11.75 -31.4375 C 12.695312 -31.4375 13.40625 -31.132812 13.875 -30.53125 C 14.351562 -29.9375 14.59375 -29.210938 14.59375 -28.359375 Z M 14.59375 -28.359375 "/></g></g></g><g fill="#000000" fill-opacity="1"><g transform="translate(240.39388, 57.749994)"><g><path d="M 8.578125 -3.03125 C 10.359375 -3.03125 12.160156 -3.660156 13.984375 -4.921875 C 15.816406 -6.179688 17.28125 -7.65625 18.375 -9.34375 C 19.46875 -11.039062 20.015625 -12.550781 20.015625 -13.875 C 19.890625 -13.707031 19.429688 -13.625 18.640625 -13.625 C 17.859375 -13.625 17.222656 -13.878906 16.734375 -14.390625 C 16.253906 -14.898438 16.015625 -15.519531 16.015625 -16.25 C 16.015625 -16.976562 16.285156 -17.625 16.828125 -18.1875 C 17.378906 -18.757812 18.140625 -19.046875 19.109375 -19.046875 C 21.773438 -19.046875 23.109375 -17.582031 23.109375 -14.65625 C 23.109375 -13.332031 22.695312 -11.816406 21.875 -10.109375 C 21.0625 -8.410156 19.941406 -6.765625 18.515625 -5.171875 C 17.097656 -3.578125 15.269531 -2.234375 13.03125 -1.140625 C 10.789062 -0.046875 8.425781 0.5 5.9375 0.5 C 3.445312 0.5 2.203125 -0.707031 2.203125 -3.125 C 2.203125 -4.488281 2.597656 -6.34375 3.390625 -8.6875 C 4.179688 -11.03125 4.578125 -12.523438 4.578125 -13.171875 C 4.578125 -13.828125 4.382812 -14.15625 4 -14.15625 C 3.4375 -14.15625 2.3125 -12.789062 0.625 -10.0625 L -1.421875 -11.21875 C 1.671875 -16.4375 4.507812 -19.046875 7.09375 -19.046875 C 7.789062 -19.046875 8.394531 -18.785156 8.90625 -18.265625 C 9.414062 -17.753906 9.671875 -16.914062 9.671875 -15.75 C 9.671875 -14.582031 9.25 -12.429688 8.40625 -9.296875 C 7.570312 -6.171875 7.15625 -4.507812 7.15625 -4.3125 C 7.15625 -3.457031 7.628906 -3.03125 8.578125 -3.03125 Z M 8.578125 -3.03125 "/></g></g></g><g fill="#000000" fill-opacity="1"><g transform="translate(264.352336, 57.749994)"><g><path d="M 5.796875 -6.203125 C 5.921875 -3.785156 7.550781 -2.578125 10.6875 -2.578125 C 11.84375 -2.578125 13.046875 -2.910156 14.296875 -3.578125 C 15.546875 -4.242188 16.5625 -5.023438 17.34375 -5.921875 L 18.6875 -5.046875 C 16.945312 -2.117188 14.164062 -0.332031 10.34375 0.3125 C 9.5 0.4375 8.6875 0.5 7.90625 0.5 C 5.644531 0.5 3.753906 -0.25 2.234375 -1.75 C 0.722656 -3.25 -0.03125 -5.082031 -0.03125 -7.25 C -0.03125 -9.414062 0.628906 -11.414062 1.953125 -13.25 C 3.273438 -15.09375 4.929688 -16.519531 6.921875 -17.53125 C 8.910156 -18.539062 10.867188 -19.046875 12.796875 -19.046875 C 14.734375 -19.046875 16.410156 -18.601562 17.828125 -17.71875 C 19.242188 -16.832031 19.96875 -15.644531 20 -14.15625 C 20.03125 -12.664062 19.59375 -11.378906 18.6875 -10.296875 C 17.789062 -9.210938 16.648438 -8.382812 15.265625 -7.8125 C 12.503906 -6.695312 9.800781 -6.140625 7.15625 -6.140625 Z M 5.609375 -7.9375 C 7.941406 -8.03125 9.816406 -8.40625 11.234375 -9.0625 C 12.648438 -9.726562 13.632812 -10.484375 14.1875 -11.328125 C 14.75 -12.179688 15.03125 -13.078125 15.03125 -14.015625 C 15.03125 -14.953125 14.789062 -15.644531 14.3125 -16.09375 C 13.832031 -16.539062 13.316406 -16.765625 12.765625 -16.765625 C 11.421875 -16.765625 10.1875 -16.296875 9.0625 -15.359375 C 7.9375 -14.429688 7.078125 -13.300781 6.484375 -11.96875 C 5.898438 -10.632812 5.609375 -9.289062 5.609375 -7.9375 Z M 5.609375 -7.9375 "/></g></g></g></svg>