<svg xmlns="http://www.w3.org/2000/svg" xmlns:xlink="http://www.w3.org/1999/xlink" width="600" zoomAndPan="magnify" viewBox="0 0 450 149.999998" height="200" preserveAspectRatio="xMidYMid meet" version="1.0"><defs><g/></defs><g fill="#000000" fill-opacity="1"><g transform="translate(50.342911, 69.960954)"><g><path d="M 13.390625 -41.328125 C 20.210938 -41.328125 23.625 -37.316406 23.625 -29.296875 C 23.625 -23.203125 21.609375 -15.039062 17.578125 -4.8125 C 23.128906 -7.789062 27.503906 -11.25 30.703125 -15.1875 C 33.660156 -18.851562 36.046875 -23.203125 37.859375 -28.234375 C 36.117188 -29.097656 34.664062 -30.210938 33.5 -31.578125 C 32.34375 -32.941406 31.765625 -34.40625 31.765625 -35.96875 C 31.765625 -37.539062 32.238281 -38.828125 33.1875 -39.828125 C 34.144531 -40.828125 35.347656 -41.328125 36.796875 -41.328125 C 38.253906 -41.328125 39.394531 -40.804688 40.21875 -39.765625 C 41.039062 -38.722656 41.453125 -37.273438 41.453125 -35.421875 C 41.453125 -33.566406 41.097656 -31.410156 40.390625 -28.953125 C 41.765625 -28.242188 43.21875 -27.726562 44.75 -27.40625 L 44.234375 -26.0625 C 42.035156 -26.613281 40.597656 -27.019531 39.921875 -27.28125 C 38.035156 -21.570312 34.8125 -16.390625 30.25 -11.734375 C 25.695312 -7.085938 19.863281 -3.175781 12.75 0 L 10.40625 0 C 11.625 -2.382812 12.921875 -5.851562 14.296875 -10.40625 C 16.972656 -19.15625 18.3125 -25.976562 18.3125 -30.875 C 18.3125 -36.695312 16.554688 -39.609375 13.046875 -39.609375 C 11.472656 -39.609375 10.054688 -39.210938 8.796875 -38.421875 C 7.535156 -37.628906 6.515625 -36.617188 5.734375 -35.390625 C 4.953125 -34.171875 4.300781 -32.769531 3.78125 -31.1875 C 2.820312 -28.351562 2.34375 -25.410156 2.34375 -22.359375 C 2.34375 -19.753906 2.628906 -17.5 3.203125 -15.59375 C 4.242188 -12.15625 5.785156 -9.757812 7.828125 -8.40625 L 6.484375 -7.28125 C 4.453125 -8.976562 2.960938 -11.222656 2.015625 -14.015625 C 1.078125 -16.804688 0.609375 -19.367188 0.609375 -21.703125 C 0.609375 -24.035156 0.75 -26.03125 1.03125 -27.6875 C 1.320312 -29.351562 1.796875 -31.007812 2.453125 -32.65625 C 3.109375 -34.3125 3.914062 -35.773438 4.875 -37.046875 C 5.832031 -38.316406 7.046875 -39.347656 8.515625 -40.140625 C 9.984375 -40.929688 11.609375 -41.328125 13.390625 -41.328125 Z M 37.46875 -38.578125 C 36.78125 -38.578125 36.1875 -38.3125 35.6875 -37.78125 C 35.1875 -37.257812 34.9375 -36.546875 34.9375 -35.640625 C 34.9375 -34.734375 35.265625 -33.769531 35.921875 -32.75 C 36.585938 -31.726562 37.4375 -30.832031 38.46875 -30.0625 C 39.09375 -32.34375 39.40625 -34.070312 39.40625 -35.25 C 39.40625 -37.46875 38.757812 -38.578125 37.46875 -38.578125 Z M 37.46875 -38.578125 "/></g></g></g><g fill="#000000" fill-opacity="1"><g transform="translate(88.451744, 69.960954)"><g><path d="M 5.109375 0.453125 C 4.296875 0.453125 3.660156 0.207031 3.203125 -0.28125 C 2.742188 -0.78125 2.515625 -1.460938 2.515625 -2.328125 C 2.515625 -3.203125 2.738281 -4.390625 3.1875 -5.890625 C 3.644531 -7.390625 4.097656 -8.75 4.546875 -9.96875 C 4.992188 -11.195312 5.21875 -12.015625 5.21875 -12.421875 C 5.21875 -12.835938 5.082031 -13.046875 4.8125 -13.046875 C 4.144531 -13.046875 3.066406 -11.726562 1.578125 -9.09375 L -0.34375 -10.203125 C 2.46875 -14.941406 5.046875 -17.3125 7.390625 -17.3125 C 8.992188 -17.3125 9.796875 -16.300781 9.796875 -14.28125 C 9.796875 -13.6875 9.609375 -12.738281 9.234375 -11.4375 L 7.171875 -5.53125 C 6.953125 -4.976562 6.84375 -4.476562 6.84375 -4.03125 C 6.84375 -3.582031 7.015625 -3.359375 7.359375 -3.359375 C 8.015625 -3.359375 9.210938 -4.5625 10.953125 -6.96875 L 12.15625 -5.84375 C 11.125 -3.9375 9.894531 -2.410156 8.46875 -1.265625 C 7.039062 -0.117188 5.921875 0.453125 5.109375 0.453125 Z M 13.265625 -25.78125 C 13.265625 -25.007812 13.003906 -24.304688 12.484375 -23.671875 C 11.972656 -23.046875 11.28125 -22.734375 10.40625 -22.734375 C 9.53125 -22.734375 8.867188 -22.992188 8.421875 -23.515625 C 7.984375 -24.046875 7.765625 -24.710938 7.765625 -25.515625 C 7.765625 -26.316406 8.035156 -27.023438 8.578125 -27.640625 C 9.128906 -28.265625 9.832031 -28.578125 10.6875 -28.578125 C 11.550781 -28.578125 12.195312 -28.300781 12.625 -27.75 C 13.050781 -27.207031 13.265625 -26.550781 13.265625 -25.78125 Z M 13.265625 -25.78125 "/></g></g></g><g fill="#000000" fill-opacity="1"><g transform="translate(100.56326, 69.960954)"><g><path d="M 3.890625 -16.6875 C 5.859375 -22.800781 7.867188 -27.921875 9.921875 -32.046875 L 13.46875 -31.765625 C 13.257812 -31.148438 12.742188 -29.675781 11.921875 -27.34375 C 10.148438 -22.207031 9.003906 -18.65625 8.484375 -16.6875 L 12.984375 -16.6875 L 12.53125 -14.796875 L 7.875 -14.796875 C 6.125 -9.367188 5.25 -6.066406 5.25 -4.890625 C 5.25 -3.710938 5.367188 -3.125 5.609375 -3.125 C 5.847656 -3.125 6.0625 -3.171875 6.25 -3.265625 C 6.757812 -3.554688 7.867188 -4.953125 9.578125 -7.453125 L 10.75 -6.390625 C 9.46875 -4.054688 8.148438 -2.332031 6.796875 -1.21875 C 5.441406 -0.101562 4.320312 0.453125 3.4375 0.453125 C 2.5625 0.453125 1.898438 0.148438 1.453125 -0.453125 C 1.003906 -1.066406 0.78125 -1.851562 0.78125 -2.8125 C 0.78125 -5.238281 1.628906 -9.234375 3.328125 -14.796875 L 0.3125 -14.796875 L 0.78125 -16.6875 Z M 3.890625 -16.6875 "/></g></g></g><g fill="#000000" fill-opacity="1"><g transform="translate(111.671578, 69.960954)"><g><path d="M 15.734375 -13.5625 C 15.003906 -13.5625 14.144531 -13.097656 13.15625 -12.171875 C 12.164062 -11.242188 11.203125 -10.109375 10.265625 -8.765625 C 8.773438 -6.628906 7.253906 -4.164062 5.703125 -1.375 L 4.9375 0 L 0.890625 0 C 0.890625 0 1.1875 -0.894531 1.78125 -2.6875 C 3.4375 -7.65625 4.265625 -10.601562 4.265625 -11.53125 C 4.265625 -12.457031 4.113281 -12.921875 3.8125 -12.921875 C 3.257812 -12.921875 2.597656 -12.265625 1.828125 -10.953125 C 1.660156 -10.640625 1.519531 -10.394531 1.40625 -10.21875 C 1.289062 -10.039062 1.160156 -9.820312 1.015625 -9.5625 C 0.867188 -9.300781 0.78125 -9.144531 0.75 -9.09375 L -1.171875 -10.203125 C 0.316406 -12.628906 1.679688 -14.421875 2.921875 -15.578125 C 4.160156 -16.734375 5.429688 -17.3125 6.734375 -17.3125 C 7.328125 -17.3125 7.835938 -17.0625 8.265625 -16.5625 C 8.703125 -16.070312 8.921875 -15.484375 8.921875 -14.796875 C 8.921875 -14.117188 8.878906 -13.515625 8.796875 -12.984375 C 8.722656 -12.460938 8.640625 -11.984375 8.546875 -11.546875 C 8.453125 -11.109375 8.316406 -10.582031 8.140625 -9.96875 C 7.960938 -9.363281 7.820312 -8.894531 7.71875 -8.5625 C 7.613281 -8.238281 7.472656 -7.800781 7.296875 -7.25 C 7.128906 -6.695312 7.03125 -6.375 7 -6.28125 C 7.34375 -6.96875 7.921875 -7.976562 8.734375 -9.3125 C 9.554688 -10.65625 10.09375 -11.5 10.34375 -11.84375 C 10.59375 -12.1875 10.9375 -12.644531 11.375 -13.21875 C 11.8125 -13.789062 12.195312 -14.234375 12.53125 -14.546875 C 12.875 -14.859375 13.28125 -15.21875 13.75 -15.625 C 14.21875 -16.039062 14.660156 -16.351562 15.078125 -16.5625 C 16.148438 -17.0625 17.179688 -17.3125 18.171875 -17.3125 C 19.160156 -17.3125 19.957031 -17.019531 20.5625 -16.4375 C 21.164062 -15.851562 21.46875 -15.175781 21.46875 -14.40625 C 21.46875 -13.632812 21.222656 -12.957031 20.734375 -12.375 C 20.242188 -11.789062 19.679688 -11.5 19.046875 -11.5 C 18.410156 -11.5 17.910156 -11.609375 17.546875 -11.828125 C 17.179688 -12.046875 16.929688 -12.28125 16.796875 -12.53125 C 16.390625 -13.21875 16.035156 -13.5625 15.734375 -13.5625 Z M 15.734375 -13.5625 "/></g></g></g><g fill="#000000" fill-opacity="1"><g transform="translate(131.808724, 69.960954)"><g><path d="M -0.03125 -6.828125 C -0.03125 -8.253906 0.316406 -9.628906 1.015625 -10.953125 C 1.710938 -12.285156 2.613281 -13.410156 3.71875 -14.328125 C 6.164062 -16.316406 8.660156 -17.3125 11.203125 -17.3125 C 13.742188 -17.3125 15.828125 -16.632812 17.453125 -15.28125 C 19.078125 -13.925781 19.890625 -12.226562 19.890625 -10.1875 C 19.890625 -8.15625 19.328125 -6.328125 18.203125 -4.703125 C 17.085938 -3.078125 15.613281 -1.8125 13.78125 -0.90625 C 11.945312 0 9.945312 0.453125 7.78125 0.453125 C 5.613281 0.453125 3.769531 -0.226562 2.25 -1.59375 C 0.726562 -2.957031 -0.03125 -4.703125 -0.03125 -6.828125 Z M 9.34375 -1.3125 C 10.21875 -1.3125 11.039062 -1.597656 11.8125 -2.171875 C 12.59375 -2.742188 13.1875 -3.492188 13.59375 -4.421875 C 14.375 -6.171875 14.765625 -7.984375 14.765625 -9.859375 C 14.765625 -11.734375 14.421875 -13.148438 13.734375 -14.109375 C 13.046875 -15.078125 12.070312 -15.5625 10.8125 -15.5625 C 9.550781 -15.5625 8.300781 -14.738281 7.0625 -13.09375 C 5.832031 -11.457031 5.21875 -9.367188 5.21875 -6.828125 C 5.21875 -3.148438 6.59375 -1.3125 9.34375 -1.3125 Z M 9.34375 -1.3125 "/></g></g></g><g fill="#000000" fill-opacity="1"><g transform="translate(152.26117, 69.960954)"><g><path d="M 2.671875 -0.203125 C 1.421875 -0.640625 0.53125 -1.160156 0 -1.765625 C -0.53125 -2.367188 -0.796875 -3.03125 -0.796875 -3.75 C -0.796875 -4.476562 -0.59375 -5.082031 -0.1875 -5.5625 C 0.207031 -6.039062 0.734375 -6.28125 1.390625 -6.28125 C 2.046875 -6.28125 2.625 -6.082031 3.125 -5.6875 C 3.632812 -5.300781 3.890625 -4.75 3.890625 -4.03125 C 3.890625 -3.3125 3.453125 -2.710938 2.578125 -2.234375 C 3.304688 -1.609375 4.414062 -1.296875 5.90625 -1.296875 C 9.132812 -1.296875 10.75 -2.210938 10.75 -4.046875 C 10.75 -5.191406 9.726562 -6.109375 7.6875 -6.796875 C 6.84375 -7.078125 5.992188 -7.378906 5.140625 -7.703125 C 4.296875 -8.035156 3.554688 -8.515625 2.921875 -9.140625 C 2.296875 -9.773438 1.953125 -10.539062 1.890625 -11.4375 C 1.890625 -12.738281 2.320312 -13.835938 3.1875 -14.734375 C 4.8125 -16.453125 7.238281 -17.3125 10.46875 -17.3125 C 12.050781 -17.3125 13.453125 -17.007812 14.671875 -16.40625 C 15.898438 -15.800781 16.515625 -15.019531 16.515625 -14.0625 C 16.515625 -13.113281 16.269531 -12.425781 15.78125 -12 C 15.289062 -11.582031 14.71875 -11.375 14.0625 -11.375 C 13.414062 -11.375 12.867188 -11.550781 12.421875 -11.90625 C 11.972656 -12.257812 11.75 -12.75 11.75 -13.375 C 11.75 -14.007812 12.125 -14.554688 12.875 -15.015625 C 12.414062 -15.335938 11.617188 -15.5 10.484375 -15.5 C 9.359375 -15.5 8.347656 -15.332031 7.453125 -15 C 6.554688 -14.664062 6.109375 -14.210938 6.109375 -13.640625 C 6.109375 -13.066406 6.4375 -12.585938 7.09375 -12.203125 C 7.75 -11.828125 8.546875 -11.472656 9.484375 -11.140625 C 10.421875 -10.816406 11.359375 -10.445312 12.296875 -10.03125 C 13.234375 -9.613281 14.03125 -9.007812 14.6875 -8.21875 C 15.34375 -7.4375 15.671875 -6.472656 15.671875 -5.328125 C 15.671875 -4.179688 15.207031 -3.140625 14.28125 -2.203125 C 12.5 -0.429688 10.070312 0.453125 7 0.453125 C 5.375 0.453125 3.929688 0.234375 2.671875 -0.203125 Z M 2.671875 -0.203125 "/></g></g></g><g fill="#000000" fill-opacity="1"><g transform="translate(169.331385, 69.960954)"><g><path d="M 19.75 -5.5 C 18.882812 -3.78125 17.664062 -2.359375 16.09375 -1.234375 C 14.519531 -0.109375 12.707031 0.453125 10.65625 0.453125 C 8.613281 0.453125 6.984375 -0.328125 5.765625 -1.890625 C 4.867188 1.640625 4.101562 4.160156 3.46875 5.671875 C 1.476562 10.359375 -1.242188 12.710938 -4.703125 12.734375 C -5.546875 12.734375 -6.253906 12.441406 -6.828125 11.859375 C -7.398438 11.285156 -7.6875 10.625 -7.6875 9.875 C -7.6875 9.125 -7.492188 8.53125 -7.109375 8.09375 C -6.722656 7.664062 -6.210938 7.453125 -5.578125 7.453125 C -4.953125 7.453125 -4.425781 7.597656 -4 7.890625 C -3.582031 8.191406 -3.375 8.648438 -3.375 9.265625 C -3.375 9.890625 -3.710938 10.554688 -4.390625 11.265625 L -4.21875 11.5 C -3.03125 11.5 -1.945312 9.769531 -0.96875 6.3125 C -0.59375 4.914062 -0.316406 3.820312 -0.140625 3.03125 C 0.0234375 2.25 0.128906 1.785156 0.171875 1.640625 L 3.1875 -10.203125 C 2.25 -9.585938 1.050781 -8.40625 -0.40625 -6.65625 L -1.515625 -7.9375 C -0.679688 -9.101562 0.304688 -10.238281 1.453125 -11.34375 C 2.609375 -12.457031 3.335938 -13.164062 3.640625 -13.46875 C 5.128906 -17.882812 6.570312 -21.191406 7.96875 -23.390625 C 9.414062 -25.609375 11.019531 -27.359375 12.78125 -28.640625 L 13.5625 -27.953125 C 12.351562 -26.515625 11.328125 -24.6875 10.484375 -22.46875 C 9.648438 -20.25 9.109375 -18.117188 8.859375 -16.078125 C 10.898438 -16.898438 12.84375 -17.3125 14.6875 -17.3125 C 16.53125 -17.3125 18.050781 -16.726562 19.25 -15.5625 C 20.457031 -14.394531 21.0625 -12.851562 21.0625 -10.9375 C 21.0625 -9.03125 20.625 -7.21875 19.75 -5.5 Z M 8.578125 -13.5 L 6.390625 -3.875 C 6.734375 -3.125 7.304688 -2.554688 8.109375 -2.171875 C 8.910156 -1.796875 9.835938 -1.609375 10.890625 -1.609375 C 11.941406 -1.609375 12.90625 -2.054688 13.78125 -2.953125 C 15.425781 -4.628906 16.25 -6.816406 16.25 -9.515625 C 16.25 -11.921875 15.597656 -13.546875 14.296875 -14.390625 C 13.785156 -14.734375 13.101562 -14.90625 12.25 -14.90625 C 11.40625 -14.90625 10.179688 -14.4375 8.578125 -13.5 Z M 8.578125 -13.5 "/></g></g></g><g fill="#000000" fill-opacity="1"><g transform="translate(190.930349, 69.960954)"><g><path d="M 5.28125 -5.640625 C 5.394531 -3.441406 6.875 -2.34375 9.71875 -2.34375 C 10.769531 -2.34375 11.863281 -2.644531 13 -3.25 C 14.132812 -3.851562 15.054688 -4.566406 15.765625 -5.390625 L 17 -4.59375 C 15.414062 -1.9375 12.882812 -0.3125 9.40625 0.28125 C 8.632812 0.394531 7.894531 0.453125 7.1875 0.453125 C 5.125 0.453125 3.40625 -0.226562 2.03125 -1.59375 C 0.65625 -2.957031 -0.03125 -4.625 -0.03125 -6.59375 C -0.03125 -8.5625 0.566406 -10.378906 1.765625 -12.046875 C 2.972656 -13.722656 4.476562 -15.019531 6.28125 -15.9375 C 8.09375 -16.851562 9.878906 -17.3125 11.640625 -17.3125 C 13.398438 -17.3125 14.921875 -16.910156 16.203125 -16.109375 C 17.492188 -15.304688 18.15625 -14.222656 18.1875 -12.859375 C 18.21875 -11.503906 17.820312 -10.332031 17 -9.34375 C 16.175781 -8.363281 15.132812 -7.617188 13.875 -7.109375 C 11.375 -6.097656 8.914062 -5.59375 6.5 -5.59375 Z M 5.109375 -7.21875 C 7.222656 -7.300781 8.925781 -7.640625 10.21875 -8.234375 C 11.507812 -8.835938 12.40625 -9.523438 12.90625 -10.296875 C 13.414062 -11.078125 13.671875 -11.890625 13.671875 -12.734375 C 13.671875 -13.585938 13.453125 -14.21875 13.015625 -14.625 C 12.578125 -15.039062 12.109375 -15.25 11.609375 -15.25 C 10.390625 -15.25 9.265625 -14.820312 8.234375 -13.96875 C 7.210938 -13.125 6.4375 -12.09375 5.90625 -10.875 C 5.375 -9.664062 5.109375 -8.445312 5.109375 -7.21875 Z M 5.109375 -7.21875 "/></g></g></g><g fill="#000000" fill-opacity="1"><g transform="translate(209.405043, 69.960954)"><g><path d="M 14.90625 -5.9375 L 16.078125 -5.109375 C 15.234375 -3.398438 13.9375 -2.046875 12.1875 -1.046875 C 10.445312 -0.046875 8.617188 0.453125 6.703125 0.453125 C 4.796875 0.453125 3.1875 -0.125 1.875 -1.28125 C 0.5625 -2.445312 -0.09375 -4.097656 -0.09375 -6.234375 C -0.09375 -8.367188 0.5625 -10.296875 1.875 -12.015625 C 3.1875 -13.734375 4.796875 -15.046875 6.703125 -15.953125 C 8.617188 -16.859375 10.550781 -17.3125 12.5 -17.3125 C 14.882812 -17.3125 16.488281 -16.738281 17.3125 -15.59375 C 17.65625 -15.132812 17.828125 -14.554688 17.828125 -13.859375 C 17.828125 -13.160156 17.585938 -12.570312 17.109375 -12.09375 C 16.628906 -11.613281 16.054688 -11.375 15.390625 -11.375 C 14.722656 -11.375 14.160156 -11.585938 13.703125 -12.015625 C 13.242188 -12.453125 13.015625 -13.003906 13.015625 -13.671875 C 13.015625 -14.335938 13.425781 -14.945312 14.25 -15.5 C 13.519531 -15.726562 12.847656 -15.84375 12.234375 -15.84375 C 10.921875 -15.84375 9.707031 -15.351562 8.59375 -14.375 C 7.488281 -13.40625 6.648438 -12.226562 6.078125 -10.84375 C 5.503906 -9.457031 5.21875 -8.097656 5.21875 -6.765625 C 5.21875 -5.429688 5.535156 -4.359375 6.171875 -3.546875 C 6.816406 -2.734375 7.738281 -2.328125 8.9375 -2.328125 C 10.144531 -2.328125 11.300781 -2.664062 12.40625 -3.34375 C 13.519531 -4.019531 14.351562 -4.882812 14.90625 -5.9375 Z M 14.90625 -5.9375 "/></g></g></g><g fill="#000000" fill-opacity="1"><g transform="translate(226.87654, 69.960954)"><g><path d="M 3.890625 -16.6875 C 5.859375 -22.800781 7.867188 -27.921875 9.921875 -32.046875 L 13.46875 -31.765625 C 13.257812 -31.148438 12.742188 -29.675781 11.921875 -27.34375 C 10.148438 -22.207031 9.003906 -18.65625 8.484375 -16.6875 L 12.984375 -16.6875 L 12.53125 -14.796875 L 7.875 -14.796875 C 6.125 -9.367188 5.25 -6.066406 5.25 -4.890625 C 5.25 -3.710938 5.367188 -3.125 5.609375 -3.125 C 5.847656 -3.125 6.0625 -3.171875 6.25 -3.265625 C 6.757812 -3.554688 7.867188 -4.953125 9.578125 -7.453125 L 10.75 -6.390625 C 9.46875 -4.054688 8.148438 -2.332031 6.796875 -1.21875 C 5.441406 -0.101562 4.320312 0.453125 3.4375 0.453125 C 2.5625 0.453125 1.898438 0.148438 1.453125 -0.453125 C 1.003906 -1.066406 0.78125 -1.851562 0.78125 -2.8125 C 0.78125 -5.238281 1.628906 -9.234375 3.328125 -14.796875 L 0.3125 -14.796875 L 0.78125 -16.6875 Z M 3.890625 -16.6875 "/></g></g></g><g fill="#000000" fill-opacity="1"><g transform="translate(237.984858, 69.960954)"><g><path d="M 5.109375 0.453125 C 4.296875 0.453125 3.660156 0.207031 3.203125 -0.28125 C 2.742188 -0.78125 2.515625 -1.460938 2.515625 -2.328125 C 2.515625 -3.203125 2.738281 -4.390625 3.1875 -5.890625 C 3.644531 -7.390625 4.097656 -8.75 4.546875 -9.96875 C 4.992188 -11.195312 5.21875 -12.015625 5.21875 -12.421875 C 5.21875 -12.835938 5.082031 -13.046875 4.8125 -13.046875 C 4.144531 -13.046875 3.066406 -11.726562 1.578125 -9.09375 L -0.34375 -10.203125 C 2.46875 -14.941406 5.046875 -17.3125 7.390625 -17.3125 C 8.992188 -17.3125 9.796875 -16.300781 9.796875 -14.28125 C 9.796875 -13.6875 9.609375 -12.738281 9.234375 -11.4375 L 7.171875 -5.53125 C 6.953125 -4.976562 6.84375 -4.476562 6.84375 -4.03125 C 6.84375 -3.582031 7.015625 -3.359375 7.359375 -3.359375 C 8.015625 -3.359375 9.210938 -4.5625 10.953125 -6.96875 L 12.15625 -5.84375 C 11.125 -3.9375 9.894531 -2.410156 8.46875 -1.265625 C 7.039062 -0.117188 5.921875 0.453125 5.109375 0.453125 Z M 13.265625 -25.78125 C 13.265625 -25.007812 13.003906 -24.304688 12.484375 -23.671875 C 11.972656 -23.046875 11.28125 -22.734375 10.40625 -22.734375 C 9.53125 -22.734375 8.867188 -22.992188 8.421875 -23.515625 C 7.984375 -24.046875 7.765625 -24.710938 7.765625 -25.515625 C 7.765625 -26.316406 8.035156 -27.023438 8.578125 -27.640625 C 9.128906 -28.265625 9.832031 -28.578125 10.6875 -28.578125 C 11.550781 -28.578125 12.195312 -28.300781 12.625 -27.75 C 13.050781 -27.207031 13.265625 -26.550781 13.265625 -25.78125 Z M 13.265625 -25.78125 "/></g></g></g><g fill="#000000" fill-opacity="1"><g transform="translate(250.096374, 69.960954)"><g><path d="M 7.796875 -2.75 C 9.421875 -2.75 11.0625 -3.320312 12.71875 -4.46875 C 14.382812 -5.613281 15.710938 -6.957031 16.703125 -8.5 C 17.703125 -10.039062 18.203125 -11.410156 18.203125 -12.609375 C 18.085938 -12.453125 17.671875 -12.375 16.953125 -12.375 C 16.234375 -12.375 15.65625 -12.609375 15.21875 -13.078125 C 14.78125 -13.546875 14.5625 -14.109375 14.5625 -14.765625 C 14.5625 -15.429688 14.804688 -16.019531 15.296875 -16.53125 C 15.796875 -17.050781 16.488281 -17.3125 17.375 -17.3125 C 19.800781 -17.3125 21.015625 -15.984375 21.015625 -13.328125 C 21.015625 -12.117188 20.640625 -10.738281 19.890625 -9.1875 C 19.148438 -7.644531 18.132812 -6.144531 16.84375 -4.6875 C 15.550781 -3.238281 13.882812 -2.019531 11.84375 -1.03125 C 9.8125 -0.0390625 7.660156 0.453125 5.390625 0.453125 C 3.128906 0.453125 2 -0.644531 2 -2.84375 C 2 -4.082031 2.359375 -5.765625 3.078125 -7.890625 C 3.796875 -10.023438 4.15625 -11.390625 4.15625 -11.984375 C 4.15625 -12.578125 3.984375 -12.875 3.640625 -12.875 C 3.117188 -12.875 2.097656 -11.628906 0.578125 -9.140625 L -1.296875 -10.203125 C 1.515625 -14.941406 4.097656 -17.3125 6.453125 -17.3125 C 7.078125 -17.3125 7.625 -17.078125 8.09375 -16.609375 C 8.5625 -16.140625 8.796875 -15.375 8.796875 -14.3125 C 8.796875 -13.257812 8.410156 -11.304688 7.640625 -8.453125 C 6.878906 -5.609375 6.5 -4.097656 6.5 -3.921875 C 6.5 -3.140625 6.929688 -2.75 7.796875 -2.75 Z M 7.796875 -2.75 "/></g></g></g><g fill="#000000" fill-opacity="1"><g transform="translate(271.294068, 69.960954)"><g><path d="M 5.28125 -5.640625 C 5.394531 -3.441406 6.875 -2.34375 9.71875 -2.34375 C 10.769531 -2.34375 11.863281 -2.644531 13 -3.25 C 14.132812 -3.851562 15.054688 -4.566406 15.765625 -5.390625 L 17 -4.59375 C 15.414062 -1.9375 12.882812 -0.3125 9.40625 0.28125 C 8.632812 0.394531 7.894531 0.453125 7.1875 0.453125 C 5.125 0.453125 3.40625 -0.226562 2.03125 -1.59375 C 0.65625 -2.957031 -0.03125 -4.625 -0.03125 -6.59375 C -0.03125 -8.5625 0.566406 -10.378906 1.765625 -12.046875 C 2.972656 -13.722656 4.476562 -15.019531 6.28125 -15.9375 C 8.09375 -16.851562 9.878906 -17.3125 11.640625 -17.3125 C 13.398438 -17.3125 14.921875 -16.910156 16.203125 -16.109375 C 17.492188 -15.304688 18.15625 -14.222656 18.1875 -12.859375 C 18.21875 -11.503906 17.820312 -10.332031 17 -9.34375 C 16.175781 -8.363281 15.132812 -7.617188 13.875 -7.109375 C 11.375 -6.097656 8.914062 -5.59375 6.5 -5.59375 Z M 5.109375 -7.21875 C 7.222656 -7.300781 8.925781 -7.640625 10.21875 -8.234375 C 11.507812 -8.835938 12.40625 -9.523438 12.90625 -10.296875 C 13.414062 -11.078125 13.671875 -11.890625 13.671875 -12.734375 C 13.671875 -13.585938 13.453125 -14.21875 13.015625 -14.625 C 12.578125 -15.039062 12.109375 -15.25 11.609375 -15.25 C 10.390625 -15.25 9.265625 -14.820312 8.234375 -13.96875 C 7.210938 -13.125 6.4375 -12.09375 5.90625 -10.875 C 5.375 -9.664062 5.109375 -8.445312 5.109375 -7.21875 Z M 5.109375 -7.21875 "/></g></g></g><g fill="#000000" fill-opacity="1"><g transform="translate(289.768774, 69.960954)"><g/></g></g><g fill="#000000" fill-opacity="1"><g transform="translate(298.039465, 69.960954)"><g><path d="M 35.921875 -35.109375 C 33.359375 -37.617188 30.519531 -38.875 27.40625 -38.875 C 21.4375 -38.875 16.5625 -36.003906 12.78125 -30.265625 C 10.582031 -26.941406 9.484375 -23.40625 9.484375 -19.65625 C 9.484375 -16.675781 10.226562 -14.234375 11.71875 -12.328125 C 13.320312 -10.242188 15.75 -9.203125 19 -9.203125 C 21.5625 -9.203125 24.046875 -10.007812 26.453125 -11.625 C 28.859375 -13.238281 30.628906 -15.375 31.765625 -18.03125 L 35.921875 -18.09375 C 33.984375 -9.28125 30.582031 -2.410156 25.71875 2.515625 C 20.863281 7.453125 15.070312 9.921875 8.34375 9.921875 C 4.84375 9.921875 2.144531 9.203125 0.25 7.765625 C -1.632812 6.335938 -2.578125 4.625 -2.578125 2.625 C -2.578125 0.625 -1.632812 -1.113281 0.25 -2.59375 C 2.144531 -4.070312 4.738281 -4.8125 8.03125 -4.8125 C 11.289062 -4.8125 13.878906 -4.066406 15.796875 -2.578125 L 14.5625 -0.0625 C 12.800781 -0.800781 10.726562 -1.171875 8.34375 -1.171875 C 5.957031 -1.171875 3.96875 -0.773438 2.375 0.015625 C 0.789062 0.804688 0 1.785156 0 2.953125 C 0 4.117188 0.765625 5.113281 2.296875 5.9375 C 3.835938 6.757812 6.003906 7.171875 8.796875 7.171875 C 13.253906 7.171875 17.3125 5.425781 20.96875 1.9375 C 24.625 -1.550781 27.742188 -6.671875 30.328125 -13.421875 C 28.742188 -11.179688 26.8125 -9.46875 24.53125 -8.28125 C 22.257812 -7.09375 20.066406 -6.5 17.953125 -6.5 C 15.847656 -6.5 13.988281 -6.769531 12.375 -7.3125 C 10.757812 -7.863281 9.316406 -8.648438 8.046875 -9.671875 C 6.773438 -10.691406 5.757812 -12.03125 5 -13.6875 C 4.25 -15.34375 3.875 -17.203125 3.875 -19.265625 C 3.875 -21.328125 4.210938 -23.40625 4.890625 -25.5 C 5.566406 -27.59375 6.582031 -29.582031 7.9375 -31.46875 C 9.289062 -33.363281 10.890625 -35.046875 12.734375 -36.515625 C 14.578125 -37.984375 16.757812 -39.148438 19.28125 -40.015625 C 21.8125 -40.890625 24.476562 -41.328125 27.28125 -41.328125 C 30.039062 -41.328125 32.648438 -40.679688 35.109375 -39.390625 C 36.335938 -38.753906 37.335938 -37.875 38.109375 -36.75 C 38.878906 -35.625 39.265625 -34.332031 39.265625 -32.875 C 39.265625 -31.425781 38.832031 -30.300781 37.96875 -29.5 C 37.113281 -28.707031 36.144531 -28.3125 35.0625 -28.3125 C 33.988281 -28.3125 33.097656 -28.597656 32.390625 -29.171875 C 31.679688 -29.753906 31.328125 -30.539062 31.328125 -31.53125 C 31.328125 -33.914062 32.859375 -35.109375 35.921875 -35.109375 Z M 35.921875 -35.109375 "/></g></g></g><g fill="#000000" fill-opacity="1"><g transform="translate(332.737398, 69.960954)"><g><path d="M 10.65625 -38.125 L 15.3125 -38.125 C 14.488281 -36.707031 13.222656 -33.566406 11.515625 -28.703125 C 9.816406 -23.835938 8.265625 -18.945312 6.859375 -14.03125 C 5.460938 -9.113281 4.765625 -6.101562 4.765625 -5 C 4.765625 -3.90625 4.894531 -3.359375 5.15625 -3.359375 C 5.957031 -3.359375 7.210938 -4.570312 8.921875 -7 L 10.125 -5.84375 C 9.28125 -4.394531 8.367188 -3.171875 7.390625 -2.171875 C 5.671875 -0.421875 4.273438 0.453125 3.203125 0.453125 C 1.253906 0.453125 0.28125 -0.71875 0.28125 -3.0625 C 0.28125 -6.5625 1.441406 -12.078125 3.765625 -19.609375 C 6.085938 -27.140625 8.382812 -33.3125 10.65625 -38.125 Z M 10.65625 -38.125 "/></g></g></g><g fill="#000000" fill-opacity="1"><g transform="translate(342.613214, 69.960954)"><g><path d="M 15.84375 -16.6875 L 20.328125 -16.6875 L 18.0625 -8.109375 C 17.695312 -6.910156 17.515625 -5.816406 17.515625 -4.828125 C 17.515625 -3.847656 17.6875 -3.359375 18.03125 -3.359375 C 18.375 -3.359375 18.84375 -3.65625 19.4375 -4.25 C 20.039062 -4.851562 20.554688 -5.460938 20.984375 -6.078125 L 21.640625 -7 L 22.875 -5.84375 C 22.238281 -4.625 21.4375 -3.507812 20.46875 -2.5 C 18.570312 -0.53125 16.925781 0.453125 15.53125 0.453125 C 13.894531 0.453125 13.078125 -0.816406 13.078125 -3.359375 C 13.078125 -3.773438 13.09375 -4.085938 13.125 -4.296875 C 12.84375 -3.328125 12.300781 -2.46875 11.5 -1.71875 C 9.96875 -0.269531 8.238281 0.453125 6.3125 0.453125 C 4.394531 0.453125 2.859375 -0.195312 1.703125 -1.5 C 0.546875 -2.8125 -0.03125 -4.453125 -0.03125 -6.421875 C -0.03125 -9.472656 0.960938 -12.050781 2.953125 -14.15625 C 4.941406 -16.257812 7.273438 -17.3125 9.953125 -17.3125 C 11.285156 -17.3125 12.390625 -16.941406 13.265625 -16.203125 C 14.148438 -15.472656 14.722656 -14.515625 14.984375 -13.328125 Z M 11.0625 -14.84375 C 9.957031 -14.84375 8.921875 -14.378906 7.953125 -13.453125 C 6.984375 -12.523438 6.238281 -11.40625 5.71875 -10.09375 C 5.207031 -8.789062 4.953125 -7.519531 4.953125 -6.28125 C 4.953125 -5.039062 5.222656 -4.035156 5.765625 -3.265625 C 6.316406 -2.503906 7.160156 -2.125 8.296875 -2.125 C 9.429688 -2.125 10.457031 -2.640625 11.375 -3.671875 C 13.113281 -5.660156 13.984375 -8.019531 13.984375 -10.75 C 13.984375 -13.476562 13.007812 -14.84375 11.0625 -14.84375 Z M 11.0625 -14.84375 "/></g></g></g><g fill="#000000" fill-opacity="1"><g transform="translate(365.244057, 69.960954)"><g><path d="M 2.671875 -0.203125 C 1.421875 -0.640625 0.53125 -1.160156 0 -1.765625 C -0.53125 -2.367188 -0.796875 -3.03125 -0.796875 -3.75 C -0.796875 -4.476562 -0.59375 -5.082031 -0.1875 -5.5625 C 0.207031 -6.039062 0.734375 -6.28125 1.390625 -6.28125 C 2.046875 -6.28125 2.625 -6.082031 3.125 -5.6875 C 3.632812 -5.300781 3.890625 -4.75 3.890625 -4.03125 C 3.890625 -3.3125 3.453125 -2.710938 2.578125 -2.234375 C 3.304688 -1.609375 4.414062 -1.296875 5.90625 -1.296875 C 9.132812 -1.296875 10.75 -2.210938 10.75 -4.046875 C 10.75 -5.191406 9.726562 -6.109375 7.6875 -6.796875 C 6.84375 -7.078125 5.992188 -7.378906 5.140625 -7.703125 C 4.296875 -8.035156 3.554688 -8.515625 2.921875 -9.140625 C 2.296875 -9.773438 1.953125 -10.539062 1.890625 -11.4375 C 1.890625 -12.738281 2.320312 -13.835938 3.1875 -14.734375 C 4.8125 -16.453125 7.238281 -17.3125 10.46875 -17.3125 C 12.050781 -17.3125 13.453125 -17.007812 14.671875 -16.40625 C 15.898438 -15.800781 16.515625 -15.019531 16.515625 -14.0625 C 16.515625 -13.113281 16.269531 -12.425781 15.78125 -12 C 15.289062 -11.582031 14.71875 -11.375 14.0625 -11.375 C 13.414062 -11.375 12.867188 -11.550781 12.421875 -11.90625 C 11.972656 -12.257812 11.75 -12.75 11.75 -13.375 C 11.75 -14.007812 12.125 -14.554688 12.875 -15.015625 C 12.414062 -15.335938 11.617188 -15.5 10.484375 -15.5 C 9.359375 -15.5 8.347656 -15.332031 7.453125 -15 C 6.554688 -14.664062 6.109375 -14.210938 6.109375 -13.640625 C 6.109375 -13.066406 6.4375 -12.585938 7.09375 -12.203125 C 7.75 -11.828125 8.546875 -11.472656 9.484375 -11.140625 C 10.421875 -10.816406 11.359375 -10.445312 12.296875 -10.03125 C 13.234375 -9.613281 14.03125 -9.007812 14.6875 -8.21875 C 15.34375 -7.4375 15.671875 -6.472656 15.671875 -5.328125 C 15.671875 -4.179688 15.207031 -3.140625 14.28125 -2.203125 C 12.5 -0.429688 10.070312 0.453125 7 0.453125 C 5.375 0.453125 3.929688 0.234375 2.671875 -0.203125 Z M 2.671875 -0.203125 "/></g></g></g><g fill="#000000" fill-opacity="1"><g transform="translate(382.314273, 69.960954)"><g><path d="M 2.671875 -0.203125 C 1.421875 -0.640625 0.53125 -1.160156 0 -1.765625 C -0.53125 -2.367188 -0.796875 -3.03125 -0.796875 -3.75 C -0.796875 -4.476562 -0.59375 -5.082031 -0.1875 -5.5625 C 0.207031 -6.039062 0.734375 -6.28125 1.390625 -6.28125 C 2.046875 -6.28125 2.625 -6.082031 3.125 -5.6875 C 3.632812 -5.300781 3.890625 -4.75 3.890625 -4.03125 C 3.890625 -3.3125 3.453125 -2.710938 2.578125 -2.234375 C 3.304688 -1.609375 4.414062 -1.296875 5.90625 -1.296875 C 9.132812 -1.296875 10.75 -2.210938 10.75 -4.046875 C 10.75 -5.191406 9.726562 -6.109375 7.6875 -6.796875 C 6.84375 -7.078125 5.992188 -7.378906 5.140625 -7.703125 C 4.296875 -8.035156 3.554688 -8.515625 2.921875 -9.140625 C 2.296875 -9.773438 1.953125 -10.539062 1.890625 -11.4375 C 1.890625 -12.738281 2.320312 -13.835938 3.1875 -14.734375 C 4.8125 -16.453125 7.238281 -17.3125 10.46875 -17.3125 C 12.050781 -17.3125 13.453125 -17.007812 14.671875 -16.40625 C 15.898438 -15.800781 16.515625 -15.019531 16.515625 -14.0625 C 16.515625 -13.113281 16.269531 -12.425781 15.78125 -12 C 15.289062 -11.582031 14.71875 -11.375 14.0625 -11.375 C 13.414062 -11.375 12.867188 -11.550781 12.421875 -11.90625 C 11.972656 -12.257812 11.75 -12.75 11.75 -13.375 C 11.75 -14.007812 12.125 -14.554688 12.875 -15.015625 C 12.414062 -15.335938 11.617188 -15.5 10.484375 -15.5 C 9.359375 -15.5 8.347656 -15.332031 7.453125 -15 C 6.554688 -14.664062 6.109375 -14.210938 6.109375 -13.640625 C 6.109375 -13.066406 6.4375 -12.585938 7.09375 -12.203125 C 7.75 -11.828125 8.546875 -11.472656 9.484375 -11.140625 C 10.421875 -10.816406 11.359375 -10.445312 12.296875 -10.03125 C 13.234375 -9.613281 14.03125 -9.007812 14.6875 -8.21875 C 15.34375 -7.4375 15.671875 -6.472656 15.671875 -5.328125 C 15.671875 -4.179688 15.207031 -3.140625 14.28125 -2.203125 C 12.5 -0.429688 10.070312 0.453125 7 0.453125 C 5.375 0.453125 3.929688 0.234375 2.671875 -0.203125 Z M 2.671875 -0.203125 "/></g></g></g><g fill="#000000" fill-opacity="1"><g transform="translate(49.553478, 118.90581)"><g><path d="M 15.5625 -9.0625 L 13.78125 -8.546875 C 13.457031 -9.378906 13.140625 -10.503906 12.828125 -11.921875 C 12.515625 -13.335938 12.359375 -14.21875 12.359375 -14.5625 C 10.921875 -14.5625 9.46875 -14.347656 8 -13.921875 C 6.539062 -13.503906 5.375 -13.054688 4.5 -12.578125 C 3.632812 -12.097656 2.890625 -11.414062 2.265625 -10.53125 C 1.648438 -9.644531 1.34375 -8.613281 1.34375 -7.4375 C 1.34375 -6.257812 1.644531 -5.222656 2.25 -4.328125 C 2.851562 -3.429688 3.648438 -2.753906 4.640625 -2.296875 C 6.554688 -1.398438 8.554688 -0.953125 10.640625 -0.953125 C 12.734375 -0.953125 14.535156 -1.171875 16.046875 -1.609375 C 17.554688 -2.046875 18.832031 -2.625 19.875 -3.34375 C 20.914062 -4.070312 21.863281 -4.988281 22.71875 -6.09375 C 23.582031 -7.207031 24.28125 -8.34375 24.8125 -9.5 C 25.351562 -10.65625 25.878906 -11.976562 26.390625 -13.46875 C 26.910156 -14.957031 27.34375 -16.351562 27.6875 -17.65625 C 28.625 -21.113281 29.566406 -24.007812 30.515625 -26.34375 C 31.460938 -28.675781 32.859375 -30.972656 34.703125 -33.234375 C 36.554688 -35.492188 38.660156 -37.351562 41.015625 -38.8125 C 39.867188 -39.082031 38.40625 -39.21875 36.625 -39.21875 C 34.851562 -39.21875 32.832031 -38.828125 30.5625 -38.046875 C 28.300781 -37.273438 26.195312 -36.195312 24.25 -34.8125 C 22.300781 -33.425781 20.554688 -31.84375 19.015625 -30.0625 C 17.472656 -28.289062 16.265625 -26.328125 15.390625 -24.171875 C 14.515625 -22.023438 14.078125 -19.875 14.078125 -17.71875 C 18.273438 -16.851562 21.3125 -15.296875 23.1875 -13.046875 L 21.984375 -11.78125 C 20.015625 -13.0625 18.539062 -13.816406 17.5625 -14.046875 C 16.59375 -14.273438 16.015625 -14.410156 15.828125 -14.453125 C 14.941406 -14.566406 14.335938 -14.625 14.015625 -14.625 C 14.242188 -13.207031 14.65625 -11.640625 15.25 -9.921875 Z M 52.484375 -42.96875 L 53.0625 -41.625 C 51.300781 -41.289062 49.664062 -40.8125 48.15625 -40.1875 L 47.375 -39.875 C 48.75 -39.1875 49.84375 -38.25 50.65625 -37.0625 C 51.46875 -35.875 51.875 -34.785156 51.875 -33.796875 C 51.875 -32.816406 51.785156 -31.992188 51.609375 -31.328125 C 51.441406 -30.660156 51.234375 -30.054688 50.984375 -29.515625 C 50.742188 -28.984375 50.414062 -28.425781 50 -27.84375 C 49.59375 -27.257812 49.21875 -26.769531 48.875 -26.375 C 48.53125 -25.988281 48.101562 -25.550781 47.59375 -25.0625 C 47.09375 -24.570312 46.695312 -24.207031 46.40625 -23.96875 C 45.882812 -23.539062 45.242188 -23.023438 44.484375 -22.421875 C 47.210938 -21.285156 49.296875 -19.945312 50.734375 -18.40625 C 52.171875 -16.875 52.890625 -14.957031 52.890625 -12.65625 C 52.890625 -10.351562 52.195312 -8.117188 50.8125 -5.953125 C 49.425781 -3.796875 47.585938 -2.078125 45.296875 -0.796875 C 43.015625 0.484375 40.59375 1.125 38.03125 1.125 C 35.207031 1.125 33.039062 0.328125 31.53125 -1.265625 C 30.707031 -2.117188 30.296875 -3.117188 30.296875 -4.265625 C 30.296875 -5.410156 30.644531 -6.335938 31.34375 -7.046875 C 32.039062 -7.753906 32.882812 -8.109375 33.875 -8.109375 C 34.875 -8.109375 35.660156 -7.859375 36.234375 -7.359375 C 36.804688 -6.867188 37.09375 -6.289062 37.09375 -5.625 C 37.09375 -4.96875 36.976562 -4.453125 36.75 -4.078125 C 36.519531 -3.710938 36.242188 -3.421875 35.921875 -3.203125 C 35.609375 -2.992188 35.28125 -2.820312 34.9375 -2.6875 C 34.34375 -2.457031 33.941406 -2.34375 33.734375 -2.34375 C 33.734375 -1.507812 34.773438 -0.988281 36.859375 -0.78125 C 37.222656 -0.738281 37.554688 -0.71875 37.859375 -0.71875 C 40.515625 -0.71875 42.738281 -1.71875 44.53125 -3.71875 C 46.332031 -5.726562 47.234375 -8.070312 47.234375 -10.75 C 47.234375 -12.082031 46.9375 -13.316406 46.34375 -14.453125 C 45.75 -15.597656 45.019531 -16.515625 44.15625 -17.203125 C 43.300781 -17.890625 42.445312 -18.472656 41.59375 -18.953125 C 40.75 -19.441406 40.03125 -19.820312 39.4375 -20.09375 C 38.84375 -20.363281 38.546875 -20.539062 38.546875 -20.625 C 38.546875 -20.707031 38.832031 -20.941406 39.40625 -21.328125 C 39.976562 -21.710938 40.679688 -22.210938 41.515625 -22.828125 C 42.347656 -23.453125 43.175781 -24.164062 44 -24.96875 C 44.820312 -25.769531 45.519531 -26.75 46.09375 -27.90625 C 46.664062 -29.0625 46.953125 -30.222656 46.953125 -31.390625 C 46.953125 -32.554688 46.625 -33.800781 45.96875 -35.125 C 45.320312 -36.457031 44.378906 -37.390625 43.140625 -37.921875 C 39.546875 -35.703125 36.957031 -32.269531 35.375 -27.625 C 34.6875 -25.644531 34.171875 -23.859375 33.828125 -22.265625 C 32.984375 -18.273438 32.367188 -15.507812 31.984375 -13.96875 C 31.609375 -12.4375 30.847656 -10.734375 29.703125 -8.859375 C 28.566406 -6.984375 27.15625 -5.300781 25.46875 -3.8125 C 23.789062 -2.320312 21.75 -1.144531 19.34375 -0.28125 C 16.9375 0.570312 14.320312 1 11.5 1 C 7.613281 1 4.457031 0.113281 2.03125 -1.65625 C 0.125 -3.070312 -0.828125 -5.039062 -0.828125 -7.5625 C -0.828125 -9.269531 -0.414062 -10.800781 0.40625 -12.15625 C 1.226562 -13.507812 2.296875 -14.578125 3.609375 -15.359375 C 6.285156 -16.960938 9.203125 -17.765625 12.359375 -17.765625 C 12.359375 -20.867188 13.082031 -23.875 14.53125 -26.78125 C 15.976562 -29.695312 17.898438 -32.207031 20.296875 -34.3125 C 22.703125 -36.425781 25.515625 -38.125 28.734375 -39.40625 C 31.953125 -40.6875 35.265625 -41.328125 38.671875 -41.328125 C 39.847656 -41.328125 41.765625 -41.164062 44.421875 -40.84375 C 48.035156 -42.144531 50.722656 -42.851562 52.484375 -42.96875 Z M 52.484375 -42.96875 "/></g></g></g><g fill="#000000" fill-opacity="1"><g transform="translate(103.197639, 118.90581)"><g><path d="M 5.28125 -5.640625 C 5.394531 -3.441406 6.875 -2.34375 9.71875 -2.34375 C 10.769531 -2.34375 11.863281 -2.644531 13 -3.25 C 14.132812 -3.851562 15.054688 -4.566406 15.765625 -5.390625 L 17 -4.59375 C 15.414062 -1.9375 12.882812 -0.3125 9.40625 0.28125 C 8.632812 0.394531 7.894531 0.453125 7.1875 0.453125 C 5.125 0.453125 3.40625 -0.226562 2.03125 -1.59375 C 0.65625 -2.957031 -0.03125 -4.625 -0.03125 -6.59375 C -0.03125 -8.5625 0.566406 -10.378906 1.765625 -12.046875 C 2.972656 -13.722656 4.476562 -15.019531 6.28125 -15.9375 C 8.09375 -16.851562 9.878906 -17.3125 11.640625 -17.3125 C 13.398438 -17.3125 14.921875 -16.910156 16.203125 -16.109375 C 17.492188 -15.304688 18.15625 -14.222656 18.1875 -12.859375 C 18.21875 -11.503906 17.820312 -10.332031 17 -9.34375 C 16.175781 -8.363281 15.132812 -7.617188 13.875 -7.109375 C 11.375 -6.097656 8.914062 -5.59375 6.5 -5.59375 Z M 5.109375 -7.21875 C 7.222656 -7.300781 8.925781 -7.640625 10.21875 -8.234375 C 11.507812 -8.835938 12.40625 -9.523438 12.90625 -10.296875 C 13.414062 -11.078125 13.671875 -11.890625 13.671875 -12.734375 C 13.671875 -13.585938 13.453125 -14.21875 13.015625 -14.625 C 12.578125 -15.039062 12.109375 -15.25 11.609375 -15.25 C 10.390625 -15.25 9.265625 -14.820312 8.234375 -13.96875 C 7.210938 -13.125 6.4375 -12.09375 5.90625 -10.875 C 5.375 -9.664062 5.109375 -8.445312 5.109375 -7.21875 Z M 5.109375 -7.21875 "/></g></g></g><g fill="#000000" fill-opacity="1"><g transform="translate(121.672333, 118.90581)"><g><path d="M 15.84375 -16.6875 L 20.328125 -16.6875 L 18.0625 -8.109375 C 17.695312 -6.910156 17.515625 -5.816406 17.515625 -4.828125 C 17.515625 -3.847656 17.6875 -3.359375 18.03125 -3.359375 C 18.375 -3.359375 18.84375 -3.65625 19.4375 -4.25 C 20.039062 -4.851562 20.554688 -5.460938 20.984375 -6.078125 L 21.640625 -7 L 22.875 -5.84375 C 22.238281 -4.625 21.4375 -3.507812 20.46875 -2.5 C 18.570312 -0.53125 16.925781 0.453125 15.53125 0.453125 C 13.894531 0.453125 13.078125 -0.816406 13.078125 -3.359375 C 13.078125 -3.773438 13.09375 -4.085938 13.125 -4.296875 C 12.84375 -3.328125 12.300781 -2.46875 11.5 -1.71875 C 9.96875 -0.269531 8.238281 0.453125 6.3125 0.453125 C 4.394531 0.453125 2.859375 -0.195312 1.703125 -1.5 C 0.546875 -2.8125 -0.03125 -4.453125 -0.03125 -6.421875 C -0.03125 -9.472656 0.960938 -12.050781 2.953125 -14.15625 C 4.941406 -16.257812 7.273438 -17.3125 9.953125 -17.3125 C 11.285156 -17.3125 12.390625 -16.941406 13.265625 -16.203125 C 14.148438 -15.472656 14.722656 -14.515625 14.984375 -13.328125 Z M 11.0625 -14.84375 C 9.957031 -14.84375 8.921875 -14.378906 7.953125 -13.453125 C 6.984375 -12.523438 6.238281 -11.40625 5.71875 -10.09375 C 5.207031 -8.789062 4.953125 -7.519531 4.953125 -6.28125 C 4.953125 -5.039062 5.222656 -4.035156 5.765625 -3.265625 C 6.316406 -2.503906 7.160156 -2.125 8.296875 -2.125 C 9.429688 -2.125 10.457031 -2.640625 11.375 -3.671875 C 13.113281 -5.660156 13.984375 -8.019531 13.984375 -10.75 C 13.984375 -13.476562 13.007812 -14.84375 11.0625 -14.84375 Z M 11.0625 -14.84375 "/></g></g></g><g fill="#000000" fill-opacity="1"><g transform="translate(144.303164, 118.90581)"><g><path d="M 13.90625 -3.53125 C 11.894531 -0.875 9.492188 0.453125 6.703125 0.453125 C 4.828125 0.453125 3.238281 -0.226562 1.9375 -1.59375 C 0.644531 -2.957031 0 -4.703125 0 -6.828125 C 0 -9.671875 1.066406 -12.128906 3.203125 -14.203125 C 5.347656 -16.273438 7.75 -17.3125 10.40625 -17.3125 C 11.78125 -17.3125 12.957031 -17.035156 13.9375 -16.484375 C 14.925781 -15.941406 15.5625 -15.207031 15.84375 -14.28125 C 16.726562 -17.882812 17.992188 -22.070312 19.640625 -26.84375 C 21.296875 -31.613281 22.820312 -35.363281 24.21875 -38.09375 L 28.8125 -38.09375 C 27.03125 -34.570312 24.835938 -28.613281 22.234375 -20.21875 C 19.640625 -11.820312 18.34375 -6.570312 18.34375 -4.46875 C 18.34375 -3.726562 18.492188 -3.359375 18.796875 -3.359375 C 19.566406 -3.359375 20.789062 -4.570312 22.46875 -7 L 23.703125 -5.84375 C 22.503906 -3.707031 21.210938 -2.125 19.828125 -1.09375 C 18.453125 -0.0625 17.347656 0.453125 16.515625 0.453125 C 15.691406 0.453125 15.046875 0.15625 14.578125 -0.4375 C 14.109375 -1.039062 13.875 -1.914062 13.875 -3.0625 C 13.875 -3.101562 13.878906 -3.175781 13.890625 -3.28125 C 13.898438 -3.382812 13.90625 -3.46875 13.90625 -3.53125 Z M 5.1875 -7 C 5.1875 -3.914062 6.375 -2.375 8.75 -2.375 C 10.957031 -2.375 12.78125 -3.859375 14.21875 -6.828125 C 14.882812 -8.222656 15.21875 -9.347656 15.21875 -10.203125 C 15.21875 -13.296875 14.039062 -14.84375 11.6875 -14.84375 C 10.125 -14.84375 8.648438 -14.117188 7.265625 -12.671875 C 5.878906 -11.234375 5.1875 -9.34375 5.1875 -7 Z M 5.1875 -7 "/></g></g></g><g fill="#000000" fill-opacity="1"><g transform="translate(167.765215, 118.90581)"><g><path d="M 2.671875 -0.203125 C 1.421875 -0.640625 0.53125 -1.160156 0 -1.765625 C -0.53125 -2.367188 -0.796875 -3.03125 -0.796875 -3.75 C -0.796875 -4.476562 -0.59375 -5.082031 -0.1875 -5.5625 C 0.207031 -6.039062 0.734375 -6.28125 1.390625 -6.28125 C 2.046875 -6.28125 2.625 -6.082031 3.125 -5.6875 C 3.632812 -5.300781 3.890625 -4.75 3.890625 -4.03125 C 3.890625 -3.3125 3.453125 -2.710938 2.578125 -2.234375 C 3.304688 -1.609375 4.414062 -1.296875 5.90625 -1.296875 C 9.132812 -1.296875 10.75 -2.210938 10.75 -4.046875 C 10.75 -5.191406 9.726562 -6.109375 7.6875 -6.796875 C 6.84375 -7.078125 5.992188 -7.378906 5.140625 -7.703125 C 4.296875 -8.035156 3.554688 -8.515625 2.921875 -9.140625 C 2.296875 -9.773438 1.953125 -10.539062 1.890625 -11.4375 C 1.890625 -12.738281 2.320312 -13.835938 3.1875 -14.734375 C 4.8125 -16.453125 7.238281 -17.3125 10.46875 -17.3125 C 12.050781 -17.3125 13.453125 -17.007812 14.671875 -16.40625 C 15.898438 -15.800781 16.515625 -15.019531 16.515625 -14.0625 C 16.515625 -13.113281 16.269531 -12.425781 15.78125 -12 C 15.289062 -11.582031 14.71875 -11.375 14.0625 -11.375 C 13.414062 -11.375 12.867188 -11.550781 12.421875 -11.90625 C 11.972656 -12.257812 11.75 -12.75 11.75 -13.375 C 11.75 -14.007812 12.125 -14.554688 12.875 -15.015625 C 12.414062 -15.335938 11.617188 -15.5 10.484375 -15.5 C 9.359375 -15.5 8.347656 -15.332031 7.453125 -15 C 6.554688 -14.664062 6.109375 -14.210938 6.109375 -13.640625 C 6.109375 -13.066406 6.4375 -12.585938 7.09375 -12.203125 C 7.75 -11.828125 8.546875 -11.472656 9.484375 -11.140625 C 10.421875 -10.816406 11.359375 -10.445312 12.296875 -10.03125 C 13.234375 -9.613281 14.03125 -9.007812 14.6875 -8.21875 C 15.34375 -7.4375 15.671875 -6.472656 15.671875 -5.328125 C 15.671875 -4.179688 15.207031 -3.140625 14.28125 -2.203125 C 12.5 -0.429688 10.070312 0.453125 7 0.453125 C 5.375 0.453125 3.929688 0.234375 2.671875 -0.203125 Z M 2.671875 -0.203125 "/></g></g></g><g fill="#000000" fill-opacity="1"><g transform="translate(184.83543, 118.90581)"><g/></g></g><g fill="#000000" fill-opacity="1"><g transform="translate(193.106109, 118.90581)"><g><path d="M 24.828125 -35.6875 C 26.003906 -35.6875 26.820312 -35.101562 27.28125 -33.9375 C 27.570312 -34.507812 27.71875 -35.113281 27.71875 -35.75 C 27.71875 -36.394531 27.53125 -36.960938 27.15625 -37.453125 C 26.78125 -37.953125 26.289062 -38.328125 25.6875 -38.578125 C 24.550781 -39.078125 23.328125 -39.328125 22.015625 -39.328125 C 19.015625 -39.328125 16.640625 -38.441406 14.890625 -36.671875 C 13.140625 -34.910156 12.265625 -32.707031 12.265625 -30.0625 C 12.265625 -28.78125 12.425781 -27.625 12.75 -26.59375 C 14.320312 -26.976562 15.84375 -27.171875 17.3125 -27.171875 C 21.070312 -27.171875 22.953125 -25.9375 22.953125 -23.46875 C 22.953125 -22.40625 22.484375 -21.53125 21.546875 -20.84375 C 20.617188 -20.164062 19.597656 -19.828125 18.484375 -19.828125 C 16.441406 -19.828125 14.101562 -20.707031 11.46875 -22.46875 C 8.945312 -19.644531 7.6875 -16.578125 7.6875 -13.265625 C 7.6875 -10.859375 8.351562 -8.632812 9.6875 -6.59375 C 11.019531 -4.5625 12.796875 -2.960938 15.015625 -1.796875 C 17.234375 -0.640625 19.625 -0.0625 22.1875 -0.0625 C 26.882812 -0.0625 30.765625 -1.519531 33.828125 -4.4375 C 36.054688 -6.5625 37.171875 -9.265625 37.171875 -12.546875 C 37.171875 -14.328125 36.484375 -15.878906 35.109375 -17.203125 C 33.734375 -18.535156 32.28125 -19.203125 30.75 -19.203125 C 29.226562 -19.203125 27.96875 -18.765625 26.96875 -17.890625 C 25.976562 -17.023438 25.484375 -16.085938 25.484375 -15.078125 C 25.484375 -14.066406 25.78125 -13.21875 26.375 -12.53125 C 26.96875 -11.851562 27.710938 -11.410156 28.609375 -11.203125 C 28.171875 -11.796875 27.953125 -12.457031 27.953125 -13.1875 C 27.953125 -13.914062 28.171875 -14.53125 28.609375 -15.03125 C 29.046875 -15.539062 29.664062 -15.796875 30.46875 -15.796875 C 31.269531 -15.796875 31.910156 -15.53125 32.390625 -15 C 32.867188 -14.476562 33.109375 -13.804688 33.109375 -12.984375 C 33.109375 -12.160156 32.75 -11.414062 32.03125 -10.75 C 31.3125 -10.082031 30.265625 -9.75 28.890625 -9.75 C 27.515625 -9.75 26.257812 -10.300781 25.125 -11.40625 C 23.988281 -12.519531 23.421875 -13.8125 23.421875 -15.28125 C 23.421875 -16.75 23.675781 -18 24.1875 -19.03125 C 24.707031 -20.0625 25.40625 -20.867188 26.28125 -21.453125 C 27.164062 -22.035156 28.179688 -22.515625 29.328125 -22.890625 C 30.472656 -23.273438 31.671875 -23.5625 32.921875 -23.75 C 34.171875 -23.945312 35.425781 -24.128906 36.6875 -24.296875 C 37.945312 -24.472656 39.148438 -24.6875 40.296875 -24.9375 C 41.441406 -25.1875 42.457031 -25.507812 43.34375 -25.90625 C 45.25 -26.75 46.203125 -28.234375 46.203125 -30.359375 C 46.203125 -31.941406 45.691406 -33.222656 44.671875 -34.203125 C 43.648438 -35.191406 42.472656 -35.6875 41.140625 -35.6875 C 39.816406 -35.6875 38.960938 -35.195312 38.578125 -34.21875 C 40.566406 -33.957031 41.5625 -33.15625 41.5625 -31.8125 C 41.5625 -31.050781 41.269531 -30.398438 40.6875 -29.859375 C 40.101562 -29.328125 39.40625 -29.0625 38.59375 -29.0625 C 37.78125 -29.0625 37.082031 -29.414062 36.5 -30.125 C 35.914062 -30.832031 35.625 -31.585938 35.625 -32.390625 C 35.625 -33.859375 36.160156 -35.078125 37.234375 -36.046875 C 38.304688 -37.023438 39.597656 -37.515625 41.109375 -37.515625 C 43.398438 -37.515625 45.175781 -36.71875 46.4375 -35.125 C 47.695312 -33.53125 48.328125 -31.585938 48.328125 -29.296875 C 48.328125 -25.566406 46.679688 -22.851562 43.390625 -21.15625 C 41.554688 -20.21875 39.207031 -19.460938 36.34375 -18.890625 C 37.238281 -17.765625 37.921875 -16.703125 38.390625 -15.703125 C 38.859375 -14.710938 39.09375 -13.425781 39.09375 -11.84375 C 39.09375 -10.269531 38.738281 -8.660156 38.03125 -7.015625 C 37.320312 -5.378906 36.382812 -4.019531 35.21875 -2.9375 C 34.0625 -1.851562 32.71875 -0.941406 31.1875 -0.203125 C 28.320312 1.191406 25.148438 1.890625 21.671875 1.890625 C 18.628906 1.890625 15.96875 1.566406 13.6875 0.921875 C 11.40625 0.285156 9.597656 -0.421875 8.265625 -1.203125 C 6.941406 -1.984375 5.753906 -2.898438 4.703125 -3.953125 C 2.429688 -6.191406 1.296875 -9.179688 1.296875 -12.921875 C 1.296875 -16.878906 2.984375 -20.347656 6.359375 -23.328125 C 7.160156 -24.035156 7.992188 -24.640625 8.859375 -25.140625 C 8.472656 -25.691406 8.113281 -26.457031 7.78125 -27.4375 C 7.445312 -28.425781 7.28125 -29.359375 7.28125 -30.234375 C 7.28125 -32.429688 7.953125 -34.390625 9.296875 -36.109375 C 10.648438 -37.835938 12.347656 -39.140625 14.390625 -40.015625 C 16.429688 -40.890625 18.597656 -41.328125 20.890625 -41.328125 C 22.972656 -41.328125 24.734375 -41.003906 26.171875 -40.359375 C 28.878906 -39.171875 30.234375 -37.421875 30.234375 -35.109375 C 30.234375 -33.753906 29.84375 -32.570312 29.0625 -31.5625 C 28.28125 -30.5625 27.3125 -30.0625 26.15625 -30.0625 C 25 -30.0625 24.097656 -30.316406 23.453125 -30.828125 C 22.816406 -31.347656 22.5 -32.085938 22.5 -33.046875 C 22.5 -34.804688 23.273438 -35.6875 24.828125 -35.6875 Z M 13.390625 -24.3125 C 15.335938 -22.894531 17.046875 -22.1875 18.515625 -22.1875 C 19.984375 -22.1875 20.71875 -22.597656 20.71875 -23.421875 C 20.71875 -24.472656 19.847656 -25 18.109375 -25 C 17.253906 -25 16.0625 -24.84375 14.53125 -24.53125 Z M 13.390625 -24.3125 "/></g></g></g><g fill="#000000" fill-opacity="1"><g transform="translate(238.953942, 118.90581)"><g/></g></g><g fill="#000000" fill-opacity="1"><g transform="translate(247.22462, 118.90581)"><g><path d="M 43.5625 -39.4375 C 38.007812 -33.6875 35.175781 -27.410156 35.0625 -20.609375 L 40.5 -20.609375 L 40.5 -18.4375 L 34.9375 -18.4375 C 34.75 -14.78125 34.144531 -11.453125 33.125 -8.453125 C 32.101562 -5.453125 30.804688 -2.929688 29.234375 -0.890625 C 27.671875 1.148438 25.859375 2.867188 23.796875 4.265625 C 19.796875 6.941406 15.265625 8.28125 10.203125 8.28125 C 4.316406 8.28125 0.550781 6.242188 -1.09375 2.171875 C -1.570312 1.023438 -1.8125 -0.257812 -1.8125 -1.6875 C -1.8125 -3.125 -1.488281 -4.601562 -0.84375 -6.125 C -0.207031 -7.644531 0.664062 -9.023438 1.78125 -10.265625 C 2.90625 -11.503906 4.320312 -12.507812 6.03125 -13.28125 C 7.738281 -14.0625 9.585938 -14.453125 11.578125 -14.453125 C 11.898438 -14.453125 12.460938 -14.410156 13.265625 -14.328125 C 11.179688 -17.441406 10.140625 -20.648438 10.140625 -23.953125 C 10.140625 -27.265625 10.984375 -30.242188 12.671875 -32.890625 C 14.367188 -35.535156 16.710938 -37.601562 19.703125 -39.09375 C 22.691406 -40.582031 26.039062 -41.328125 29.75 -41.328125 C 31.320312 -41.328125 33.628906 -41.007812 36.671875 -40.375 C 39.722656 -39.75 42.019531 -39.4375 43.5625 -39.4375 Z M 30.015625 -20.609375 C 30.585938 -25.960938 32.90625 -31.023438 36.96875 -35.796875 C 34.050781 -37.023438 30.96875 -37.640625 27.71875 -37.640625 C 23.019531 -37.640625 19.257812 -36.375 16.4375 -33.84375 C 13.613281 -31.320312 12.203125 -28.046875 12.203125 -24.015625 C 12.203125 -20.828125 13.359375 -17.523438 15.671875 -14.109375 L 22.46875 -12.15625 L 21.90625 -10.375 C 20.050781 -11.007812 18.328125 -11.488281 16.734375 -11.8125 C 17.160156 -10.988281 17.984375 -9.671875 19.203125 -7.859375 L 17.25 -7.21875 L 14.28125 -12.15625 C 13.53125 -12.300781 12.535156 -12.375 11.296875 -12.375 C 10.066406 -12.375 8.773438 -12.054688 7.421875 -11.421875 C 6.066406 -10.796875 4.945312 -9.96875 4.0625 -8.9375 C 2.21875 -6.757812 1.296875 -4.429688 1.296875 -1.953125 C 1.296875 0.515625 2.066406 2.519531 3.609375 4.0625 C 5.160156 5.613281 7.359375 6.390625 10.203125 6.390625 C 13.046875 6.390625 15.519531 5.9375 17.625 5.03125 C 19.726562 4.125 21.628906 2.695312 23.328125 0.75 C 26.765625 -3.1875 28.925781 -9.597656 29.8125 -18.484375 L 23.640625 -18.484375 L 23.640625 -20.609375 Z M 30.015625 -20.609375 "/></g></g></g><g fill="#000000" fill-opacity="1"><g transform="translate(283.556349, 118.90581)"><g><path d="M 5.28125 -5.640625 C 5.394531 -3.441406 6.875 -2.34375 9.71875 -2.34375 C 10.769531 -2.34375 11.863281 -2.644531 13 -3.25 C 14.132812 -3.851562 15.054688 -4.566406 15.765625 -5.390625 L 17 -4.59375 C 15.414062 -1.9375 12.882812 -0.3125 9.40625 0.28125 C 8.632812 0.394531 7.894531 0.453125 7.1875 0.453125 C 5.125 0.453125 3.40625 -0.226562 2.03125 -1.59375 C 0.65625 -2.957031 -0.03125 -4.625 -0.03125 -6.59375 C -0.03125 -8.5625 0.566406 -10.378906 1.765625 -12.046875 C 2.972656 -13.722656 4.476562 -15.019531 6.28125 -15.9375 C 8.09375 -16.851562 9.878906 -17.3125 11.640625 -17.3125 C 13.398438 -17.3125 14.921875 -16.910156 16.203125 -16.109375 C 17.492188 -15.304688 18.15625 -14.222656 18.1875 -12.859375 C 18.21875 -11.503906 17.820312 -10.332031 17 -9.34375 C 16.175781 -8.363281 15.132812 -7.617188 13.875 -7.109375 C 11.375 -6.097656 8.914062 -5.59375 6.5 -5.59375 Z M 5.109375 -7.21875 C 7.222656 -7.300781 8.925781 -7.640625 10.21875 -8.234375 C 11.507812 -8.835938 12.40625 -9.523438 12.90625 -10.296875 C 13.414062 -11.078125 13.671875 -11.890625 13.671875 -12.734375 C 13.671875 -13.585938 13.453125 -14.21875 13.015625 -14.625 C 12.578125 -15.039062 12.109375 -15.25 11.609375 -15.25 C 10.390625 -15.25 9.265625 -14.820312 8.234375 -13.96875 C 7.210938 -13.125 6.4375 -12.09375 5.90625 -10.875 C 5.375 -9.664062 5.109375 -8.445312 5.109375 -7.21875 Z M 5.109375 -7.21875 "/></g></g></g><g fill="#000000" fill-opacity="1"><g transform="translate(302.031055, 118.90581)"><g><path d="M 17.96875 -12.5 L 17.796875 -7.21875 C 17.796875 -3.738281 18.207031 -2 19.03125 -2 C 19.851562 -2 20.773438 -2.585938 21.796875 -3.765625 C 22.816406 -4.941406 23.6875 -6.367188 24.40625 -8.046875 C 25.125 -9.734375 25.484375 -11.253906 25.484375 -12.609375 C 25.296875 -12.453125 24.851562 -12.375 24.15625 -12.375 C 23.457031 -12.375 22.878906 -12.59375 22.421875 -13.03125 C 21.960938 -13.476562 21.734375 -14.035156 21.734375 -14.703125 C 21.734375 -15.367188 21.984375 -15.96875 22.484375 -16.5 C 22.992188 -17.039062 23.753906 -17.3125 24.765625 -17.3125 C 25.773438 -17.3125 26.59375 -16.984375 27.21875 -16.328125 C 27.851562 -15.679688 28.171875 -14.789062 28.171875 -13.65625 C 28.171875 -12.519531 27.925781 -11.15625 27.4375 -9.5625 C 26.957031 -7.976562 26.296875 -6.429688 25.453125 -4.921875 C 24.609375 -3.421875 23.515625 -2.148438 22.171875 -1.109375 C 20.828125 -0.0664062 19.390625 0.453125 17.859375 0.453125 C 16.503906 0.453125 15.539062 -0.328125 14.96875 -1.890625 C 14.488281 -3.191406 14.21875 -4.332031 14.15625 -5.3125 C 14.101562 -6.300781 14.054688 -7.070312 14.015625 -7.625 C 11.398438 -3.613281 9.164062 -1.128906 7.3125 -0.171875 C 6.488281 0.242188 5.65625 0.453125 4.8125 0.453125 C 2.9375 0.453125 2 -0.644531 2 -2.84375 C 2 -4.082031 2.359375 -5.765625 3.078125 -7.890625 C 3.796875 -10.023438 4.15625 -11.390625 4.15625 -11.984375 C 4.15625 -12.578125 3.984375 -12.875 3.640625 -12.875 C 3.117188 -12.875 2.097656 -11.628906 0.578125 -9.140625 L -1.296875 -10.203125 C 1.515625 -14.941406 4.097656 -17.3125 6.453125 -17.3125 C 7.078125 -17.3125 7.625 -17.078125 8.09375 -16.609375 C 8.5625 -16.140625 8.796875 -15.375 8.796875 -14.3125 C 8.796875 -13.257812 8.410156 -11.304688 7.640625 -8.453125 C 6.878906 -5.609375 6.5 -4.097656 6.5 -3.921875 C 6.5 -3.140625 6.75 -2.75 7.25 -2.75 C 7.75 -2.75 8.488281 -3.378906 9.46875 -4.640625 C 10.457031 -5.898438 11.410156 -7.296875 12.328125 -8.828125 C 14.710938 -12.878906 16.316406 -14.90625 17.140625 -14.90625 C 17.691406 -14.90625 17.96875 -14.101562 17.96875 -12.5 Z M 17.96875 -12.5 "/></g></g></g><g fill="#000000" fill-opacity="1"><g transform="translate(330.566457, 118.90581)"><g><path d="M 5.28125 -5.640625 C 5.394531 -3.441406 6.875 -2.34375 9.71875 -2.34375 C 10.769531 -2.34375 11.863281 -2.644531 13 -3.25 C 14.132812 -3.851562 15.054688 -4.566406 15.765625 -5.390625 L 17 -4.59375 C 15.414062 -1.9375 12.882812 -0.3125 9.40625 0.28125 C 8.632812 0.394531 7.894531 0.453125 7.1875 0.453125 C 5.125 0.453125 3.40625 -0.226562 2.03125 -1.59375 C 0.65625 -2.957031 -0.03125 -4.625 -0.03125 -6.59375 C -0.03125 -8.5625 0.566406 -10.378906 1.765625 -12.046875 C 2.972656 -13.722656 4.476562 -15.019531 6.28125 -15.9375 C 8.09375 -16.851562 9.878906 -17.3125 11.640625 -17.3125 C 13.398438 -17.3125 14.921875 -16.910156 16.203125 -16.109375 C 17.492188 -15.304688 18.15625 -14.222656 18.1875 -12.859375 C 18.21875 -11.503906 17.820312 -10.332031 17 -9.34375 C 16.175781 -8.363281 15.132812 -7.617188 13.875 -7.109375 C 11.375 -6.097656 8.914062 -5.59375 6.5 -5.59375 Z M 5.109375 -7.21875 C 7.222656 -7.300781 8.925781 -7.640625 10.21875 -8.234375 C 11.507812 -8.835938 12.40625 -9.523438 12.90625 -10.296875 C 13.414062 -11.078125 13.671875 -11.890625 13.671875 -12.734375 C 13.671875 -13.585938 13.453125 -14.21875 13.015625 -14.625 C 12.578125 -15.039062 12.109375 -15.25 11.609375 -15.25 C 10.390625 -15.25 9.265625 -14.820312 8.234375 -13.96875 C 7.210938 -13.125 6.4375 -12.09375 5.90625 -10.875 C 5.375 -9.664062 5.109375 -8.445312 5.109375 -7.21875 Z M 5.109375 -7.21875 "/></g></g></g><g fill="#000000" fill-opacity="1"><g transform="translate(349.041163, 118.90581)"><g><path d="M 10.65625 -38.125 L 15.3125 -38.125 C 14.488281 -36.707031 13.222656 -33.566406 11.515625 -28.703125 C 9.816406 -23.835938 8.265625 -18.945312 6.859375 -14.03125 C 5.460938 -9.113281 4.765625 -6.101562 4.765625 -5 C 4.765625 -3.90625 4.894531 -3.359375 5.15625 -3.359375 C 5.957031 -3.359375 7.210938 -4.570312 8.921875 -7 L 10.125 -5.84375 C 9.28125 -4.394531 8.367188 -3.171875 7.390625 -2.171875 C 5.671875 -0.421875 4.273438 0.453125 3.203125 0.453125 C 1.253906 0.453125 0.28125 -0.71875 0.28125 -3.0625 C 0.28125 -6.5625 1.441406 -12.078125 3.765625 -19.609375 C 6.085938 -27.140625 8.382812 -33.3125 10.65625 -38.125 Z M 10.65625 -38.125 "/></g></g></g><g fill="#000000" fill-opacity="1"><g transform="translate(358.916979, 118.90581)"><g><path d="M 15.734375 -13.5625 C 15.003906 -13.5625 14.144531 -13.097656 13.15625 -12.171875 C 12.164062 -11.242188 11.203125 -10.109375 10.265625 -8.765625 C 8.773438 -6.628906 7.253906 -4.164062 5.703125 -1.375 L 4.9375 0 L 0.890625 0 C 0.890625 0 1.1875 -0.894531 1.78125 -2.6875 C 3.4375 -7.65625 4.265625 -10.601562 4.265625 -11.53125 C 4.265625 -12.457031 4.113281 -12.921875 3.8125 -12.921875 C 3.257812 -12.921875 2.597656 -12.265625 1.828125 -10.953125 C 1.660156 -10.640625 1.519531 -10.394531 1.40625 -10.21875 C 1.289062 -10.039062 1.160156 -9.820312 1.015625 -9.5625 C 0.867188 -9.300781 0.78125 -9.144531 0.75 -9.09375 L -1.171875 -10.203125 C 0.316406 -12.628906 1.679688 -14.421875 2.921875 -15.578125 C 4.160156 -16.734375 5.429688 -17.3125 6.734375 -17.3125 C 7.328125 -17.3125 7.835938 -17.0625 8.265625 -16.5625 C 8.703125 -16.070312 8.921875 -15.484375 8.921875 -14.796875 C 8.921875 -14.117188 8.878906 -13.515625 8.796875 -12.984375 C 8.722656 -12.460938 8.640625 -11.984375 8.546875 -11.546875 C 8.453125 -11.109375 8.316406 -10.582031 8.140625 -9.96875 C 7.960938 -9.363281 7.820312 -8.894531 7.71875 -8.5625 C 7.613281 -8.238281 7.472656 -7.800781 7.296875 -7.25 C 7.128906 -6.695312 7.03125 -6.375 7 -6.28125 C 7.34375 -6.96875 7.921875 -7.976562 8.734375 -9.3125 C 9.554688 -10.65625 10.09375 -11.5 10.34375 -11.84375 C 10.59375 -12.1875 10.9375 -12.644531 11.375 -13.21875 C 11.8125 -13.789062 12.195312 -14.234375 12.53125 -14.546875 C 12.875 -14.859375 13.28125 -15.21875 13.75 -15.625 C 14.21875 -16.039062 14.660156 -16.351562 15.078125 -16.5625 C 16.148438 -17.0625 17.179688 -17.3125 18.171875 -17.3125 C 19.160156 -17.3125 19.957031 -17.019531 20.5625 -16.4375 C 21.164062 -15.851562 21.46875 -15.175781 21.46875 -14.40625 C 21.46875 -13.632812 21.222656 -12.957031 20.734375 -12.375 C 20.242188 -11.789062 19.679688 -11.5 19.046875 -11.5 C 18.410156 -11.5 17.910156 -11.609375 17.546875 -11.828125 C 17.179688 -12.046875 16.929688 -12.28125 16.796875 -12.53125 C 16.390625 -13.21875 16.035156 -13.5625 15.734375 -13.5625 Z M 15.734375 -13.5625 "/></g></g></g><g fill="#000000" fill-opacity="1"><g transform="translate(379.054126, 118.90581)"><g><path d="M 1.34375 -9.921875 L -0.515625 -11.03125 C 0.441406 -12.695312 1.628906 -14.160156 3.046875 -15.421875 C 4.472656 -16.679688 5.75 -17.3125 6.875 -17.3125 C 8.707031 -17.3125 9.625 -16.488281 9.625 -14.84375 C 9.625 -14.15625 9.148438 -12.484375 8.203125 -9.828125 C 7.265625 -7.171875 6.796875 -5.488281 6.796875 -4.78125 C 6.796875 -4.070312 6.84375 -3.617188 6.9375 -3.421875 C 7.03125 -3.222656 7.238281 -3.125 7.5625 -3.125 C 9.300781 -3.125 11.09375 -3.773438 12.9375 -5.078125 C 14.78125 -6.390625 15.976562 -7.84375 16.53125 -9.4375 L 18.546875 -15.28125 C 18.753906 -15.875 19.078125 -16.34375 19.515625 -16.6875 C 19.953125 -17.03125 20.375 -17.203125 20.78125 -17.203125 C 21.195312 -17.203125 21.535156 -17.066406 21.796875 -16.796875 C 22.054688 -16.523438 22.1875 -16.171875 22.1875 -15.734375 C 22.1875 -15.296875 22.097656 -14.835938 21.921875 -14.359375 L 19.75 -8 C 18.539062 -4.25 16.675781 -0.5625 14.15625 3.0625 C 16.351562 3.289062 18.3125 3.6875 20.03125 4.25 L 19.8125 5.84375 C 17.164062 5.3125 14.832031 5 12.8125 4.90625 C 10.957031 7.289062 9.0625 9.191406 7.125 10.609375 C 5.1875 12.035156 3.492188 12.75 2.046875 12.75 C 0.609375 12.75 -0.46875 12.457031 -1.1875 11.875 C -1.90625 11.289062 -2.265625 10.492188 -2.265625 9.484375 C -2.265625 8.472656 -1.878906 7.550781 -1.109375 6.71875 C -0.347656 5.882812 0.671875 5.210938 1.953125 4.703125 C 4.546875 3.628906 7.523438 3.015625 10.890625 2.859375 C 11.160156 2.554688 11.800781 1.484375 12.8125 -0.359375 C 13.820312 -2.203125 14.367188 -3.363281 14.453125 -3.84375 C 11.066406 -0.976562 8.082031 0.453125 5.5 0.453125 C 4.445312 0.453125 3.679688 0.0976562 3.203125 -0.609375 C 2.734375 -1.328125 2.5 -2.210938 2.5 -3.265625 C 2.5 -4.316406 2.894531 -6.117188 3.6875 -8.671875 C 4.476562 -11.222656 4.875 -12.675781 4.875 -13.03125 C 4.875 -13.382812 4.789062 -13.5625 4.625 -13.5625 C 4.46875 -13.5625 4.289062 -13.515625 4.09375 -13.421875 C 3.90625 -13.335938 3.71875 -13.203125 3.53125 -13.015625 C 3.351562 -12.835938 3.1875 -12.664062 3.03125 -12.5 C 2.882812 -12.34375 2.71875 -12.117188 2.53125 -11.828125 C 2.351562 -11.546875 2.21875 -11.328125 2.125 -11.171875 C 1.71875 -10.546875 1.457031 -10.128906 1.34375 -9.921875 Z M 9.625 4.90625 C 8.082031 5 6.507812 5.273438 4.90625 5.734375 C 1.8125 6.609375 0.265625 7.640625 0.265625 8.828125 C 0.265625 9.535156 0.703125 9.890625 1.578125 9.890625 C 2.453125 9.890625 3.882812 9.253906 5.875 7.984375 C 7.863281 6.710938 9.113281 5.6875 9.625 4.90625 Z M 9.625 4.90625 "/></g></g></g></svg>