<svg xmlns="http://www.w3.org/2000/svg" xmlns:xlink="http://www.w3.org/1999/xlink" width="400" zoomAndPan="magnify" viewBox="0 0 300 74.999997" height="100" preserveAspectRatio="xMidYMid meet" version="1.0"><defs><g/></defs><g fill="#000000" fill-opacity="1"><g transform="translate(8.635293, 56.706322)"><g><path d="M 28.578125 -1.46875 C 26.523438 -0.570312 24.441406 0.0664062 22.328125 0.453125 C 20.222656 0.847656 18.226562 1.046875 16.34375 1.046875 C 14.46875 1.046875 12.773438 0.941406 11.265625 0.734375 C 9.765625 0.535156 8.273438 0.191406 6.796875 -0.296875 C 5.316406 -0.796875 4.039062 -1.429688 2.96875 -2.203125 C 0.570312 -3.910156 -0.625 -6.316406 -0.625 -9.421875 C -0.625 -11.273438 -0.195312 -13.003906 0.65625 -14.609375 C 1.519531 -16.210938 2.644531 -17.539062 4.03125 -18.59375 C 6.976562 -20.863281 10.195312 -22 13.6875 -22 C 17.863281 -22 20.972656 -20.769531 23.015625 -18.3125 C 24.023438 -17.070312 24.53125 -15.566406 24.53125 -13.796875 C 24.53125 -12.035156 23.691406 -10.507812 22.015625 -9.21875 C 20.347656 -7.925781 18.585938 -7.28125 16.734375 -7.28125 C 16.296875 -7.28125 16.078125 -7.503906 16.078125 -7.953125 C 16.078125 -8.410156 16.285156 -8.738281 16.703125 -8.9375 C 17.128906 -9.132812 17.632812 -9.320312 18.21875 -9.5 C 18.8125 -9.675781 19.398438 -9.894531 19.984375 -10.15625 C 21.429688 -10.800781 22.15625 -11.851562 22.15625 -13.3125 C 22.15625 -14.78125 21.488281 -15.882812 20.15625 -16.625 C 18.820312 -17.375 16.503906 -17.75 13.203125 -17.75 C 9.910156 -17.75 7.359375 -16.910156 5.546875 -15.234375 C 3.742188 -13.566406 2.84375 -11.578125 2.84375 -9.265625 C 2.84375 -6.222656 4.195312 -4.0625 6.90625 -2.78125 C 9.320312 -1.625 12.210938 -1.046875 15.578125 -1.046875 C 21.359375 -1.046875 26.035156 -2.691406 29.609375 -5.984375 C 32.128906 -8.296875 33.390625 -11.207031 33.390625 -14.71875 C 33.390625 -16.820312 32.640625 -18.863281 31.140625 -20.84375 C 30.492188 -21.71875 29.769531 -22.585938 28.96875 -23.453125 C 28.164062 -24.316406 27.363281 -25.175781 26.5625 -26.03125 C 25.769531 -26.894531 25.050781 -27.757812 24.40625 -28.625 C 22.90625 -30.519531 22.15625 -32.285156 22.15625 -33.921875 C 22.15625 -35.554688 22.421875 -36.96875 22.953125 -38.15625 C 23.492188 -39.34375 24.210938 -40.375 25.109375 -41.25 C 26.003906 -42.125 27.03125 -42.875 28.1875 -43.5 C 30.519531 -44.800781 32.988281 -45.453125 35.59375 -45.453125 C 37.863281 -45.453125 39.972656 -44.90625 41.921875 -43.8125 C 44.066406 -42.632812 45.140625 -40.835938 45.140625 -38.421875 C 45.140625 -37.484375 44.800781 -36.65625 44.125 -35.9375 C 43.457031 -35.21875 42.703125 -34.859375 41.859375 -34.859375 C 41.023438 -34.859375 40.335938 -35.097656 39.796875 -35.578125 C 39.265625 -36.066406 39 -36.609375 39 -37.203125 C 39 -37.804688 39.253906 -38.445312 39.765625 -39.125 C 40.285156 -39.8125 40.546875 -40.378906 40.546875 -40.828125 C 40.546875 -41.285156 40.351562 -41.703125 39.96875 -42.078125 C 39.59375 -42.460938 39.109375 -42.75 38.515625 -42.9375 C 37.335938 -43.289062 36.269531 -43.46875 35.3125 -43.46875 C 33.082031 -43.46875 31.164062 -42.804688 29.5625 -41.484375 C 27.96875 -40.160156 27.171875 -38.320312 27.171875 -35.96875 C 27.171875 -34.6875 27.96875 -33.1875 29.5625 -31.46875 C 30.28125 -30.707031 31.066406 -29.898438 31.921875 -29.046875 C 32.773438 -28.191406 33.628906 -27.28125 34.484375 -26.3125 C 35.347656 -25.351562 36.140625 -24.359375 36.859375 -23.328125 C 38.453125 -21.054688 39.25 -18.703125 39.25 -16.265625 C 39.25 -13.828125 38.765625 -11.617188 37.796875 -9.640625 C 36.828125 -7.671875 35.5625 -6.039062 34 -4.75 C 32.4375 -3.457031 30.628906 -2.363281 28.578125 -1.46875 Z M 28.578125 -1.46875 "/></g></g></g><g fill="#000000" fill-opacity="1"><g transform="translate(49.143191, 56.706322)"><g><path d="M 5.796875 -6.203125 C 5.921875 -3.785156 7.550781 -2.578125 10.6875 -2.578125 C 11.84375 -2.578125 13.046875 -2.910156 14.296875 -3.578125 C 15.546875 -4.242188 16.5625 -5.023438 17.34375 -5.921875 L 18.6875 -5.046875 C 16.945312 -2.117188 14.164062 -0.332031 10.34375 0.3125 C 9.5 0.4375 8.6875 0.5 7.90625 0.5 C 5.644531 0.5 3.753906 -0.25 2.234375 -1.75 C 0.722656 -3.25 -0.03125 -5.082031 -0.03125 -7.25 C -0.03125 -9.414062 0.628906 -11.414062 1.953125 -13.25 C 3.273438 -15.09375 4.929688 -16.519531 6.921875 -17.53125 C 8.910156 -18.539062 10.867188 -19.046875 12.796875 -19.046875 C 14.734375 -19.046875 16.410156 -18.601562 17.828125 -17.71875 C 19.242188 -16.832031 19.96875 -15.644531 20 -14.15625 C 20.03125 -12.664062 19.59375 -11.378906 18.6875 -10.296875 C 17.789062 -9.210938 16.648438 -8.382812 15.265625 -7.8125 C 12.503906 -6.695312 9.800781 -6.140625 7.15625 -6.140625 Z M 5.609375 -7.9375 C 7.941406 -8.03125 9.816406 -8.40625 11.234375 -9.0625 C 12.648438 -9.726562 13.632812 -10.484375 14.1875 -11.328125 C 14.75 -12.179688 15.03125 -13.078125 15.03125 -14.015625 C 15.03125 -14.953125 14.789062 -15.644531 14.3125 -16.09375 C 13.832031 -16.539062 13.316406 -16.765625 12.765625 -16.765625 C 11.421875 -16.765625 10.1875 -16.296875 9.0625 -15.359375 C 7.9375 -14.429688 7.078125 -13.300781 6.484375 -11.96875 C 5.898438 -10.632812 5.609375 -9.289062 5.609375 -7.9375 Z M 5.609375 -7.9375 "/></g></g></g><g fill="#000000" fill-opacity="1"><g transform="translate(70.106986, 56.706322)"><g><path d="M 4.28125 -18.34375 C 6.445312 -25.070312 8.65625 -30.707031 10.90625 -35.25 L 14.8125 -34.921875 C 14.582031 -34.253906 14.015625 -32.640625 13.109375 -30.078125 C 11.160156 -24.421875 9.898438 -20.507812 9.328125 -18.34375 L 14.28125 -18.34375 L 13.78125 -16.265625 L 8.671875 -16.265625 C 6.734375 -10.296875 5.765625 -6.664062 5.765625 -5.375 C 5.765625 -4.082031 5.894531 -3.4375 6.15625 -3.4375 C 6.425781 -3.4375 6.664062 -3.488281 6.875 -3.59375 C 7.4375 -3.90625 8.65625 -5.441406 10.53125 -8.203125 L 11.828125 -7.03125 C 10.410156 -4.46875 8.957031 -2.570312 7.46875 -1.34375 C 5.976562 -0.113281 4.75 0.5 3.78125 0.5 C 2.8125 0.5 2.078125 0.164062 1.578125 -0.5 C 1.085938 -1.175781 0.84375 -2.039062 0.84375 -3.09375 C 0.84375 -5.757812 1.78125 -10.148438 3.65625 -16.265625 L 0.34375 -16.265625 L 0.84375 -18.34375 Z M 4.28125 -18.34375 "/></g></g></g><g fill="#000000" fill-opacity="1"><g transform="translate(82.96944, 56.706322)"><g><path d="M 2.9375 -0.21875 C 1.5625 -0.707031 0.582031 -1.28125 0 -1.9375 C -0.582031 -2.601562 -0.875 -3.332031 -0.875 -4.125 C -0.875 -4.925781 -0.65625 -5.585938 -0.21875 -6.109375 C 0.21875 -6.640625 0.796875 -6.90625 1.515625 -6.90625 C 2.242188 -6.90625 2.882812 -6.6875 3.4375 -6.25 C 4 -5.820312 4.28125 -5.210938 4.28125 -4.421875 C 4.28125 -3.640625 3.800781 -2.984375 2.84375 -2.453125 C 3.632812 -1.765625 4.851562 -1.421875 6.5 -1.421875 C 10.050781 -1.421875 11.828125 -2.425781 11.828125 -4.4375 C 11.828125 -5.707031 10.703125 -6.71875 8.453125 -7.46875 C 7.523438 -7.78125 6.59375 -8.113281 5.65625 -8.46875 C 4.71875 -8.832031 3.898438 -9.359375 3.203125 -10.046875 C 2.515625 -10.742188 2.140625 -11.585938 2.078125 -12.578125 C 2.078125 -14.003906 2.550781 -15.210938 3.5 -16.203125 C 5.28125 -18.097656 7.945312 -19.046875 11.5 -19.046875 C 13.25 -19.046875 14.796875 -18.710938 16.140625 -18.046875 C 17.484375 -17.390625 18.15625 -16.535156 18.15625 -15.484375 C 18.15625 -14.429688 17.882812 -13.671875 17.34375 -13.203125 C 16.8125 -12.742188 16.1875 -12.515625 15.46875 -12.515625 C 14.757812 -12.515625 14.15625 -12.707031 13.65625 -13.09375 C 13.164062 -13.488281 12.921875 -14.03125 12.921875 -14.71875 C 12.921875 -15.414062 13.332031 -16.015625 14.15625 -16.515625 C 13.644531 -16.878906 12.769531 -17.0625 11.53125 -17.0625 C 10.289062 -17.0625 9.175781 -16.875 8.1875 -16.5 C 7.207031 -16.132812 6.71875 -15.632812 6.71875 -15 C 6.71875 -14.375 7.078125 -13.847656 7.796875 -13.421875 C 8.523438 -13.003906 9.40625 -12.617188 10.4375 -12.265625 C 11.46875 -11.910156 12.492188 -11.5 13.515625 -11.03125 C 14.546875 -10.570312 15.425781 -9.910156 16.15625 -9.046875 C 16.882812 -8.179688 17.25 -7.117188 17.25 -5.859375 C 17.25 -4.597656 16.734375 -3.453125 15.703125 -2.421875 C 13.742188 -0.472656 11.070312 0.5 7.6875 0.5 C 5.90625 0.5 4.320312 0.257812 2.9375 -0.21875 Z M 2.9375 -0.21875 "/></g></g></g></svg>