<svg xmlns="http://www.w3.org/2000/svg" xmlns:xlink="http://www.w3.org/1999/xlink" width="400" zoomAndPan="magnify" viewBox="0 0 300 74.999997" height="100" preserveAspectRatio="xMidYMid meet" version="1.0"><defs><g/></defs><g fill="#000000" fill-opacity="1"><g transform="translate(8.043609, 57.749994)"><g><path d="M 28.578125 -1.46875 C 26.523438 -0.570312 24.441406 0.0664062 22.328125 0.453125 C 20.222656 0.847656 18.226562 1.046875 16.34375 1.046875 C 14.46875 1.046875 12.773438 0.941406 11.265625 0.734375 C 9.765625 0.535156 8.273438 0.191406 6.796875 -0.296875 C 5.316406 -0.796875 4.039062 -1.429688 2.96875 -2.203125 C 0.570312 -3.910156 -0.625 -6.316406 -0.625 -9.421875 C -0.625 -11.273438 -0.195312 -13.003906 0.65625 -14.609375 C 1.519531 -16.210938 2.644531 -17.539062 4.03125 -18.59375 C 6.976562 -20.863281 10.195312 -22 13.6875 -22 C 17.863281 -22 20.972656 -20.769531 23.015625 -18.3125 C 24.023438 -17.070312 24.53125 -15.566406 24.53125 -13.796875 C 24.53125 -12.035156 23.691406 -10.507812 22.015625 -9.21875 C 20.347656 -7.925781 18.585938 -7.28125 16.734375 -7.28125 C 16.296875 -7.28125 16.078125 -7.503906 16.078125 -7.953125 C 16.078125 -8.410156 16.285156 -8.738281 16.703125 -8.9375 C 17.128906 -9.132812 17.632812 -9.320312 18.21875 -9.5 C 18.8125 -9.675781 19.398438 -9.894531 19.984375 -10.15625 C 21.429688 -10.800781 22.15625 -11.851562 22.15625 -13.3125 C 22.15625 -14.78125 21.488281 -15.882812 20.15625 -16.625 C 18.820312 -17.375 16.503906 -17.75 13.203125 -17.75 C 9.910156 -17.75 7.359375 -16.910156 5.546875 -15.234375 C 3.742188 -13.566406 2.84375 -11.578125 2.84375 -9.265625 C 2.84375 -6.222656 4.195312 -4.0625 6.90625 -2.78125 C 9.320312 -1.625 12.210938 -1.046875 15.578125 -1.046875 C 21.359375 -1.046875 26.035156 -2.691406 29.609375 -5.984375 C 32.128906 -8.296875 33.390625 -11.207031 33.390625 -14.71875 C 33.390625 -16.820312 32.640625 -18.863281 31.140625 -20.84375 C 30.492188 -21.71875 29.769531 -22.585938 28.96875 -23.453125 C 28.164062 -24.316406 27.363281 -25.175781 26.5625 -26.03125 C 25.769531 -26.894531 25.050781 -27.757812 24.40625 -28.625 C 22.90625 -30.519531 22.15625 -32.285156 22.15625 -33.921875 C 22.15625 -35.554688 22.421875 -36.96875 22.953125 -38.15625 C 23.492188 -39.34375 24.210938 -40.375 25.109375 -41.25 C 26.003906 -42.125 27.03125 -42.875 28.1875 -43.5 C 30.519531 -44.800781 32.988281 -45.453125 35.59375 -45.453125 C 37.863281 -45.453125 39.972656 -44.90625 41.921875 -43.8125 C 44.066406 -42.632812 45.140625 -40.835938 45.140625 -38.421875 C 45.140625 -37.484375 44.800781 -36.65625 44.125 -35.9375 C 43.457031 -35.21875 42.703125 -34.859375 41.859375 -34.859375 C 41.023438 -34.859375 40.335938 -35.097656 39.796875 -35.578125 C 39.265625 -36.066406 39 -36.609375 39 -37.203125 C 39 -37.804688 39.253906 -38.445312 39.765625 -39.125 C 40.285156 -39.8125 40.546875 -40.378906 40.546875 -40.828125 C 40.546875 -41.285156 40.351562 -41.703125 39.96875 -42.078125 C 39.59375 -42.460938 39.109375 -42.75 38.515625 -42.9375 C 37.335938 -43.289062 36.269531 -43.46875 35.3125 -43.46875 C 33.082031 -43.46875 31.164062 -42.804688 29.5625 -41.484375 C 27.96875 -40.160156 27.171875 -38.320312 27.171875 -35.96875 C 27.171875 -34.6875 27.96875 -33.1875 29.5625 -31.46875 C 30.28125 -30.707031 31.066406 -29.898438 31.921875 -29.046875 C 32.773438 -28.191406 33.628906 -27.28125 34.484375 -26.3125 C 35.347656 -25.351562 36.140625 -24.359375 36.859375 -23.328125 C 38.453125 -21.054688 39.25 -18.703125 39.25 -16.265625 C 39.25 -13.828125 38.765625 -11.617188 37.796875 -9.640625 C 36.828125 -7.671875 35.5625 -6.039062 34 -4.75 C 32.4375 -3.457031 30.628906 -2.363281 28.578125 -1.46875 Z M 28.578125 -1.46875 "/></g></g></g><g fill="#000000" fill-opacity="1"><g transform="translate(48.551508, 57.749994)"><g><path d="M 19.765625 -13.75 L 19.578125 -7.9375 C 19.578125 -4.113281 20.023438 -2.203125 20.921875 -2.203125 C 21.828125 -2.203125 22.84375 -2.847656 23.96875 -4.140625 C 25.09375 -5.429688 26.050781 -7 26.84375 -8.84375 C 27.632812 -10.695312 28.03125 -12.375 28.03125 -13.875 C 27.8125 -13.707031 27.316406 -13.625 26.546875 -13.625 C 25.785156 -13.625 25.148438 -13.863281 24.640625 -14.34375 C 24.140625 -14.820312 23.890625 -15.429688 23.890625 -16.171875 C 23.890625 -16.910156 24.164062 -17.570312 24.71875 -18.15625 C 25.28125 -18.75 26.117188 -19.046875 27.234375 -19.046875 C 28.347656 -19.046875 29.25 -18.6875 29.9375 -17.96875 C 30.632812 -17.25 30.984375 -16.265625 30.984375 -15.015625 C 30.984375 -13.765625 30.710938 -12.265625 30.171875 -10.515625 C 29.640625 -8.773438 28.910156 -7.078125 27.984375 -5.421875 C 27.066406 -3.765625 25.863281 -2.363281 24.375 -1.21875 C 22.894531 -0.0703125 21.316406 0.5 19.640625 0.5 C 18.148438 0.5 17.085938 -0.359375 16.453125 -2.078125 C 15.929688 -3.503906 15.640625 -4.757812 15.578125 -5.84375 C 15.515625 -6.925781 15.460938 -7.773438 15.421875 -8.390625 C 12.535156 -3.972656 10.070312 -1.238281 8.03125 -0.1875 C 7.132812 0.269531 6.222656 0.5 5.296875 0.5 C 3.234375 0.5 2.203125 -0.707031 2.203125 -3.125 C 2.203125 -4.488281 2.597656 -6.34375 3.390625 -8.6875 C 4.179688 -11.03125 4.578125 -12.523438 4.578125 -13.171875 C 4.578125 -13.828125 4.382812 -14.15625 4 -14.15625 C 3.4375 -14.15625 2.3125 -12.789062 0.625 -10.0625 L -1.421875 -11.21875 C 1.671875 -16.4375 4.507812 -19.046875 7.09375 -19.046875 C 7.789062 -19.046875 8.394531 -18.785156 8.90625 -18.265625 C 9.414062 -17.753906 9.671875 -16.914062 9.671875 -15.75 C 9.671875 -14.582031 9.25 -12.429688 8.40625 -9.296875 C 7.570312 -6.171875 7.15625 -4.507812 7.15625 -4.3125 C 7.15625 -3.457031 7.425781 -3.03125 7.96875 -3.03125 C 8.519531 -3.03125 9.335938 -3.722656 10.421875 -5.109375 C 11.503906 -6.492188 12.550781 -8.023438 13.5625 -9.703125 C 16.1875 -14.160156 17.953125 -16.390625 18.859375 -16.390625 C 19.460938 -16.390625 19.765625 -15.507812 19.765625 -13.75 Z M 19.765625 -13.75 "/></g></g></g><g fill="#000000" fill-opacity="1"><g transform="translate(80.579793, 57.749994)"><g><path d="M 5.625 0.5 C 4.726562 0.5 4.03125 0.226562 3.53125 -0.3125 C 3.03125 -0.863281 2.78125 -1.613281 2.78125 -2.5625 C 2.78125 -3.519531 3.023438 -4.820312 3.515625 -6.46875 C 4.003906 -8.125 4.492188 -9.625 4.984375 -10.96875 C 5.484375 -12.3125 5.734375 -13.207031 5.734375 -13.65625 C 5.734375 -14.113281 5.585938 -14.34375 5.296875 -14.34375 C 4.554688 -14.34375 3.367188 -12.894531 1.734375 -10 L -0.375 -11.21875 C 2.707031 -16.4375 5.546875 -19.046875 8.140625 -19.046875 C 9.898438 -19.046875 10.78125 -17.929688 10.78125 -15.703125 C 10.78125 -15.046875 10.570312 -14.003906 10.15625 -12.578125 L 7.875 -6.078125 C 7.644531 -5.472656 7.53125 -4.921875 7.53125 -4.421875 C 7.53125 -3.929688 7.722656 -3.6875 8.109375 -3.6875 C 8.816406 -3.6875 10.128906 -5.007812 12.046875 -7.65625 L 13.359375 -6.4375 C 12.234375 -4.332031 10.882812 -2.648438 9.3125 -1.390625 C 7.75 -0.128906 6.519531 0.5 5.625 0.5 Z M 14.59375 -28.359375 C 14.59375 -27.503906 14.304688 -26.726562 13.734375 -26.03125 C 13.171875 -25.34375 12.40625 -25 11.4375 -25 C 10.476562 -25 9.753906 -25.285156 9.265625 -25.859375 C 8.785156 -26.441406 8.546875 -27.171875 8.546875 -28.046875 C 8.546875 -28.929688 8.84375 -29.71875 9.4375 -30.40625 C 10.039062 -31.09375 10.8125 -31.4375 11.75 -31.4375 C 12.695312 -31.4375 13.40625 -31.132812 13.875 -30.53125 C 14.351562 -29.9375 14.59375 -29.210938 14.59375 -28.359375 Z M 14.59375 -28.359375 "/></g></g></g><g fill="#000000" fill-opacity="1"><g transform="translate(94.545538, 57.749994)"><g><path d="M 17.3125 -14.90625 C 16.507812 -14.90625 15.5625 -14.394531 14.46875 -13.375 C 13.375 -12.363281 12.3125 -11.117188 11.28125 -9.640625 C 9.644531 -7.285156 7.972656 -4.578125 6.265625 -1.515625 L 5.421875 0 L 0.984375 0 C 0.984375 0 1.304688 -0.988281 1.953125 -2.96875 C 3.785156 -8.425781 4.703125 -11.664062 4.703125 -12.6875 C 4.703125 -13.707031 4.53125 -14.21875 4.1875 -14.21875 C 3.582031 -14.21875 2.859375 -13.492188 2.015625 -12.046875 C 1.828125 -11.703125 1.671875 -11.429688 1.546875 -11.234375 C 1.421875 -11.035156 1.273438 -10.796875 1.109375 -10.515625 C 0.953125 -10.234375 0.851562 -10.0625 0.8125 -10 L -1.296875 -11.21875 C 0.347656 -13.882812 1.851562 -15.851562 3.21875 -17.125 C 4.582031 -18.40625 5.976562 -19.046875 7.40625 -19.046875 C 8.0625 -19.046875 8.625 -18.769531 9.09375 -18.21875 C 9.5625 -17.675781 9.796875 -17.03125 9.796875 -16.28125 C 9.796875 -15.53125 9.753906 -14.863281 9.671875 -14.28125 C 9.585938 -13.707031 9.492188 -13.179688 9.390625 -12.703125 C 9.285156 -12.222656 9.140625 -11.644531 8.953125 -10.96875 C 8.765625 -10.300781 8.613281 -9.785156 8.5 -9.421875 C 8.382812 -9.066406 8.226562 -8.582031 8.03125 -7.96875 C 7.84375 -7.363281 7.726562 -7.007812 7.6875 -6.90625 C 8.070312 -7.65625 8.710938 -8.765625 9.609375 -10.234375 C 10.515625 -11.710938 11.101562 -12.640625 11.375 -13.015625 C 11.65625 -13.398438 12.035156 -13.90625 12.515625 -14.53125 C 12.992188 -15.164062 13.414062 -15.65625 13.78125 -16 C 14.15625 -16.34375 14.597656 -16.738281 15.109375 -17.1875 C 15.628906 -17.644531 16.117188 -17.988281 16.578125 -18.21875 C 17.753906 -18.769531 18.890625 -19.046875 19.984375 -19.046875 C 21.078125 -19.046875 21.953125 -18.722656 22.609375 -18.078125 C 23.273438 -17.441406 23.609375 -16.695312 23.609375 -15.84375 C 23.609375 -14.988281 23.335938 -14.238281 22.796875 -13.59375 C 22.265625 -12.957031 21.644531 -12.640625 20.9375 -12.640625 C 20.238281 -12.640625 19.6875 -12.757812 19.28125 -13 C 18.882812 -13.238281 18.613281 -13.5 18.46875 -13.78125 C 18.03125 -14.53125 17.644531 -14.90625 17.3125 -14.90625 Z M 17.3125 -14.90625 "/></g></g></g><g fill="#000000" fill-opacity="1"><g transform="translate(117.337653, 57.749994)"><g><path d="M 11.734375 -41.921875 L 16.828125 -41.921875 C 15.929688 -40.367188 14.546875 -36.914062 12.671875 -31.5625 C 10.804688 -26.21875 9.097656 -20.835938 7.546875 -15.421875 C 6.003906 -10.015625 5.234375 -6.707031 5.234375 -5.5 C 5.234375 -4.289062 5.378906 -3.6875 5.671875 -3.6875 C 6.554688 -3.6875 7.929688 -5.019531 9.796875 -7.6875 L 11.125 -6.4375 C 10.195312 -4.832031 9.203125 -3.484375 8.140625 -2.390625 C 6.242188 -0.460938 4.707031 0.5 3.53125 0.5 C 1.382812 0.5 0.3125 -0.789062 0.3125 -3.375 C 0.3125 -7.21875 1.585938 -13.28125 4.140625 -21.5625 C 6.691406 -29.84375 9.222656 -36.628906 11.734375 -41.921875 Z M 11.734375 -41.921875 "/></g></g></g><g fill="#000000" fill-opacity="1"><g transform="translate(128.844629, 57.749994)"><g><path d="M 2.9375 -0.21875 C 1.5625 -0.707031 0.582031 -1.28125 0 -1.9375 C -0.582031 -2.601562 -0.875 -3.332031 -0.875 -4.125 C -0.875 -4.925781 -0.65625 -5.585938 -0.21875 -6.109375 C 0.21875 -6.640625 0.796875 -6.90625 1.515625 -6.90625 C 2.242188 -6.90625 2.882812 -6.6875 3.4375 -6.25 C 4 -5.820312 4.28125 -5.210938 4.28125 -4.421875 C 4.28125 -3.640625 3.800781 -2.984375 2.84375 -2.453125 C 3.632812 -1.765625 4.851562 -1.421875 6.5 -1.421875 C 10.050781 -1.421875 11.828125 -2.425781 11.828125 -4.4375 C 11.828125 -5.707031 10.703125 -6.71875 8.453125 -7.46875 C 7.523438 -7.78125 6.59375 -8.113281 5.65625 -8.46875 C 4.71875 -8.832031 3.898438 -9.359375 3.203125 -10.046875 C 2.515625 -10.742188 2.140625 -11.585938 2.078125 -12.578125 C 2.078125 -14.003906 2.550781 -15.210938 3.5 -16.203125 C 5.28125 -18.097656 7.945312 -19.046875 11.5 -19.046875 C 13.25 -19.046875 14.796875 -18.710938 16.140625 -18.046875 C 17.484375 -17.390625 18.15625 -16.535156 18.15625 -15.484375 C 18.15625 -14.429688 17.882812 -13.671875 17.34375 -13.203125 C 16.8125 -12.742188 16.1875 -12.515625 15.46875 -12.515625 C 14.757812 -12.515625 14.15625 -12.707031 13.65625 -13.09375 C 13.164062 -13.488281 12.921875 -14.03125 12.921875 -14.71875 C 12.921875 -15.414062 13.332031 -16.015625 14.15625 -16.515625 C 13.644531 -16.878906 12.769531 -17.0625 11.53125 -17.0625 C 10.289062 -17.0625 9.175781 -16.875 8.1875 -16.5 C 7.207031 -16.132812 6.71875 -15.632812 6.71875 -15 C 6.71875 -14.375 7.078125 -13.847656 7.796875 -13.421875 C 8.523438 -13.003906 9.40625 -12.617188 10.4375 -12.265625 C 11.46875 -11.910156 12.492188 -11.5 13.515625 -11.03125 C 14.546875 -10.570312 15.425781 -9.910156 16.15625 -9.046875 C 16.882812 -8.179688 17.25 -7.117188 17.25 -5.859375 C 17.25 -4.597656 16.734375 -3.453125 15.703125 -2.421875 C 13.742188 -0.472656 11.070312 0.5 7.6875 0.5 C 5.90625 0.5 4.320312 0.257812 2.9375 -0.21875 Z M 2.9375 -0.21875 "/></g></g></g></svg>