<svg xmlns="http://www.w3.org/2000/svg" xmlns:xlink="http://www.w3.org/1999/xlink" width="400" zoomAndPan="magnify" viewBox="0 0 300 74.999997" height="100" preserveAspectRatio="xMidYMid meet" version="1.0"><defs><g/></defs><g fill="#000000" fill-opacity="1"><g transform="translate(9.468349, 57.749994)"><g><path d="M 53.4375 -44.859375 L 54.859375 -43.5625 C 53.148438 -40.394531 50.226562 -38.8125 46.09375 -38.8125 C 45.582031 -38.8125 44.84375 -38.851562 43.875 -38.9375 C 41.414062 -36.09375 39.882812 -31.816406 39.28125 -26.109375 C 39.15625 -24.910156 39.082031 -23.765625 39.0625 -22.671875 L 47.25 -22.984375 L 45.046875 -20.265625 L 38.9375 -20.265625 C 38.320312 -11.796875 34.316406 -5.671875 26.921875 -1.890625 C 22.671875 0.273438 17.828125 1.359375 12.390625 1.359375 C 9.046875 1.359375 6.050781 0.707031 3.40625 -0.59375 C 2.0625 -1.25 0.984375 -2.144531 0.171875 -3.28125 C -0.640625 -4.414062 -1.046875 -5.769531 -1.046875 -7.34375 C -1.046875 -8.914062 -0.71875 -10.320312 -0.0625 -11.5625 C 0.59375 -12.800781 1.410156 -13.765625 2.390625 -14.453125 C 3.378906 -15.140625 4.617188 -15.679688 6.109375 -16.078125 C 8.460938 -16.734375 11.457031 -17.0625 15.09375 -17.0625 C 12.71875 -20.164062 11.53125 -23.390625 11.53125 -26.734375 C 11.53125 -29.171875 12.128906 -31.546875 13.328125 -33.859375 C 14.523438 -36.171875 16.109375 -38.171875 18.078125 -39.859375 C 20.046875 -41.554688 22.359375 -42.910156 25.015625 -43.921875 C 27.671875 -44.941406 30.148438 -45.453125 32.453125 -45.453125 C 34.753906 -45.453125 37.65625 -45 41.15625 -44.09375 C 44.65625 -43.195312 47.222656 -42.75 48.859375 -42.75 C 50.503906 -42.75 52.03125 -43.453125 53.4375 -44.859375 Z M 3.40625 -10.625 C 2.945312 -9.632812 2.71875 -8.53125 2.71875 -7.3125 C 2.71875 -6.09375 3.050781 -5.046875 3.71875 -4.171875 C 4.394531 -3.304688 5.257812 -2.628906 6.3125 -2.140625 C 8.382812 -1.191406 10.671875 -0.71875 13.171875 -0.71875 C 15.671875 -0.71875 18.046875 -1.070312 20.296875 -1.78125 C 22.546875 -2.488281 24.566406 -3.597656 26.359375 -5.109375 C 30.054688 -8.210938 32.367188 -13.285156 33.296875 -20.328125 L 26.515625 -20.328125 L 27.765625 -22.34375 L 33.515625 -22.671875 C 33.804688 -25.335938 34.328125 -27.550781 35.078125 -29.3125 C 35.835938 -31.082031 36.472656 -32.445312 36.984375 -33.40625 C 37.503906 -34.375 38.015625 -35.21875 38.515625 -35.9375 C 39.359375 -37.15625 40.242188 -38.300781 41.171875 -39.375 C 37.953125 -40.71875 34.882812 -41.390625 31.96875 -41.390625 C 29.0625 -41.390625 26.597656 -41.082031 24.578125 -40.46875 C 22.566406 -39.863281 20.75 -38.976562 19.125 -37.8125 C 17.507812 -36.644531 16.226562 -35.101562 15.28125 -33.1875 C 14.34375 -31.28125 13.875 -29.109375 13.875 -26.671875 C 13.875 -24.273438 14.238281 -22.40625 14.96875 -21.0625 C 15.269531 -20.53125 15.523438 -20.078125 15.734375 -19.703125 C 15.941406 -19.328125 16.289062 -18.898438 16.78125 -18.421875 C 17.28125 -17.953125 17.671875 -17.578125 17.953125 -17.296875 C 18.234375 -17.023438 18.703125 -16.648438 19.359375 -16.171875 C 20.222656 -15.566406 21 -15.03125 21.6875 -14.5625 C 22.382812 -14.101562 22.753906 -13.859375 22.796875 -13.828125 C 22.835938 -13.796875 22.878906 -13.769531 22.921875 -13.75 L 22 -12.578125 C 18.570312 -14.253906 15.617188 -15.09375 13.140625 -15.09375 C 8.078125 -15.09375 4.832031 -13.601562 3.40625 -10.625 Z M 3.40625 -10.625 "/></g></g></g><g fill="#000000" fill-opacity="1"><g transform="translate(52.939386, 57.749994)"><g><path d="M 11.734375 -41.921875 L 16.828125 -41.921875 C 15.929688 -40.367188 14.546875 -36.914062 12.671875 -31.5625 C 10.804688 -26.21875 9.097656 -20.835938 7.546875 -15.421875 C 6.003906 -10.015625 5.234375 -6.707031 5.234375 -5.5 C 5.234375 -4.289062 5.378906 -3.6875 5.671875 -3.6875 C 6.554688 -3.6875 7.929688 -5.019531 9.796875 -7.6875 L 11.125 -6.4375 C 10.195312 -4.832031 9.203125 -3.484375 8.140625 -2.390625 C 6.242188 -0.460938 4.707031 0.5 3.53125 0.5 C 1.382812 0.5 0.3125 -0.789062 0.3125 -3.375 C 0.3125 -7.21875 1.585938 -13.28125 4.140625 -21.5625 C 6.691406 -29.84375 9.222656 -36.628906 11.734375 -41.921875 Z M 11.734375 -41.921875 "/></g></g></g><g fill="#000000" fill-opacity="1"><g transform="translate(64.446357, 57.749994)"><g><path d="M -0.03125 -7.5 C -0.03125 -9.082031 0.347656 -10.601562 1.109375 -12.0625 C 1.878906 -13.519531 2.875 -14.753906 4.09375 -15.765625 C 6.789062 -17.953125 9.535156 -19.046875 12.328125 -19.046875 C 15.117188 -19.046875 17.40625 -18.296875 19.1875 -16.796875 C 20.976562 -15.304688 21.875 -13.441406 21.875 -11.203125 C 21.875 -8.960938 21.257812 -6.945312 20.03125 -5.15625 C 18.800781 -3.375 17.175781 -1.984375 15.15625 -0.984375 C 13.144531 0.00390625 10.945312 0.5 8.5625 0.5 C 6.175781 0.5 4.144531 -0.25 2.46875 -1.75 C 0.800781 -3.25 -0.03125 -5.164062 -0.03125 -7.5 Z M 10.28125 -1.453125 C 11.25 -1.453125 12.15625 -1.765625 13 -2.390625 C 13.851562 -3.023438 14.5 -3.847656 14.9375 -4.859375 C 15.800781 -6.785156 16.234375 -8.78125 16.234375 -10.84375 C 16.234375 -12.90625 15.851562 -14.46875 15.09375 -15.53125 C 14.34375 -16.59375 13.269531 -17.125 11.875 -17.125 C 10.488281 -17.125 9.117188 -16.21875 7.765625 -14.40625 C 6.410156 -12.601562 5.734375 -10.300781 5.734375 -7.5 C 5.734375 -3.46875 7.25 -1.453125 10.28125 -1.453125 Z M 10.28125 -1.453125 "/></g></g></g><g fill="#000000" fill-opacity="1"><g transform="translate(87.585228, 57.749994)"><g><path d="M 17.3125 -14.90625 C 16.507812 -14.90625 15.5625 -14.394531 14.46875 -13.375 C 13.375 -12.363281 12.3125 -11.117188 11.28125 -9.640625 C 9.644531 -7.285156 7.972656 -4.578125 6.265625 -1.515625 L 5.421875 0 L 0.984375 0 C 0.984375 0 1.304688 -0.988281 1.953125 -2.96875 C 3.785156 -8.425781 4.703125 -11.664062 4.703125 -12.6875 C 4.703125 -13.707031 4.53125 -14.21875 4.1875 -14.21875 C 3.582031 -14.21875 2.859375 -13.492188 2.015625 -12.046875 C 1.828125 -11.703125 1.671875 -11.429688 1.546875 -11.234375 C 1.421875 -11.035156 1.273438 -10.796875 1.109375 -10.515625 C 0.953125 -10.234375 0.851562 -10.0625 0.8125 -10 L -1.296875 -11.21875 C 0.347656 -13.882812 1.851562 -15.851562 3.21875 -17.125 C 4.582031 -18.40625 5.976562 -19.046875 7.40625 -19.046875 C 8.0625 -19.046875 8.625 -18.769531 9.09375 -18.21875 C 9.5625 -17.675781 9.796875 -17.03125 9.796875 -16.28125 C 9.796875 -15.53125 9.753906 -14.863281 9.671875 -14.28125 C 9.585938 -13.707031 9.492188 -13.179688 9.390625 -12.703125 C 9.285156 -12.222656 9.140625 -11.644531 8.953125 -10.96875 C 8.765625 -10.300781 8.613281 -9.785156 8.5 -9.421875 C 8.382812 -9.066406 8.226562 -8.582031 8.03125 -7.96875 C 7.84375 -7.363281 7.726562 -7.007812 7.6875 -6.90625 C 8.070312 -7.65625 8.710938 -8.765625 9.609375 -10.234375 C 10.515625 -11.710938 11.101562 -12.640625 11.375 -13.015625 C 11.65625 -13.398438 12.035156 -13.90625 12.515625 -14.53125 C 12.992188 -15.164062 13.414062 -15.65625 13.78125 -16 C 14.15625 -16.34375 14.597656 -16.738281 15.109375 -17.1875 C 15.628906 -17.644531 16.117188 -17.988281 16.578125 -18.21875 C 17.753906 -18.769531 18.890625 -19.046875 19.984375 -19.046875 C 21.078125 -19.046875 21.953125 -18.722656 22.609375 -18.078125 C 23.273438 -17.441406 23.609375 -16.695312 23.609375 -15.84375 C 23.609375 -14.988281 23.335938 -14.238281 22.796875 -13.59375 C 22.265625 -12.957031 21.644531 -12.640625 20.9375 -12.640625 C 20.238281 -12.640625 19.6875 -12.757812 19.28125 -13 C 18.882812 -13.238281 18.613281 -13.5 18.46875 -13.78125 C 18.03125 -14.53125 17.644531 -14.90625 17.3125 -14.90625 Z M 17.3125 -14.90625 "/></g></g></g><g fill="#000000" fill-opacity="1"><g transform="translate(110.377342, 57.749994)"><g><path d="M 17.4375 -18.34375 L 22.34375 -18.34375 L 19.859375 -8.921875 C 19.460938 -7.597656 19.265625 -6.394531 19.265625 -5.3125 C 19.265625 -4.226562 19.453125 -3.6875 19.828125 -3.6875 C 20.203125 -3.6875 20.71875 -4.015625 21.375 -4.671875 C 22.039062 -5.335938 22.609375 -6.007812 23.078125 -6.6875 L 23.796875 -7.6875 L 25.15625 -6.4375 C 24.457031 -5.082031 23.578125 -3.851562 22.515625 -2.75 C 20.429688 -0.582031 18.625 0.5 17.09375 0.5 C 15.28125 0.5 14.375 -0.894531 14.375 -3.6875 C 14.375 -4.144531 14.394531 -4.492188 14.4375 -4.734375 C 14.125 -3.660156 13.523438 -2.710938 12.640625 -1.890625 C 10.960938 -0.296875 9.066406 0.5 6.953125 0.5 C 4.835938 0.5 3.144531 -0.21875 1.875 -1.65625 C 0.601562 -3.09375 -0.03125 -4.894531 -0.03125 -7.0625 C -0.03125 -10.425781 1.0625 -13.265625 3.25 -15.578125 C 5.4375 -17.890625 8 -19.046875 10.9375 -19.046875 C 12.40625 -19.046875 13.625 -18.640625 14.59375 -17.828125 C 15.5625 -17.015625 16.191406 -15.957031 16.484375 -14.65625 Z M 12.171875 -16.328125 C 10.953125 -16.328125 9.8125 -15.816406 8.75 -14.796875 C 7.6875 -13.773438 6.867188 -12.546875 6.296875 -11.109375 C 5.734375 -9.671875 5.453125 -8.269531 5.453125 -6.90625 C 5.453125 -5.539062 5.75 -4.4375 6.34375 -3.59375 C 6.945312 -2.75 7.875 -2.328125 9.125 -2.328125 C 10.375 -2.328125 11.503906 -2.894531 12.515625 -4.03125 C 14.429688 -6.21875 15.390625 -8.8125 15.390625 -11.8125 C 15.390625 -14.820312 14.316406 -16.328125 12.171875 -16.328125 Z M 12.171875 -16.328125 "/></g></g></g><g fill="#000000" fill-opacity="1"><g transform="translate(135.911935, 57.749994)"><g><path d="M 11.734375 -41.921875 L 16.828125 -41.921875 C 15.929688 -40.367188 14.546875 -36.914062 12.671875 -31.5625 C 10.804688 -26.21875 9.097656 -20.835938 7.546875 -15.421875 C 6.003906 -10.015625 5.234375 -6.707031 5.234375 -5.5 C 5.234375 -4.289062 5.378906 -3.6875 5.671875 -3.6875 C 6.554688 -3.6875 7.929688 -5.019531 9.796875 -7.6875 L 11.125 -6.4375 C 10.195312 -4.832031 9.203125 -3.484375 8.140625 -2.390625 C 6.242188 -0.460938 4.707031 0.5 3.53125 0.5 C 1.382812 0.5 0.3125 -0.789062 0.3125 -3.375 C 0.3125 -7.21875 1.585938 -13.28125 4.140625 -21.5625 C 6.691406 -29.84375 9.222656 -36.628906 11.734375 -41.921875 Z M 11.734375 -41.921875 "/></g></g></g><g fill="#000000" fill-opacity="1"><g transform="translate(147.418911, 57.749994)"><g><path d="M 2.9375 -0.21875 C 1.5625 -0.707031 0.582031 -1.28125 0 -1.9375 C -0.582031 -2.601562 -0.875 -3.332031 -0.875 -4.125 C -0.875 -4.925781 -0.65625 -5.585938 -0.21875 -6.109375 C 0.21875 -6.640625 0.796875 -6.90625 1.515625 -6.90625 C 2.242188 -6.90625 2.882812 -6.6875 3.4375 -6.25 C 4 -5.820312 4.28125 -5.210938 4.28125 -4.421875 C 4.28125 -3.640625 3.800781 -2.984375 2.84375 -2.453125 C 3.632812 -1.765625 4.851562 -1.421875 6.5 -1.421875 C 10.050781 -1.421875 11.828125 -2.425781 11.828125 -4.4375 C 11.828125 -5.707031 10.703125 -6.71875 8.453125 -7.46875 C 7.523438 -7.78125 6.59375 -8.113281 5.65625 -8.46875 C 4.71875 -8.832031 3.898438 -9.359375 3.203125 -10.046875 C 2.515625 -10.742188 2.140625 -11.585938 2.078125 -12.578125 C 2.078125 -14.003906 2.550781 -15.210938 3.5 -16.203125 C 5.28125 -18.097656 7.945312 -19.046875 11.5 -19.046875 C 13.25 -19.046875 14.796875 -18.710938 16.140625 -18.046875 C 17.484375 -17.390625 18.15625 -16.535156 18.15625 -15.484375 C 18.15625 -14.429688 17.882812 -13.671875 17.34375 -13.203125 C 16.8125 -12.742188 16.1875 -12.515625 15.46875 -12.515625 C 14.757812 -12.515625 14.15625 -12.707031 13.65625 -13.09375 C 13.164062 -13.488281 12.921875 -14.03125 12.921875 -14.71875 C 12.921875 -15.414062 13.332031 -16.015625 14.15625 -16.515625 C 13.644531 -16.878906 12.769531 -17.0625 11.53125 -17.0625 C 10.289062 -17.0625 9.175781 -16.875 8.1875 -16.5 C 7.207031 -16.132812 6.71875 -15.632812 6.71875 -15 C 6.71875 -14.375 7.078125 -13.847656 7.796875 -13.421875 C 8.523438 -13.003906 9.40625 -12.617188 10.4375 -12.265625 C 11.46875 -11.910156 12.492188 -11.5 13.515625 -11.03125 C 14.546875 -10.570312 15.425781 -9.910156 16.15625 -9.046875 C 16.882812 -8.179688 17.25 -7.117188 17.25 -5.859375 C 17.25 -4.597656 16.734375 -3.453125 15.703125 -2.421875 C 13.742188 -0.472656 11.070312 0.5 7.6875 0.5 C 5.90625 0.5 4.320312 0.257812 2.9375 -0.21875 Z M 2.9375 -0.21875 "/></g></g></g></svg>