<svg xmlns="http://www.w3.org/2000/svg" xmlns:xlink="http://www.w3.org/1999/xlink" width="400" zoomAndPan="magnify" viewBox="0 0 300 74.999997" height="100" preserveAspectRatio="xMidYMid meet" version="1.0"><defs><g/></defs><g fill="#000000" fill-opacity="1"><g transform="translate(7.929614, 57.749994)"><g><path d="M 47.984375 -8.921875 L 49.59375 -7.5625 C 48.5625 -5 47.203125 -2.976562 45.515625 -1.5 C 43.835938 -0.0195312 42.171875 0.71875 40.515625 0.71875 C 39.523438 0.71875 38.671875 0.269531 37.953125 -0.625 C 37.242188 -1.53125 36.890625 -2.789062 36.890625 -4.40625 C 36.890625 -6.03125 37.328125 -8.441406 38.203125 -11.640625 C 39.085938 -14.847656 40.054688 -17.988281 41.109375 -21.0625 C 43.921875 -29.28125 45.328125 -35.085938 45.328125 -38.484375 C 45.328125 -40.972656 44.691406 -42.21875 43.421875 -42.21875 C 42.148438 -42.21875 40.726562 -41.4375 39.15625 -39.875 C 37.582031 -38.320312 36.039062 -36.304688 34.53125 -33.828125 C 33.03125 -31.347656 31.507812 -28.601562 29.96875 -25.59375 C 28.4375 -22.59375 27.023438 -19.59375 25.734375 -16.59375 C 24.441406 -13.601562 23.285156 -10.867188 22.265625 -8.390625 C 21.253906 -5.910156 20.4375 -3.890625 19.8125 -2.328125 C 19.195312 -0.773438 18.851562 0 18.78125 0 L 12.921875 0 L 16.203125 -9.234375 C 20.148438 -20.421875 22.128906 -28.875 22.140625 -34.59375 C 22.148438 -40.320312 19.984375 -43.1875 15.640625 -43.1875 C 14.015625 -43.1875 12.515625 -42.726562 11.140625 -41.8125 C 9.765625 -40.90625 8.632812 -39.75 7.75 -38.34375 C 6.875 -36.945312 6.117188 -35.390625 5.484375 -33.671875 C 4.328125 -30.429688 3.75 -27.300781 3.75 -24.28125 C 3.75 -18.539062 5.0625 -13.503906 7.6875 -9.171875 L 6.46875 -8.140625 C 5.03125 -10.421875 3.9375 -12.972656 3.1875 -15.796875 C 2.445312 -18.628906 2.078125 -21.164062 2.078125 -23.40625 C 2.078125 -25.644531 2.234375 -27.703125 2.546875 -29.578125 C 2.867188 -31.460938 3.394531 -33.363281 4.125 -35.28125 C 4.863281 -37.207031 5.769531 -38.910156 6.84375 -40.390625 C 7.914062 -41.878906 9.289062 -43.09375 10.96875 -44.03125 C 12.65625 -44.976562 14.34375 -45.453125 16.03125 -45.453125 C 17.71875 -45.453125 19.109375 -45.222656 20.203125 -44.765625 C 21.296875 -44.304688 22.195312 -43.679688 22.90625 -42.890625 C 23.625 -42.097656 24.226562 -41.164062 24.71875 -40.09375 C 25.601562 -38.082031 26.046875 -35.878906 26.046875 -33.484375 C 26.046875 -31.085938 25.789062 -28.320312 25.28125 -25.1875 C 24.65625 -21.382812 23.921875 -17.894531 23.078125 -14.71875 C 23.742188 -16.59375 24.320312 -18.035156 24.8125 -19.046875 C 25.3125 -20.066406 25.890625 -21.289062 26.546875 -22.71875 C 27.210938 -24.15625 27.804688 -25.445312 28.328125 -26.59375 C 28.859375 -27.738281 29.554688 -29.128906 30.421875 -30.765625 C 31.285156 -32.410156 32.09375 -33.863281 32.84375 -35.125 C 33.601562 -36.382812 34.484375 -37.691406 35.484375 -39.046875 C 36.484375 -40.398438 37.453125 -41.519531 38.390625 -42.40625 C 40.578125 -44.4375 42.632812 -45.453125 44.5625 -45.453125 C 46.5 -45.453125 47.953125 -44.816406 48.921875 -43.546875 C 49.890625 -42.273438 50.375 -40.648438 50.375 -38.671875 C 50.375 -36.703125 50.085938 -34.410156 49.515625 -31.796875 C 48.953125 -29.179688 48.257812 -26.617188 47.4375 -24.109375 C 46.625 -21.609375 45.804688 -19.171875 44.984375 -16.796875 C 43.023438 -11.148438 42.046875 -7.429688 42.046875 -5.640625 C 42.046875 -3.859375 42.347656 -2.96875 42.953125 -2.96875 C 43.566406 -2.96875 44.46875 -3.75 45.65625 -5.3125 C 46.84375 -6.875 47.617188 -8.078125 47.984375 -8.921875 Z M 47.984375 -8.921875 "/></g></g></g><g fill="#000000" fill-opacity="1"><g transform="translate(57.516065, 57.749994)"><g><path d="M 5.796875 -6.203125 C 5.921875 -3.785156 7.550781 -2.578125 10.6875 -2.578125 C 11.84375 -2.578125 13.046875 -2.910156 14.296875 -3.578125 C 15.546875 -4.242188 16.5625 -5.023438 17.34375 -5.921875 L 18.6875 -5.046875 C 16.945312 -2.117188 14.164062 -0.332031 10.34375 0.3125 C 9.5 0.4375 8.6875 0.5 7.90625 0.5 C 5.644531 0.5 3.753906 -0.25 2.234375 -1.75 C 0.722656 -3.25 -0.03125 -5.082031 -0.03125 -7.25 C -0.03125 -9.414062 0.628906 -11.414062 1.953125 -13.25 C 3.273438 -15.09375 4.929688 -16.519531 6.921875 -17.53125 C 8.910156 -18.539062 10.867188 -19.046875 12.796875 -19.046875 C 14.734375 -19.046875 16.410156 -18.601562 17.828125 -17.71875 C 19.242188 -16.832031 19.96875 -15.644531 20 -14.15625 C 20.03125 -12.664062 19.59375 -11.378906 18.6875 -10.296875 C 17.789062 -9.210938 16.648438 -8.382812 15.265625 -7.8125 C 12.503906 -6.695312 9.800781 -6.140625 7.15625 -6.140625 Z M 5.609375 -7.9375 C 7.941406 -8.03125 9.816406 -8.40625 11.234375 -9.0625 C 12.648438 -9.726562 13.632812 -10.484375 14.1875 -11.328125 C 14.75 -12.179688 15.03125 -13.078125 15.03125 -14.015625 C 15.03125 -14.953125 14.789062 -15.644531 14.3125 -16.09375 C 13.832031 -16.539062 13.316406 -16.765625 12.765625 -16.765625 C 11.421875 -16.765625 10.1875 -16.296875 9.0625 -15.359375 C 7.9375 -14.429688 7.078125 -13.300781 6.484375 -11.96875 C 5.898438 -10.632812 5.609375 -9.289062 5.609375 -7.9375 Z M 5.609375 -7.9375 "/></g></g></g><g fill="#000000" fill-opacity="1"><g transform="translate(78.47986, 57.749994)"><g><path d="M 16.390625 -6.53125 L 17.6875 -5.609375 C 16.757812 -3.742188 15.332031 -2.257812 13.40625 -1.15625 C 11.488281 -0.0507812 9.476562 0.5 7.375 0.5 C 5.269531 0.5 3.5 -0.140625 2.0625 -1.421875 C 0.625 -2.703125 -0.09375 -4.515625 -0.09375 -6.859375 C -0.09375 -9.203125 0.625 -11.316406 2.0625 -13.203125 C 3.5 -15.097656 5.269531 -16.546875 7.375 -17.546875 C 9.476562 -18.546875 11.601562 -19.046875 13.75 -19.046875 C 16.375 -19.046875 18.140625 -18.414062 19.046875 -17.15625 C 19.421875 -16.644531 19.609375 -16.003906 19.609375 -15.234375 C 19.609375 -14.472656 19.34375 -13.828125 18.8125 -13.296875 C 18.289062 -12.773438 17.660156 -12.515625 16.921875 -12.515625 C 16.191406 -12.515625 15.570312 -12.75 15.0625 -13.21875 C 14.5625 -13.695312 14.3125 -14.300781 14.3125 -15.03125 C 14.3125 -15.769531 14.765625 -16.445312 15.671875 -17.0625 C 14.867188 -17.3125 14.132812 -17.4375 13.46875 -17.4375 C 12.007812 -17.4375 10.671875 -16.898438 9.453125 -15.828125 C 8.234375 -14.753906 7.304688 -13.453125 6.671875 -11.921875 C 6.046875 -10.398438 5.734375 -8.90625 5.734375 -7.4375 C 5.734375 -5.96875 6.082031 -4.785156 6.78125 -3.890625 C 7.488281 -2.992188 8.503906 -2.546875 9.828125 -2.546875 C 11.160156 -2.546875 12.4375 -2.921875 13.65625 -3.671875 C 14.875 -4.421875 15.785156 -5.375 16.390625 -6.53125 Z M 16.390625 -6.53125 "/></g></g></g><g fill="#000000" fill-opacity="1"><g transform="translate(98.340365, 57.749994)"><g><path d="M 8.734375 -34.078125 C 10.222656 -37.296875 12.21875 -39.882812 14.71875 -41.84375 C 17.21875 -43.8125 19.878906 -44.796875 22.703125 -44.796875 C 24.359375 -44.796875 25.789062 -44.375 27 -43.53125 C 28.207031 -42.695312 28.8125 -41.425781 28.8125 -39.71875 C 28.8125 -38.726562 28.476562 -37.957031 27.8125 -37.40625 C 27.15625 -36.863281 26.378906 -36.59375 25.484375 -36.59375 C 24.585938 -36.59375 23.828125 -36.847656 23.203125 -37.359375 C 22.585938 -37.878906 22.28125 -38.53125 22.28125 -39.3125 C 22.28125 -40.09375 22.566406 -40.910156 23.140625 -41.765625 C 22.421875 -42.109375 21.71875 -42.28125 21.03125 -42.28125 C 20.351562 -42.28125 19.585938 -42.003906 18.734375 -41.453125 C 17.890625 -40.910156 17.109375 -40.1875 16.390625 -39.28125 C 15.128906 -37.6875 13.96875 -35.734375 12.90625 -33.421875 C 11.84375 -31.109375 10.171875 -25.523438 7.890625 -16.671875 C 5.609375 -7.828125 4.46875 -2.269531 4.46875 0 L -0.5 0 C -0.5 -3.59375 0.507812 -9.023438 2.53125 -16.296875 C 4.5625 -23.566406 6.628906 -29.492188 8.734375 -34.078125 Z M 24.5625 -5.546875 C 23.632812 -3.953125 22.460938 -2.546875 21.046875 -1.328125 C 19.628906 -0.109375 18.21875 0.5 16.8125 0.5 C 15.414062 0.5 14.359375 -0.0976562 13.640625 -1.296875 C 12.929688 -2.492188 12.285156 -3.578125 11.703125 -4.546875 C 11.128906 -5.523438 10.664062 -6.300781 10.3125 -6.875 C 9.96875 -7.457031 9.648438 -7.988281 9.359375 -8.46875 C 9.066406 -8.957031 8.851562 -9.320312 8.71875 -9.5625 C 8.582031 -9.8125 8.453125 -10.03125 8.328125 -10.21875 C 8.203125 -10.445312 8.101562 -10.675781 8.03125 -10.90625 L 8.953125 -11.921875 C 14.921875 -18.265625 19.609375 -21.4375 23.015625 -21.4375 C 24.316406 -21.4375 25.316406 -21.117188 26.015625 -20.484375 C 26.722656 -19.859375 27.078125 -19.15625 27.078125 -18.375 C 27.078125 -17.601562 26.828125 -16.914062 26.328125 -16.3125 C 25.835938 -15.71875 25.148438 -15.421875 24.265625 -15.421875 C 23.390625 -15.421875 22.710938 -15.628906 22.234375 -16.046875 C 21.765625 -16.460938 21.488281 -16.882812 21.40625 -17.3125 L 21.28125 -17.9375 C 18.0625 -16.195312 15.210938 -14.265625 12.734375 -12.140625 C 12.210938 -11.671875 11.898438 -11.382812 11.796875 -11.28125 C 12.378906 -10.863281 14.476562 -8.375 18.09375 -3.8125 C 18.445312 -3.332031 18.828125 -3.09375 19.234375 -3.09375 C 19.648438 -3.09375 20.140625 -3.351562 20.703125 -3.875 C 21.273438 -4.40625 22.128906 -5.332031 23.265625 -6.65625 Z M 24.5625 -5.546875 "/></g></g></g><g fill="#000000" fill-opacity="1"><g transform="translate(124.127146, 57.749994)"><g><path d="M 11.734375 -41.921875 L 16.828125 -41.921875 C 15.929688 -40.367188 14.546875 -36.914062 12.671875 -31.5625 C 10.804688 -26.21875 9.097656 -20.835938 7.546875 -15.421875 C 6.003906 -10.015625 5.234375 -6.707031 5.234375 -5.5 C 5.234375 -4.289062 5.378906 -3.6875 5.671875 -3.6875 C 6.554688 -3.6875 7.929688 -5.019531 9.796875 -7.6875 L 11.125 -6.4375 C 10.195312 -4.832031 9.203125 -3.484375 8.140625 -2.390625 C 6.242188 -0.460938 4.707031 0.5 3.53125 0.5 C 1.382812 0.5 0.3125 -0.789062 0.3125 -3.375 C 0.3125 -7.21875 1.585938 -13.28125 4.140625 -21.5625 C 6.691406 -29.84375 9.222656 -36.628906 11.734375 -41.921875 Z M 11.734375 -41.921875 "/></g></g></g><g fill="#000000" fill-opacity="1"><g transform="translate(135.634122, 57.749994)"><g><path d="M 17.4375 -18.34375 L 22.34375 -18.34375 L 19.859375 -8.921875 C 19.460938 -7.597656 19.265625 -6.394531 19.265625 -5.3125 C 19.265625 -4.226562 19.453125 -3.6875 19.828125 -3.6875 C 20.203125 -3.6875 20.71875 -4.015625 21.375 -4.671875 C 22.039062 -5.335938 22.609375 -6.007812 23.078125 -6.6875 L 23.796875 -7.6875 L 25.15625 -6.4375 C 24.457031 -5.082031 23.578125 -3.851562 22.515625 -2.75 C 20.429688 -0.582031 18.625 0.5 17.09375 0.5 C 15.28125 0.5 14.375 -0.894531 14.375 -3.6875 C 14.375 -4.144531 14.394531 -4.492188 14.4375 -4.734375 C 14.125 -3.660156 13.523438 -2.710938 12.640625 -1.890625 C 10.960938 -0.296875 9.066406 0.5 6.953125 0.5 C 4.835938 0.5 3.144531 -0.21875 1.875 -1.65625 C 0.601562 -3.09375 -0.03125 -4.894531 -0.03125 -7.0625 C -0.03125 -10.425781 1.0625 -13.265625 3.25 -15.578125 C 5.4375 -17.890625 8 -19.046875 10.9375 -19.046875 C 12.40625 -19.046875 13.625 -18.640625 14.59375 -17.828125 C 15.5625 -17.015625 16.191406 -15.957031 16.484375 -14.65625 Z M 12.171875 -16.328125 C 10.953125 -16.328125 9.8125 -15.816406 8.75 -14.796875 C 7.6875 -13.773438 6.867188 -12.546875 6.296875 -11.109375 C 5.734375 -9.671875 5.453125 -8.269531 5.453125 -6.90625 C 5.453125 -5.539062 5.75 -4.4375 6.34375 -3.59375 C 6.945312 -2.75 7.875 -2.328125 9.125 -2.328125 C 10.375 -2.328125 11.503906 -2.894531 12.515625 -4.03125 C 14.429688 -6.21875 15.390625 -8.8125 15.390625 -11.8125 C 15.390625 -14.820312 14.316406 -16.328125 12.171875 -16.328125 Z M 12.171875 -16.328125 "/></g></g></g><g fill="#000000" fill-opacity="1"><g transform="translate(161.168715, 57.749994)"><g><path d="M 16.390625 -6.53125 L 17.6875 -5.609375 C 16.757812 -3.742188 15.332031 -2.257812 13.40625 -1.15625 C 11.488281 -0.0507812 9.476562 0.5 7.375 0.5 C 5.269531 0.5 3.5 -0.140625 2.0625 -1.421875 C 0.625 -2.703125 -0.09375 -4.515625 -0.09375 -6.859375 C -0.09375 -9.203125 0.625 -11.316406 2.0625 -13.203125 C 3.5 -15.097656 5.269531 -16.546875 7.375 -17.546875 C 9.476562 -18.546875 11.601562 -19.046875 13.75 -19.046875 C 16.375 -19.046875 18.140625 -18.414062 19.046875 -17.15625 C 19.421875 -16.644531 19.609375 -16.003906 19.609375 -15.234375 C 19.609375 -14.472656 19.34375 -13.828125 18.8125 -13.296875 C 18.289062 -12.773438 17.660156 -12.515625 16.921875 -12.515625 C 16.191406 -12.515625 15.570312 -12.75 15.0625 -13.21875 C 14.5625 -13.695312 14.3125 -14.300781 14.3125 -15.03125 C 14.3125 -15.769531 14.765625 -16.445312 15.671875 -17.0625 C 14.867188 -17.3125 14.132812 -17.4375 13.46875 -17.4375 C 12.007812 -17.4375 10.671875 -16.898438 9.453125 -15.828125 C 8.234375 -14.753906 7.304688 -13.453125 6.671875 -11.921875 C 6.046875 -10.398438 5.734375 -8.90625 5.734375 -7.4375 C 5.734375 -5.96875 6.082031 -4.785156 6.78125 -3.890625 C 7.488281 -2.992188 8.503906 -2.546875 9.828125 -2.546875 C 11.160156 -2.546875 12.4375 -2.921875 13.65625 -3.671875 C 14.875 -4.421875 15.785156 -5.375 16.390625 -6.53125 Z M 16.390625 -6.53125 "/></g></g></g><g fill="#000000" fill-opacity="1"><g transform="translate(181.029225, 57.749994)"><g><path d="M 5.796875 -6.203125 C 5.921875 -3.785156 7.550781 -2.578125 10.6875 -2.578125 C 11.84375 -2.578125 13.046875 -2.910156 14.296875 -3.578125 C 15.546875 -4.242188 16.5625 -5.023438 17.34375 -5.921875 L 18.6875 -5.046875 C 16.945312 -2.117188 14.164062 -0.332031 10.34375 0.3125 C 9.5 0.4375 8.6875 0.5 7.90625 0.5 C 5.644531 0.5 3.753906 -0.25 2.234375 -1.75 C 0.722656 -3.25 -0.03125 -5.082031 -0.03125 -7.25 C -0.03125 -9.414062 0.628906 -11.414062 1.953125 -13.25 C 3.273438 -15.09375 4.929688 -16.519531 6.921875 -17.53125 C 8.910156 -18.539062 10.867188 -19.046875 12.796875 -19.046875 C 14.734375 -19.046875 16.410156 -18.601562 17.828125 -17.71875 C 19.242188 -16.832031 19.96875 -15.644531 20 -14.15625 C 20.03125 -12.664062 19.59375 -11.378906 18.6875 -10.296875 C 17.789062 -9.210938 16.648438 -8.382812 15.265625 -7.8125 C 12.503906 -6.695312 9.800781 -6.140625 7.15625 -6.140625 Z M 5.609375 -7.9375 C 7.941406 -8.03125 9.816406 -8.40625 11.234375 -9.0625 C 12.648438 -9.726562 13.632812 -10.484375 14.1875 -11.328125 C 14.75 -12.179688 15.03125 -13.078125 15.03125 -14.015625 C 15.03125 -14.953125 14.789062 -15.644531 14.3125 -16.09375 C 13.832031 -16.539062 13.316406 -16.765625 12.765625 -16.765625 C 11.421875 -16.765625 10.1875 -16.296875 9.0625 -15.359375 C 7.9375 -14.429688 7.078125 -13.300781 6.484375 -11.96875 C 5.898438 -10.632812 5.609375 -9.289062 5.609375 -7.9375 Z M 5.609375 -7.9375 "/></g></g></g><g fill="#000000" fill-opacity="1"><g transform="translate(201.993014, 57.749994)"><g><path d="M 2.9375 -0.21875 C 1.5625 -0.707031 0.582031 -1.28125 0 -1.9375 C -0.582031 -2.601562 -0.875 -3.332031 -0.875 -4.125 C -0.875 -4.925781 -0.65625 -5.585938 -0.21875 -6.109375 C 0.21875 -6.640625 0.796875 -6.90625 1.515625 -6.90625 C 2.242188 -6.90625 2.882812 -6.6875 3.4375 -6.25 C 4 -5.820312 4.28125 -5.210938 4.28125 -4.421875 C 4.28125 -3.640625 3.800781 -2.984375 2.84375 -2.453125 C 3.632812 -1.765625 4.851562 -1.421875 6.5 -1.421875 C 10.050781 -1.421875 11.828125 -2.425781 11.828125 -4.4375 C 11.828125 -5.707031 10.703125 -6.71875 8.453125 -7.46875 C 7.523438 -7.78125 6.59375 -8.113281 5.65625 -8.46875 C 4.71875 -8.832031 3.898438 -9.359375 3.203125 -10.046875 C 2.515625 -10.742188 2.140625 -11.585938 2.078125 -12.578125 C 2.078125 -14.003906 2.550781 -15.210938 3.5 -16.203125 C 5.28125 -18.097656 7.945312 -19.046875 11.5 -19.046875 C 13.25 -19.046875 14.796875 -18.710938 16.140625 -18.046875 C 17.484375 -17.390625 18.15625 -16.535156 18.15625 -15.484375 C 18.15625 -14.429688 17.882812 -13.671875 17.34375 -13.203125 C 16.8125 -12.742188 16.1875 -12.515625 15.46875 -12.515625 C 14.757812 -12.515625 14.15625 -12.707031 13.65625 -13.09375 C 13.164062 -13.488281 12.921875 -14.03125 12.921875 -14.71875 C 12.921875 -15.414062 13.332031 -16.015625 14.15625 -16.515625 C 13.644531 -16.878906 12.769531 -17.0625 11.53125 -17.0625 C 10.289062 -17.0625 9.175781 -16.875 8.1875 -16.5 C 7.207031 -16.132812 6.71875 -15.632812 6.71875 -15 C 6.71875 -14.375 7.078125 -13.847656 7.796875 -13.421875 C 8.523438 -13.003906 9.40625 -12.617188 10.4375 -12.265625 C 11.46875 -11.910156 12.492188 -11.5 13.515625 -11.03125 C 14.546875 -10.570312 15.425781 -9.910156 16.15625 -9.046875 C 16.882812 -8.179688 17.25 -7.117188 17.25 -5.859375 C 17.25 -4.597656 16.734375 -3.453125 15.703125 -2.421875 C 13.742188 -0.472656 11.070312 0.5 7.6875 0.5 C 5.90625 0.5 4.320312 0.257812 2.9375 -0.21875 Z M 2.9375 -0.21875 "/></g></g></g></svg>