<svg xmlns="http://www.w3.org/2000/svg" xmlns:xlink="http://www.w3.org/1999/xlink" width="600" zoomAndPan="magnify" viewBox="0 0 450 149.999998" height="200" preserveAspectRatio="xMidYMid meet" version="1.0"><defs><g/></defs><g fill="#000000" fill-opacity="1"><g transform="translate(0.954, 69.960954)"><g><path d="M 31.8125 -0.578125 L 32.640625 -2 C 33.410156 -1.5625 34.1875 -1.34375 34.96875 -1.34375 C 36.476562 -1.34375 37.851562 -2.15625 39.09375 -3.78125 C 40.332031 -5.40625 41.375 -7.566406 42.21875 -10.265625 L 23.421875 -10.265625 L 21.0625 -6.765625 C 19.320312 -4.179688 17.332031 -2.296875 15.09375 -1.109375 C 12.863281 0.0664062 10.375 0.65625 7.625 0.65625 C 4.875 0.65625 2.863281 0.128906 1.59375 -0.921875 C 0.320312 -1.972656 -0.3125 -3.082031 -0.3125 -4.25 C -0.3125 -5.425781 0.0351562 -6.375 0.734375 -7.09375 C 1.429688 -7.8125 2.300781 -8.171875 3.34375 -8.171875 C 4.382812 -8.171875 5.148438 -7.835938 5.640625 -7.171875 C 6.140625 -6.515625 6.390625 -5.632812 6.390625 -4.53125 C 6.390625 -3.4375 5.875 -2.613281 4.84375 -2.0625 C 4.90625 -1.875 5.117188 -1.6875 5.484375 -1.5 C 5.859375 -1.320312 6.375 -1.234375 7.03125 -1.234375 C 7.695312 -1.234375 8.332031 -1.3125 8.9375 -1.46875 C 9.550781 -1.632812 10.257812 -1.992188 11.0625 -2.546875 C 11.863281 -3.097656 12.707031 -3.929688 13.59375 -5.046875 C 15.476562 -7.429688 17.832031 -11.070312 20.65625 -15.96875 C 23.488281 -20.875 26.25 -24.957031 28.9375 -28.21875 C 31.625 -31.476562 34.828125 -34.394531 38.546875 -36.96875 C 37.441406 -37.695312 36.085938 -38.28125 34.484375 -38.71875 C 32.878906 -39.164062 31.078125 -39.390625 29.078125 -39.390625 C 27.078125 -39.390625 24.992188 -39.03125 22.828125 -38.3125 C 20.660156 -37.59375 18.828125 -36.617188 17.328125 -35.390625 C 15.828125 -34.171875 14.5625 -32.734375 13.53125 -31.078125 C 11.519531 -27.878906 10.515625 -24.148438 10.515625 -19.890625 C 10.515625 -16.960938 11.015625 -14.085938 12.015625 -11.265625 L 10.140625 -10.375 C 8.003906 -13.832031 6.9375 -17.503906 6.9375 -21.390625 C 6.9375 -24.003906 7.453125 -26.503906 8.484375 -28.890625 C 9.515625 -31.273438 10.960938 -33.394531 12.828125 -35.25 C 14.691406 -37.101562 17.054688 -38.578125 19.921875 -39.671875 C 22.785156 -40.773438 25.929688 -41.328125 29.359375 -41.328125 C 31.835938 -41.328125 33.613281 -41.15625 34.6875 -40.8125 L 36.75 -40.1875 C 37.4375 -39.976562 38.25 -39.59375 39.1875 -39.03125 C 40.125 -38.46875 40.597656 -38.175781 40.609375 -38.15625 C 42.453125 -39.007812 44.03125 -39.566406 45.34375 -39.828125 C 46.664062 -40.085938 48.195312 -40.21875 49.9375 -40.21875 L 50.65625 -38.875 C 47.613281 -38.875 44.867188 -38.144531 42.421875 -36.6875 C 44.691406 -34.695312 46.378906 -32.15625 47.484375 -29.0625 C 48.597656 -25.96875 49.15625 -22.570312 49.15625 -18.875 C 49.15625 -15.175781 48.628906 -11.660156 47.578125 -8.328125 C 46.523438 -4.992188 45.125 -2.351562 43.375 -0.40625 C 41.632812 1.539062 39.738281 2.515625 37.6875 2.515625 C 35.644531 2.515625 33.6875 1.484375 31.8125 -0.578125 Z M 40.609375 -35.375 C 37.398438 -32.976562 34.773438 -30.195312 32.734375 -27.03125 C 30.953125 -24.300781 29.300781 -21.441406 27.78125 -18.453125 C 26.269531 -15.472656 25.160156 -13.351562 24.453125 -12.09375 L 42.734375 -12.09375 C 43.628906 -15.6875 44.078125 -19.257812 44.078125 -22.8125 C 44.078125 -28.695312 42.921875 -32.882812 40.609375 -35.375 Z M 40.609375 -35.375 "/></g></g></g><g fill="#000000" fill-opacity="1"><g transform="translate(50.384698, 69.960954)"><g><path d="M 15.734375 -13.5625 C 15.003906 -13.5625 14.144531 -13.097656 13.15625 -12.171875 C 12.164062 -11.242188 11.203125 -10.109375 10.265625 -8.765625 C 8.773438 -6.628906 7.253906 -4.164062 5.703125 -1.375 L 4.9375 0 L 0.890625 0 C 0.890625 0 1.1875 -0.894531 1.78125 -2.6875 C 3.4375 -7.65625 4.265625 -10.601562 4.265625 -11.53125 C 4.265625 -12.457031 4.113281 -12.921875 3.8125 -12.921875 C 3.257812 -12.921875 2.597656 -12.265625 1.828125 -10.953125 C 1.660156 -10.640625 1.519531 -10.394531 1.40625 -10.21875 C 1.289062 -10.039062 1.160156 -9.820312 1.015625 -9.5625 C 0.867188 -9.300781 0.78125 -9.144531 0.75 -9.09375 L -1.171875 -10.203125 C 0.316406 -12.628906 1.679688 -14.421875 2.921875 -15.578125 C 4.160156 -16.734375 5.429688 -17.3125 6.734375 -17.3125 C 7.328125 -17.3125 7.835938 -17.0625 8.265625 -16.5625 C 8.703125 -16.070312 8.921875 -15.484375 8.921875 -14.796875 C 8.921875 -14.117188 8.878906 -13.515625 8.796875 -12.984375 C 8.722656 -12.460938 8.640625 -11.984375 8.546875 -11.546875 C 8.453125 -11.109375 8.316406 -10.582031 8.140625 -9.96875 C 7.960938 -9.363281 7.820312 -8.894531 7.71875 -8.5625 C 7.613281 -8.238281 7.472656 -7.800781 7.296875 -7.25 C 7.128906 -6.695312 7.03125 -6.375 7 -6.28125 C 7.34375 -6.96875 7.921875 -7.976562 8.734375 -9.3125 C 9.554688 -10.65625 10.09375 -11.5 10.34375 -11.84375 C 10.59375 -12.1875 10.9375 -12.644531 11.375 -13.21875 C 11.8125 -13.789062 12.195312 -14.234375 12.53125 -14.546875 C 12.875 -14.859375 13.28125 -15.21875 13.75 -15.625 C 14.21875 -16.039062 14.660156 -16.351562 15.078125 -16.5625 C 16.148438 -17.0625 17.179688 -17.3125 18.171875 -17.3125 C 19.160156 -17.3125 19.957031 -17.019531 20.5625 -16.4375 C 21.164062 -15.851562 21.46875 -15.175781 21.46875 -14.40625 C 21.46875 -13.632812 21.222656 -12.957031 20.734375 -12.375 C 20.242188 -11.789062 19.679688 -11.5 19.046875 -11.5 C 18.410156 -11.5 17.910156 -11.609375 17.546875 -11.828125 C 17.179688 -12.046875 16.929688 -12.28125 16.796875 -12.53125 C 16.390625 -13.21875 16.035156 -13.5625 15.734375 -13.5625 Z M 15.734375 -13.5625 "/></g></g></g><g fill="#000000" fill-opacity="1"><g transform="translate(70.521845, 69.960954)"><g><path d="M 3.890625 -16.6875 C 5.859375 -22.800781 7.867188 -27.921875 9.921875 -32.046875 L 13.46875 -31.765625 C 13.257812 -31.148438 12.742188 -29.675781 11.921875 -27.34375 C 10.148438 -22.207031 9.003906 -18.65625 8.484375 -16.6875 L 12.984375 -16.6875 L 12.53125 -14.796875 L 7.875 -14.796875 C 6.125 -9.367188 5.25 -6.066406 5.25 -4.890625 C 5.25 -3.710938 5.367188 -3.125 5.609375 -3.125 C 5.847656 -3.125 6.0625 -3.171875 6.25 -3.265625 C 6.757812 -3.554688 7.867188 -4.953125 9.578125 -7.453125 L 10.75 -6.390625 C 9.46875 -4.054688 8.148438 -2.332031 6.796875 -1.21875 C 5.441406 -0.101562 4.320312 0.453125 3.4375 0.453125 C 2.5625 0.453125 1.898438 0.148438 1.453125 -0.453125 C 1.003906 -1.066406 0.78125 -1.851562 0.78125 -2.8125 C 0.78125 -5.238281 1.628906 -9.234375 3.328125 -14.796875 L 0.3125 -14.796875 L 0.78125 -16.6875 Z M 3.890625 -16.6875 "/></g></g></g><g fill="#000000" fill-opacity="1"><g transform="translate(81.630163, 69.960954)"><g><path d="M 5.109375 0.453125 C 4.296875 0.453125 3.660156 0.207031 3.203125 -0.28125 C 2.742188 -0.78125 2.515625 -1.460938 2.515625 -2.328125 C 2.515625 -3.203125 2.738281 -4.390625 3.1875 -5.890625 C 3.644531 -7.390625 4.097656 -8.75 4.546875 -9.96875 C 4.992188 -11.195312 5.21875 -12.015625 5.21875 -12.421875 C 5.21875 -12.835938 5.082031 -13.046875 4.8125 -13.046875 C 4.144531 -13.046875 3.066406 -11.726562 1.578125 -9.09375 L -0.34375 -10.203125 C 2.46875 -14.941406 5.046875 -17.3125 7.390625 -17.3125 C 8.992188 -17.3125 9.796875 -16.300781 9.796875 -14.28125 C 9.796875 -13.6875 9.609375 -12.738281 9.234375 -11.4375 L 7.171875 -5.53125 C 6.953125 -4.976562 6.84375 -4.476562 6.84375 -4.03125 C 6.84375 -3.582031 7.015625 -3.359375 7.359375 -3.359375 C 8.015625 -3.359375 9.210938 -4.5625 10.953125 -6.96875 L 12.15625 -5.84375 C 11.125 -3.9375 9.894531 -2.410156 8.46875 -1.265625 C 7.039062 -0.117188 5.921875 0.453125 5.109375 0.453125 Z M 13.265625 -25.78125 C 13.265625 -25.007812 13.003906 -24.304688 12.484375 -23.671875 C 11.972656 -23.046875 11.28125 -22.734375 10.40625 -22.734375 C 9.53125 -22.734375 8.867188 -22.992188 8.421875 -23.515625 C 7.984375 -24.046875 7.765625 -24.710938 7.765625 -25.515625 C 7.765625 -26.316406 8.035156 -27.023438 8.578125 -27.640625 C 9.128906 -28.265625 9.832031 -28.578125 10.6875 -28.578125 C 11.550781 -28.578125 12.195312 -28.300781 12.625 -27.75 C 13.050781 -27.207031 13.265625 -26.550781 13.265625 -25.78125 Z M 13.265625 -25.78125 "/></g></g></g><g fill="#000000" fill-opacity="1"><g transform="translate(93.741679, 69.960954)"><g><path d="M 2.671875 -0.203125 C 1.421875 -0.640625 0.53125 -1.160156 0 -1.765625 C -0.53125 -2.367188 -0.796875 -3.03125 -0.796875 -3.75 C -0.796875 -4.476562 -0.59375 -5.082031 -0.1875 -5.5625 C 0.207031 -6.039062 0.734375 -6.28125 1.390625 -6.28125 C 2.046875 -6.28125 2.625 -6.082031 3.125 -5.6875 C 3.632812 -5.300781 3.890625 -4.75 3.890625 -4.03125 C 3.890625 -3.3125 3.453125 -2.710938 2.578125 -2.234375 C 3.304688 -1.609375 4.414062 -1.296875 5.90625 -1.296875 C 9.132812 -1.296875 10.75 -2.210938 10.75 -4.046875 C 10.75 -5.191406 9.726562 -6.109375 7.6875 -6.796875 C 6.84375 -7.078125 5.992188 -7.378906 5.140625 -7.703125 C 4.296875 -8.035156 3.554688 -8.515625 2.921875 -9.140625 C 2.296875 -9.773438 1.953125 -10.539062 1.890625 -11.4375 C 1.890625 -12.738281 2.320312 -13.835938 3.1875 -14.734375 C 4.8125 -16.453125 7.238281 -17.3125 10.46875 -17.3125 C 12.050781 -17.3125 13.453125 -17.007812 14.671875 -16.40625 C 15.898438 -15.800781 16.515625 -15.019531 16.515625 -14.0625 C 16.515625 -13.113281 16.269531 -12.425781 15.78125 -12 C 15.289062 -11.582031 14.71875 -11.375 14.0625 -11.375 C 13.414062 -11.375 12.867188 -11.550781 12.421875 -11.90625 C 11.972656 -12.257812 11.75 -12.75 11.75 -13.375 C 11.75 -14.007812 12.125 -14.554688 12.875 -15.015625 C 12.414062 -15.335938 11.617188 -15.5 10.484375 -15.5 C 9.359375 -15.5 8.347656 -15.332031 7.453125 -15 C 6.554688 -14.664062 6.109375 -14.210938 6.109375 -13.640625 C 6.109375 -13.066406 6.4375 -12.585938 7.09375 -12.203125 C 7.75 -11.828125 8.546875 -11.472656 9.484375 -11.140625 C 10.421875 -10.816406 11.359375 -10.445312 12.296875 -10.03125 C 13.234375 -9.613281 14.03125 -9.007812 14.6875 -8.21875 C 15.34375 -7.4375 15.671875 -6.472656 15.671875 -5.328125 C 15.671875 -4.179688 15.207031 -3.140625 14.28125 -2.203125 C 12.5 -0.429688 10.070312 0.453125 7 0.453125 C 5.375 0.453125 3.929688 0.234375 2.671875 -0.203125 Z M 2.671875 -0.203125 "/></g></g></g><g fill="#000000" fill-opacity="1"><g transform="translate(110.811894, 69.960954)"><g><path d="M 15.84375 -16.6875 L 20.328125 -16.6875 L 18.0625 -8.109375 C 17.695312 -6.910156 17.515625 -5.816406 17.515625 -4.828125 C 17.515625 -3.847656 17.6875 -3.359375 18.03125 -3.359375 C 18.375 -3.359375 18.84375 -3.65625 19.4375 -4.25 C 20.039062 -4.851562 20.554688 -5.460938 20.984375 -6.078125 L 21.640625 -7 L 22.875 -5.84375 C 22.238281 -4.625 21.4375 -3.507812 20.46875 -2.5 C 18.570312 -0.53125 16.925781 0.453125 15.53125 0.453125 C 13.894531 0.453125 13.078125 -0.816406 13.078125 -3.359375 C 13.078125 -3.773438 13.09375 -4.085938 13.125 -4.296875 C 12.84375 -3.328125 12.300781 -2.46875 11.5 -1.71875 C 9.96875 -0.269531 8.238281 0.453125 6.3125 0.453125 C 4.394531 0.453125 2.859375 -0.195312 1.703125 -1.5 C 0.546875 -2.8125 -0.03125 -4.453125 -0.03125 -6.421875 C -0.03125 -9.472656 0.960938 -12.050781 2.953125 -14.15625 C 4.941406 -16.257812 7.273438 -17.3125 9.953125 -17.3125 C 11.285156 -17.3125 12.390625 -16.941406 13.265625 -16.203125 C 14.148438 -15.472656 14.722656 -14.515625 14.984375 -13.328125 Z M 11.0625 -14.84375 C 9.957031 -14.84375 8.921875 -14.378906 7.953125 -13.453125 C 6.984375 -12.523438 6.238281 -11.40625 5.71875 -10.09375 C 5.207031 -8.789062 4.953125 -7.519531 4.953125 -6.28125 C 4.953125 -5.039062 5.222656 -4.035156 5.765625 -3.265625 C 6.316406 -2.503906 7.160156 -2.125 8.296875 -2.125 C 9.429688 -2.125 10.457031 -2.640625 11.375 -3.671875 C 13.113281 -5.660156 13.984375 -8.019531 13.984375 -10.75 C 13.984375 -13.476562 13.007812 -14.84375 11.0625 -14.84375 Z M 11.0625 -14.84375 "/></g></g></g><g fill="#000000" fill-opacity="1"><g transform="translate(133.442725, 69.960954)"><g><path d="M 7.796875 -8.046875 C 11.785156 -14.222656 15.367188 -17.3125 18.546875 -17.3125 C 19.617188 -17.3125 20.421875 -16.984375 20.953125 -16.328125 C 21.484375 -15.679688 21.75 -14.859375 21.75 -13.859375 C 21.75 -12.867188 21.304688 -11.148438 20.421875 -8.703125 C 19.535156 -6.265625 19.09375 -4.753906 19.09375 -4.171875 C 19.09375 -3.585938 19.234375 -3.296875 19.515625 -3.296875 C 19.898438 -3.296875 20.460938 -3.691406 21.203125 -4.484375 C 21.953125 -5.273438 22.613281 -6.113281 23.1875 -7 L 24.390625 -5.84375 C 23.242188 -3.757812 21.988281 -2.1875 20.625 -1.125 C 19.257812 -0.0703125 18.148438 0.453125 17.296875 0.453125 C 16.441406 0.453125 15.773438 0.171875 15.296875 -0.390625 C 14.828125 -0.953125 14.59375 -1.71875 14.59375 -2.6875 C 14.59375 -3.664062 14.976562 -5.257812 15.75 -7.46875 C 16.519531 -9.675781 16.90625 -11.242188 16.90625 -12.171875 C 16.90625 -13.097656 16.59375 -13.5625 15.96875 -13.5625 C 15.238281 -13.5625 14.375 -13.097656 13.375 -12.171875 C 12.382812 -11.242188 11.421875 -10.109375 10.484375 -8.765625 C 8.992188 -6.628906 7.476562 -4.164062 5.9375 -1.375 L 5.15625 0 L 1.125 0 L 2 -2.6875 C 3.664062 -7.65625 4.5 -10.601562 4.5 -11.53125 C 4.5 -12.457031 4.347656 -12.921875 4.046875 -12.921875 C 3.484375 -12.921875 2.820312 -12.265625 2.0625 -10.953125 C 1.894531 -10.640625 1.753906 -10.394531 1.640625 -10.21875 C 1.523438 -10.039062 1.394531 -9.820312 1.25 -9.5625 C 1.101562 -9.300781 1.007812 -9.144531 0.96875 -9.09375 L -0.953125 -10.203125 C 0.546875 -12.628906 1.914062 -14.421875 3.15625 -15.578125 C 4.394531 -16.734375 5.664062 -17.3125 6.96875 -17.3125 C 7.5625 -17.3125 8.070312 -17.0625 8.5 -16.5625 C 8.925781 -16.070312 9.140625 -15.472656 9.140625 -14.765625 C 9.140625 -14.054688 9.082031 -13.363281 8.96875 -12.6875 C 8.851562 -12.007812 8.734375 -11.441406 8.609375 -10.984375 C 8.484375 -10.535156 8.320312 -9.957031 8.125 -9.25 C 7.925781 -8.550781 7.816406 -8.148438 7.796875 -8.046875 Z M 7.796875 -8.046875 "/></g></g></g><g fill="#000000" fill-opacity="1"><g transform="translate(157.592687, 69.960954)"><g/></g></g><g fill="#000000" fill-opacity="1"><g transform="translate(165.863365, 69.960954)"><g><path d="M 60.765625 -8.109375 L 62.234375 -6.875 C 61.347656 -4.675781 60.175781 -2.867188 58.71875 -1.453125 C 57.269531 -0.046875 55.820312 0.65625 54.375 0.65625 C 52.925781 0.65625 51.890625 0.1875 51.265625 -0.75 C 50.640625 -1.6875 50.328125 -2.867188 50.328125 -4.296875 C 50.328125 -5.734375 50.769531 -8.035156 51.65625 -11.203125 C 52.550781 -14.378906 53.523438 -17.425781 54.578125 -20.34375 C 57.421875 -28.144531 58.84375 -33.15625 58.84375 -35.375 C 58.84375 -36.65625 58.429688 -37.296875 57.609375 -37.296875 C 54.347656 -37.296875 50.28125 -32.03125 45.40625 -21.5 C 43.4375 -17.257812 41.890625 -13.695312 40.765625 -10.8125 C 38.429688 -4.769531 37.035156 -1.164062 36.578125 0 L 30.1875 0 L 32.8125 -6.875 C 35.945312 -14.84375 38.253906 -22.25 39.734375 -29.09375 C 40.304688 -31.6875 40.59375 -33.769531 40.59375 -35.34375 C 40.59375 -37.726562 39.957031 -38.921875 38.6875 -38.921875 C 37.425781 -38.921875 36.003906 -37.957031 34.421875 -36.03125 C 32.835938 -34.113281 31.316406 -31.710938 29.859375 -28.828125 C 28.410156 -25.941406 26.957031 -22.816406 25.5 -19.453125 C 24.050781 -16.097656 22.796875 -12.976562 21.734375 -10.09375 C 19.265625 -3.363281 17.992188 0 17.921875 0 L 12.296875 0 L 15.5 -8.96875 C 18.375 -16.363281 20.125 -22.179688 20.75 -26.421875 C 21.0625 -28.390625 21.21875 -30.394531 21.21875 -32.4375 C 21.21875 -34.488281 20.691406 -36.207031 19.640625 -37.59375 C 18.585938 -38.976562 17.140625 -39.671875 15.296875 -39.671875 C 13.460938 -39.671875 11.882812 -39.28125 10.5625 -38.5 C 9.238281 -37.726562 8.144531 -36.75 7.28125 -35.5625 C 6.414062 -34.382812 5.691406 -33.0625 5.109375 -31.59375 C 3.972656 -28.851562 3.40625 -26.1875 3.40625 -23.59375 C 3.40625 -18.03125 4.675781 -13.140625 7.21875 -8.921875 L 5.984375 -8 C 4.609375 -10.195312 3.5625 -12.664062 2.84375 -15.40625 C 2.132812 -18.144531 1.78125 -20.535156 1.78125 -22.578125 C 1.78125 -24.628906 1.929688 -26.441406 2.234375 -28.015625 C 2.535156 -29.597656 3.039062 -31.191406 3.75 -32.796875 C 4.457031 -34.398438 5.332031 -35.828125 6.375 -37.078125 C 7.414062 -38.328125 8.753906 -39.347656 10.390625 -40.140625 C 12.023438 -40.929688 13.738281 -41.328125 15.53125 -41.328125 C 17.332031 -41.328125 18.847656 -40.984375 20.078125 -40.296875 C 21.304688 -39.609375 22.273438 -38.679688 22.984375 -37.515625 C 24.378906 -35.222656 25.078125 -32.441406 25.078125 -29.171875 C 25.078125 -25.910156 24.054688 -21.15625 22.015625 -14.90625 C 22.722656 -16.78125 23.242188 -18.085938 23.578125 -18.828125 C 23.910156 -19.578125 24.3125 -20.492188 24.78125 -21.578125 C 25.25 -22.671875 25.613281 -23.523438 25.875 -24.140625 C 26.144531 -24.765625 26.554688 -25.671875 27.109375 -26.859375 C 27.671875 -28.054688 28.15625 -29.039062 28.5625 -29.8125 C 28.96875 -30.59375 29.488281 -31.539062 30.125 -32.65625 C 30.769531 -33.78125 31.359375 -34.703125 31.890625 -35.421875 C 32.429688 -36.148438 33.050781 -36.921875 33.75 -37.734375 C 34.445312 -38.546875 35.117188 -39.191406 35.765625 -39.671875 C 37.242188 -40.773438 38.671875 -41.328125 40.046875 -41.328125 C 43.296875 -41.328125 44.921875 -39.148438 44.921875 -34.796875 C 44.921875 -32.046875 44.375 -28.632812 43.28125 -24.5625 C 42.914062 -23.207031 42.410156 -21.453125 41.765625 -19.296875 C 41.128906 -17.148438 40.773438 -15.925781 40.703125 -15.625 C 41.546875 -17.164062 42.644531 -19.578125 44 -22.859375 C 45.351562 -26.148438 46.546875 -28.742188 47.578125 -30.640625 C 48.609375 -32.535156 49.640625 -34.148438 50.671875 -35.484375 C 51.703125 -36.816406 52.9375 -37.929688 54.375 -38.828125 C 55.820312 -39.734375 57.257812 -40.1875 58.6875 -40.1875 C 60.113281 -40.1875 61.238281 -39.726562 62.0625 -38.8125 C 62.894531 -37.894531 63.3125 -36.671875 63.3125 -35.140625 C 63.3125 -33.609375 63.046875 -31.75 62.515625 -29.5625 C 61.984375 -27.375 61.320312 -25.203125 60.53125 -23.046875 C 59.75 -20.890625 58.96875 -18.738281 58.1875 -16.59375 C 56.257812 -11.414062 55.226562 -7.394531 55.09375 -4.53125 C 55.09375 -3.300781 55.410156 -2.6875 56.046875 -2.6875 C 56.691406 -2.6875 57.453125 -3.238281 58.328125 -4.34375 C 59.210938 -5.457031 60.023438 -6.710938 60.765625 -8.109375 Z M 60.765625 -8.109375 "/></g></g></g><g fill="#000000" fill-opacity="1"><g transform="translate(227.8771, 69.960954)"><g><path d="M 22.640625 -16.6875 C 20.078125 -9.863281 18.796875 -5.722656 18.796875 -4.265625 C 18.796875 -3.660156 18.953125 -3.359375 19.265625 -3.359375 C 20.097656 -3.359375 21.320312 -4.578125 22.9375 -7.015625 L 24.15625 -5.84375 C 23.144531 -4.03125 21.945312 -2.523438 20.5625 -1.328125 C 19.175781 -0.140625 18.054688 0.453125 17.203125 0.453125 C 15.421875 0.453125 14.53125 -0.441406 14.53125 -2.234375 C 14.53125 -3.628906 14.851562 -5.328125 15.5 -7.328125 C 16.15625 -9.335938 16.484375 -10.351562 16.484375 -10.375 C 16.390625 -10.207031 16.160156 -9.8125 15.796875 -9.1875 C 15.429688 -8.5625 15.160156 -8.097656 14.984375 -7.796875 C 14.816406 -7.492188 14.535156 -7.03125 14.140625 -6.40625 C 13.753906 -5.78125 13.429688 -5.289062 13.171875 -4.9375 C 12.910156 -4.59375 12.566406 -4.140625 12.140625 -3.578125 C 11.710938 -3.023438 11.328125 -2.585938 10.984375 -2.265625 C 10.648438 -1.941406 10.253906 -1.582031 9.796875 -1.1875 C 9.335938 -0.800781 8.898438 -0.5 8.484375 -0.28125 C 7.523438 0.207031 6.585938 0.453125 5.671875 0.453125 C 3.398438 0.453125 2.265625 -0.796875 2.265625 -3.296875 C 2.265625 -4.441406 2.675781 -6.222656 3.5 -8.640625 C 4.320312 -11.054688 4.734375 -12.476562 4.734375 -12.90625 C 4.734375 -13.34375 4.597656 -13.5625 4.328125 -13.5625 C 3.566406 -13.5625 2.503906 -12.347656 1.140625 -9.921875 L -0.71875 -11.03125 C 1.894531 -15.21875 4.414062 -17.3125 6.84375 -17.3125 C 7.644531 -17.3125 8.285156 -17.085938 8.765625 -16.640625 C 9.242188 -16.191406 9.46875 -15.503906 9.4375 -14.578125 C 9.414062 -13.648438 8.945312 -11.992188 8.03125 -9.609375 C 7.125 -7.234375 6.671875 -5.414062 6.671875 -4.15625 C 6.671875 -3.46875 6.988281 -3.125 7.625 -3.125 C 8.351562 -3.125 9.21875 -3.585938 10.21875 -4.515625 C 11.21875 -5.441406 12.1875 -6.570312 13.125 -7.90625 C 14.613281 -10.007812 16.160156 -12.476562 17.765625 -15.3125 L 18.546875 -16.6875 Z M 22.640625 -16.6875 "/></g></g></g><g fill="#000000" fill-opacity="1"><g transform="translate(251.797759, 69.960954)"><g><path d="M 15.734375 -13.5625 C 15.003906 -13.5625 14.144531 -13.097656 13.15625 -12.171875 C 12.164062 -11.242188 11.203125 -10.109375 10.265625 -8.765625 C 8.773438 -6.628906 7.253906 -4.164062 5.703125 -1.375 L 4.9375 0 L 0.890625 0 C 0.890625 0 1.1875 -0.894531 1.78125 -2.6875 C 3.4375 -7.65625 4.265625 -10.601562 4.265625 -11.53125 C 4.265625 -12.457031 4.113281 -12.921875 3.8125 -12.921875 C 3.257812 -12.921875 2.597656 -12.265625 1.828125 -10.953125 C 1.660156 -10.640625 1.519531 -10.394531 1.40625 -10.21875 C 1.289062 -10.039062 1.160156 -9.820312 1.015625 -9.5625 C 0.867188 -9.300781 0.78125 -9.144531 0.75 -9.09375 L -1.171875 -10.203125 C 0.316406 -12.628906 1.679688 -14.421875 2.921875 -15.578125 C 4.160156 -16.734375 5.429688 -17.3125 6.734375 -17.3125 C 7.328125 -17.3125 7.835938 -17.0625 8.265625 -16.5625 C 8.703125 -16.070312 8.921875 -15.484375 8.921875 -14.796875 C 8.921875 -14.117188 8.878906 -13.515625 8.796875 -12.984375 C 8.722656 -12.460938 8.640625 -11.984375 8.546875 -11.546875 C 8.453125 -11.109375 8.316406 -10.582031 8.140625 -9.96875 C 7.960938 -9.363281 7.820312 -8.894531 7.71875 -8.5625 C 7.613281 -8.238281 7.472656 -7.800781 7.296875 -7.25 C 7.128906 -6.695312 7.03125 -6.375 7 -6.28125 C 7.34375 -6.96875 7.921875 -7.976562 8.734375 -9.3125 C 9.554688 -10.65625 10.09375 -11.5 10.34375 -11.84375 C 10.59375 -12.1875 10.9375 -12.644531 11.375 -13.21875 C 11.8125 -13.789062 12.195312 -14.234375 12.53125 -14.546875 C 12.875 -14.859375 13.28125 -15.21875 13.75 -15.625 C 14.21875 -16.039062 14.660156 -16.351562 15.078125 -16.5625 C 16.148438 -17.0625 17.179688 -17.3125 18.171875 -17.3125 C 19.160156 -17.3125 19.957031 -17.019531 20.5625 -16.4375 C 21.164062 -15.851562 21.46875 -15.175781 21.46875 -14.40625 C 21.46875 -13.632812 21.222656 -12.957031 20.734375 -12.375 C 20.242188 -11.789062 19.679688 -11.5 19.046875 -11.5 C 18.410156 -11.5 17.910156 -11.609375 17.546875 -11.828125 C 17.179688 -12.046875 16.929688 -12.28125 16.796875 -12.53125 C 16.390625 -13.21875 16.035156 -13.5625 15.734375 -13.5625 Z M 15.734375 -13.5625 "/></g></g></g><g fill="#000000" fill-opacity="1"><g transform="translate(271.934905, 69.960954)"><g><path d="M 15.84375 -16.6875 L 20.328125 -16.6875 L 18.0625 -8.109375 C 17.695312 -6.910156 17.515625 -5.816406 17.515625 -4.828125 C 17.515625 -3.847656 17.6875 -3.359375 18.03125 -3.359375 C 18.375 -3.359375 18.84375 -3.65625 19.4375 -4.25 C 20.039062 -4.851562 20.554688 -5.460938 20.984375 -6.078125 L 21.640625 -7 L 22.875 -5.84375 C 22.238281 -4.625 21.4375 -3.507812 20.46875 -2.5 C 18.570312 -0.53125 16.925781 0.453125 15.53125 0.453125 C 13.894531 0.453125 13.078125 -0.816406 13.078125 -3.359375 C 13.078125 -3.773438 13.09375 -4.085938 13.125 -4.296875 C 12.84375 -3.328125 12.300781 -2.46875 11.5 -1.71875 C 9.96875 -0.269531 8.238281 0.453125 6.3125 0.453125 C 4.394531 0.453125 2.859375 -0.195312 1.703125 -1.5 C 0.546875 -2.8125 -0.03125 -4.453125 -0.03125 -6.421875 C -0.03125 -9.472656 0.960938 -12.050781 2.953125 -14.15625 C 4.941406 -16.257812 7.273438 -17.3125 9.953125 -17.3125 C 11.285156 -17.3125 12.390625 -16.941406 13.265625 -16.203125 C 14.148438 -15.472656 14.722656 -14.515625 14.984375 -13.328125 Z M 11.0625 -14.84375 C 9.957031 -14.84375 8.921875 -14.378906 7.953125 -13.453125 C 6.984375 -12.523438 6.238281 -11.40625 5.71875 -10.09375 C 5.207031 -8.789062 4.953125 -7.519531 4.953125 -6.28125 C 4.953125 -5.039062 5.222656 -4.035156 5.765625 -3.265625 C 6.316406 -2.503906 7.160156 -2.125 8.296875 -2.125 C 9.429688 -2.125 10.457031 -2.640625 11.375 -3.671875 C 13.113281 -5.660156 13.984375 -8.019531 13.984375 -10.75 C 13.984375 -13.476562 13.007812 -14.84375 11.0625 -14.84375 Z M 11.0625 -14.84375 "/></g></g></g><g fill="#000000" fill-opacity="1"><g transform="translate(294.565748, 69.960954)"><g><path d="M 7.796875 -8.046875 C 11.785156 -14.222656 15.367188 -17.3125 18.546875 -17.3125 C 19.617188 -17.3125 20.421875 -16.984375 20.953125 -16.328125 C 21.484375 -15.679688 21.75 -14.859375 21.75 -13.859375 C 21.75 -12.867188 21.304688 -11.148438 20.421875 -8.703125 C 19.535156 -6.265625 19.09375 -4.753906 19.09375 -4.171875 C 19.09375 -3.585938 19.234375 -3.296875 19.515625 -3.296875 C 19.898438 -3.296875 20.460938 -3.691406 21.203125 -4.484375 C 21.953125 -5.273438 22.613281 -6.113281 23.1875 -7 L 24.390625 -5.84375 C 23.242188 -3.757812 21.988281 -2.1875 20.625 -1.125 C 19.257812 -0.0703125 18.148438 0.453125 17.296875 0.453125 C 16.441406 0.453125 15.773438 0.171875 15.296875 -0.390625 C 14.828125 -0.953125 14.59375 -1.71875 14.59375 -2.6875 C 14.59375 -3.664062 14.976562 -5.257812 15.75 -7.46875 C 16.519531 -9.675781 16.90625 -11.242188 16.90625 -12.171875 C 16.90625 -13.097656 16.59375 -13.5625 15.96875 -13.5625 C 15.238281 -13.5625 14.375 -13.097656 13.375 -12.171875 C 12.382812 -11.242188 11.421875 -10.109375 10.484375 -8.765625 C 8.992188 -6.628906 7.476562 -4.164062 5.9375 -1.375 L 5.15625 0 L 1.125 0 L 2 -2.6875 C 3.664062 -7.65625 4.5 -10.601562 4.5 -11.53125 C 4.5 -12.457031 4.347656 -12.921875 4.046875 -12.921875 C 3.484375 -12.921875 2.820312 -12.265625 2.0625 -10.953125 C 1.894531 -10.640625 1.753906 -10.394531 1.640625 -10.21875 C 1.523438 -10.039062 1.394531 -9.820312 1.25 -9.5625 C 1.101562 -9.300781 1.007812 -9.144531 0.96875 -9.09375 L -0.953125 -10.203125 C 0.546875 -12.628906 1.914062 -14.421875 3.15625 -15.578125 C 4.394531 -16.734375 5.664062 -17.3125 6.96875 -17.3125 C 7.5625 -17.3125 8.070312 -17.0625 8.5 -16.5625 C 8.925781 -16.070312 9.140625 -15.472656 9.140625 -14.765625 C 9.140625 -14.054688 9.082031 -13.363281 8.96875 -12.6875 C 8.851562 -12.007812 8.734375 -11.441406 8.609375 -10.984375 C 8.484375 -10.535156 8.320312 -9.957031 8.125 -9.25 C 7.925781 -8.550781 7.816406 -8.148438 7.796875 -8.046875 Z M 7.796875 -8.046875 "/></g></g></g><g fill="#000000" fill-opacity="1"><g transform="translate(318.71571, 69.960954)"><g><path d="M -0.03125 -6.828125 C -0.03125 -8.253906 0.316406 -9.628906 1.015625 -10.953125 C 1.710938 -12.285156 2.613281 -13.410156 3.71875 -14.328125 C 6.164062 -16.316406 8.660156 -17.3125 11.203125 -17.3125 C 13.742188 -17.3125 15.828125 -16.632812 17.453125 -15.28125 C 19.078125 -13.925781 19.890625 -12.226562 19.890625 -10.1875 C 19.890625 -8.15625 19.328125 -6.328125 18.203125 -4.703125 C 17.085938 -3.078125 15.613281 -1.8125 13.78125 -0.90625 C 11.945312 0 9.945312 0.453125 7.78125 0.453125 C 5.613281 0.453125 3.769531 -0.226562 2.25 -1.59375 C 0.726562 -2.957031 -0.03125 -4.703125 -0.03125 -6.828125 Z M 9.34375 -1.3125 C 10.21875 -1.3125 11.039062 -1.597656 11.8125 -2.171875 C 12.59375 -2.742188 13.1875 -3.492188 13.59375 -4.421875 C 14.375 -6.171875 14.765625 -7.984375 14.765625 -9.859375 C 14.765625 -11.734375 14.421875 -13.148438 13.734375 -14.109375 C 13.046875 -15.078125 12.070312 -15.5625 10.8125 -15.5625 C 9.550781 -15.5625 8.300781 -14.738281 7.0625 -13.09375 C 5.832031 -11.457031 5.21875 -9.367188 5.21875 -6.828125 C 5.21875 -3.148438 6.59375 -1.3125 9.34375 -1.3125 Z M 9.34375 -1.3125 "/></g></g></g><g fill="#000000" fill-opacity="1"><g transform="translate(339.168167, 69.960954)"><g/></g></g><g fill="#000000" fill-opacity="1"><g transform="translate(347.438857, 69.960954)"><g><path d="M 35.921875 -35.109375 C 33.359375 -37.617188 30.519531 -38.875 27.40625 -38.875 C 21.4375 -38.875 16.5625 -36.003906 12.78125 -30.265625 C 10.582031 -26.941406 9.484375 -23.40625 9.484375 -19.65625 C 9.484375 -16.675781 10.226562 -14.234375 11.71875 -12.328125 C 13.320312 -10.242188 15.75 -9.203125 19 -9.203125 C 21.5625 -9.203125 24.046875 -10.007812 26.453125 -11.625 C 28.859375 -13.238281 30.628906 -15.375 31.765625 -18.03125 L 35.921875 -18.09375 C 33.984375 -9.28125 30.582031 -2.410156 25.71875 2.515625 C 20.863281 7.453125 15.070312 9.921875 8.34375 9.921875 C 4.84375 9.921875 2.144531 9.203125 0.25 7.765625 C -1.632812 6.335938 -2.578125 4.625 -2.578125 2.625 C -2.578125 0.625 -1.632812 -1.113281 0.25 -2.59375 C 2.144531 -4.070312 4.738281 -4.8125 8.03125 -4.8125 C 11.289062 -4.8125 13.878906 -4.066406 15.796875 -2.578125 L 14.5625 -0.0625 C 12.800781 -0.800781 10.726562 -1.171875 8.34375 -1.171875 C 5.957031 -1.171875 3.96875 -0.773438 2.375 0.015625 C 0.789062 0.804688 0 1.785156 0 2.953125 C 0 4.117188 0.765625 5.113281 2.296875 5.9375 C 3.835938 6.757812 6.003906 7.171875 8.796875 7.171875 C 13.253906 7.171875 17.3125 5.425781 20.96875 1.9375 C 24.625 -1.550781 27.742188 -6.671875 30.328125 -13.421875 C 28.742188 -11.179688 26.8125 -9.46875 24.53125 -8.28125 C 22.257812 -7.09375 20.066406 -6.5 17.953125 -6.5 C 15.847656 -6.5 13.988281 -6.769531 12.375 -7.3125 C 10.757812 -7.863281 9.316406 -8.648438 8.046875 -9.671875 C 6.773438 -10.691406 5.757812 -12.03125 5 -13.6875 C 4.25 -15.34375 3.875 -17.203125 3.875 -19.265625 C 3.875 -21.328125 4.210938 -23.40625 4.890625 -25.5 C 5.566406 -27.59375 6.582031 -29.582031 7.9375 -31.46875 C 9.289062 -33.363281 10.890625 -35.046875 12.734375 -36.515625 C 14.578125 -37.984375 16.757812 -39.148438 19.28125 -40.015625 C 21.8125 -40.890625 24.476562 -41.328125 27.28125 -41.328125 C 30.039062 -41.328125 32.648438 -40.679688 35.109375 -39.390625 C 36.335938 -38.753906 37.335938 -37.875 38.109375 -36.75 C 38.878906 -35.625 39.265625 -34.332031 39.265625 -32.875 C 39.265625 -31.425781 38.832031 -30.300781 37.96875 -29.5 C 37.113281 -28.707031 36.144531 -28.3125 35.0625 -28.3125 C 33.988281 -28.3125 33.097656 -28.597656 32.390625 -29.171875 C 31.679688 -29.753906 31.328125 -30.539062 31.328125 -31.53125 C 31.328125 -33.914062 32.859375 -35.109375 35.921875 -35.109375 Z M 35.921875 -35.109375 "/></g></g></g><g fill="#000000" fill-opacity="1"><g transform="translate(382.136791, 69.960954)"><g><path d="M 10.65625 -38.125 L 15.3125 -38.125 C 14.488281 -36.707031 13.222656 -33.566406 11.515625 -28.703125 C 9.816406 -23.835938 8.265625 -18.945312 6.859375 -14.03125 C 5.460938 -9.113281 4.765625 -6.101562 4.765625 -5 C 4.765625 -3.90625 4.894531 -3.359375 5.15625 -3.359375 C 5.957031 -3.359375 7.210938 -4.570312 8.921875 -7 L 10.125 -5.84375 C 9.28125 -4.394531 8.367188 -3.171875 7.390625 -2.171875 C 5.671875 -0.421875 4.273438 0.453125 3.203125 0.453125 C 1.253906 0.453125 0.28125 -0.71875 0.28125 -3.0625 C 0.28125 -6.5625 1.441406 -12.078125 3.765625 -19.609375 C 6.085938 -27.140625 8.382812 -33.3125 10.65625 -38.125 Z M 10.65625 -38.125 "/></g></g></g><g fill="#000000" fill-opacity="1"><g transform="translate(392.012607, 69.960954)"><g><path d="M 15.84375 -16.6875 L 20.328125 -16.6875 L 18.0625 -8.109375 C 17.695312 -6.910156 17.515625 -5.816406 17.515625 -4.828125 C 17.515625 -3.847656 17.6875 -3.359375 18.03125 -3.359375 C 18.375 -3.359375 18.84375 -3.65625 19.4375 -4.25 C 20.039062 -4.851562 20.554688 -5.460938 20.984375 -6.078125 L 21.640625 -7 L 22.875 -5.84375 C 22.238281 -4.625 21.4375 -3.507812 20.46875 -2.5 C 18.570312 -0.53125 16.925781 0.453125 15.53125 0.453125 C 13.894531 0.453125 13.078125 -0.816406 13.078125 -3.359375 C 13.078125 -3.773438 13.09375 -4.085938 13.125 -4.296875 C 12.84375 -3.328125 12.300781 -2.46875 11.5 -1.71875 C 9.96875 -0.269531 8.238281 0.453125 6.3125 0.453125 C 4.394531 0.453125 2.859375 -0.195312 1.703125 -1.5 C 0.546875 -2.8125 -0.03125 -4.453125 -0.03125 -6.421875 C -0.03125 -9.472656 0.960938 -12.050781 2.953125 -14.15625 C 4.941406 -16.257812 7.273438 -17.3125 9.953125 -17.3125 C 11.285156 -17.3125 12.390625 -16.941406 13.265625 -16.203125 C 14.148438 -15.472656 14.722656 -14.515625 14.984375 -13.328125 Z M 11.0625 -14.84375 C 9.957031 -14.84375 8.921875 -14.378906 7.953125 -13.453125 C 6.984375 -12.523438 6.238281 -11.40625 5.71875 -10.09375 C 5.207031 -8.789062 4.953125 -7.519531 4.953125 -6.28125 C 4.953125 -5.039062 5.222656 -4.035156 5.765625 -3.265625 C 6.316406 -2.503906 7.160156 -2.125 8.296875 -2.125 C 9.429688 -2.125 10.457031 -2.640625 11.375 -3.671875 C 13.113281 -5.660156 13.984375 -8.019531 13.984375 -10.75 C 13.984375 -13.476562 13.007812 -14.84375 11.0625 -14.84375 Z M 11.0625 -14.84375 "/></g></g></g><g fill="#000000" fill-opacity="1"><g transform="translate(414.643426, 69.960954)"><g><path d="M 2.671875 -0.203125 C 1.421875 -0.640625 0.53125 -1.160156 0 -1.765625 C -0.53125 -2.367188 -0.796875 -3.03125 -0.796875 -3.75 C -0.796875 -4.476562 -0.59375 -5.082031 -0.1875 -5.5625 C 0.207031 -6.039062 0.734375 -6.28125 1.390625 -6.28125 C 2.046875 -6.28125 2.625 -6.082031 3.125 -5.6875 C 3.632812 -5.300781 3.890625 -4.75 3.890625 -4.03125 C 3.890625 -3.3125 3.453125 -2.710938 2.578125 -2.234375 C 3.304688 -1.609375 4.414062 -1.296875 5.90625 -1.296875 C 9.132812 -1.296875 10.75 -2.210938 10.75 -4.046875 C 10.75 -5.191406 9.726562 -6.109375 7.6875 -6.796875 C 6.84375 -7.078125 5.992188 -7.378906 5.140625 -7.703125 C 4.296875 -8.035156 3.554688 -8.515625 2.921875 -9.140625 C 2.296875 -9.773438 1.953125 -10.539062 1.890625 -11.4375 C 1.890625 -12.738281 2.320312 -13.835938 3.1875 -14.734375 C 4.8125 -16.453125 7.238281 -17.3125 10.46875 -17.3125 C 12.050781 -17.3125 13.453125 -17.007812 14.671875 -16.40625 C 15.898438 -15.800781 16.515625 -15.019531 16.515625 -14.0625 C 16.515625 -13.113281 16.269531 -12.425781 15.78125 -12 C 15.289062 -11.582031 14.71875 -11.375 14.0625 -11.375 C 13.414062 -11.375 12.867188 -11.550781 12.421875 -11.90625 C 11.972656 -12.257812 11.75 -12.75 11.75 -13.375 C 11.75 -14.007812 12.125 -14.554688 12.875 -15.015625 C 12.414062 -15.335938 11.617188 -15.5 10.484375 -15.5 C 9.359375 -15.5 8.347656 -15.332031 7.453125 -15 C 6.554688 -14.664062 6.109375 -14.210938 6.109375 -13.640625 C 6.109375 -13.066406 6.4375 -12.585938 7.09375 -12.203125 C 7.75 -11.828125 8.546875 -11.472656 9.484375 -11.140625 C 10.421875 -10.816406 11.359375 -10.445312 12.296875 -10.03125 C 13.234375 -9.613281 14.03125 -9.007812 14.6875 -8.21875 C 15.34375 -7.4375 15.671875 -6.472656 15.671875 -5.328125 C 15.671875 -4.179688 15.207031 -3.140625 14.28125 -2.203125 C 12.5 -0.429688 10.070312 0.453125 7 0.453125 C 5.375 0.453125 3.929688 0.234375 2.671875 -0.203125 Z M 2.671875 -0.203125 "/></g></g></g><g fill="#000000" fill-opacity="1"><g transform="translate(431.713665, 69.960954)"><g><path d="M 2.671875 -0.203125 C 1.421875 -0.640625 0.53125 -1.160156 0 -1.765625 C -0.53125 -2.367188 -0.796875 -3.03125 -0.796875 -3.75 C -0.796875 -4.476562 -0.59375 -5.082031 -0.1875 -5.5625 C 0.207031 -6.039062 0.734375 -6.28125 1.390625 -6.28125 C 2.046875 -6.28125 2.625 -6.082031 3.125 -5.6875 C 3.632812 -5.300781 3.890625 -4.75 3.890625 -4.03125 C 3.890625 -3.3125 3.453125 -2.710938 2.578125 -2.234375 C 3.304688 -1.609375 4.414062 -1.296875 5.90625 -1.296875 C 9.132812 -1.296875 10.75 -2.210938 10.75 -4.046875 C 10.75 -5.191406 9.726562 -6.109375 7.6875 -6.796875 C 6.84375 -7.078125 5.992188 -7.378906 5.140625 -7.703125 C 4.296875 -8.035156 3.554688 -8.515625 2.921875 -9.140625 C 2.296875 -9.773438 1.953125 -10.539062 1.890625 -11.4375 C 1.890625 -12.738281 2.320312 -13.835938 3.1875 -14.734375 C 4.8125 -16.453125 7.238281 -17.3125 10.46875 -17.3125 C 12.050781 -17.3125 13.453125 -17.007812 14.671875 -16.40625 C 15.898438 -15.800781 16.515625 -15.019531 16.515625 -14.0625 C 16.515625 -13.113281 16.269531 -12.425781 15.78125 -12 C 15.289062 -11.582031 14.71875 -11.375 14.0625 -11.375 C 13.414062 -11.375 12.867188 -11.550781 12.421875 -11.90625 C 11.972656 -12.257812 11.75 -12.75 11.75 -13.375 C 11.75 -14.007812 12.125 -14.554688 12.875 -15.015625 C 12.414062 -15.335938 11.617188 -15.5 10.484375 -15.5 C 9.359375 -15.5 8.347656 -15.332031 7.453125 -15 C 6.554688 -14.664062 6.109375 -14.210938 6.109375 -13.640625 C 6.109375 -13.066406 6.4375 -12.585938 7.09375 -12.203125 C 7.75 -11.828125 8.546875 -11.472656 9.484375 -11.140625 C 10.421875 -10.816406 11.359375 -10.445312 12.296875 -10.03125 C 13.234375 -9.613281 14.03125 -9.007812 14.6875 -8.21875 C 15.34375 -7.4375 15.671875 -6.472656 15.671875 -5.328125 C 15.671875 -4.179688 15.207031 -3.140625 14.28125 -2.203125 C 12.5 -0.429688 10.070312 0.453125 7 0.453125 C 5.375 0.453125 3.929688 0.234375 2.671875 -0.203125 Z M 2.671875 -0.203125 "/></g></g></g><g fill="#000000" fill-opacity="1"><g transform="translate(35.269672, 118.90581)"><g><path d="M 45.78125 -33.046875 C 45.78125 -37.160156 43.835938 -39.21875 39.953125 -39.21875 C 38.273438 -39.21875 36.820312 -38.695312 35.59375 -37.65625 C 34.375 -36.625 33.429688 -35.296875 32.765625 -33.671875 C 32.097656 -32.054688 31.441406 -30.097656 30.796875 -27.796875 C 30.160156 -25.503906 29.59375 -23.234375 29.09375 -20.984375 C 27.851562 -15.421875 26.09375 -10.785156 23.8125 -7.078125 C 24.5 -6.773438 25.550781 -6.285156 26.96875 -5.609375 C 28.382812 -4.929688 29.523438 -4.398438 30.390625 -4.015625 C 32.796875 -2.921875 34.90625 -2.375 36.71875 -2.375 C 37.519531 -2.375 38.273438 -2.570312 38.984375 -2.96875 C 39.691406 -3.375 40.226562 -3.8125 40.59375 -4.28125 C 40.96875 -4.75 41.296875 -5.179688 41.578125 -5.578125 C 41.859375 -5.984375 42.023438 -6.1875 42.078125 -6.1875 L 43.375 -5.453125 C 41.6875 -2.273438 39.90625 -0.304688 38.03125 0.453125 C 37.195312 0.796875 36.117188 0.96875 34.796875 0.96875 C 33.472656 0.96875 32.023438 0.734375 30.453125 0.265625 C 28.878906 -0.203125 27.113281 -0.875 25.15625 -1.75 C 23.195312 -2.625 21.816406 -3.207031 21.015625 -3.5 C 19.484375 -2.175781 17.523438 -1.097656 15.140625 -0.265625 C 12.765625 0.554688 10.039062 0.96875 6.96875 0.96875 C 5.414062 0.96875 4.007812 0.679688 2.75 0.109375 C 0.363281 -0.992188 -0.828125 -2.394531 -0.828125 -4.09375 C -0.828125 -5.800781 -0.300781 -7.238281 0.75 -8.40625 C 2.75 -10.613281 5.53125 -11.71875 9.09375 -11.71875 C 11.632812 -11.71875 14.316406 -11.191406 17.140625 -10.140625 C 18.171875 -9.742188 19.519531 -9.191406 21.1875 -8.484375 C 22.007812 -10.753906 22.707031 -13.367188 23.28125 -16.328125 C 23.851562 -19.296875 24.382812 -21.75 24.875 -23.6875 C 25.375 -25.625 25.882812 -27.410156 26.40625 -29.046875 C 26.9375 -30.679688 27.625 -32.269531 28.46875 -33.8125 C 29.320312 -35.363281 30.265625 -36.6875 31.296875 -37.78125 C 33.578125 -40.144531 36.539062 -41.328125 40.1875 -41.328125 C 42.957031 -41.328125 45.21875 -40.523438 46.96875 -38.921875 C 48.71875 -37.316406 49.59375 -35.0625 49.59375 -32.15625 C 49.59375 -30 49.15625 -27.898438 48.28125 -25.859375 C 47.414062 -23.828125 46.265625 -22.035156 44.828125 -20.484375 C 43.398438 -18.941406 41.742188 -17.632812 39.859375 -16.5625 C 37.972656 -15.5 36.03125 -14.796875 34.03125 -14.453125 L 33.625 -16.015625 C 35.957031 -16.597656 38.054688 -17.769531 39.921875 -19.53125 C 41.796875 -21.300781 43.238281 -23.375 44.25 -25.75 C 45.269531 -28.132812 45.78125 -30.566406 45.78125 -33.046875 Z M 0.96875 -4.4375 C 0.96875 -2.925781 1.90625 -1.914062 3.78125 -1.40625 C 7.664062 -0.332031 11.523438 -0.664062 15.359375 -2.40625 C 16.796875 -3.070312 17.894531 -3.90625 18.65625 -4.90625 C 14.832031 -7.476562 11.363281 -8.765625 8.25 -8.765625 C 3.394531 -8.765625 0.96875 -7.320312 0.96875 -4.4375 Z M 0.96875 -4.4375 "/></g></g></g><g fill="#000000" fill-opacity="1"><g transform="translate(79.111098, 118.90581)"><g><path d="M 15.84375 -16.6875 L 20.328125 -16.6875 L 18.0625 -8.109375 C 17.695312 -6.910156 17.515625 -5.816406 17.515625 -4.828125 C 17.515625 -3.847656 17.6875 -3.359375 18.03125 -3.359375 C 18.375 -3.359375 18.84375 -3.65625 19.4375 -4.25 C 20.039062 -4.851562 20.554688 -5.460938 20.984375 -6.078125 L 21.640625 -7 L 22.875 -5.84375 C 22.238281 -4.625 21.4375 -3.507812 20.46875 -2.5 C 18.570312 -0.53125 16.925781 0.453125 15.53125 0.453125 C 13.894531 0.453125 13.078125 -0.816406 13.078125 -3.359375 C 13.078125 -3.773438 13.09375 -4.085938 13.125 -4.296875 C 12.84375 -3.328125 12.300781 -2.46875 11.5 -1.71875 C 9.96875 -0.269531 8.238281 0.453125 6.3125 0.453125 C 4.394531 0.453125 2.859375 -0.195312 1.703125 -1.5 C 0.546875 -2.8125 -0.03125 -4.453125 -0.03125 -6.421875 C -0.03125 -9.472656 0.960938 -12.050781 2.953125 -14.15625 C 4.941406 -16.257812 7.273438 -17.3125 9.953125 -17.3125 C 11.285156 -17.3125 12.390625 -16.941406 13.265625 -16.203125 C 14.148438 -15.472656 14.722656 -14.515625 14.984375 -13.328125 Z M 11.0625 -14.84375 C 9.957031 -14.84375 8.921875 -14.378906 7.953125 -13.453125 C 6.984375 -12.523438 6.238281 -11.40625 5.71875 -10.09375 C 5.207031 -8.789062 4.953125 -7.519531 4.953125 -6.28125 C 4.953125 -5.039062 5.222656 -4.035156 5.765625 -3.265625 C 6.316406 -2.503906 7.160156 -2.125 8.296875 -2.125 C 9.429688 -2.125 10.457031 -2.640625 11.375 -3.671875 C 13.113281 -5.660156 13.984375 -8.019531 13.984375 -10.75 C 13.984375 -13.476562 13.007812 -14.84375 11.0625 -14.84375 Z M 11.0625 -14.84375 "/></g></g></g><g fill="#000000" fill-opacity="1"><g transform="translate(101.741929, 118.90581)"><g><path d="M 18.265625 0 L 14.015625 0 L 14.5625 -1.890625 C 14.75 -2.640625 15.09375 -3.726562 15.59375 -5.15625 C 16.695312 -8.269531 17.25 -10.695312 17.25 -12.4375 C 17.25 -13.1875 16.9375 -13.5625 16.3125 -13.5625 C 15.53125 -13.5625 14.609375 -13.097656 13.546875 -12.171875 C 12.484375 -11.242188 11.460938 -10.109375 10.484375 -8.765625 C 8.859375 -6.535156 7.253906 -4.070312 5.671875 -1.375 L 4.875 0 L 0.828125 0 C 0.828125 0 1.125 -0.894531 1.71875 -2.6875 C 3.382812 -7.65625 4.21875 -10.601562 4.21875 -11.53125 C 4.21875 -12.457031 4.0625 -12.921875 3.75 -12.921875 C 3.195312 -12.921875 2.539062 -12.265625 1.78125 -10.953125 C 1.601562 -10.640625 1.457031 -10.394531 1.34375 -10.21875 C 1.226562 -10.039062 1.097656 -9.820312 0.953125 -9.5625 C 0.816406 -9.300781 0.726562 -9.144531 0.6875 -9.09375 L -1.234375 -10.203125 C 0.253906 -12.628906 1.617188 -14.421875 2.859375 -15.578125 C 4.109375 -16.734375 5.378906 -17.3125 6.671875 -17.3125 C 7.265625 -17.3125 7.773438 -17.0625 8.203125 -16.5625 C 8.640625 -16.070312 8.859375 -15.484375 8.859375 -14.796875 C 8.859375 -14.117188 8.816406 -13.515625 8.734375 -12.984375 C 8.660156 -12.460938 8.578125 -11.984375 8.484375 -11.546875 C 8.390625 -11.109375 8.253906 -10.582031 8.078125 -9.96875 C 7.910156 -9.363281 7.773438 -8.894531 7.671875 -8.5625 C 7.566406 -8.238281 7.425781 -7.800781 7.25 -7.25 C 7.082031 -6.695312 6.976562 -6.375 6.9375 -6.28125 C 7.320312 -6.945312 7.941406 -7.945312 8.796875 -9.28125 C 9.660156 -10.625 10.226562 -11.472656 10.5 -11.828125 C 10.78125 -12.179688 11.148438 -12.640625 11.609375 -13.203125 C 12.066406 -13.765625 12.472656 -14.207031 12.828125 -14.53125 C 13.179688 -14.851562 13.601562 -15.210938 14.09375 -15.609375 C 14.59375 -16.015625 15.0625 -16.320312 15.5 -16.53125 C 16.570312 -17.050781 17.65625 -17.3125 18.75 -17.3125 C 19.851562 -17.3125 20.691406 -17 21.265625 -16.375 C 21.835938 -15.757812 22.125 -15.035156 22.125 -14.203125 C 22.125 -13.367188 21.992188 -12.503906 21.734375 -11.609375 C 21.484375 -10.710938 21.128906 -9.664062 20.671875 -8.46875 C 20.210938 -7.269531 19.914062 -6.460938 19.78125 -6.046875 C 21.613281 -9.023438 23.015625 -11.128906 23.984375 -12.359375 C 26.640625 -15.660156 29.269531 -17.3125 31.875 -17.3125 C 33.15625 -17.3125 34.070312 -17.003906 34.625 -16.390625 C 35.175781 -15.785156 35.453125 -14.957031 35.453125 -13.90625 C 35.453125 -12.851562 35.003906 -11.109375 34.109375 -8.671875 C 33.210938 -6.234375 32.765625 -4.738281 32.765625 -4.1875 C 32.765625 -3.632812 32.9375 -3.359375 33.28125 -3.359375 C 34.039062 -3.359375 35.253906 -4.570312 36.921875 -7 L 38.15625 -5.84375 C 37.019531 -3.84375 35.773438 -2.289062 34.421875 -1.1875 C 33.066406 -0.09375 31.90625 0.453125 30.9375 0.453125 C 29.976562 0.453125 29.304688 0.140625 28.921875 -0.484375 C 28.535156 -1.117188 28.34375 -1.867188 28.34375 -2.734375 C 28.34375 -3.609375 28.722656 -5.144531 29.484375 -7.34375 C 30.253906 -9.550781 30.640625 -11.25 30.640625 -12.4375 C 30.640625 -13.1875 30.304688 -13.5625 29.640625 -13.5625 C 27.722656 -13.5625 24.960938 -10.757812 21.359375 -5.15625 C 19.878906 -2.882812 18.847656 -1.164062 18.265625 0 Z M 18.265625 0 "/></g></g></g><g fill="#000000" fill-opacity="1"><g transform="translate(139.650115, 118.90581)"><g><path d="M 19.75 -5.5 C 18.882812 -3.78125 17.664062 -2.359375 16.09375 -1.234375 C 14.519531 -0.109375 12.707031 0.453125 10.65625 0.453125 C 8.613281 0.453125 6.984375 -0.328125 5.765625 -1.890625 C 4.867188 1.640625 4.101562 4.160156 3.46875 5.671875 C 1.476562 10.359375 -1.242188 12.710938 -4.703125 12.734375 C -5.546875 12.734375 -6.253906 12.441406 -6.828125 11.859375 C -7.398438 11.285156 -7.6875 10.625 -7.6875 9.875 C -7.6875 9.125 -7.492188 8.53125 -7.109375 8.09375 C -6.722656 7.664062 -6.210938 7.453125 -5.578125 7.453125 C -4.953125 7.453125 -4.425781 7.597656 -4 7.890625 C -3.582031 8.191406 -3.375 8.648438 -3.375 9.265625 C -3.375 9.890625 -3.710938 10.554688 -4.390625 11.265625 L -4.21875 11.5 C -3.03125 11.5 -1.945312 9.769531 -0.96875 6.3125 C -0.59375 4.914062 -0.316406 3.820312 -0.140625 3.03125 C 0.0234375 2.25 0.128906 1.785156 0.171875 1.640625 L 3.1875 -10.203125 C 2.25 -9.585938 1.050781 -8.40625 -0.40625 -6.65625 L -1.515625 -7.9375 C -0.679688 -9.101562 0.304688 -10.238281 1.453125 -11.34375 C 2.609375 -12.457031 3.335938 -13.164062 3.640625 -13.46875 C 5.128906 -17.882812 6.570312 -21.191406 7.96875 -23.390625 C 9.414062 -25.609375 11.019531 -27.359375 12.78125 -28.640625 L 13.5625 -27.953125 C 12.351562 -26.515625 11.328125 -24.6875 10.484375 -22.46875 C 9.648438 -20.25 9.109375 -18.117188 8.859375 -16.078125 C 10.898438 -16.898438 12.84375 -17.3125 14.6875 -17.3125 C 16.53125 -17.3125 18.050781 -16.726562 19.25 -15.5625 C 20.457031 -14.394531 21.0625 -12.851562 21.0625 -10.9375 C 21.0625 -9.03125 20.625 -7.21875 19.75 -5.5 Z M 8.578125 -13.5 L 6.390625 -3.875 C 6.734375 -3.125 7.304688 -2.554688 8.109375 -2.171875 C 8.910156 -1.796875 9.835938 -1.609375 10.890625 -1.609375 C 11.941406 -1.609375 12.90625 -2.054688 13.78125 -2.953125 C 15.425781 -4.628906 16.25 -6.816406 16.25 -9.515625 C 16.25 -11.921875 15.597656 -13.546875 14.296875 -14.390625 C 13.785156 -14.734375 13.101562 -14.90625 12.25 -14.90625 C 11.40625 -14.90625 10.179688 -14.4375 8.578125 -13.5 Z M 8.578125 -13.5 "/></g></g></g><g fill="#000000" fill-opacity="1"><g transform="translate(161.249079, 118.90581)"><g><path d="M 17.96875 -12.5 L 17.796875 -7.21875 C 17.796875 -3.738281 18.207031 -2 19.03125 -2 C 19.851562 -2 20.773438 -2.585938 21.796875 -3.765625 C 22.816406 -4.941406 23.6875 -6.367188 24.40625 -8.046875 C 25.125 -9.734375 25.484375 -11.253906 25.484375 -12.609375 C 25.296875 -12.453125 24.851562 -12.375 24.15625 -12.375 C 23.457031 -12.375 22.878906 -12.59375 22.421875 -13.03125 C 21.960938 -13.476562 21.734375 -14.035156 21.734375 -14.703125 C 21.734375 -15.367188 21.984375 -15.96875 22.484375 -16.5 C 22.992188 -17.039062 23.753906 -17.3125 24.765625 -17.3125 C 25.773438 -17.3125 26.59375 -16.984375 27.21875 -16.328125 C 27.851562 -15.679688 28.171875 -14.789062 28.171875 -13.65625 C 28.171875 -12.519531 27.925781 -11.15625 27.4375 -9.5625 C 26.957031 -7.976562 26.296875 -6.429688 25.453125 -4.921875 C 24.609375 -3.421875 23.515625 -2.148438 22.171875 -1.109375 C 20.828125 -0.0664062 19.390625 0.453125 17.859375 0.453125 C 16.503906 0.453125 15.539062 -0.328125 14.96875 -1.890625 C 14.488281 -3.191406 14.21875 -4.332031 14.15625 -5.3125 C 14.101562 -6.300781 14.054688 -7.070312 14.015625 -7.625 C 11.398438 -3.613281 9.164062 -1.128906 7.3125 -0.171875 C 6.488281 0.242188 5.65625 0.453125 4.8125 0.453125 C 2.9375 0.453125 2 -0.644531 2 -2.84375 C 2 -4.082031 2.359375 -5.765625 3.078125 -7.890625 C 3.796875 -10.023438 4.15625 -11.390625 4.15625 -11.984375 C 4.15625 -12.578125 3.984375 -12.875 3.640625 -12.875 C 3.117188 -12.875 2.097656 -11.628906 0.578125 -9.140625 L -1.296875 -10.203125 C 1.515625 -14.941406 4.097656 -17.3125 6.453125 -17.3125 C 7.078125 -17.3125 7.625 -17.078125 8.09375 -16.609375 C 8.5625 -16.140625 8.796875 -15.375 8.796875 -14.3125 C 8.796875 -13.257812 8.410156 -11.304688 7.640625 -8.453125 C 6.878906 -5.609375 6.5 -4.097656 6.5 -3.921875 C 6.5 -3.140625 6.75 -2.75 7.25 -2.75 C 7.75 -2.75 8.488281 -3.378906 9.46875 -4.640625 C 10.457031 -5.898438 11.410156 -7.296875 12.328125 -8.828125 C 14.710938 -12.878906 16.316406 -14.90625 17.140625 -14.90625 C 17.691406 -14.90625 17.96875 -14.101562 17.96875 -12.5 Z M 17.96875 -12.5 "/></g></g></g><g fill="#000000" fill-opacity="1"><g transform="translate(189.784481, 118.90581)"><g><path d="M -0.03125 -6.828125 C -0.03125 -8.253906 0.316406 -9.628906 1.015625 -10.953125 C 1.710938 -12.285156 2.613281 -13.410156 3.71875 -14.328125 C 6.164062 -16.316406 8.660156 -17.3125 11.203125 -17.3125 C 13.742188 -17.3125 15.828125 -16.632812 17.453125 -15.28125 C 19.078125 -13.925781 19.890625 -12.226562 19.890625 -10.1875 C 19.890625 -8.15625 19.328125 -6.328125 18.203125 -4.703125 C 17.085938 -3.078125 15.613281 -1.8125 13.78125 -0.90625 C 11.945312 0 9.945312 0.453125 7.78125 0.453125 C 5.613281 0.453125 3.769531 -0.226562 2.25 -1.59375 C 0.726562 -2.957031 -0.03125 -4.703125 -0.03125 -6.828125 Z M 9.34375 -1.3125 C 10.21875 -1.3125 11.039062 -1.597656 11.8125 -2.171875 C 12.59375 -2.742188 13.1875 -3.492188 13.59375 -4.421875 C 14.375 -6.171875 14.765625 -7.984375 14.765625 -9.859375 C 14.765625 -11.734375 14.421875 -13.148438 13.734375 -14.109375 C 13.046875 -15.078125 12.070312 -15.5625 10.8125 -15.5625 C 9.550781 -15.5625 8.300781 -14.738281 7.0625 -13.09375 C 5.832031 -11.457031 5.21875 -9.367188 5.21875 -6.828125 C 5.21875 -3.148438 6.59375 -1.3125 9.34375 -1.3125 Z M 9.34375 -1.3125 "/></g></g></g><g fill="#000000" fill-opacity="1"><g transform="translate(210.236926, 118.90581)"><g><path d="M 15.734375 -13.5625 C 15.003906 -13.5625 14.144531 -13.097656 13.15625 -12.171875 C 12.164062 -11.242188 11.203125 -10.109375 10.265625 -8.765625 C 8.773438 -6.628906 7.253906 -4.164062 5.703125 -1.375 L 4.9375 0 L 0.890625 0 C 0.890625 0 1.1875 -0.894531 1.78125 -2.6875 C 3.4375 -7.65625 4.265625 -10.601562 4.265625 -11.53125 C 4.265625 -12.457031 4.113281 -12.921875 3.8125 -12.921875 C 3.257812 -12.921875 2.597656 -12.265625 1.828125 -10.953125 C 1.660156 -10.640625 1.519531 -10.394531 1.40625 -10.21875 C 1.289062 -10.039062 1.160156 -9.820312 1.015625 -9.5625 C 0.867188 -9.300781 0.78125 -9.144531 0.75 -9.09375 L -1.171875 -10.203125 C 0.316406 -12.628906 1.679688 -14.421875 2.921875 -15.578125 C 4.160156 -16.734375 5.429688 -17.3125 6.734375 -17.3125 C 7.328125 -17.3125 7.835938 -17.0625 8.265625 -16.5625 C 8.703125 -16.070312 8.921875 -15.484375 8.921875 -14.796875 C 8.921875 -14.117188 8.878906 -13.515625 8.796875 -12.984375 C 8.722656 -12.460938 8.640625 -11.984375 8.546875 -11.546875 C 8.453125 -11.109375 8.316406 -10.582031 8.140625 -9.96875 C 7.960938 -9.363281 7.820312 -8.894531 7.71875 -8.5625 C 7.613281 -8.238281 7.472656 -7.800781 7.296875 -7.25 C 7.128906 -6.695312 7.03125 -6.375 7 -6.28125 C 7.34375 -6.96875 7.921875 -7.976562 8.734375 -9.3125 C 9.554688 -10.65625 10.09375 -11.5 10.34375 -11.84375 C 10.59375 -12.1875 10.9375 -12.644531 11.375 -13.21875 C 11.8125 -13.789062 12.195312 -14.234375 12.53125 -14.546875 C 12.875 -14.859375 13.28125 -15.21875 13.75 -15.625 C 14.21875 -16.039062 14.660156 -16.351562 15.078125 -16.5625 C 16.148438 -17.0625 17.179688 -17.3125 18.171875 -17.3125 C 19.160156 -17.3125 19.957031 -17.019531 20.5625 -16.4375 C 21.164062 -15.851562 21.46875 -15.175781 21.46875 -14.40625 C 21.46875 -13.632812 21.222656 -12.957031 20.734375 -12.375 C 20.242188 -11.789062 19.679688 -11.5 19.046875 -11.5 C 18.410156 -11.5 17.910156 -11.609375 17.546875 -11.828125 C 17.179688 -12.046875 16.929688 -12.28125 16.796875 -12.53125 C 16.390625 -13.21875 16.035156 -13.5625 15.734375 -13.5625 Z M 15.734375 -13.5625 "/></g></g></g><g fill="#000000" fill-opacity="1"><g transform="translate(230.374073, 118.90581)"><g><path d="M 7.9375 -30.984375 C 9.289062 -33.910156 11.101562 -36.265625 13.375 -38.046875 C 15.65625 -39.835938 18.078125 -40.734375 20.640625 -40.734375 C 22.148438 -40.734375 23.453125 -40.347656 24.546875 -39.578125 C 25.648438 -38.816406 26.203125 -37.660156 26.203125 -36.109375 C 26.203125 -35.210938 25.898438 -34.515625 25.296875 -34.015625 C 24.691406 -33.523438 23.984375 -33.28125 23.171875 -33.28125 C 22.359375 -33.28125 21.671875 -33.515625 21.109375 -33.984375 C 20.546875 -34.453125 20.265625 -35.035156 20.265625 -35.734375 C 20.265625 -36.441406 20.523438 -37.191406 21.046875 -37.984375 C 20.390625 -38.285156 19.75 -38.4375 19.125 -38.4375 C 18.507812 -38.4375 17.8125 -38.1875 17.03125 -37.6875 C 16.257812 -37.195312 15.550781 -36.539062 14.90625 -35.71875 C 13.757812 -34.257812 12.703125 -32.476562 11.734375 -30.375 C 10.773438 -28.28125 9.253906 -23.207031 7.171875 -15.15625 C 5.097656 -7.113281 4.0625 -2.0625 4.0625 0 L -0.453125 0 C -0.453125 -3.269531 0.46875 -8.207031 2.3125 -14.8125 C 4.15625 -21.425781 6.03125 -26.816406 7.9375 -30.984375 Z M 22.328125 -5.046875 C 21.484375 -3.585938 20.414062 -2.304688 19.125 -1.203125 C 17.84375 -0.0976562 16.566406 0.453125 15.296875 0.453125 C 14.023438 0.453125 13.0625 -0.0859375 12.40625 -1.171875 C 11.757812 -2.265625 11.171875 -3.253906 10.640625 -4.140625 C 10.117188 -5.023438 9.703125 -5.726562 9.390625 -6.25 C 9.078125 -6.78125 8.785156 -7.265625 8.515625 -7.703125 C 8.242188 -8.148438 8.046875 -8.484375 7.921875 -8.703125 C 7.796875 -8.921875 7.675781 -9.113281 7.5625 -9.28125 C 7.445312 -9.5 7.363281 -9.710938 7.3125 -9.921875 L 8.140625 -10.828125 C 13.566406 -16.597656 17.828125 -19.484375 20.921875 -19.484375 C 22.109375 -19.484375 23.019531 -19.195312 23.65625 -18.625 C 24.300781 -18.050781 24.625 -17.410156 24.625 -16.703125 C 24.625 -16.003906 24.398438 -15.378906 23.953125 -14.828125 C 23.503906 -14.285156 22.875 -14.015625 22.0625 -14.015625 C 21.257812 -14.015625 20.644531 -14.203125 20.21875 -14.578125 C 19.789062 -14.960938 19.539062 -15.347656 19.46875 -15.734375 L 19.34375 -16.3125 C 16.425781 -14.726562 13.835938 -12.96875 11.578125 -11.03125 C 11.097656 -10.613281 10.8125 -10.359375 10.71875 -10.265625 C 11.25 -9.878906 13.160156 -7.613281 16.453125 -3.46875 C 16.773438 -3.03125 17.125 -2.8125 17.5 -2.8125 C 17.875 -2.8125 18.316406 -3.050781 18.828125 -3.53125 C 19.347656 -4.007812 20.125 -4.847656 21.15625 -6.046875 Z M 22.328125 -5.046875 "/></g></g></g><g fill="#000000" fill-opacity="1"><g transform="translate(253.234219, 118.90581)"><g/></g></g><g fill="#000000" fill-opacity="1"><g transform="translate(261.504909, 118.90581)"><g><path d="M 43.5625 -39.4375 C 38.007812 -33.6875 35.175781 -27.410156 35.0625 -20.609375 L 40.5 -20.609375 L 40.5 -18.4375 L 34.9375 -18.4375 C 34.75 -14.78125 34.144531 -11.453125 33.125 -8.453125 C 32.101562 -5.453125 30.804688 -2.929688 29.234375 -0.890625 C 27.671875 1.148438 25.859375 2.867188 23.796875 4.265625 C 19.796875 6.941406 15.265625 8.28125 10.203125 8.28125 C 4.316406 8.28125 0.550781 6.242188 -1.09375 2.171875 C -1.570312 1.023438 -1.8125 -0.257812 -1.8125 -1.6875 C -1.8125 -3.125 -1.488281 -4.601562 -0.84375 -6.125 C -0.207031 -7.644531 0.664062 -9.023438 1.78125 -10.265625 C 2.90625 -11.503906 4.320312 -12.507812 6.03125 -13.28125 C 7.738281 -14.0625 9.585938 -14.453125 11.578125 -14.453125 C 11.898438 -14.453125 12.460938 -14.410156 13.265625 -14.328125 C 11.179688 -17.441406 10.140625 -20.648438 10.140625 -23.953125 C 10.140625 -27.265625 10.984375 -30.242188 12.671875 -32.890625 C 14.367188 -35.535156 16.710938 -37.601562 19.703125 -39.09375 C 22.691406 -40.582031 26.039062 -41.328125 29.75 -41.328125 C 31.320312 -41.328125 33.628906 -41.007812 36.671875 -40.375 C 39.722656 -39.75 42.019531 -39.4375 43.5625 -39.4375 Z M 30.015625 -20.609375 C 30.585938 -25.960938 32.90625 -31.023438 36.96875 -35.796875 C 34.050781 -37.023438 30.96875 -37.640625 27.71875 -37.640625 C 23.019531 -37.640625 19.257812 -36.375 16.4375 -33.84375 C 13.613281 -31.320312 12.203125 -28.046875 12.203125 -24.015625 C 12.203125 -20.828125 13.359375 -17.523438 15.671875 -14.109375 L 22.46875 -12.15625 L 21.90625 -10.375 C 20.050781 -11.007812 18.328125 -11.488281 16.734375 -11.8125 C 17.160156 -10.988281 17.984375 -9.671875 19.203125 -7.859375 L 17.25 -7.21875 L 14.28125 -12.15625 C 13.53125 -12.300781 12.535156 -12.375 11.296875 -12.375 C 10.066406 -12.375 8.773438 -12.054688 7.421875 -11.421875 C 6.066406 -10.796875 4.945312 -9.96875 4.0625 -8.9375 C 2.21875 -6.757812 1.296875 -4.429688 1.296875 -1.953125 C 1.296875 0.515625 2.066406 2.519531 3.609375 4.0625 C 5.160156 5.613281 7.359375 6.390625 10.203125 6.390625 C 13.046875 6.390625 15.519531 5.9375 17.625 5.03125 C 19.726562 4.125 21.628906 2.695312 23.328125 0.75 C 26.765625 -3.1875 28.925781 -9.597656 29.8125 -18.484375 L 23.640625 -18.484375 L 23.640625 -20.609375 Z M 30.015625 -20.609375 "/></g></g></g><g fill="#000000" fill-opacity="1"><g transform="translate(297.836638, 118.90581)"><g><path d="M 5.28125 -5.640625 C 5.394531 -3.441406 6.875 -2.34375 9.71875 -2.34375 C 10.769531 -2.34375 11.863281 -2.644531 13 -3.25 C 14.132812 -3.851562 15.054688 -4.566406 15.765625 -5.390625 L 17 -4.59375 C 15.414062 -1.9375 12.882812 -0.3125 9.40625 0.28125 C 8.632812 0.394531 7.894531 0.453125 7.1875 0.453125 C 5.125 0.453125 3.40625 -0.226562 2.03125 -1.59375 C 0.65625 -2.957031 -0.03125 -4.625 -0.03125 -6.59375 C -0.03125 -8.5625 0.566406 -10.378906 1.765625 -12.046875 C 2.972656 -13.722656 4.476562 -15.019531 6.28125 -15.9375 C 8.09375 -16.851562 9.878906 -17.3125 11.640625 -17.3125 C 13.398438 -17.3125 14.921875 -16.910156 16.203125 -16.109375 C 17.492188 -15.304688 18.15625 -14.222656 18.1875 -12.859375 C 18.21875 -11.503906 17.820312 -10.332031 17 -9.34375 C 16.175781 -8.363281 15.132812 -7.617188 13.875 -7.109375 C 11.375 -6.097656 8.914062 -5.59375 6.5 -5.59375 Z M 5.109375 -7.21875 C 7.222656 -7.300781 8.925781 -7.640625 10.21875 -8.234375 C 11.507812 -8.835938 12.40625 -9.523438 12.90625 -10.296875 C 13.414062 -11.078125 13.671875 -11.890625 13.671875 -12.734375 C 13.671875 -13.585938 13.453125 -14.21875 13.015625 -14.625 C 12.578125 -15.039062 12.109375 -15.25 11.609375 -15.25 C 10.390625 -15.25 9.265625 -14.820312 8.234375 -13.96875 C 7.210938 -13.125 6.4375 -12.09375 5.90625 -10.875 C 5.375 -9.664062 5.109375 -8.445312 5.109375 -7.21875 Z M 5.109375 -7.21875 "/></g></g></g><g fill="#000000" fill-opacity="1"><g transform="translate(316.311344, 118.90581)"><g><path d="M 17.96875 -12.5 L 17.796875 -7.21875 C 17.796875 -3.738281 18.207031 -2 19.03125 -2 C 19.851562 -2 20.773438 -2.585938 21.796875 -3.765625 C 22.816406 -4.941406 23.6875 -6.367188 24.40625 -8.046875 C 25.125 -9.734375 25.484375 -11.253906 25.484375 -12.609375 C 25.296875 -12.453125 24.851562 -12.375 24.15625 -12.375 C 23.457031 -12.375 22.878906 -12.59375 22.421875 -13.03125 C 21.960938 -13.476562 21.734375 -14.035156 21.734375 -14.703125 C 21.734375 -15.367188 21.984375 -15.96875 22.484375 -16.5 C 22.992188 -17.039062 23.753906 -17.3125 24.765625 -17.3125 C 25.773438 -17.3125 26.59375 -16.984375 27.21875 -16.328125 C 27.851562 -15.679688 28.171875 -14.789062 28.171875 -13.65625 C 28.171875 -12.519531 27.925781 -11.15625 27.4375 -9.5625 C 26.957031 -7.976562 26.296875 -6.429688 25.453125 -4.921875 C 24.609375 -3.421875 23.515625 -2.148438 22.171875 -1.109375 C 20.828125 -0.0664062 19.390625 0.453125 17.859375 0.453125 C 16.503906 0.453125 15.539062 -0.328125 14.96875 -1.890625 C 14.488281 -3.191406 14.21875 -4.332031 14.15625 -5.3125 C 14.101562 -6.300781 14.054688 -7.070312 14.015625 -7.625 C 11.398438 -3.613281 9.164062 -1.128906 7.3125 -0.171875 C 6.488281 0.242188 5.65625 0.453125 4.8125 0.453125 C 2.9375 0.453125 2 -0.644531 2 -2.84375 C 2 -4.082031 2.359375 -5.765625 3.078125 -7.890625 C 3.796875 -10.023438 4.15625 -11.390625 4.15625 -11.984375 C 4.15625 -12.578125 3.984375 -12.875 3.640625 -12.875 C 3.117188 -12.875 2.097656 -11.628906 0.578125 -9.140625 L -1.296875 -10.203125 C 1.515625 -14.941406 4.097656 -17.3125 6.453125 -17.3125 C 7.078125 -17.3125 7.625 -17.078125 8.09375 -16.609375 C 8.5625 -16.140625 8.796875 -15.375 8.796875 -14.3125 C 8.796875 -13.257812 8.410156 -11.304688 7.640625 -8.453125 C 6.878906 -5.609375 6.5 -4.097656 6.5 -3.921875 C 6.5 -3.140625 6.75 -2.75 7.25 -2.75 C 7.75 -2.75 8.488281 -3.378906 9.46875 -4.640625 C 10.457031 -5.898438 11.410156 -7.296875 12.328125 -8.828125 C 14.710938 -12.878906 16.316406 -14.90625 17.140625 -14.90625 C 17.691406 -14.90625 17.96875 -14.101562 17.96875 -12.5 Z M 17.96875 -12.5 "/></g></g></g><g fill="#000000" fill-opacity="1"><g transform="translate(344.846746, 118.90581)"><g><path d="M 5.28125 -5.640625 C 5.394531 -3.441406 6.875 -2.34375 9.71875 -2.34375 C 10.769531 -2.34375 11.863281 -2.644531 13 -3.25 C 14.132812 -3.851562 15.054688 -4.566406 15.765625 -5.390625 L 17 -4.59375 C 15.414062 -1.9375 12.882812 -0.3125 9.40625 0.28125 C 8.632812 0.394531 7.894531 0.453125 7.1875 0.453125 C 5.125 0.453125 3.40625 -0.226562 2.03125 -1.59375 C 0.65625 -2.957031 -0.03125 -4.625 -0.03125 -6.59375 C -0.03125 -8.5625 0.566406 -10.378906 1.765625 -12.046875 C 2.972656 -13.722656 4.476562 -15.019531 6.28125 -15.9375 C 8.09375 -16.851562 9.878906 -17.3125 11.640625 -17.3125 C 13.398438 -17.3125 14.921875 -16.910156 16.203125 -16.109375 C 17.492188 -15.304688 18.15625 -14.222656 18.1875 -12.859375 C 18.21875 -11.503906 17.820312 -10.332031 17 -9.34375 C 16.175781 -8.363281 15.132812 -7.617188 13.875 -7.109375 C 11.375 -6.097656 8.914062 -5.59375 6.5 -5.59375 Z M 5.109375 -7.21875 C 7.222656 -7.300781 8.925781 -7.640625 10.21875 -8.234375 C 11.507812 -8.835938 12.40625 -9.523438 12.90625 -10.296875 C 13.414062 -11.078125 13.671875 -11.890625 13.671875 -12.734375 C 13.671875 -13.585938 13.453125 -14.21875 13.015625 -14.625 C 12.578125 -15.039062 12.109375 -15.25 11.609375 -15.25 C 10.390625 -15.25 9.265625 -14.820312 8.234375 -13.96875 C 7.210938 -13.125 6.4375 -12.09375 5.90625 -10.875 C 5.375 -9.664062 5.109375 -8.445312 5.109375 -7.21875 Z M 5.109375 -7.21875 "/></g></g></g><g fill="#000000" fill-opacity="1"><g transform="translate(363.321452, 118.90581)"><g><path d="M 10.65625 -38.125 L 15.3125 -38.125 C 14.488281 -36.707031 13.222656 -33.566406 11.515625 -28.703125 C 9.816406 -23.835938 8.265625 -18.945312 6.859375 -14.03125 C 5.460938 -9.113281 4.765625 -6.101562 4.765625 -5 C 4.765625 -3.90625 4.894531 -3.359375 5.15625 -3.359375 C 5.957031 -3.359375 7.210938 -4.570312 8.921875 -7 L 10.125 -5.84375 C 9.28125 -4.394531 8.367188 -3.171875 7.390625 -2.171875 C 5.671875 -0.421875 4.273438 0.453125 3.203125 0.453125 C 1.253906 0.453125 0.28125 -0.71875 0.28125 -3.0625 C 0.28125 -6.5625 1.441406 -12.078125 3.765625 -19.609375 C 6.085938 -27.140625 8.382812 -33.3125 10.65625 -38.125 Z M 10.65625 -38.125 "/></g></g></g><g fill="#000000" fill-opacity="1"><g transform="translate(373.197269, 118.90581)"><g><path d="M 15.734375 -13.5625 C 15.003906 -13.5625 14.144531 -13.097656 13.15625 -12.171875 C 12.164062 -11.242188 11.203125 -10.109375 10.265625 -8.765625 C 8.773438 -6.628906 7.253906 -4.164062 5.703125 -1.375 L 4.9375 0 L 0.890625 0 C 0.890625 0 1.1875 -0.894531 1.78125 -2.6875 C 3.4375 -7.65625 4.265625 -10.601562 4.265625 -11.53125 C 4.265625 -12.457031 4.113281 -12.921875 3.8125 -12.921875 C 3.257812 -12.921875 2.597656 -12.265625 1.828125 -10.953125 C 1.660156 -10.640625 1.519531 -10.394531 1.40625 -10.21875 C 1.289062 -10.039062 1.160156 -9.820312 1.015625 -9.5625 C 0.867188 -9.300781 0.78125 -9.144531 0.75 -9.09375 L -1.171875 -10.203125 C 0.316406 -12.628906 1.679688 -14.421875 2.921875 -15.578125 C 4.160156 -16.734375 5.429688 -17.3125 6.734375 -17.3125 C 7.328125 -17.3125 7.835938 -17.0625 8.265625 -16.5625 C 8.703125 -16.070312 8.921875 -15.484375 8.921875 -14.796875 C 8.921875 -14.117188 8.878906 -13.515625 8.796875 -12.984375 C 8.722656 -12.460938 8.640625 -11.984375 8.546875 -11.546875 C 8.453125 -11.109375 8.316406 -10.582031 8.140625 -9.96875 C 7.960938 -9.363281 7.820312 -8.894531 7.71875 -8.5625 C 7.613281 -8.238281 7.472656 -7.800781 7.296875 -7.25 C 7.128906 -6.695312 7.03125 -6.375 7 -6.28125 C 7.34375 -6.96875 7.921875 -7.976562 8.734375 -9.3125 C 9.554688 -10.65625 10.09375 -11.5 10.34375 -11.84375 C 10.59375 -12.1875 10.9375 -12.644531 11.375 -13.21875 C 11.8125 -13.789062 12.195312 -14.234375 12.53125 -14.546875 C 12.875 -14.859375 13.28125 -15.21875 13.75 -15.625 C 14.21875 -16.039062 14.660156 -16.351562 15.078125 -16.5625 C 16.148438 -17.0625 17.179688 -17.3125 18.171875 -17.3125 C 19.160156 -17.3125 19.957031 -17.019531 20.5625 -16.4375 C 21.164062 -15.851562 21.46875 -15.175781 21.46875 -14.40625 C 21.46875 -13.632812 21.222656 -12.957031 20.734375 -12.375 C 20.242188 -11.789062 19.679688 -11.5 19.046875 -11.5 C 18.410156 -11.5 17.910156 -11.609375 17.546875 -11.828125 C 17.179688 -12.046875 16.929688 -12.28125 16.796875 -12.53125 C 16.390625 -13.21875 16.035156 -13.5625 15.734375 -13.5625 Z M 15.734375 -13.5625 "/></g></g></g><g fill="#000000" fill-opacity="1"><g transform="translate(393.334415, 118.90581)"><g><path d="M 1.34375 -9.921875 L -0.515625 -11.03125 C 0.441406 -12.695312 1.628906 -14.160156 3.046875 -15.421875 C 4.472656 -16.679688 5.75 -17.3125 6.875 -17.3125 C 8.707031 -17.3125 9.625 -16.488281 9.625 -14.84375 C 9.625 -14.15625 9.148438 -12.484375 8.203125 -9.828125 C 7.265625 -7.171875 6.796875 -5.488281 6.796875 -4.78125 C 6.796875 -4.070312 6.84375 -3.617188 6.9375 -3.421875 C 7.03125 -3.222656 7.238281 -3.125 7.5625 -3.125 C 9.300781 -3.125 11.09375 -3.773438 12.9375 -5.078125 C 14.78125 -6.390625 15.976562 -7.84375 16.53125 -9.4375 L 18.546875 -15.28125 C 18.753906 -15.875 19.078125 -16.34375 19.515625 -16.6875 C 19.953125 -17.03125 20.375 -17.203125 20.78125 -17.203125 C 21.195312 -17.203125 21.535156 -17.066406 21.796875 -16.796875 C 22.054688 -16.523438 22.1875 -16.171875 22.1875 -15.734375 C 22.1875 -15.296875 22.097656 -14.835938 21.921875 -14.359375 L 19.75 -8 C 18.539062 -4.25 16.675781 -0.5625 14.15625 3.0625 C 16.351562 3.289062 18.3125 3.6875 20.03125 4.25 L 19.8125 5.84375 C 17.164062 5.3125 14.832031 5 12.8125 4.90625 C 10.957031 7.289062 9.0625 9.191406 7.125 10.609375 C 5.1875 12.035156 3.492188 12.75 2.046875 12.75 C 0.609375 12.75 -0.46875 12.457031 -1.1875 11.875 C -1.90625 11.289062 -2.265625 10.492188 -2.265625 9.484375 C -2.265625 8.472656 -1.878906 7.550781 -1.109375 6.71875 C -0.347656 5.882812 0.671875 5.210938 1.953125 4.703125 C 4.546875 3.628906 7.523438 3.015625 10.890625 2.859375 C 11.160156 2.554688 11.800781 1.484375 12.8125 -0.359375 C 13.820312 -2.203125 14.367188 -3.363281 14.453125 -3.84375 C 11.066406 -0.976562 8.082031 0.453125 5.5 0.453125 C 4.445312 0.453125 3.679688 0.0976562 3.203125 -0.609375 C 2.734375 -1.328125 2.5 -2.210938 2.5 -3.265625 C 2.5 -4.316406 2.894531 -6.117188 3.6875 -8.671875 C 4.476562 -11.222656 4.875 -12.675781 4.875 -13.03125 C 4.875 -13.382812 4.789062 -13.5625 4.625 -13.5625 C 4.46875 -13.5625 4.289062 -13.515625 4.09375 -13.421875 C 3.90625 -13.335938 3.71875 -13.203125 3.53125 -13.015625 C 3.351562 -12.835938 3.1875 -12.664062 3.03125 -12.5 C 2.882812 -12.34375 2.71875 -12.117188 2.53125 -11.828125 C 2.351562 -11.546875 2.21875 -11.328125 2.125 -11.171875 C 1.71875 -10.546875 1.457031 -10.128906 1.34375 -9.921875 Z M 9.625 4.90625 C 8.082031 5 6.507812 5.273438 4.90625 5.734375 C 1.8125 6.609375 0.265625 7.640625 0.265625 8.828125 C 0.265625 9.535156 0.703125 9.890625 1.578125 9.890625 C 2.453125 9.890625 3.882812 9.253906 5.875 7.984375 C 7.863281 6.710938 9.113281 5.6875 9.625 4.90625 Z M 9.625 4.90625 "/></g></g></g></svg>